M48
; DRILL file {KiCad (5.1.12-1-10_14)} date 2022 January 30, Sunday 16:38:15
; FORMAT={-:-/ absolute / metric / decimal}
; #@! TF.CreationDate,2022-01-30T16:38:15+01:00
; #@! TF.GenerationSoftware,Kicad,Pcbnew,(5.1.12-1-10_14)
; #@! TF.FileFunction,Plated,1,2,PTH
FMAT,2
METRIC
T1C0.305
T2C0.500
T3C0.800
T4C1.000
T5C3.200
%
G90
G05
T1
X92.519Y-95.822
X92.583Y-97.663
X92.583Y-99.631
X93.853Y-92.202
X97.409Y-93.281
X106.236Y-74.993
X113.221Y-70.358
X113.411Y-100.965
X115.951Y-111.188
X116.395Y-106.172
X117.221Y-71.31
X118.491Y-79.692
X118.872Y-102.235
X119.761Y-88.9
X119.761Y-91.313
X120.523Y-73.088
X120.523Y-77.851
X122.301Y-73.088
X124.714Y-94.234
X128.588Y-92.773
X135.255Y-90.361
X136.271Y-69.278
X141.605Y-75.755
X143.129Y-82.995
X144.145Y-77.978
X144.145Y-81.216
X145.987Y-103.251
X147.066Y-83.82
X149.415Y-99.695
X149.606Y-70.04
X149.86Y-72.2
X149.987Y-75.755
X150.685Y-90.487
X150.812Y-107.442
X150.939Y-88.9
X151.13Y-78.041
X152.971Y-73.85
X154.813Y-93.599
X159.195Y-91.948
X163.258Y-78.486
X164.084Y-74.993
X168.338Y-74.676
X169.736Y-71.438
X169.989Y-115.951
X171.196Y-100.965
X172.466Y-108.585
X174.498Y-103.505
X174.689Y-71.438
X175.387Y-106.045
X176.276Y-79.883
X193.548Y-87.503
X194.945Y-95.822
X196.278Y-98.425
T2
X89.675Y-73.025
X89.675Y-130.175
X90.378Y-71.328
X90.378Y-74.722
X90.378Y-128.478
X90.378Y-131.872
X92.075Y-70.625
X92.075Y-75.425
X92.075Y-127.775
X92.075Y-132.575
X93.772Y-71.328
X93.772Y-74.722
X93.772Y-128.478
X93.772Y-131.872
X94.475Y-73.025
X94.475Y-130.175
X98.565Y-74.549
X98.565Y-129.032
X99.268Y-72.852
X99.268Y-76.246
X99.268Y-127.335
X99.268Y-130.729
X100.965Y-72.149
X100.965Y-76.949
X100.965Y-126.632
X100.965Y-131.432
X102.662Y-72.852
X102.662Y-76.246
X102.662Y-127.335
X102.662Y-130.729
X103.365Y-74.549
X103.365Y-129.032
X124.6Y-74.549
X124.6Y-129.032
X125.303Y-72.852
X125.303Y-76.246
X125.303Y-127.335
X125.303Y-130.729
X127.0Y-72.149
X127.0Y-76.949
X127.0Y-126.632
X127.0Y-131.432
X128.697Y-72.852
X128.697Y-76.246
X128.697Y-127.335
X128.697Y-130.729
X129.4Y-74.549
X129.4Y-129.032
X156.35Y-74.549
X156.35Y-129.019
X157.053Y-72.852
X157.053Y-76.246
X157.053Y-127.322
X157.053Y-130.716
X158.75Y-72.149
X158.75Y-76.949
X158.75Y-126.619
X158.75Y-131.419
X160.447Y-72.852
X160.447Y-76.246
X160.447Y-127.322
X160.447Y-130.716
X161.15Y-74.549
X161.15Y-129.019
X182.385Y-74.549
X182.385Y-129.032
X183.088Y-72.852
X183.088Y-76.246
X183.088Y-127.335
X183.088Y-130.729
X184.785Y-72.149
X184.785Y-76.949
X184.785Y-126.632
X184.785Y-131.432
X186.482Y-72.852
X186.482Y-76.246
X186.482Y-127.335
X186.482Y-130.729
X187.185Y-74.549
X187.185Y-129.032
X191.275Y-73.025
X191.275Y-130.175
X191.978Y-71.328
X191.978Y-74.722
X191.978Y-128.478
X191.978Y-131.872
X193.675Y-70.625
X193.675Y-75.425
X193.675Y-127.775
X193.675Y-132.575
X195.372Y-71.328
X195.372Y-74.722
X195.372Y-128.478
X195.372Y-131.872
X196.075Y-73.025
X196.075Y-130.175
T3
X97.155Y-95.885
X97.155Y-98.425
X97.155Y-100.965
X97.155Y-103.505
X97.155Y-106.045
X97.155Y-108.585
X97.155Y-111.125
X97.155Y-113.665
X104.775Y-95.885
X104.775Y-98.425
X104.775Y-100.965
X104.775Y-103.505
X104.775Y-106.045
X104.775Y-108.585
X104.775Y-111.125
X104.775Y-113.665
X123.19Y-95.885
X123.19Y-98.425
X123.19Y-100.965
X123.19Y-103.505
X123.19Y-106.045
X123.19Y-108.585
X123.19Y-111.125
X123.19Y-113.665
X130.81Y-95.885
X130.81Y-98.425
X130.81Y-100.965
X130.81Y-103.505
X130.81Y-106.045
X130.81Y-108.585
X130.81Y-111.125
X130.81Y-113.665
X154.94Y-95.885
X154.94Y-98.425
X154.94Y-100.965
X154.94Y-103.505
X154.94Y-106.045
X154.94Y-108.585
X154.94Y-111.125
X154.94Y-113.665
X162.56Y-95.885
X162.56Y-98.425
X162.56Y-100.965
X162.56Y-103.505
X162.56Y-106.045
X162.56Y-108.585
X162.56Y-111.125
X162.56Y-113.665
X180.975Y-95.885
X180.975Y-98.425
X180.975Y-100.965
X180.975Y-103.505
X180.975Y-106.045
X180.975Y-108.585
X180.975Y-111.125
X180.975Y-113.665
X188.595Y-95.885
X188.595Y-98.425
X188.595Y-100.965
X188.595Y-103.505
X188.595Y-106.045
X188.595Y-108.585
X188.595Y-111.125
X188.595Y-113.665
T4
X94.615Y-83.82
X94.615Y-86.36
X97.155Y-83.82
X97.155Y-86.36
X99.695Y-83.82
X99.695Y-86.36
X99.695Y-121.92
X102.235Y-83.82
X102.235Y-86.36
X102.235Y-121.92
X104.775Y-83.82
X104.775Y-86.36
X107.315Y-83.82
X107.315Y-86.36
X120.65Y-83.82
X120.65Y-86.36
X123.19Y-83.82
X123.19Y-86.36
X125.73Y-83.82
X125.73Y-86.36
X125.73Y-121.92
X128.27Y-83.82
X128.27Y-86.36
X128.27Y-121.92
X130.81Y-83.82
X130.81Y-86.36
X133.35Y-83.82
X133.35Y-86.36
X139.065Y-71.12
X139.065Y-73.66
X141.605Y-71.12
X141.605Y-73.66
X141.605Y-129.54
X141.605Y-132.08
X144.145Y-71.12
X144.145Y-73.66
X144.145Y-129.54
X144.145Y-132.08
X146.685Y-71.12
X146.685Y-73.66
X152.4Y-83.82
X152.4Y-86.36
X154.94Y-83.82
X154.94Y-86.36
X157.48Y-83.82
X157.48Y-86.36
X157.48Y-121.92
X160.02Y-83.82
X160.02Y-86.36
X160.02Y-121.92
X162.56Y-83.82
X162.56Y-86.36
X165.1Y-83.82
X165.1Y-86.36
X178.435Y-83.82
X178.435Y-86.36
X180.975Y-83.82
X180.975Y-86.36
X183.515Y-83.82
X183.515Y-86.36
X183.515Y-121.92
X186.055Y-83.82
X186.055Y-86.36
X186.055Y-121.92
X188.595Y-83.82
X188.595Y-86.36
X191.135Y-83.82
X191.135Y-86.36
T5
X92.075Y-73.025
X92.075Y-130.175
X100.965Y-74.549
X100.965Y-129.032
X127.0Y-74.549
X127.0Y-129.032
X158.75Y-74.549
X158.75Y-129.019
X184.785Y-74.549
X184.785Y-129.032
X193.675Y-73.025
X193.675Y-130.175
T0
M30
