G04 #@! TF.GenerationSoftware,KiCad,Pcbnew,(5.1.12-1-10_14)*
G04 #@! TF.CreationDate,2022-01-30T16:38:09+01:00*
G04 #@! TF.ProjectId,NixieDisplayControllerV2,4e697869-6544-4697-9370-6c6179436f6e,rev?*
G04 #@! TF.SameCoordinates,Original*
G04 #@! TF.FileFunction,Legend,Bot*
G04 #@! TF.FilePolarity,Positive*
%FSLAX46Y46*%
G04 Gerber Fmt 4.6, Leading zero omitted, Abs format (unit mm)*
G04 Created by KiCad (PCBNEW (5.1.12-1-10_14)) date 2022-01-30 16:38:09*
%MOMM*%
%LPD*%
G01*
G04 APERTURE LIST*
%ADD10C,0.150000*%
%ADD11C,0.010000*%
%ADD12C,0.120000*%
%ADD13O,1.676400X1.270000*%
%ADD14O,1.676400X1.676400*%
%ADD15C,1.676400*%
%ADD16O,1.700000X1.700000*%
%ADD17R,1.700000X1.700000*%
%ADD18C,0.800000*%
%ADD19C,6.400000*%
%ADD20O,1.600000X1.600000*%
%ADD21R,1.600000X1.600000*%
G04 APERTURE END LIST*
D10*
X150422619Y-127388880D02*
X150422619Y-126388880D01*
X150422619Y-126865071D02*
X149851190Y-126865071D01*
X149851190Y-127388880D02*
X149851190Y-126388880D01*
X149375000Y-127388880D02*
X149375000Y-126722214D01*
X149375000Y-126388880D02*
X149422619Y-126436500D01*
X149375000Y-126484119D01*
X149327380Y-126436500D01*
X149375000Y-126388880D01*
X149375000Y-126484119D01*
X148470238Y-126722214D02*
X148470238Y-127531738D01*
X148517857Y-127626976D01*
X148565476Y-127674595D01*
X148660714Y-127722214D01*
X148803571Y-127722214D01*
X148898809Y-127674595D01*
X148470238Y-127341261D02*
X148565476Y-127388880D01*
X148755952Y-127388880D01*
X148851190Y-127341261D01*
X148898809Y-127293642D01*
X148946428Y-127198404D01*
X148946428Y-126912690D01*
X148898809Y-126817452D01*
X148851190Y-126769833D01*
X148755952Y-126722214D01*
X148565476Y-126722214D01*
X148470238Y-126769833D01*
X147994047Y-127388880D02*
X147994047Y-126388880D01*
X147565476Y-127388880D02*
X147565476Y-126865071D01*
X147613095Y-126769833D01*
X147708333Y-126722214D01*
X147851190Y-126722214D01*
X147946428Y-126769833D01*
X147994047Y-126817452D01*
X146470238Y-126388880D02*
X146136904Y-127388880D01*
X145803571Y-126388880D01*
X145327380Y-127388880D02*
X145422619Y-127341261D01*
X145470238Y-127293642D01*
X145517857Y-127198404D01*
X145517857Y-126912690D01*
X145470238Y-126817452D01*
X145422619Y-126769833D01*
X145327380Y-126722214D01*
X145184523Y-126722214D01*
X145089285Y-126769833D01*
X145041666Y-126817452D01*
X144994047Y-126912690D01*
X144994047Y-127198404D01*
X145041666Y-127293642D01*
X145089285Y-127341261D01*
X145184523Y-127388880D01*
X145327380Y-127388880D01*
X144422619Y-127388880D02*
X144517857Y-127341261D01*
X144565476Y-127246023D01*
X144565476Y-126388880D01*
X144184523Y-126722214D02*
X143803571Y-126722214D01*
X144041666Y-126388880D02*
X144041666Y-127246023D01*
X143994047Y-127341261D01*
X143898809Y-127388880D01*
X143803571Y-127388880D01*
X143041666Y-127388880D02*
X143041666Y-126865071D01*
X143089285Y-126769833D01*
X143184523Y-126722214D01*
X143375000Y-126722214D01*
X143470238Y-126769833D01*
X143041666Y-127341261D02*
X143136904Y-127388880D01*
X143375000Y-127388880D01*
X143470238Y-127341261D01*
X143517857Y-127246023D01*
X143517857Y-127150785D01*
X143470238Y-127055547D01*
X143375000Y-127007928D01*
X143136904Y-127007928D01*
X143041666Y-126960309D01*
X142136904Y-126722214D02*
X142136904Y-127531738D01*
X142184523Y-127626976D01*
X142232142Y-127674595D01*
X142327380Y-127722214D01*
X142470238Y-127722214D01*
X142565476Y-127674595D01*
X142136904Y-127341261D02*
X142232142Y-127388880D01*
X142422619Y-127388880D01*
X142517857Y-127341261D01*
X142565476Y-127293642D01*
X142613095Y-127198404D01*
X142613095Y-126912690D01*
X142565476Y-126817452D01*
X142517857Y-126769833D01*
X142422619Y-126722214D01*
X142232142Y-126722214D01*
X142136904Y-126769833D01*
X141279761Y-127341261D02*
X141375000Y-127388880D01*
X141565476Y-127388880D01*
X141660714Y-127341261D01*
X141708333Y-127246023D01*
X141708333Y-126865071D01*
X141660714Y-126769833D01*
X141565476Y-126722214D01*
X141375000Y-126722214D01*
X141279761Y-126769833D01*
X141232142Y-126865071D01*
X141232142Y-126960309D01*
X141708333Y-127055547D01*
X140041666Y-127388880D02*
X140041666Y-126388880D01*
X140041666Y-126865071D02*
X139470238Y-126865071D01*
X139470238Y-127388880D02*
X139470238Y-126388880D01*
X138613095Y-127341261D02*
X138708333Y-127388880D01*
X138898809Y-127388880D01*
X138994047Y-127341261D01*
X139041666Y-127246023D01*
X139041666Y-126865071D01*
X138994047Y-126769833D01*
X138898809Y-126722214D01*
X138708333Y-126722214D01*
X138613095Y-126769833D01*
X138565476Y-126865071D01*
X138565476Y-126960309D01*
X139041666Y-127055547D01*
X137708333Y-127388880D02*
X137708333Y-126865071D01*
X137755952Y-126769833D01*
X137851190Y-126722214D01*
X138041666Y-126722214D01*
X138136904Y-126769833D01*
X137708333Y-127341261D02*
X137803571Y-127388880D01*
X138041666Y-127388880D01*
X138136904Y-127341261D01*
X138184523Y-127246023D01*
X138184523Y-127150785D01*
X138136904Y-127055547D01*
X138041666Y-127007928D01*
X137803571Y-127007928D01*
X137708333Y-126960309D01*
X136803571Y-127388880D02*
X136803571Y-126388880D01*
X136803571Y-127341261D02*
X136898809Y-127388880D01*
X137089285Y-127388880D01*
X137184523Y-127341261D01*
X137232142Y-127293642D01*
X137279761Y-127198404D01*
X137279761Y-126912690D01*
X137232142Y-126817452D01*
X137184523Y-126769833D01*
X137089285Y-126722214D01*
X136898809Y-126722214D01*
X136803571Y-126769833D01*
X135946428Y-127341261D02*
X136041666Y-127388880D01*
X136232142Y-127388880D01*
X136327380Y-127341261D01*
X136375000Y-127246023D01*
X136375000Y-126865071D01*
X136327380Y-126769833D01*
X136232142Y-126722214D01*
X136041666Y-126722214D01*
X135946428Y-126769833D01*
X135898809Y-126865071D01*
X135898809Y-126960309D01*
X136375000Y-127055547D01*
X135470238Y-127388880D02*
X135470238Y-126722214D01*
X135470238Y-126912690D02*
X135422619Y-126817452D01*
X135375000Y-126769833D01*
X135279761Y-126722214D01*
X135184523Y-126722214D01*
X147303571Y-77096880D02*
X147303571Y-76096880D01*
X147065476Y-76096880D01*
X146922619Y-76144500D01*
X146827380Y-76239738D01*
X146779761Y-76334976D01*
X146732142Y-76525452D01*
X146732142Y-76668309D01*
X146779761Y-76858785D01*
X146827380Y-76954023D01*
X146922619Y-77049261D01*
X147065476Y-77096880D01*
X147303571Y-77096880D01*
X145875000Y-77096880D02*
X145875000Y-76573071D01*
X145922619Y-76477833D01*
X146017857Y-76430214D01*
X146208333Y-76430214D01*
X146303571Y-76477833D01*
X145875000Y-77049261D02*
X145970238Y-77096880D01*
X146208333Y-77096880D01*
X146303571Y-77049261D01*
X146351190Y-76954023D01*
X146351190Y-76858785D01*
X146303571Y-76763547D01*
X146208333Y-76715928D01*
X145970238Y-76715928D01*
X145875000Y-76668309D01*
X145541666Y-76430214D02*
X145160714Y-76430214D01*
X145398809Y-76096880D02*
X145398809Y-76954023D01*
X145351190Y-77049261D01*
X145255952Y-77096880D01*
X145160714Y-77096880D01*
X144398809Y-77096880D02*
X144398809Y-76573071D01*
X144446428Y-76477833D01*
X144541666Y-76430214D01*
X144732142Y-76430214D01*
X144827380Y-76477833D01*
X144398809Y-77049261D02*
X144494047Y-77096880D01*
X144732142Y-77096880D01*
X144827380Y-77049261D01*
X144875000Y-76954023D01*
X144875000Y-76858785D01*
X144827380Y-76763547D01*
X144732142Y-76715928D01*
X144494047Y-76715928D01*
X144398809Y-76668309D01*
X143160714Y-77096880D02*
X143160714Y-76096880D01*
X143160714Y-76573071D02*
X142589285Y-76573071D01*
X142589285Y-77096880D02*
X142589285Y-76096880D01*
X141732142Y-77049261D02*
X141827380Y-77096880D01*
X142017857Y-77096880D01*
X142113095Y-77049261D01*
X142160714Y-76954023D01*
X142160714Y-76573071D01*
X142113095Y-76477833D01*
X142017857Y-76430214D01*
X141827380Y-76430214D01*
X141732142Y-76477833D01*
X141684523Y-76573071D01*
X141684523Y-76668309D01*
X142160714Y-76763547D01*
X140827380Y-77096880D02*
X140827380Y-76573071D01*
X140875000Y-76477833D01*
X140970238Y-76430214D01*
X141160714Y-76430214D01*
X141255952Y-76477833D01*
X140827380Y-77049261D02*
X140922619Y-77096880D01*
X141160714Y-77096880D01*
X141255952Y-77049261D01*
X141303571Y-76954023D01*
X141303571Y-76858785D01*
X141255952Y-76763547D01*
X141160714Y-76715928D01*
X140922619Y-76715928D01*
X140827380Y-76668309D01*
X139922619Y-77096880D02*
X139922619Y-76096880D01*
X139922619Y-77049261D02*
X140017857Y-77096880D01*
X140208333Y-77096880D01*
X140303571Y-77049261D01*
X140351190Y-77001642D01*
X140398809Y-76906404D01*
X140398809Y-76620690D01*
X140351190Y-76525452D01*
X140303571Y-76477833D01*
X140208333Y-76430214D01*
X140017857Y-76430214D01*
X139922619Y-76477833D01*
X139065476Y-77049261D02*
X139160714Y-77096880D01*
X139351190Y-77096880D01*
X139446428Y-77049261D01*
X139494047Y-76954023D01*
X139494047Y-76573071D01*
X139446428Y-76477833D01*
X139351190Y-76430214D01*
X139160714Y-76430214D01*
X139065476Y-76477833D01*
X139017857Y-76573071D01*
X139017857Y-76668309D01*
X139494047Y-76763547D01*
X138589285Y-77096880D02*
X138589285Y-76430214D01*
X138589285Y-76620690D02*
X138541666Y-76525452D01*
X138494047Y-76477833D01*
X138398809Y-76430214D01*
X138303571Y-76430214D01*
D11*
G36*
X139110383Y-97843489D02*
G01*
X138865909Y-97963567D01*
X138876917Y-98581634D01*
X138886028Y-98981338D01*
X138898549Y-99347714D01*
X138914518Y-99681132D01*
X138933975Y-99981963D01*
X138956956Y-100250577D01*
X138983500Y-100487343D01*
X139013646Y-100692634D01*
X139047430Y-100866818D01*
X139084892Y-101010266D01*
X139126070Y-101123348D01*
X139142066Y-101157197D01*
X139177653Y-101216909D01*
X139235306Y-101300236D01*
X139314061Y-101405964D01*
X139412951Y-101532877D01*
X139531013Y-101679761D01*
X139667281Y-101845402D01*
X139820789Y-102028584D01*
X139990574Y-102228093D01*
X140020986Y-102263545D01*
X140205476Y-102478721D01*
X140368985Y-102670183D01*
X140512937Y-102839610D01*
X140638756Y-102988684D01*
X140747868Y-103119086D01*
X140831198Y-103219732D01*
X140893109Y-103295637D01*
X140936058Y-103350790D01*
X140963054Y-103390211D01*
X140977101Y-103418923D01*
X140981206Y-103441950D01*
X140978375Y-103464314D01*
X140978160Y-103465265D01*
X140971523Y-103495698D01*
X140967141Y-103523095D01*
X140964983Y-103553825D01*
X140965016Y-103594257D01*
X140967205Y-103650760D01*
X140971519Y-103729703D01*
X140976367Y-103811438D01*
X140990911Y-104054376D01*
X141069938Y-103976538D01*
X141114867Y-103934241D01*
X141149100Y-103910916D01*
X141185225Y-103900946D01*
X141235833Y-103898715D01*
X141244410Y-103898700D01*
X141339856Y-103898700D01*
X141474229Y-104089200D01*
X141525924Y-104162817D01*
X141572588Y-104229868D01*
X141609680Y-104283787D01*
X141632658Y-104318010D01*
X141635237Y-104322034D01*
X141646065Y-104349094D01*
X141662557Y-104402033D01*
X141682883Y-104473701D01*
X141705209Y-104556950D01*
X141727706Y-104644632D01*
X141748543Y-104729597D01*
X141765887Y-104804698D01*
X141777908Y-104862786D01*
X141782775Y-104896711D01*
X141782801Y-104898082D01*
X141766763Y-104905508D01*
X141722172Y-104911037D01*
X141654314Y-104914173D01*
X141605965Y-104914701D01*
X141429129Y-104914701D01*
X141232755Y-104819190D01*
X141157608Y-104781092D01*
X141093574Y-104745716D01*
X141046940Y-104716744D01*
X141023993Y-104697858D01*
X141023119Y-104696424D01*
X141013235Y-104669352D01*
X140997022Y-104617783D01*
X140976990Y-104549913D01*
X140961624Y-104495600D01*
X140940878Y-104424650D01*
X140922270Y-104367713D01*
X140908126Y-104331525D01*
X140901677Y-104322034D01*
X140892332Y-104337177D01*
X140879726Y-104376598D01*
X140868372Y-104423768D01*
X140860859Y-104457224D01*
X140852012Y-104485556D01*
X140838595Y-104512746D01*
X140817372Y-104542773D01*
X140785107Y-104579617D01*
X140738564Y-104627258D01*
X140674506Y-104689678D01*
X140589698Y-104770855D01*
X140573958Y-104785878D01*
X140301134Y-105046254D01*
X140154522Y-105706606D01*
X140166899Y-106245371D01*
X140179275Y-106784137D01*
X140540764Y-107158894D01*
X140902254Y-107533650D01*
X141225143Y-107572048D01*
X141326017Y-107583453D01*
X141415126Y-107592404D01*
X141487114Y-107598455D01*
X141536623Y-107601161D01*
X141558297Y-107600074D01*
X141558653Y-107599826D01*
X141552372Y-107583910D01*
X141526750Y-107549938D01*
X141486436Y-107503763D01*
X141459784Y-107475387D01*
X141388307Y-107401380D01*
X141335966Y-107345618D01*
X141299291Y-107301126D01*
X141274811Y-107260933D01*
X141259058Y-107218065D01*
X141248562Y-107165549D01*
X141239852Y-107096410D01*
X141230782Y-107015171D01*
X141219847Y-106914806D01*
X141213372Y-106836275D01*
X141211367Y-106768319D01*
X141213843Y-106699683D01*
X141220808Y-106619110D01*
X141231207Y-106524608D01*
X141244047Y-106420637D01*
X141255665Y-106345802D01*
X141267051Y-106295442D01*
X141279198Y-106264899D01*
X141289120Y-106252434D01*
X141309692Y-106235215D01*
X141352678Y-106199555D01*
X141414347Y-106148538D01*
X141490968Y-106085247D01*
X141578809Y-106012768D01*
X141674139Y-105934185D01*
X141675407Y-105933140D01*
X142032100Y-105639247D01*
X142310004Y-104719967D01*
X142063336Y-104128712D01*
X142008165Y-103996074D01*
X141957532Y-103873577D01*
X141912831Y-103764653D01*
X141875455Y-103672736D01*
X141846801Y-103601257D01*
X141828263Y-103553649D01*
X141821234Y-103533345D01*
X141821251Y-103532872D01*
X141830348Y-103545875D01*
X141853931Y-103584786D01*
X141889923Y-103645973D01*
X141936247Y-103725803D01*
X141990823Y-103820645D01*
X142051575Y-103926866D01*
X142116426Y-104040835D01*
X142183296Y-104158920D01*
X142250109Y-104277489D01*
X142314787Y-104392910D01*
X142370480Y-104492944D01*
X142460582Y-104655388D01*
X142355351Y-105141690D01*
X142250121Y-105627991D01*
X142105361Y-105748995D01*
X142046410Y-105798485D01*
X141997420Y-105840014D01*
X141964032Y-105868775D01*
X141952134Y-105879589D01*
X141937202Y-105892959D01*
X141900375Y-105924776D01*
X141845633Y-105971637D01*
X141776956Y-106030137D01*
X141698322Y-106096873D01*
X141677178Y-106114780D01*
X141587431Y-106190572D01*
X141519313Y-106249337D01*
X141469204Y-106296618D01*
X141433483Y-106337960D01*
X141408530Y-106378906D01*
X141390726Y-106425001D01*
X141376450Y-106481788D01*
X141362083Y-106554811D01*
X141350784Y-106614634D01*
X141339796Y-106674264D01*
X141333080Y-106722216D01*
X141330854Y-106766705D01*
X141333336Y-106815948D01*
X141340746Y-106878160D01*
X141353303Y-106961557D01*
X141361389Y-107012567D01*
X141400794Y-107259967D01*
X141612964Y-107542023D01*
X141687481Y-107640576D01*
X141746793Y-107716319D01*
X141795943Y-107773594D01*
X141839971Y-107816738D01*
X141883921Y-107850092D01*
X141932834Y-107877994D01*
X141991753Y-107904784D01*
X142065719Y-107934802D01*
X142072477Y-107937488D01*
X142167421Y-107975218D01*
X142550844Y-107830506D01*
X142934267Y-107685795D01*
X142934267Y-107123598D01*
X142726834Y-106972462D01*
X142606368Y-106880775D01*
X142506100Y-106796334D01*
X142429017Y-106721858D01*
X142378107Y-106660066D01*
X142370495Y-106648073D01*
X142380287Y-106649366D01*
X142415241Y-106665775D01*
X142471365Y-106695186D01*
X142544668Y-106735481D01*
X142631156Y-106784545D01*
X142666829Y-106805153D01*
X142759805Y-106858661D01*
X142843397Y-106905890D01*
X142913014Y-106944318D01*
X142964068Y-106971423D01*
X142991969Y-106984684D01*
X142995237Y-106985591D01*
X143014441Y-106977752D01*
X143057839Y-106955765D01*
X143120323Y-106922462D01*
X143196786Y-106880677D01*
X143282121Y-106833245D01*
X143371220Y-106782998D01*
X143458977Y-106732771D01*
X143540283Y-106685397D01*
X143594667Y-106653016D01*
X143653934Y-106617284D01*
X143596161Y-106690522D01*
X143543115Y-106749937D01*
X143470932Y-106817101D01*
X143376566Y-106894595D01*
X143256972Y-106984999D01*
X143199067Y-107027022D01*
X143051961Y-107132744D01*
X143061267Y-107683048D01*
X143450734Y-107830965D01*
X143557999Y-107871665D01*
X143653958Y-107908000D01*
X143734341Y-107938359D01*
X143794874Y-107961131D01*
X143831287Y-107974705D01*
X143840200Y-107977877D01*
X143854016Y-107971352D01*
X143888318Y-107956406D01*
X143899467Y-107951642D01*
X143987973Y-107913875D01*
X144056593Y-107882911D01*
X144110852Y-107854180D01*
X144156274Y-107823110D01*
X144198387Y-107785130D01*
X144242714Y-107735670D01*
X144294782Y-107670158D01*
X144360115Y-107584023D01*
X144387056Y-107548267D01*
X144595245Y-107272133D01*
X144680593Y-106768901D01*
X144642027Y-106565701D01*
X144631894Y-106509597D01*
X144623434Y-106463808D01*
X144614084Y-106425242D01*
X144601284Y-106390808D01*
X144582473Y-106357414D01*
X144555089Y-106321968D01*
X144516571Y-106281379D01*
X144464358Y-106232556D01*
X144395890Y-106172406D01*
X144308604Y-106097838D01*
X144199939Y-106005761D01*
X144126598Y-105943531D01*
X143753168Y-105626162D01*
X143656984Y-105154959D01*
X143632136Y-105032519D01*
X143609670Y-104920458D01*
X143590450Y-104823190D01*
X143575338Y-104745130D01*
X143565197Y-104690691D01*
X143560890Y-104664289D01*
X143560800Y-104662946D01*
X143568746Y-104643164D01*
X143591154Y-104597921D01*
X143625880Y-104531273D01*
X143670779Y-104447274D01*
X143723709Y-104349979D01*
X143782525Y-104243443D01*
X143784003Y-104240785D01*
X143848964Y-104123930D01*
X143913857Y-104007113D01*
X143975242Y-103896533D01*
X144029679Y-103798387D01*
X144073730Y-103718874D01*
X144098358Y-103674334D01*
X144135253Y-103608277D01*
X144165932Y-103554801D01*
X144186913Y-103519878D01*
X144194574Y-103509234D01*
X144189551Y-103524339D01*
X144173057Y-103567387D01*
X144146447Y-103634980D01*
X144111078Y-103723717D01*
X144068306Y-103830198D01*
X144019486Y-103951024D01*
X143965976Y-104082795D01*
X143956472Y-104106134D01*
X143901959Y-104240521D01*
X143851705Y-104365514D01*
X143807112Y-104477544D01*
X143769581Y-104573038D01*
X143740516Y-104648427D01*
X143721316Y-104700140D01*
X143713385Y-104724605D01*
X143713253Y-104725666D01*
X143717774Y-104747385D01*
X143730549Y-104797147D01*
X143750353Y-104870479D01*
X143775960Y-104962910D01*
X143806146Y-105069970D01*
X143839686Y-105187186D01*
X143840200Y-105188973D01*
X143873642Y-105305147D01*
X143903785Y-105410128D01*
X143929422Y-105499683D01*
X143949341Y-105569578D01*
X143962335Y-105615578D01*
X143967193Y-105633449D01*
X143967200Y-105633521D01*
X143979747Y-105644834D01*
X144015240Y-105674966D01*
X144070463Y-105721231D01*
X144142196Y-105780947D01*
X144227221Y-105851429D01*
X144322321Y-105929993D01*
X144354725Y-105956706D01*
X144742249Y-106276020D01*
X144770949Y-106523116D01*
X144782186Y-106624352D01*
X144788922Y-106703211D01*
X144791172Y-106770878D01*
X144788949Y-106838539D01*
X144782266Y-106917382D01*
X144771539Y-107015089D01*
X144759171Y-107116446D01*
X144747733Y-107190432D01*
X144735374Y-107243425D01*
X144720244Y-107281808D01*
X144700490Y-107311960D01*
X144678400Y-107336167D01*
X144614482Y-107401516D01*
X144555335Y-107464581D01*
X144505088Y-107520670D01*
X144467872Y-107565092D01*
X144447817Y-107593158D01*
X144445851Y-107600329D01*
X144465045Y-107601560D01*
X144512496Y-107598987D01*
X144582864Y-107593063D01*
X144670810Y-107584243D01*
X144770991Y-107572979D01*
X144779536Y-107571967D01*
X145103103Y-107533489D01*
X145163890Y-107464461D01*
X145192846Y-107433072D01*
X145241556Y-107381946D01*
X145305884Y-107315354D01*
X145381693Y-107237563D01*
X145464846Y-107152841D01*
X145522314Y-107094623D01*
X145819950Y-106793812D01*
X145834787Y-106256423D01*
X145849623Y-105719034D01*
X145777266Y-105388834D01*
X145704908Y-105058634D01*
X145593688Y-104948567D01*
X145536200Y-104892024D01*
X145463881Y-104821402D01*
X145386342Y-104746062D01*
X145318965Y-104680931D01*
X145251196Y-104614662D01*
X145203968Y-104565158D01*
X145172767Y-104526398D01*
X145153079Y-104492360D01*
X145140390Y-104457024D01*
X145134885Y-104435397D01*
X145121260Y-104381731D01*
X145108882Y-104340535D01*
X145103533Y-104327015D01*
X145095264Y-104334354D01*
X145080381Y-104369030D01*
X145060894Y-104425632D01*
X145038809Y-104498745D01*
X145035590Y-104510116D01*
X144978421Y-104713635D01*
X144577321Y-104914701D01*
X144399261Y-104914701D01*
X144315711Y-104913125D01*
X144256371Y-104908647D01*
X144225104Y-104901643D01*
X144221200Y-104897447D01*
X144224794Y-104875778D01*
X144234717Y-104827125D01*
X144249687Y-104757501D01*
X144268419Y-104672923D01*
X144281211Y-104616267D01*
X144341222Y-104352342D01*
X144497827Y-104129754D01*
X144654432Y-103907167D01*
X144743222Y-103902028D01*
X144795058Y-103900978D01*
X144832094Y-103908628D01*
X144867815Y-103930112D01*
X144909990Y-103965528D01*
X144952915Y-104001695D01*
X144985941Y-104026564D01*
X145000123Y-104034167D01*
X145006687Y-104018358D01*
X145013159Y-103975423D01*
X145019216Y-103912103D01*
X145024535Y-103835139D01*
X145028793Y-103751271D01*
X145031668Y-103667240D01*
X145032836Y-103589786D01*
X145031976Y-103525650D01*
X145028764Y-103481572D01*
X145027032Y-103472161D01*
X145011596Y-103409688D01*
X145343883Y-103014961D01*
X145445062Y-102894921D01*
X145561419Y-102757126D01*
X145686167Y-102609598D01*
X145812518Y-102460360D01*
X145933684Y-102317432D01*
X146042879Y-102188838D01*
X146043222Y-102188434D01*
X146204324Y-101998276D01*
X146344319Y-101831573D01*
X146464633Y-101686497D01*
X146566691Y-101561218D01*
X146651920Y-101453910D01*
X146721745Y-101362743D01*
X146777593Y-101285889D01*
X146820888Y-101221521D01*
X146853058Y-101167810D01*
X146875528Y-101122927D01*
X146877172Y-101119143D01*
X146918377Y-101002376D01*
X146956294Y-100852069D01*
X146990898Y-100668390D01*
X147022162Y-100451509D01*
X147050059Y-100201593D01*
X147074563Y-99918813D01*
X147083114Y-99800834D01*
X147087809Y-99721456D01*
X147092660Y-99619111D01*
X147097571Y-99497793D01*
X147102447Y-99361494D01*
X147107192Y-99214210D01*
X147111711Y-99059933D01*
X147115909Y-98902658D01*
X147119690Y-98746378D01*
X147122958Y-98595087D01*
X147125618Y-98452778D01*
X147127574Y-98323446D01*
X147128731Y-98211085D01*
X147128994Y-98119687D01*
X147128268Y-98053247D01*
X147126455Y-98015758D01*
X147125887Y-98011716D01*
X147120061Y-97988293D01*
X147109282Y-97968620D01*
X147088717Y-97949273D01*
X147053534Y-97926824D01*
X146998902Y-97897847D01*
X146919987Y-97858919D01*
X146889502Y-97844132D01*
X146807520Y-97805510D01*
X146734353Y-97773048D01*
X146676292Y-97749387D01*
X146639625Y-97737166D01*
X146632206Y-97736077D01*
X146606284Y-97744024D01*
X146556827Y-97765099D01*
X146490137Y-97796412D01*
X146412520Y-97835074D01*
X146382842Y-97850377D01*
X146165350Y-97963567D01*
X145497125Y-99292066D01*
X144828899Y-100620565D01*
X144923079Y-101366399D01*
X144942666Y-101521995D01*
X144960870Y-101667534D01*
X144977262Y-101799510D01*
X144991411Y-101914421D01*
X145002887Y-102008762D01*
X145011262Y-102079029D01*
X145016104Y-102121718D01*
X145017163Y-102133401D01*
X145026359Y-102148131D01*
X145056429Y-102153328D01*
X145110834Y-102148901D01*
X145193031Y-102134759D01*
X145227242Y-102127862D01*
X145290898Y-102115880D01*
X145342284Y-102108384D01*
X145371944Y-102106701D01*
X145374411Y-102107171D01*
X145367325Y-102119480D01*
X145337874Y-102150913D01*
X145289268Y-102198392D01*
X145224719Y-102258840D01*
X145147436Y-102329178D01*
X145081992Y-102387504D01*
X144771534Y-102661824D01*
X144759554Y-102598696D01*
X144756251Y-102570301D01*
X144751072Y-102511395D01*
X144744254Y-102425268D01*
X144736035Y-102315211D01*
X144726652Y-102184514D01*
X144716343Y-102036466D01*
X144705346Y-101874357D01*
X144693898Y-101701478D01*
X144686340Y-101585071D01*
X144625105Y-100634575D01*
X145077691Y-99807071D01*
X145171556Y-99635452D01*
X145268234Y-99458698D01*
X145365058Y-99281681D01*
X145459367Y-99109269D01*
X145548494Y-98946335D01*
X145629777Y-98797747D01*
X145700551Y-98668377D01*
X145758151Y-98563094D01*
X145765730Y-98549243D01*
X145827377Y-98436425D01*
X145884832Y-98330996D01*
X145935756Y-98237269D01*
X145977811Y-98159560D01*
X146008656Y-98102182D01*
X146025954Y-98069449D01*
X146027380Y-98066643D01*
X146035412Y-98051127D01*
X146041786Y-98038641D01*
X146044534Y-98031174D01*
X146041684Y-98030713D01*
X146031268Y-98039246D01*
X146011316Y-98058762D01*
X145979856Y-98091247D01*
X145934920Y-98138689D01*
X145874538Y-98203078D01*
X145796739Y-98286399D01*
X145699554Y-98390641D01*
X145592537Y-98505434D01*
X145486368Y-98619230D01*
X145376224Y-98737182D01*
X145267158Y-98853887D01*
X145164223Y-98963940D01*
X145072473Y-99061937D01*
X144996959Y-99142474D01*
X144975022Y-99165834D01*
X144880702Y-99266373D01*
X144805230Y-99347475D01*
X144744175Y-99414298D01*
X144693106Y-99472005D01*
X144647595Y-99525756D01*
X144603210Y-99580711D01*
X144555521Y-99642031D01*
X144500098Y-99714877D01*
X144473821Y-99749657D01*
X144444811Y-99788394D01*
X144417593Y-99825757D01*
X144391077Y-99863775D01*
X144364173Y-99904480D01*
X144335791Y-99949902D01*
X144304840Y-100002070D01*
X144270231Y-100063016D01*
X144230874Y-100134770D01*
X144185679Y-100219362D01*
X144133555Y-100318822D01*
X144073413Y-100435180D01*
X144004163Y-100570468D01*
X143924715Y-100726715D01*
X143833978Y-100905952D01*
X143730862Y-101110209D01*
X143614278Y-101341516D01*
X143539523Y-101489934D01*
X143298610Y-101968301D01*
X143002139Y-101968242D01*
X142705667Y-101968184D01*
X142519401Y-101599752D01*
X142390331Y-101344436D01*
X142275544Y-101117409D01*
X142174005Y-100916753D01*
X142084685Y-100740550D01*
X142006551Y-100586881D01*
X141938571Y-100453828D01*
X141879714Y-100339474D01*
X141828949Y-100241900D01*
X141785243Y-100159187D01*
X141747564Y-100089419D01*
X141714882Y-100030676D01*
X141686165Y-99981041D01*
X141660380Y-99938596D01*
X141636497Y-99901421D01*
X141613483Y-99867600D01*
X141590308Y-99835214D01*
X141565938Y-99802345D01*
X141539343Y-99767074D01*
X141519726Y-99741092D01*
X141473057Y-99680244D01*
X141423264Y-99617741D01*
X141368191Y-99551169D01*
X141305680Y-99478118D01*
X141233574Y-99396175D01*
X141149717Y-99302928D01*
X141051951Y-99195965D01*
X140938118Y-99072874D01*
X140806063Y-98931244D01*
X140653627Y-98768661D01*
X140580534Y-98690919D01*
X140506807Y-98612331D01*
X140418653Y-98518014D01*
X140324614Y-98417125D01*
X140233229Y-98318824D01*
X140182600Y-98264220D01*
X140114067Y-98190623D01*
X140053796Y-98126687D01*
X140005377Y-98076154D01*
X139972400Y-98042765D01*
X139958453Y-98030265D01*
X139958264Y-98030282D01*
X139965575Y-98045347D01*
X139988014Y-98087975D01*
X140024423Y-98156032D01*
X140073646Y-98247385D01*
X140134525Y-98359902D01*
X140205903Y-98491450D01*
X140286624Y-98639896D01*
X140375530Y-98803108D01*
X140471465Y-98978953D01*
X140573270Y-99165298D01*
X140665486Y-99333878D01*
X141376911Y-100633694D01*
X141310151Y-101641258D01*
X141298036Y-101822551D01*
X141286410Y-101993592D01*
X141275485Y-102151425D01*
X141265475Y-102293095D01*
X141256595Y-102415645D01*
X141249060Y-102516120D01*
X141243082Y-102591565D01*
X141238875Y-102639022D01*
X141236697Y-102655516D01*
X141220903Y-102650677D01*
X141197368Y-102632641D01*
X141175466Y-102613033D01*
X141132378Y-102574655D01*
X141072260Y-102521202D01*
X140999270Y-102456369D01*
X140917563Y-102383850D01*
X140881101Y-102351505D01*
X140799323Y-102278788D01*
X140726779Y-102213929D01*
X140667061Y-102160169D01*
X140623764Y-102120751D01*
X140600481Y-102098916D01*
X140597467Y-102095614D01*
X140612786Y-102096907D01*
X140653804Y-102104002D01*
X140713113Y-102115569D01*
X140745634Y-102122261D01*
X140817780Y-102136420D01*
X140881831Y-102147350D01*
X140927226Y-102153307D01*
X140937053Y-102153900D01*
X140980305Y-102154567D01*
X141075972Y-101390963D01*
X141171638Y-100627358D01*
X140505340Y-99295463D01*
X139839043Y-97963567D01*
X139596950Y-97843489D01*
X139354858Y-97723411D01*
X139110383Y-97843489D01*
G37*
X139110383Y-97843489D02*
X138865909Y-97963567D01*
X138876917Y-98581634D01*
X138886028Y-98981338D01*
X138898549Y-99347714D01*
X138914518Y-99681132D01*
X138933975Y-99981963D01*
X138956956Y-100250577D01*
X138983500Y-100487343D01*
X139013646Y-100692634D01*
X139047430Y-100866818D01*
X139084892Y-101010266D01*
X139126070Y-101123348D01*
X139142066Y-101157197D01*
X139177653Y-101216909D01*
X139235306Y-101300236D01*
X139314061Y-101405964D01*
X139412951Y-101532877D01*
X139531013Y-101679761D01*
X139667281Y-101845402D01*
X139820789Y-102028584D01*
X139990574Y-102228093D01*
X140020986Y-102263545D01*
X140205476Y-102478721D01*
X140368985Y-102670183D01*
X140512937Y-102839610D01*
X140638756Y-102988684D01*
X140747868Y-103119086D01*
X140831198Y-103219732D01*
X140893109Y-103295637D01*
X140936058Y-103350790D01*
X140963054Y-103390211D01*
X140977101Y-103418923D01*
X140981206Y-103441950D01*
X140978375Y-103464314D01*
X140978160Y-103465265D01*
X140971523Y-103495698D01*
X140967141Y-103523095D01*
X140964983Y-103553825D01*
X140965016Y-103594257D01*
X140967205Y-103650760D01*
X140971519Y-103729703D01*
X140976367Y-103811438D01*
X140990911Y-104054376D01*
X141069938Y-103976538D01*
X141114867Y-103934241D01*
X141149100Y-103910916D01*
X141185225Y-103900946D01*
X141235833Y-103898715D01*
X141244410Y-103898700D01*
X141339856Y-103898700D01*
X141474229Y-104089200D01*
X141525924Y-104162817D01*
X141572588Y-104229868D01*
X141609680Y-104283787D01*
X141632658Y-104318010D01*
X141635237Y-104322034D01*
X141646065Y-104349094D01*
X141662557Y-104402033D01*
X141682883Y-104473701D01*
X141705209Y-104556950D01*
X141727706Y-104644632D01*
X141748543Y-104729597D01*
X141765887Y-104804698D01*
X141777908Y-104862786D01*
X141782775Y-104896711D01*
X141782801Y-104898082D01*
X141766763Y-104905508D01*
X141722172Y-104911037D01*
X141654314Y-104914173D01*
X141605965Y-104914701D01*
X141429129Y-104914701D01*
X141232755Y-104819190D01*
X141157608Y-104781092D01*
X141093574Y-104745716D01*
X141046940Y-104716744D01*
X141023993Y-104697858D01*
X141023119Y-104696424D01*
X141013235Y-104669352D01*
X140997022Y-104617783D01*
X140976990Y-104549913D01*
X140961624Y-104495600D01*
X140940878Y-104424650D01*
X140922270Y-104367713D01*
X140908126Y-104331525D01*
X140901677Y-104322034D01*
X140892332Y-104337177D01*
X140879726Y-104376598D01*
X140868372Y-104423768D01*
X140860859Y-104457224D01*
X140852012Y-104485556D01*
X140838595Y-104512746D01*
X140817372Y-104542773D01*
X140785107Y-104579617D01*
X140738564Y-104627258D01*
X140674506Y-104689678D01*
X140589698Y-104770855D01*
X140573958Y-104785878D01*
X140301134Y-105046254D01*
X140154522Y-105706606D01*
X140166899Y-106245371D01*
X140179275Y-106784137D01*
X140540764Y-107158894D01*
X140902254Y-107533650D01*
X141225143Y-107572048D01*
X141326017Y-107583453D01*
X141415126Y-107592404D01*
X141487114Y-107598455D01*
X141536623Y-107601161D01*
X141558297Y-107600074D01*
X141558653Y-107599826D01*
X141552372Y-107583910D01*
X141526750Y-107549938D01*
X141486436Y-107503763D01*
X141459784Y-107475387D01*
X141388307Y-107401380D01*
X141335966Y-107345618D01*
X141299291Y-107301126D01*
X141274811Y-107260933D01*
X141259058Y-107218065D01*
X141248562Y-107165549D01*
X141239852Y-107096410D01*
X141230782Y-107015171D01*
X141219847Y-106914806D01*
X141213372Y-106836275D01*
X141211367Y-106768319D01*
X141213843Y-106699683D01*
X141220808Y-106619110D01*
X141231207Y-106524608D01*
X141244047Y-106420637D01*
X141255665Y-106345802D01*
X141267051Y-106295442D01*
X141279198Y-106264899D01*
X141289120Y-106252434D01*
X141309692Y-106235215D01*
X141352678Y-106199555D01*
X141414347Y-106148538D01*
X141490968Y-106085247D01*
X141578809Y-106012768D01*
X141674139Y-105934185D01*
X141675407Y-105933140D01*
X142032100Y-105639247D01*
X142310004Y-104719967D01*
X142063336Y-104128712D01*
X142008165Y-103996074D01*
X141957532Y-103873577D01*
X141912831Y-103764653D01*
X141875455Y-103672736D01*
X141846801Y-103601257D01*
X141828263Y-103553649D01*
X141821234Y-103533345D01*
X141821251Y-103532872D01*
X141830348Y-103545875D01*
X141853931Y-103584786D01*
X141889923Y-103645973D01*
X141936247Y-103725803D01*
X141990823Y-103820645D01*
X142051575Y-103926866D01*
X142116426Y-104040835D01*
X142183296Y-104158920D01*
X142250109Y-104277489D01*
X142314787Y-104392910D01*
X142370480Y-104492944D01*
X142460582Y-104655388D01*
X142355351Y-105141690D01*
X142250121Y-105627991D01*
X142105361Y-105748995D01*
X142046410Y-105798485D01*
X141997420Y-105840014D01*
X141964032Y-105868775D01*
X141952134Y-105879589D01*
X141937202Y-105892959D01*
X141900375Y-105924776D01*
X141845633Y-105971637D01*
X141776956Y-106030137D01*
X141698322Y-106096873D01*
X141677178Y-106114780D01*
X141587431Y-106190572D01*
X141519313Y-106249337D01*
X141469204Y-106296618D01*
X141433483Y-106337960D01*
X141408530Y-106378906D01*
X141390726Y-106425001D01*
X141376450Y-106481788D01*
X141362083Y-106554811D01*
X141350784Y-106614634D01*
X141339796Y-106674264D01*
X141333080Y-106722216D01*
X141330854Y-106766705D01*
X141333336Y-106815948D01*
X141340746Y-106878160D01*
X141353303Y-106961557D01*
X141361389Y-107012567D01*
X141400794Y-107259967D01*
X141612964Y-107542023D01*
X141687481Y-107640576D01*
X141746793Y-107716319D01*
X141795943Y-107773594D01*
X141839971Y-107816738D01*
X141883921Y-107850092D01*
X141932834Y-107877994D01*
X141991753Y-107904784D01*
X142065719Y-107934802D01*
X142072477Y-107937488D01*
X142167421Y-107975218D01*
X142550844Y-107830506D01*
X142934267Y-107685795D01*
X142934267Y-107123598D01*
X142726834Y-106972462D01*
X142606368Y-106880775D01*
X142506100Y-106796334D01*
X142429017Y-106721858D01*
X142378107Y-106660066D01*
X142370495Y-106648073D01*
X142380287Y-106649366D01*
X142415241Y-106665775D01*
X142471365Y-106695186D01*
X142544668Y-106735481D01*
X142631156Y-106784545D01*
X142666829Y-106805153D01*
X142759805Y-106858661D01*
X142843397Y-106905890D01*
X142913014Y-106944318D01*
X142964068Y-106971423D01*
X142991969Y-106984684D01*
X142995237Y-106985591D01*
X143014441Y-106977752D01*
X143057839Y-106955765D01*
X143120323Y-106922462D01*
X143196786Y-106880677D01*
X143282121Y-106833245D01*
X143371220Y-106782998D01*
X143458977Y-106732771D01*
X143540283Y-106685397D01*
X143594667Y-106653016D01*
X143653934Y-106617284D01*
X143596161Y-106690522D01*
X143543115Y-106749937D01*
X143470932Y-106817101D01*
X143376566Y-106894595D01*
X143256972Y-106984999D01*
X143199067Y-107027022D01*
X143051961Y-107132744D01*
X143061267Y-107683048D01*
X143450734Y-107830965D01*
X143557999Y-107871665D01*
X143653958Y-107908000D01*
X143734341Y-107938359D01*
X143794874Y-107961131D01*
X143831287Y-107974705D01*
X143840200Y-107977877D01*
X143854016Y-107971352D01*
X143888318Y-107956406D01*
X143899467Y-107951642D01*
X143987973Y-107913875D01*
X144056593Y-107882911D01*
X144110852Y-107854180D01*
X144156274Y-107823110D01*
X144198387Y-107785130D01*
X144242714Y-107735670D01*
X144294782Y-107670158D01*
X144360115Y-107584023D01*
X144387056Y-107548267D01*
X144595245Y-107272133D01*
X144680593Y-106768901D01*
X144642027Y-106565701D01*
X144631894Y-106509597D01*
X144623434Y-106463808D01*
X144614084Y-106425242D01*
X144601284Y-106390808D01*
X144582473Y-106357414D01*
X144555089Y-106321968D01*
X144516571Y-106281379D01*
X144464358Y-106232556D01*
X144395890Y-106172406D01*
X144308604Y-106097838D01*
X144199939Y-106005761D01*
X144126598Y-105943531D01*
X143753168Y-105626162D01*
X143656984Y-105154959D01*
X143632136Y-105032519D01*
X143609670Y-104920458D01*
X143590450Y-104823190D01*
X143575338Y-104745130D01*
X143565197Y-104690691D01*
X143560890Y-104664289D01*
X143560800Y-104662946D01*
X143568746Y-104643164D01*
X143591154Y-104597921D01*
X143625880Y-104531273D01*
X143670779Y-104447274D01*
X143723709Y-104349979D01*
X143782525Y-104243443D01*
X143784003Y-104240785D01*
X143848964Y-104123930D01*
X143913857Y-104007113D01*
X143975242Y-103896533D01*
X144029679Y-103798387D01*
X144073730Y-103718874D01*
X144098358Y-103674334D01*
X144135253Y-103608277D01*
X144165932Y-103554801D01*
X144186913Y-103519878D01*
X144194574Y-103509234D01*
X144189551Y-103524339D01*
X144173057Y-103567387D01*
X144146447Y-103634980D01*
X144111078Y-103723717D01*
X144068306Y-103830198D01*
X144019486Y-103951024D01*
X143965976Y-104082795D01*
X143956472Y-104106134D01*
X143901959Y-104240521D01*
X143851705Y-104365514D01*
X143807112Y-104477544D01*
X143769581Y-104573038D01*
X143740516Y-104648427D01*
X143721316Y-104700140D01*
X143713385Y-104724605D01*
X143713253Y-104725666D01*
X143717774Y-104747385D01*
X143730549Y-104797147D01*
X143750353Y-104870479D01*
X143775960Y-104962910D01*
X143806146Y-105069970D01*
X143839686Y-105187186D01*
X143840200Y-105188973D01*
X143873642Y-105305147D01*
X143903785Y-105410128D01*
X143929422Y-105499683D01*
X143949341Y-105569578D01*
X143962335Y-105615578D01*
X143967193Y-105633449D01*
X143967200Y-105633521D01*
X143979747Y-105644834D01*
X144015240Y-105674966D01*
X144070463Y-105721231D01*
X144142196Y-105780947D01*
X144227221Y-105851429D01*
X144322321Y-105929993D01*
X144354725Y-105956706D01*
X144742249Y-106276020D01*
X144770949Y-106523116D01*
X144782186Y-106624352D01*
X144788922Y-106703211D01*
X144791172Y-106770878D01*
X144788949Y-106838539D01*
X144782266Y-106917382D01*
X144771539Y-107015089D01*
X144759171Y-107116446D01*
X144747733Y-107190432D01*
X144735374Y-107243425D01*
X144720244Y-107281808D01*
X144700490Y-107311960D01*
X144678400Y-107336167D01*
X144614482Y-107401516D01*
X144555335Y-107464581D01*
X144505088Y-107520670D01*
X144467872Y-107565092D01*
X144447817Y-107593158D01*
X144445851Y-107600329D01*
X144465045Y-107601560D01*
X144512496Y-107598987D01*
X144582864Y-107593063D01*
X144670810Y-107584243D01*
X144770991Y-107572979D01*
X144779536Y-107571967D01*
X145103103Y-107533489D01*
X145163890Y-107464461D01*
X145192846Y-107433072D01*
X145241556Y-107381946D01*
X145305884Y-107315354D01*
X145381693Y-107237563D01*
X145464846Y-107152841D01*
X145522314Y-107094623D01*
X145819950Y-106793812D01*
X145834787Y-106256423D01*
X145849623Y-105719034D01*
X145777266Y-105388834D01*
X145704908Y-105058634D01*
X145593688Y-104948567D01*
X145536200Y-104892024D01*
X145463881Y-104821402D01*
X145386342Y-104746062D01*
X145318965Y-104680931D01*
X145251196Y-104614662D01*
X145203968Y-104565158D01*
X145172767Y-104526398D01*
X145153079Y-104492360D01*
X145140390Y-104457024D01*
X145134885Y-104435397D01*
X145121260Y-104381731D01*
X145108882Y-104340535D01*
X145103533Y-104327015D01*
X145095264Y-104334354D01*
X145080381Y-104369030D01*
X145060894Y-104425632D01*
X145038809Y-104498745D01*
X145035590Y-104510116D01*
X144978421Y-104713635D01*
X144577321Y-104914701D01*
X144399261Y-104914701D01*
X144315711Y-104913125D01*
X144256371Y-104908647D01*
X144225104Y-104901643D01*
X144221200Y-104897447D01*
X144224794Y-104875778D01*
X144234717Y-104827125D01*
X144249687Y-104757501D01*
X144268419Y-104672923D01*
X144281211Y-104616267D01*
X144341222Y-104352342D01*
X144497827Y-104129754D01*
X144654432Y-103907167D01*
X144743222Y-103902028D01*
X144795058Y-103900978D01*
X144832094Y-103908628D01*
X144867815Y-103930112D01*
X144909990Y-103965528D01*
X144952915Y-104001695D01*
X144985941Y-104026564D01*
X145000123Y-104034167D01*
X145006687Y-104018358D01*
X145013159Y-103975423D01*
X145019216Y-103912103D01*
X145024535Y-103835139D01*
X145028793Y-103751271D01*
X145031668Y-103667240D01*
X145032836Y-103589786D01*
X145031976Y-103525650D01*
X145028764Y-103481572D01*
X145027032Y-103472161D01*
X145011596Y-103409688D01*
X145343883Y-103014961D01*
X145445062Y-102894921D01*
X145561419Y-102757126D01*
X145686167Y-102609598D01*
X145812518Y-102460360D01*
X145933684Y-102317432D01*
X146042879Y-102188838D01*
X146043222Y-102188434D01*
X146204324Y-101998276D01*
X146344319Y-101831573D01*
X146464633Y-101686497D01*
X146566691Y-101561218D01*
X146651920Y-101453910D01*
X146721745Y-101362743D01*
X146777593Y-101285889D01*
X146820888Y-101221521D01*
X146853058Y-101167810D01*
X146875528Y-101122927D01*
X146877172Y-101119143D01*
X146918377Y-101002376D01*
X146956294Y-100852069D01*
X146990898Y-100668390D01*
X147022162Y-100451509D01*
X147050059Y-100201593D01*
X147074563Y-99918813D01*
X147083114Y-99800834D01*
X147087809Y-99721456D01*
X147092660Y-99619111D01*
X147097571Y-99497793D01*
X147102447Y-99361494D01*
X147107192Y-99214210D01*
X147111711Y-99059933D01*
X147115909Y-98902658D01*
X147119690Y-98746378D01*
X147122958Y-98595087D01*
X147125618Y-98452778D01*
X147127574Y-98323446D01*
X147128731Y-98211085D01*
X147128994Y-98119687D01*
X147128268Y-98053247D01*
X147126455Y-98015758D01*
X147125887Y-98011716D01*
X147120061Y-97988293D01*
X147109282Y-97968620D01*
X147088717Y-97949273D01*
X147053534Y-97926824D01*
X146998902Y-97897847D01*
X146919987Y-97858919D01*
X146889502Y-97844132D01*
X146807520Y-97805510D01*
X146734353Y-97773048D01*
X146676292Y-97749387D01*
X146639625Y-97737166D01*
X146632206Y-97736077D01*
X146606284Y-97744024D01*
X146556827Y-97765099D01*
X146490137Y-97796412D01*
X146412520Y-97835074D01*
X146382842Y-97850377D01*
X146165350Y-97963567D01*
X145497125Y-99292066D01*
X144828899Y-100620565D01*
X144923079Y-101366399D01*
X144942666Y-101521995D01*
X144960870Y-101667534D01*
X144977262Y-101799510D01*
X144991411Y-101914421D01*
X145002887Y-102008762D01*
X145011262Y-102079029D01*
X145016104Y-102121718D01*
X145017163Y-102133401D01*
X145026359Y-102148131D01*
X145056429Y-102153328D01*
X145110834Y-102148901D01*
X145193031Y-102134759D01*
X145227242Y-102127862D01*
X145290898Y-102115880D01*
X145342284Y-102108384D01*
X145371944Y-102106701D01*
X145374411Y-102107171D01*
X145367325Y-102119480D01*
X145337874Y-102150913D01*
X145289268Y-102198392D01*
X145224719Y-102258840D01*
X145147436Y-102329178D01*
X145081992Y-102387504D01*
X144771534Y-102661824D01*
X144759554Y-102598696D01*
X144756251Y-102570301D01*
X144751072Y-102511395D01*
X144744254Y-102425268D01*
X144736035Y-102315211D01*
X144726652Y-102184514D01*
X144716343Y-102036466D01*
X144705346Y-101874357D01*
X144693898Y-101701478D01*
X144686340Y-101585071D01*
X144625105Y-100634575D01*
X145077691Y-99807071D01*
X145171556Y-99635452D01*
X145268234Y-99458698D01*
X145365058Y-99281681D01*
X145459367Y-99109269D01*
X145548494Y-98946335D01*
X145629777Y-98797747D01*
X145700551Y-98668377D01*
X145758151Y-98563094D01*
X145765730Y-98549243D01*
X145827377Y-98436425D01*
X145884832Y-98330996D01*
X145935756Y-98237269D01*
X145977811Y-98159560D01*
X146008656Y-98102182D01*
X146025954Y-98069449D01*
X146027380Y-98066643D01*
X146035412Y-98051127D01*
X146041786Y-98038641D01*
X146044534Y-98031174D01*
X146041684Y-98030713D01*
X146031268Y-98039246D01*
X146011316Y-98058762D01*
X145979856Y-98091247D01*
X145934920Y-98138689D01*
X145874538Y-98203078D01*
X145796739Y-98286399D01*
X145699554Y-98390641D01*
X145592537Y-98505434D01*
X145486368Y-98619230D01*
X145376224Y-98737182D01*
X145267158Y-98853887D01*
X145164223Y-98963940D01*
X145072473Y-99061937D01*
X144996959Y-99142474D01*
X144975022Y-99165834D01*
X144880702Y-99266373D01*
X144805230Y-99347475D01*
X144744175Y-99414298D01*
X144693106Y-99472005D01*
X144647595Y-99525756D01*
X144603210Y-99580711D01*
X144555521Y-99642031D01*
X144500098Y-99714877D01*
X144473821Y-99749657D01*
X144444811Y-99788394D01*
X144417593Y-99825757D01*
X144391077Y-99863775D01*
X144364173Y-99904480D01*
X144335791Y-99949902D01*
X144304840Y-100002070D01*
X144270231Y-100063016D01*
X144230874Y-100134770D01*
X144185679Y-100219362D01*
X144133555Y-100318822D01*
X144073413Y-100435180D01*
X144004163Y-100570468D01*
X143924715Y-100726715D01*
X143833978Y-100905952D01*
X143730862Y-101110209D01*
X143614278Y-101341516D01*
X143539523Y-101489934D01*
X143298610Y-101968301D01*
X143002139Y-101968242D01*
X142705667Y-101968184D01*
X142519401Y-101599752D01*
X142390331Y-101344436D01*
X142275544Y-101117409D01*
X142174005Y-100916753D01*
X142084685Y-100740550D01*
X142006551Y-100586881D01*
X141938571Y-100453828D01*
X141879714Y-100339474D01*
X141828949Y-100241900D01*
X141785243Y-100159187D01*
X141747564Y-100089419D01*
X141714882Y-100030676D01*
X141686165Y-99981041D01*
X141660380Y-99938596D01*
X141636497Y-99901421D01*
X141613483Y-99867600D01*
X141590308Y-99835214D01*
X141565938Y-99802345D01*
X141539343Y-99767074D01*
X141519726Y-99741092D01*
X141473057Y-99680244D01*
X141423264Y-99617741D01*
X141368191Y-99551169D01*
X141305680Y-99478118D01*
X141233574Y-99396175D01*
X141149717Y-99302928D01*
X141051951Y-99195965D01*
X140938118Y-99072874D01*
X140806063Y-98931244D01*
X140653627Y-98768661D01*
X140580534Y-98690919D01*
X140506807Y-98612331D01*
X140418653Y-98518014D01*
X140324614Y-98417125D01*
X140233229Y-98318824D01*
X140182600Y-98264220D01*
X140114067Y-98190623D01*
X140053796Y-98126687D01*
X140005377Y-98076154D01*
X139972400Y-98042765D01*
X139958453Y-98030265D01*
X139958264Y-98030282D01*
X139965575Y-98045347D01*
X139988014Y-98087975D01*
X140024423Y-98156032D01*
X140073646Y-98247385D01*
X140134525Y-98359902D01*
X140205903Y-98491450D01*
X140286624Y-98639896D01*
X140375530Y-98803108D01*
X140471465Y-98978953D01*
X140573270Y-99165298D01*
X140665486Y-99333878D01*
X141376911Y-100633694D01*
X141310151Y-101641258D01*
X141298036Y-101822551D01*
X141286410Y-101993592D01*
X141275485Y-102151425D01*
X141265475Y-102293095D01*
X141256595Y-102415645D01*
X141249060Y-102516120D01*
X141243082Y-102591565D01*
X141238875Y-102639022D01*
X141236697Y-102655516D01*
X141220903Y-102650677D01*
X141197368Y-102632641D01*
X141175466Y-102613033D01*
X141132378Y-102574655D01*
X141072260Y-102521202D01*
X140999270Y-102456369D01*
X140917563Y-102383850D01*
X140881101Y-102351505D01*
X140799323Y-102278788D01*
X140726779Y-102213929D01*
X140667061Y-102160169D01*
X140623764Y-102120751D01*
X140600481Y-102098916D01*
X140597467Y-102095614D01*
X140612786Y-102096907D01*
X140653804Y-102104002D01*
X140713113Y-102115569D01*
X140745634Y-102122261D01*
X140817780Y-102136420D01*
X140881831Y-102147350D01*
X140927226Y-102153307D01*
X140937053Y-102153900D01*
X140980305Y-102154567D01*
X141075972Y-101390963D01*
X141171638Y-100627358D01*
X140505340Y-99295463D01*
X139839043Y-97963567D01*
X139596950Y-97843489D01*
X139354858Y-97723411D01*
X139110383Y-97843489D01*
G36*
X142627616Y-107909839D02*
G01*
X142522253Y-107945197D01*
X142428533Y-107977335D01*
X142350946Y-108004656D01*
X142293982Y-108025565D01*
X142262131Y-108038464D01*
X142256934Y-108041636D01*
X142267156Y-108057127D01*
X142295173Y-108093537D01*
X142337010Y-108145842D01*
X142388693Y-108209020D01*
X142403272Y-108226629D01*
X142461139Y-108296164D01*
X142505963Y-108346447D01*
X142545209Y-108381741D01*
X142586343Y-108406307D01*
X142636827Y-108424406D01*
X142704128Y-108440301D01*
X142795709Y-108458252D01*
X142815734Y-108462105D01*
X142884250Y-108475413D01*
X142941727Y-108486749D01*
X142978709Y-108494242D01*
X142985067Y-108495611D01*
X143011160Y-108494468D01*
X143062424Y-108486965D01*
X143131037Y-108474390D01*
X143196734Y-108460766D01*
X143275403Y-108443574D01*
X143344639Y-108428357D01*
X143396032Y-108416968D01*
X143418868Y-108411808D01*
X143441768Y-108396116D01*
X143480577Y-108358798D01*
X143530624Y-108305122D01*
X143587233Y-108240353D01*
X143645734Y-108169761D01*
X143701452Y-108098612D01*
X143725909Y-108065709D01*
X143730281Y-108055642D01*
X143725789Y-108045346D01*
X143708886Y-108033273D01*
X143676023Y-108017877D01*
X143623655Y-107997610D01*
X143548234Y-107970926D01*
X143446212Y-107936278D01*
X143372691Y-107911668D01*
X142998299Y-107786707D01*
X142627616Y-107909839D01*
G37*
X142627616Y-107909839D02*
X142522253Y-107945197D01*
X142428533Y-107977335D01*
X142350946Y-108004656D01*
X142293982Y-108025565D01*
X142262131Y-108038464D01*
X142256934Y-108041636D01*
X142267156Y-108057127D01*
X142295173Y-108093537D01*
X142337010Y-108145842D01*
X142388693Y-108209020D01*
X142403272Y-108226629D01*
X142461139Y-108296164D01*
X142505963Y-108346447D01*
X142545209Y-108381741D01*
X142586343Y-108406307D01*
X142636827Y-108424406D01*
X142704128Y-108440301D01*
X142795709Y-108458252D01*
X142815734Y-108462105D01*
X142884250Y-108475413D01*
X142941727Y-108486749D01*
X142978709Y-108494242D01*
X142985067Y-108495611D01*
X143011160Y-108494468D01*
X143062424Y-108486965D01*
X143131037Y-108474390D01*
X143196734Y-108460766D01*
X143275403Y-108443574D01*
X143344639Y-108428357D01*
X143396032Y-108416968D01*
X143418868Y-108411808D01*
X143441768Y-108396116D01*
X143480577Y-108358798D01*
X143530624Y-108305122D01*
X143587233Y-108240353D01*
X143645734Y-108169761D01*
X143701452Y-108098612D01*
X143725909Y-108065709D01*
X143730281Y-108055642D01*
X143725789Y-108045346D01*
X143708886Y-108033273D01*
X143676023Y-108017877D01*
X143623655Y-107997610D01*
X143548234Y-107970926D01*
X143446212Y-107936278D01*
X143372691Y-107911668D01*
X142998299Y-107786707D01*
X142627616Y-107909839D01*
D12*
X145475000Y-133410000D02*
X145475000Y-130810000D01*
X145475000Y-133410000D02*
X140275000Y-133410000D01*
X140275000Y-133410000D02*
X140275000Y-128210000D01*
X142875000Y-128210000D02*
X140275000Y-128210000D01*
X142875000Y-130810000D02*
X142875000Y-128210000D01*
X145475000Y-130810000D02*
X142875000Y-130810000D01*
X145475000Y-128210000D02*
X144145000Y-128210000D01*
X145475000Y-129540000D02*
X145475000Y-128210000D01*
X148015000Y-74990000D02*
X148015000Y-72390000D01*
X148015000Y-74990000D02*
X137735000Y-74990000D01*
X137735000Y-74990000D02*
X137735000Y-69790000D01*
X145415000Y-69790000D02*
X137735000Y-69790000D01*
X145415000Y-72390000D02*
X145415000Y-69790000D01*
X148015000Y-72390000D02*
X145415000Y-72390000D01*
X148015000Y-69790000D02*
X146685000Y-69790000D01*
X148015000Y-71120000D02*
X148015000Y-69790000D01*
%LPC*%
D13*
X141605000Y-132080000D03*
D14*
X141605000Y-129540000D03*
D13*
X144145000Y-132080000D03*
D15*
X144145000Y-129540000D03*
D16*
X139065000Y-73660000D03*
X139065000Y-71120000D03*
X141605000Y-73660000D03*
X141605000Y-71120000D03*
X144145000Y-73660000D03*
X144145000Y-71120000D03*
X146685000Y-73660000D03*
D17*
X146685000Y-71120000D03*
D18*
X195372056Y-71327944D03*
X193675000Y-70625000D03*
X191977944Y-71327944D03*
X191275000Y-73025000D03*
X191977944Y-74722056D03*
X193675000Y-75425000D03*
X195372056Y-74722056D03*
X196075000Y-73025000D03*
D19*
X193675000Y-73025000D03*
D18*
X195372056Y-128477944D03*
X193675000Y-127775000D03*
X191977944Y-128477944D03*
X191275000Y-130175000D03*
X191977944Y-131872056D03*
X193675000Y-132575000D03*
X195372056Y-131872056D03*
X196075000Y-130175000D03*
D19*
X193675000Y-130175000D03*
D18*
X93772056Y-128477944D03*
X92075000Y-127775000D03*
X90377944Y-128477944D03*
X89675000Y-130175000D03*
X90377944Y-131872056D03*
X92075000Y-132575000D03*
X93772056Y-131872056D03*
X94475000Y-130175000D03*
D19*
X92075000Y-130175000D03*
D18*
X93772056Y-71327944D03*
X92075000Y-70625000D03*
X90377944Y-71327944D03*
X89675000Y-73025000D03*
X90377944Y-74722056D03*
X92075000Y-75425000D03*
X93772056Y-74722056D03*
X94475000Y-73025000D03*
D19*
X92075000Y-73025000D03*
D20*
X188595000Y-95885000D03*
X180975000Y-113665000D03*
X188595000Y-98425000D03*
X180975000Y-111125000D03*
X188595000Y-100965000D03*
X180975000Y-108585000D03*
X188595000Y-103505000D03*
X180975000Y-106045000D03*
X188595000Y-106045000D03*
X180975000Y-103505000D03*
X188595000Y-108585000D03*
X180975000Y-100965000D03*
X188595000Y-111125000D03*
X180975000Y-98425000D03*
X188595000Y-113665000D03*
D21*
X180975000Y-95885000D03*
D20*
X162560000Y-95885000D03*
X154940000Y-113665000D03*
X162560000Y-98425000D03*
X154940000Y-111125000D03*
X162560000Y-100965000D03*
X154940000Y-108585000D03*
X162560000Y-103505000D03*
X154940000Y-106045000D03*
X162560000Y-106045000D03*
X154940000Y-103505000D03*
X162560000Y-108585000D03*
X154940000Y-100965000D03*
X162560000Y-111125000D03*
X154940000Y-98425000D03*
X162560000Y-113665000D03*
D21*
X154940000Y-95885000D03*
D20*
X130810000Y-95885000D03*
X123190000Y-113665000D03*
X130810000Y-98425000D03*
X123190000Y-111125000D03*
X130810000Y-100965000D03*
X123190000Y-108585000D03*
X130810000Y-103505000D03*
X123190000Y-106045000D03*
X130810000Y-106045000D03*
X123190000Y-103505000D03*
X130810000Y-108585000D03*
X123190000Y-100965000D03*
X130810000Y-111125000D03*
X123190000Y-98425000D03*
X130810000Y-113665000D03*
D21*
X123190000Y-95885000D03*
D20*
X104775000Y-95885000D03*
X97155000Y-113665000D03*
X104775000Y-98425000D03*
X97155000Y-111125000D03*
X104775000Y-100965000D03*
X97155000Y-108585000D03*
X104775000Y-103505000D03*
X97155000Y-106045000D03*
X104775000Y-106045000D03*
X97155000Y-103505000D03*
X104775000Y-108585000D03*
X97155000Y-100965000D03*
X104775000Y-111125000D03*
X97155000Y-98425000D03*
X104775000Y-113665000D03*
D21*
X97155000Y-95885000D03*
D16*
X183515000Y-121920000D03*
D17*
X186055000Y-121920000D03*
D16*
X178435000Y-86360000D03*
X178435000Y-83820000D03*
X180975000Y-86360000D03*
X180975000Y-83820000D03*
X183515000Y-86360000D03*
X183515000Y-83820000D03*
X186055000Y-86360000D03*
X186055000Y-83820000D03*
X188595000Y-86360000D03*
X188595000Y-83820000D03*
X191135000Y-86360000D03*
D17*
X191135000Y-83820000D03*
D16*
X157480000Y-121920000D03*
D17*
X160020000Y-121920000D03*
D16*
X152400000Y-86360000D03*
X152400000Y-83820000D03*
X154940000Y-86360000D03*
X154940000Y-83820000D03*
X157480000Y-86360000D03*
X157480000Y-83820000D03*
X160020000Y-86360000D03*
X160020000Y-83820000D03*
X162560000Y-86360000D03*
X162560000Y-83820000D03*
X165100000Y-86360000D03*
D17*
X165100000Y-83820000D03*
D16*
X125730000Y-121920000D03*
D17*
X128270000Y-121920000D03*
D16*
X120650000Y-86360000D03*
X120650000Y-83820000D03*
X123190000Y-86360000D03*
X123190000Y-83820000D03*
X125730000Y-86360000D03*
X125730000Y-83820000D03*
X128270000Y-86360000D03*
X128270000Y-83820000D03*
X130810000Y-86360000D03*
X130810000Y-83820000D03*
X133350000Y-86360000D03*
D17*
X133350000Y-83820000D03*
X102235000Y-121920000D03*
D16*
X99695000Y-121920000D03*
X94615000Y-86360000D03*
X94615000Y-83820000D03*
X97155000Y-86360000D03*
X97155000Y-83820000D03*
X99695000Y-86360000D03*
X99695000Y-83820000D03*
X102235000Y-86360000D03*
X102235000Y-83820000D03*
X104775000Y-86360000D03*
X104775000Y-83820000D03*
X107315000Y-86360000D03*
D17*
X107315000Y-83820000D03*
D18*
X186482056Y-72851944D03*
X184785000Y-72149000D03*
X183087944Y-72851944D03*
X182385000Y-74549000D03*
X183087944Y-76246056D03*
X184785000Y-76949000D03*
X186482056Y-76246056D03*
X187185000Y-74549000D03*
D19*
X184785000Y-74549000D03*
D18*
X186482056Y-127334944D03*
X184785000Y-126632000D03*
X183087944Y-127334944D03*
X182385000Y-129032000D03*
X183087944Y-130729056D03*
X184785000Y-131432000D03*
X186482056Y-130729056D03*
X187185000Y-129032000D03*
D19*
X184785000Y-129032000D03*
D18*
X160447056Y-72851944D03*
X158750000Y-72149000D03*
X157052944Y-72851944D03*
X156350000Y-74549000D03*
X157052944Y-76246056D03*
X158750000Y-76949000D03*
X160447056Y-76246056D03*
X161150000Y-74549000D03*
D19*
X158750000Y-74549000D03*
D18*
X160447056Y-127321944D03*
X158750000Y-126619000D03*
X157052944Y-127321944D03*
X156350000Y-129019000D03*
X157052944Y-130716056D03*
X158750000Y-131419000D03*
X160447056Y-130716056D03*
X161150000Y-129019000D03*
D19*
X158750000Y-129019000D03*
D18*
X128697056Y-72851944D03*
X127000000Y-72149000D03*
X125302944Y-72851944D03*
X124600000Y-74549000D03*
X125302944Y-76246056D03*
X127000000Y-76949000D03*
X128697056Y-76246056D03*
X129400000Y-74549000D03*
D19*
X127000000Y-74549000D03*
D18*
X128697056Y-127334944D03*
X127000000Y-126632000D03*
X125302944Y-127334944D03*
X124600000Y-129032000D03*
X125302944Y-130729056D03*
X127000000Y-131432000D03*
X128697056Y-130729056D03*
X129400000Y-129032000D03*
D19*
X127000000Y-129032000D03*
D18*
X102662056Y-72851944D03*
X100965000Y-72149000D03*
X99267944Y-72851944D03*
X98565000Y-74549000D03*
X99267944Y-76246056D03*
X100965000Y-76949000D03*
X102662056Y-76246056D03*
X103365000Y-74549000D03*
D19*
X100965000Y-74549000D03*
X100965000Y-129032000D03*
D18*
X103365000Y-129032000D03*
X102662056Y-130729056D03*
X100965000Y-131432000D03*
X99267944Y-130729056D03*
X98565000Y-129032000D03*
X99267944Y-127334944D03*
X100965000Y-126632000D03*
X102662056Y-127334944D03*
M02*
