G04 #@! TF.GenerationSoftware,KiCad,Pcbnew,(5.1.12-1-10_14)*
G04 #@! TF.CreationDate,2022-01-30T16:38:09+01:00*
G04 #@! TF.ProjectId,NixieDisplayControllerV2,4e697869-6544-4697-9370-6c6179436f6e,rev?*
G04 #@! TF.SameCoordinates,Original*
G04 #@! TF.FileFunction,Soldermask,Bot*
G04 #@! TF.FilePolarity,Negative*
%FSLAX46Y46*%
G04 Gerber Fmt 4.6, Leading zero omitted, Abs format (unit mm)*
G04 Created by KiCad (PCBNEW (5.1.12-1-10_14)) date 2022-01-30 16:38:09*
%MOMM*%
%LPD*%
G01*
G04 APERTURE LIST*
%ADD10O,1.676400X1.270000*%
%ADD11O,1.676400X1.676400*%
%ADD12C,1.676400*%
%ADD13O,1.700000X1.700000*%
%ADD14R,1.700000X1.700000*%
%ADD15C,0.800000*%
%ADD16C,6.400000*%
%ADD17O,1.600000X1.600000*%
%ADD18R,1.600000X1.600000*%
G04 APERTURE END LIST*
D10*
X141605000Y-132080000D03*
D11*
X141605000Y-129540000D03*
D10*
X144145000Y-132080000D03*
D12*
X144145000Y-129540000D03*
D13*
X139065000Y-73660000D03*
X139065000Y-71120000D03*
X141605000Y-73660000D03*
X141605000Y-71120000D03*
X144145000Y-73660000D03*
X144145000Y-71120000D03*
X146685000Y-73660000D03*
D14*
X146685000Y-71120000D03*
D15*
X195372056Y-71327944D03*
X193675000Y-70625000D03*
X191977944Y-71327944D03*
X191275000Y-73025000D03*
X191977944Y-74722056D03*
X193675000Y-75425000D03*
X195372056Y-74722056D03*
X196075000Y-73025000D03*
D16*
X193675000Y-73025000D03*
D15*
X195372056Y-128477944D03*
X193675000Y-127775000D03*
X191977944Y-128477944D03*
X191275000Y-130175000D03*
X191977944Y-131872056D03*
X193675000Y-132575000D03*
X195372056Y-131872056D03*
X196075000Y-130175000D03*
D16*
X193675000Y-130175000D03*
D15*
X93772056Y-128477944D03*
X92075000Y-127775000D03*
X90377944Y-128477944D03*
X89675000Y-130175000D03*
X90377944Y-131872056D03*
X92075000Y-132575000D03*
X93772056Y-131872056D03*
X94475000Y-130175000D03*
D16*
X92075000Y-130175000D03*
D15*
X93772056Y-71327944D03*
X92075000Y-70625000D03*
X90377944Y-71327944D03*
X89675000Y-73025000D03*
X90377944Y-74722056D03*
X92075000Y-75425000D03*
X93772056Y-74722056D03*
X94475000Y-73025000D03*
D16*
X92075000Y-73025000D03*
D17*
X188595000Y-95885000D03*
X180975000Y-113665000D03*
X188595000Y-98425000D03*
X180975000Y-111125000D03*
X188595000Y-100965000D03*
X180975000Y-108585000D03*
X188595000Y-103505000D03*
X180975000Y-106045000D03*
X188595000Y-106045000D03*
X180975000Y-103505000D03*
X188595000Y-108585000D03*
X180975000Y-100965000D03*
X188595000Y-111125000D03*
X180975000Y-98425000D03*
X188595000Y-113665000D03*
D18*
X180975000Y-95885000D03*
D17*
X162560000Y-95885000D03*
X154940000Y-113665000D03*
X162560000Y-98425000D03*
X154940000Y-111125000D03*
X162560000Y-100965000D03*
X154940000Y-108585000D03*
X162560000Y-103505000D03*
X154940000Y-106045000D03*
X162560000Y-106045000D03*
X154940000Y-103505000D03*
X162560000Y-108585000D03*
X154940000Y-100965000D03*
X162560000Y-111125000D03*
X154940000Y-98425000D03*
X162560000Y-113665000D03*
D18*
X154940000Y-95885000D03*
D17*
X130810000Y-95885000D03*
X123190000Y-113665000D03*
X130810000Y-98425000D03*
X123190000Y-111125000D03*
X130810000Y-100965000D03*
X123190000Y-108585000D03*
X130810000Y-103505000D03*
X123190000Y-106045000D03*
X130810000Y-106045000D03*
X123190000Y-103505000D03*
X130810000Y-108585000D03*
X123190000Y-100965000D03*
X130810000Y-111125000D03*
X123190000Y-98425000D03*
X130810000Y-113665000D03*
D18*
X123190000Y-95885000D03*
D17*
X104775000Y-95885000D03*
X97155000Y-113665000D03*
X104775000Y-98425000D03*
X97155000Y-111125000D03*
X104775000Y-100965000D03*
X97155000Y-108585000D03*
X104775000Y-103505000D03*
X97155000Y-106045000D03*
X104775000Y-106045000D03*
X97155000Y-103505000D03*
X104775000Y-108585000D03*
X97155000Y-100965000D03*
X104775000Y-111125000D03*
X97155000Y-98425000D03*
X104775000Y-113665000D03*
D18*
X97155000Y-95885000D03*
D13*
X183515000Y-121920000D03*
D14*
X186055000Y-121920000D03*
D13*
X178435000Y-86360000D03*
X178435000Y-83820000D03*
X180975000Y-86360000D03*
X180975000Y-83820000D03*
X183515000Y-86360000D03*
X183515000Y-83820000D03*
X186055000Y-86360000D03*
X186055000Y-83820000D03*
X188595000Y-86360000D03*
X188595000Y-83820000D03*
X191135000Y-86360000D03*
D14*
X191135000Y-83820000D03*
D13*
X157480000Y-121920000D03*
D14*
X160020000Y-121920000D03*
D13*
X152400000Y-86360000D03*
X152400000Y-83820000D03*
X154940000Y-86360000D03*
X154940000Y-83820000D03*
X157480000Y-86360000D03*
X157480000Y-83820000D03*
X160020000Y-86360000D03*
X160020000Y-83820000D03*
X162560000Y-86360000D03*
X162560000Y-83820000D03*
X165100000Y-86360000D03*
D14*
X165100000Y-83820000D03*
D13*
X125730000Y-121920000D03*
D14*
X128270000Y-121920000D03*
D13*
X120650000Y-86360000D03*
X120650000Y-83820000D03*
X123190000Y-86360000D03*
X123190000Y-83820000D03*
X125730000Y-86360000D03*
X125730000Y-83820000D03*
X128270000Y-86360000D03*
X128270000Y-83820000D03*
X130810000Y-86360000D03*
X130810000Y-83820000D03*
X133350000Y-86360000D03*
D14*
X133350000Y-83820000D03*
X102235000Y-121920000D03*
D13*
X99695000Y-121920000D03*
X94615000Y-86360000D03*
X94615000Y-83820000D03*
X97155000Y-86360000D03*
X97155000Y-83820000D03*
X99695000Y-86360000D03*
X99695000Y-83820000D03*
X102235000Y-86360000D03*
X102235000Y-83820000D03*
X104775000Y-86360000D03*
X104775000Y-83820000D03*
X107315000Y-86360000D03*
D14*
X107315000Y-83820000D03*
D15*
X186482056Y-72851944D03*
X184785000Y-72149000D03*
X183087944Y-72851944D03*
X182385000Y-74549000D03*
X183087944Y-76246056D03*
X184785000Y-76949000D03*
X186482056Y-76246056D03*
X187185000Y-74549000D03*
D16*
X184785000Y-74549000D03*
D15*
X186482056Y-127334944D03*
X184785000Y-126632000D03*
X183087944Y-127334944D03*
X182385000Y-129032000D03*
X183087944Y-130729056D03*
X184785000Y-131432000D03*
X186482056Y-130729056D03*
X187185000Y-129032000D03*
D16*
X184785000Y-129032000D03*
D15*
X160447056Y-72851944D03*
X158750000Y-72149000D03*
X157052944Y-72851944D03*
X156350000Y-74549000D03*
X157052944Y-76246056D03*
X158750000Y-76949000D03*
X160447056Y-76246056D03*
X161150000Y-74549000D03*
D16*
X158750000Y-74549000D03*
D15*
X160447056Y-127321944D03*
X158750000Y-126619000D03*
X157052944Y-127321944D03*
X156350000Y-129019000D03*
X157052944Y-130716056D03*
X158750000Y-131419000D03*
X160447056Y-130716056D03*
X161150000Y-129019000D03*
D16*
X158750000Y-129019000D03*
D15*
X128697056Y-72851944D03*
X127000000Y-72149000D03*
X125302944Y-72851944D03*
X124600000Y-74549000D03*
X125302944Y-76246056D03*
X127000000Y-76949000D03*
X128697056Y-76246056D03*
X129400000Y-74549000D03*
D16*
X127000000Y-74549000D03*
D15*
X128697056Y-127334944D03*
X127000000Y-126632000D03*
X125302944Y-127334944D03*
X124600000Y-129032000D03*
X125302944Y-130729056D03*
X127000000Y-131432000D03*
X128697056Y-130729056D03*
X129400000Y-129032000D03*
D16*
X127000000Y-129032000D03*
D15*
X102662056Y-72851944D03*
X100965000Y-72149000D03*
X99267944Y-72851944D03*
X98565000Y-74549000D03*
X99267944Y-76246056D03*
X100965000Y-76949000D03*
X102662056Y-76246056D03*
X103365000Y-74549000D03*
D16*
X100965000Y-74549000D03*
X100965000Y-129032000D03*
D15*
X103365000Y-129032000D03*
X102662056Y-130729056D03*
X100965000Y-131432000D03*
X99267944Y-130729056D03*
X98565000Y-129032000D03*
X99267944Y-127334944D03*
X100965000Y-126632000D03*
X102662056Y-127334944D03*
M02*
