G04 #@! TF.GenerationSoftware,KiCad,Pcbnew,(5.1.12-1-10_14)*
G04 #@! TF.CreationDate,2022-01-30T19:40:42+01:00*
G04 #@! TF.ProjectId,NixieDisplayMotherBoardV2,4e697869-6544-4697-9370-6c61794d6f74,rev?*
G04 #@! TF.SameCoordinates,Original*
G04 #@! TF.FileFunction,Legend,Top*
G04 #@! TF.FilePolarity,Positive*
%FSLAX46Y46*%
G04 Gerber Fmt 4.6, Leading zero omitted, Abs format (unit mm)*
G04 Created by KiCad (PCBNEW (5.1.12-1-10_14)) date 2022-01-30 19:40:42*
%MOMM*%
%LPD*%
G01*
G04 APERTURE LIST*
%ADD10C,0.150000*%
%ADD11C,0.120000*%
%ADD12C,1.600000*%
%ADD13C,1.000000*%
%ADD14R,2.000000X1.500000*%
%ADD15R,2.000000X3.800000*%
%ADD16C,1.500000*%
%ADD17R,1.700000X1.000000*%
%ADD18C,2.000000*%
%ADD19C,1.440000*%
%ADD20O,1.955800X1.270000*%
%ADD21O,3.500000X3.500000*%
%ADD22R,0.800000X0.900000*%
%ADD23R,1.000000X0.700000*%
%ADD24R,2.700000X3.600000*%
%ADD25C,0.100000*%
%ADD26O,1.700000X1.700000*%
%ADD27R,1.700000X1.700000*%
%ADD28R,3.500000X3.500000*%
%ADD29O,1.676400X1.270000*%
%ADD30O,1.676400X1.676400*%
%ADD31O,1.524000X1.524000*%
%ADD32C,0.800000*%
%ADD33C,6.400000*%
%ADD34O,2.400000X2.400000*%
%ADD35R,2.400000X2.400000*%
%ADD36R,1.200000X0.900000*%
%ADD37R,2.300000X2.500000*%
%ADD38R,1.600000X1.600000*%
%ADD39R,3.000000X4.200000*%
G04 APERTURE END LIST*
D10*
X189627047Y-104973380D02*
X189627047Y-103973380D01*
X190008000Y-103973380D01*
X190103238Y-104021000D01*
X190150857Y-104068619D01*
X190198476Y-104163857D01*
X190198476Y-104306714D01*
X190150857Y-104401952D01*
X190103238Y-104449571D01*
X190008000Y-104497190D01*
X189627047Y-104497190D01*
X190627047Y-104973380D02*
X190627047Y-104306714D01*
X190627047Y-104497190D02*
X190674666Y-104401952D01*
X190722285Y-104354333D01*
X190817523Y-104306714D01*
X190912761Y-104306714D01*
X191627047Y-104925761D02*
X191531809Y-104973380D01*
X191341333Y-104973380D01*
X191246095Y-104925761D01*
X191198476Y-104830523D01*
X191198476Y-104449571D01*
X191246095Y-104354333D01*
X191341333Y-104306714D01*
X191531809Y-104306714D01*
X191627047Y-104354333D01*
X191674666Y-104449571D01*
X191674666Y-104544809D01*
X191198476Y-104640047D01*
X192008000Y-104306714D02*
X192246095Y-104973380D01*
X192484190Y-104306714D01*
X188888952Y-114577761D02*
X189031809Y-114625380D01*
X189269904Y-114625380D01*
X189365142Y-114577761D01*
X189412761Y-114530142D01*
X189460380Y-114434904D01*
X189460380Y-114339666D01*
X189412761Y-114244428D01*
X189365142Y-114196809D01*
X189269904Y-114149190D01*
X189079428Y-114101571D01*
X188984190Y-114053952D01*
X188936571Y-114006333D01*
X188888952Y-113911095D01*
X188888952Y-113815857D01*
X188936571Y-113720619D01*
X188984190Y-113673000D01*
X189079428Y-113625380D01*
X189317523Y-113625380D01*
X189460380Y-113673000D01*
X190269904Y-114577761D02*
X190174666Y-114625380D01*
X189984190Y-114625380D01*
X189888952Y-114577761D01*
X189841333Y-114482523D01*
X189841333Y-114101571D01*
X189888952Y-114006333D01*
X189984190Y-113958714D01*
X190174666Y-113958714D01*
X190269904Y-114006333D01*
X190317523Y-114101571D01*
X190317523Y-114196809D01*
X189841333Y-114292047D01*
X190888952Y-114625380D02*
X190793714Y-114577761D01*
X190746095Y-114482523D01*
X190746095Y-113625380D01*
X191650857Y-114577761D02*
X191555619Y-114625380D01*
X191365142Y-114625380D01*
X191269904Y-114577761D01*
X191222285Y-114482523D01*
X191222285Y-114101571D01*
X191269904Y-114006333D01*
X191365142Y-113958714D01*
X191555619Y-113958714D01*
X191650857Y-114006333D01*
X191698476Y-114101571D01*
X191698476Y-114196809D01*
X191222285Y-114292047D01*
X192555619Y-114577761D02*
X192460380Y-114625380D01*
X192269904Y-114625380D01*
X192174666Y-114577761D01*
X192127047Y-114530142D01*
X192079428Y-114434904D01*
X192079428Y-114149190D01*
X192127047Y-114053952D01*
X192174666Y-114006333D01*
X192269904Y-113958714D01*
X192460380Y-113958714D01*
X192555619Y-114006333D01*
X192841333Y-113958714D02*
X193222285Y-113958714D01*
X192984190Y-113625380D02*
X192984190Y-114482523D01*
X193031809Y-114577761D01*
X193127047Y-114625380D01*
X193222285Y-114625380D01*
X189730238Y-124277380D02*
X189730238Y-123277380D01*
X190301666Y-124277380D01*
X190301666Y-123277380D01*
X191158809Y-124229761D02*
X191063571Y-124277380D01*
X190873095Y-124277380D01*
X190777857Y-124229761D01*
X190730238Y-124134523D01*
X190730238Y-123753571D01*
X190777857Y-123658333D01*
X190873095Y-123610714D01*
X191063571Y-123610714D01*
X191158809Y-123658333D01*
X191206428Y-123753571D01*
X191206428Y-123848809D01*
X190730238Y-123944047D01*
X191539761Y-124277380D02*
X192063571Y-123610714D01*
X191539761Y-123610714D02*
X192063571Y-124277380D01*
X192301666Y-123610714D02*
X192682619Y-123610714D01*
X192444523Y-123277380D02*
X192444523Y-124134523D01*
X192492142Y-124229761D01*
X192587380Y-124277380D01*
X192682619Y-124277380D01*
X182862742Y-87183980D02*
X183196076Y-88183980D01*
X183529409Y-87183980D01*
X184196076Y-87660171D02*
X184338933Y-87707790D01*
X184386552Y-87755409D01*
X184434171Y-87850647D01*
X184434171Y-87993504D01*
X184386552Y-88088742D01*
X184338933Y-88136361D01*
X184243695Y-88183980D01*
X183862742Y-88183980D01*
X183862742Y-87183980D01*
X184196076Y-87183980D01*
X184291314Y-87231600D01*
X184338933Y-87279219D01*
X184386552Y-87374457D01*
X184386552Y-87469695D01*
X184338933Y-87564933D01*
X184291314Y-87612552D01*
X184196076Y-87660171D01*
X183862742Y-87660171D01*
X184815123Y-87898266D02*
X185291314Y-87898266D01*
X184719885Y-88183980D02*
X185053219Y-87183980D01*
X185386552Y-88183980D01*
X185577028Y-87183980D02*
X186148457Y-87183980D01*
X185862742Y-88183980D02*
X185862742Y-87183980D01*
X160218666Y-89971571D02*
X160361523Y-90019190D01*
X160409142Y-90066809D01*
X160456761Y-90162047D01*
X160456761Y-90304904D01*
X160409142Y-90400142D01*
X160361523Y-90447761D01*
X160266285Y-90495380D01*
X159885333Y-90495380D01*
X159885333Y-89495380D01*
X160218666Y-89495380D01*
X160313904Y-89543000D01*
X160361523Y-89590619D01*
X160409142Y-89685857D01*
X160409142Y-89781095D01*
X160361523Y-89876333D01*
X160313904Y-89923952D01*
X160218666Y-89971571D01*
X159885333Y-89971571D01*
X161075809Y-89495380D02*
X161266285Y-89495380D01*
X161361523Y-89543000D01*
X161456761Y-89638238D01*
X161504380Y-89828714D01*
X161504380Y-90162047D01*
X161456761Y-90352523D01*
X161361523Y-90447761D01*
X161266285Y-90495380D01*
X161075809Y-90495380D01*
X160980571Y-90447761D01*
X160885333Y-90352523D01*
X160837714Y-90162047D01*
X160837714Y-89828714D01*
X160885333Y-89638238D01*
X160980571Y-89543000D01*
X161075809Y-89495380D01*
X162123428Y-89495380D02*
X162313904Y-89495380D01*
X162409142Y-89543000D01*
X162504380Y-89638238D01*
X162552000Y-89828714D01*
X162552000Y-90162047D01*
X162504380Y-90352523D01*
X162409142Y-90447761D01*
X162313904Y-90495380D01*
X162123428Y-90495380D01*
X162028190Y-90447761D01*
X161932952Y-90352523D01*
X161885333Y-90162047D01*
X161885333Y-89828714D01*
X161932952Y-89638238D01*
X162028190Y-89543000D01*
X162123428Y-89495380D01*
X162837714Y-89495380D02*
X163409142Y-89495380D01*
X163123428Y-90495380D02*
X163123428Y-89495380D01*
X163932952Y-89495380D02*
X164028190Y-89495380D01*
X164123428Y-89543000D01*
X164171047Y-89590619D01*
X164218666Y-89685857D01*
X164266285Y-89876333D01*
X164266285Y-90114428D01*
X164218666Y-90304904D01*
X164171047Y-90400142D01*
X164123428Y-90447761D01*
X164028190Y-90495380D01*
X163932952Y-90495380D01*
X163837714Y-90447761D01*
X163790095Y-90400142D01*
X163742476Y-90304904D01*
X163694857Y-90114428D01*
X163694857Y-89876333D01*
X163742476Y-89685857D01*
X163790095Y-89590619D01*
X163837714Y-89543000D01*
X163932952Y-89495380D01*
X146843904Y-97353380D02*
X146510571Y-96877190D01*
X146272476Y-97353380D02*
X146272476Y-96353380D01*
X146653428Y-96353380D01*
X146748666Y-96401000D01*
X146796285Y-96448619D01*
X146843904Y-96543857D01*
X146843904Y-96686714D01*
X146796285Y-96781952D01*
X146748666Y-96829571D01*
X146653428Y-96877190D01*
X146272476Y-96877190D01*
X147653428Y-97305761D02*
X147558190Y-97353380D01*
X147367714Y-97353380D01*
X147272476Y-97305761D01*
X147224857Y-97210523D01*
X147224857Y-96829571D01*
X147272476Y-96734333D01*
X147367714Y-96686714D01*
X147558190Y-96686714D01*
X147653428Y-96734333D01*
X147701047Y-96829571D01*
X147701047Y-96924809D01*
X147224857Y-97020047D01*
X148082000Y-97305761D02*
X148177238Y-97353380D01*
X148367714Y-97353380D01*
X148462952Y-97305761D01*
X148510571Y-97210523D01*
X148510571Y-97162904D01*
X148462952Y-97067666D01*
X148367714Y-97020047D01*
X148224857Y-97020047D01*
X148129619Y-96972428D01*
X148082000Y-96877190D01*
X148082000Y-96829571D01*
X148129619Y-96734333D01*
X148224857Y-96686714D01*
X148367714Y-96686714D01*
X148462952Y-96734333D01*
X149320095Y-97305761D02*
X149224857Y-97353380D01*
X149034380Y-97353380D01*
X148939142Y-97305761D01*
X148891523Y-97210523D01*
X148891523Y-96829571D01*
X148939142Y-96734333D01*
X149034380Y-96686714D01*
X149224857Y-96686714D01*
X149320095Y-96734333D01*
X149367714Y-96829571D01*
X149367714Y-96924809D01*
X148891523Y-97020047D01*
X149653428Y-96686714D02*
X150034380Y-96686714D01*
X149796285Y-96353380D02*
X149796285Y-97210523D01*
X149843904Y-97305761D01*
X149939142Y-97353380D01*
X150034380Y-97353380D01*
X127325380Y-84526000D02*
X126325380Y-84526000D01*
X126325380Y-84287904D01*
X126373000Y-84145047D01*
X126468238Y-84049809D01*
X126563476Y-84002190D01*
X126753952Y-83954571D01*
X126896809Y-83954571D01*
X127087285Y-84002190D01*
X127182523Y-84049809D01*
X127277761Y-84145047D01*
X127325380Y-84287904D01*
X127325380Y-84526000D01*
X127325380Y-83526000D02*
X126658714Y-83526000D01*
X126325380Y-83526000D02*
X126373000Y-83573619D01*
X126420619Y-83526000D01*
X126373000Y-83478380D01*
X126325380Y-83526000D01*
X126420619Y-83526000D01*
X127325380Y-83049809D02*
X126658714Y-83049809D01*
X126849190Y-83049809D02*
X126753952Y-83002190D01*
X126706333Y-82954571D01*
X126658714Y-82859333D01*
X126658714Y-82764095D01*
X127277761Y-82049809D02*
X127325380Y-82145047D01*
X127325380Y-82335523D01*
X127277761Y-82430761D01*
X127182523Y-82478380D01*
X126801571Y-82478380D01*
X126706333Y-82430761D01*
X126658714Y-82335523D01*
X126658714Y-82145047D01*
X126706333Y-82049809D01*
X126801571Y-82002190D01*
X126896809Y-82002190D01*
X126992047Y-82478380D01*
X127277761Y-81145047D02*
X127325380Y-81240285D01*
X127325380Y-81430761D01*
X127277761Y-81526000D01*
X127230142Y-81573619D01*
X127134904Y-81621238D01*
X126849190Y-81621238D01*
X126753952Y-81573619D01*
X126706333Y-81526000D01*
X126658714Y-81430761D01*
X126658714Y-81240285D01*
X126706333Y-81145047D01*
X126658714Y-80859333D02*
X126658714Y-80478380D01*
X126325380Y-80716476D02*
X127182523Y-80716476D01*
X127277761Y-80668857D01*
X127325380Y-80573619D01*
X127325380Y-80478380D01*
X127325380Y-80145047D02*
X126658714Y-80145047D01*
X126325380Y-80145047D02*
X126373000Y-80192666D01*
X126420619Y-80145047D01*
X126373000Y-80097428D01*
X126325380Y-80145047D01*
X126420619Y-80145047D01*
X127325380Y-79526000D02*
X127277761Y-79621238D01*
X127230142Y-79668857D01*
X127134904Y-79716476D01*
X126849190Y-79716476D01*
X126753952Y-79668857D01*
X126706333Y-79621238D01*
X126658714Y-79526000D01*
X126658714Y-79383142D01*
X126706333Y-79287904D01*
X126753952Y-79240285D01*
X126849190Y-79192666D01*
X127134904Y-79192666D01*
X127230142Y-79240285D01*
X127277761Y-79287904D01*
X127325380Y-79383142D01*
X127325380Y-79526000D01*
X126658714Y-78764095D02*
X127325380Y-78764095D01*
X126753952Y-78764095D02*
X126706333Y-78716476D01*
X126658714Y-78621238D01*
X126658714Y-78478380D01*
X126706333Y-78383142D01*
X126801571Y-78335523D01*
X127325380Y-78335523D01*
X127277761Y-77906952D02*
X127325380Y-77811714D01*
X127325380Y-77621238D01*
X127277761Y-77526000D01*
X127182523Y-77478380D01*
X127134904Y-77478380D01*
X127039666Y-77526000D01*
X126992047Y-77621238D01*
X126992047Y-77764095D01*
X126944428Y-77859333D01*
X126849190Y-77906952D01*
X126801571Y-77906952D01*
X126706333Y-77859333D01*
X126658714Y-77764095D01*
X126658714Y-77621238D01*
X126706333Y-77526000D01*
X124349095Y-74874428D02*
X125111000Y-74874428D01*
X124730047Y-75255380D02*
X124730047Y-74493476D01*
X125491952Y-74255380D02*
X126111000Y-74255380D01*
X125777666Y-74636333D01*
X125920523Y-74636333D01*
X126015761Y-74683952D01*
X126063380Y-74731571D01*
X126111000Y-74826809D01*
X126111000Y-75064904D01*
X126063380Y-75160142D01*
X126015761Y-75207761D01*
X125920523Y-75255380D01*
X125634809Y-75255380D01*
X125539571Y-75207761D01*
X125491952Y-75160142D01*
X126396714Y-74255380D02*
X126730047Y-75255380D01*
X127063380Y-74255380D01*
X127301476Y-74255380D02*
X127920523Y-74255380D01*
X127587190Y-74636333D01*
X127730047Y-74636333D01*
X127825285Y-74683952D01*
X127872904Y-74731571D01*
X127920523Y-74826809D01*
X127920523Y-75064904D01*
X127872904Y-75160142D01*
X127825285Y-75207761D01*
X127730047Y-75255380D01*
X127444333Y-75255380D01*
X127349095Y-75207761D01*
X127301476Y-75160142D01*
X118602285Y-71445428D02*
X119364190Y-71445428D01*
X118983238Y-71826380D02*
X118983238Y-71064476D01*
X120316571Y-70826380D02*
X119840380Y-70826380D01*
X119792761Y-71302571D01*
X119840380Y-71254952D01*
X119935619Y-71207333D01*
X120173714Y-71207333D01*
X120268952Y-71254952D01*
X120316571Y-71302571D01*
X120364190Y-71397809D01*
X120364190Y-71635904D01*
X120316571Y-71731142D01*
X120268952Y-71778761D01*
X120173714Y-71826380D01*
X119935619Y-71826380D01*
X119840380Y-71778761D01*
X119792761Y-71731142D01*
X120649904Y-70826380D02*
X120983238Y-71826380D01*
X121316571Y-70826380D01*
X129794095Y-70874000D02*
X129698857Y-70826380D01*
X129556000Y-70826380D01*
X129413142Y-70874000D01*
X129317904Y-70969238D01*
X129270285Y-71064476D01*
X129222666Y-71254952D01*
X129222666Y-71397809D01*
X129270285Y-71588285D01*
X129317904Y-71683523D01*
X129413142Y-71778761D01*
X129556000Y-71826380D01*
X129651238Y-71826380D01*
X129794095Y-71778761D01*
X129841714Y-71731142D01*
X129841714Y-71397809D01*
X129651238Y-71397809D01*
X130270285Y-71826380D02*
X130270285Y-70826380D01*
X130841714Y-71826380D01*
X130841714Y-70826380D01*
X131317904Y-71826380D02*
X131317904Y-70826380D01*
X131556000Y-70826380D01*
X131698857Y-70874000D01*
X131794095Y-70969238D01*
X131841714Y-71064476D01*
X131889333Y-71254952D01*
X131889333Y-71397809D01*
X131841714Y-71588285D01*
X131794095Y-71683523D01*
X131698857Y-71778761D01*
X131556000Y-71826380D01*
X131317904Y-71826380D01*
X92551333Y-91146380D02*
X92741809Y-91146380D01*
X92837047Y-91194000D01*
X92932285Y-91289238D01*
X92979904Y-91479714D01*
X92979904Y-91813047D01*
X92932285Y-92003523D01*
X92837047Y-92098761D01*
X92741809Y-92146380D01*
X92551333Y-92146380D01*
X92456095Y-92098761D01*
X92360857Y-92003523D01*
X92313238Y-91813047D01*
X92313238Y-91479714D01*
X92360857Y-91289238D01*
X92456095Y-91194000D01*
X92551333Y-91146380D01*
X93265619Y-91479714D02*
X93646571Y-91479714D01*
X93408476Y-92146380D02*
X93408476Y-91289238D01*
X93456095Y-91194000D01*
X93551333Y-91146380D01*
X93646571Y-91146380D01*
X93837047Y-91479714D02*
X94218000Y-91479714D01*
X93979904Y-92146380D02*
X93979904Y-91289238D01*
X94027523Y-91194000D01*
X94122761Y-91146380D01*
X94218000Y-91146380D01*
X89495380Y-80811619D02*
X89495380Y-80621142D01*
X89543000Y-80525904D01*
X89638238Y-80430666D01*
X89828714Y-80383047D01*
X90162047Y-80383047D01*
X90352523Y-80430666D01*
X90447761Y-80525904D01*
X90495380Y-80621142D01*
X90495380Y-80811619D01*
X90447761Y-80906857D01*
X90352523Y-81002095D01*
X90162047Y-81049714D01*
X89828714Y-81049714D01*
X89638238Y-81002095D01*
X89543000Y-80906857D01*
X89495380Y-80811619D01*
X89828714Y-79954476D02*
X90495380Y-79954476D01*
X89923952Y-79954476D02*
X89876333Y-79906857D01*
X89828714Y-79811619D01*
X89828714Y-79668761D01*
X89876333Y-79573523D01*
X89971571Y-79525904D01*
X90495380Y-79525904D01*
X92638809Y-83383380D02*
X92638809Y-82383380D01*
X93019761Y-82383380D01*
X93115000Y-82431000D01*
X93162619Y-82478619D01*
X93210238Y-82573857D01*
X93210238Y-82716714D01*
X93162619Y-82811952D01*
X93115000Y-82859571D01*
X93019761Y-82907190D01*
X92638809Y-82907190D01*
X93781666Y-83383380D02*
X93686428Y-83335761D01*
X93638809Y-83288142D01*
X93591190Y-83192904D01*
X93591190Y-82907190D01*
X93638809Y-82811952D01*
X93686428Y-82764333D01*
X93781666Y-82716714D01*
X93924523Y-82716714D01*
X94019761Y-82764333D01*
X94067380Y-82811952D01*
X94115000Y-82907190D01*
X94115000Y-83192904D01*
X94067380Y-83288142D01*
X94019761Y-83335761D01*
X93924523Y-83383380D01*
X93781666Y-83383380D01*
X94448333Y-82716714D02*
X94638809Y-83383380D01*
X94829285Y-82907190D01*
X95019761Y-83383380D01*
X95210238Y-82716714D01*
X95972142Y-83335761D02*
X95876904Y-83383380D01*
X95686428Y-83383380D01*
X95591190Y-83335761D01*
X95543571Y-83240523D01*
X95543571Y-82859571D01*
X95591190Y-82764333D01*
X95686428Y-82716714D01*
X95876904Y-82716714D01*
X95972142Y-82764333D01*
X96019761Y-82859571D01*
X96019761Y-82954809D01*
X95543571Y-83050047D01*
X96448333Y-83383380D02*
X96448333Y-82716714D01*
X96448333Y-82907190D02*
X96495952Y-82811952D01*
X96543571Y-82764333D01*
X96638809Y-82716714D01*
X96734047Y-82716714D01*
X125746095Y-102687428D02*
X126508000Y-102687428D01*
X126127047Y-103068380D02*
X126127047Y-102306476D01*
X127508000Y-103068380D02*
X126936571Y-103068380D01*
X127222285Y-103068380D02*
X127222285Y-102068380D01*
X127127047Y-102211238D01*
X127031809Y-102306476D01*
X126936571Y-102354095D01*
X127888952Y-102163619D02*
X127936571Y-102116000D01*
X128031809Y-102068380D01*
X128269904Y-102068380D01*
X128365142Y-102116000D01*
X128412761Y-102163619D01*
X128460380Y-102258857D01*
X128460380Y-102354095D01*
X128412761Y-102496952D01*
X127841333Y-103068380D01*
X128460380Y-103068380D01*
X128746095Y-102068380D02*
X129079428Y-103068380D01*
X129412761Y-102068380D01*
X133501190Y-110387380D02*
X133739285Y-111387380D01*
X133929761Y-110673095D01*
X134120238Y-111387380D01*
X134358333Y-110387380D01*
X135167857Y-111387380D02*
X135167857Y-110863571D01*
X135120238Y-110768333D01*
X135025000Y-110720714D01*
X134834523Y-110720714D01*
X134739285Y-110768333D01*
X135167857Y-111339761D02*
X135072619Y-111387380D01*
X134834523Y-111387380D01*
X134739285Y-111339761D01*
X134691666Y-111244523D01*
X134691666Y-111149285D01*
X134739285Y-111054047D01*
X134834523Y-111006428D01*
X135072619Y-111006428D01*
X135167857Y-110958809D01*
X135644047Y-111387380D02*
X135644047Y-110720714D01*
X135644047Y-110911190D02*
X135691666Y-110815952D01*
X135739285Y-110768333D01*
X135834523Y-110720714D01*
X135929761Y-110720714D01*
X136263095Y-110720714D02*
X136263095Y-111387380D01*
X136263095Y-110815952D02*
X136310714Y-110768333D01*
X136405952Y-110720714D01*
X136548809Y-110720714D01*
X136644047Y-110768333D01*
X136691666Y-110863571D01*
X136691666Y-111387380D01*
X137167857Y-111387380D02*
X137167857Y-110720714D01*
X137167857Y-110387380D02*
X137120238Y-110435000D01*
X137167857Y-110482619D01*
X137215476Y-110435000D01*
X137167857Y-110387380D01*
X137167857Y-110482619D01*
X137644047Y-110720714D02*
X137644047Y-111387380D01*
X137644047Y-110815952D02*
X137691666Y-110768333D01*
X137786904Y-110720714D01*
X137929761Y-110720714D01*
X138025000Y-110768333D01*
X138072619Y-110863571D01*
X138072619Y-111387380D01*
X138977380Y-110720714D02*
X138977380Y-111530238D01*
X138929761Y-111625476D01*
X138882142Y-111673095D01*
X138786904Y-111720714D01*
X138644047Y-111720714D01*
X138548809Y-111673095D01*
X138977380Y-111339761D02*
X138882142Y-111387380D01*
X138691666Y-111387380D01*
X138596428Y-111339761D01*
X138548809Y-111292142D01*
X138501190Y-111196904D01*
X138501190Y-110911190D01*
X138548809Y-110815952D01*
X138596428Y-110768333D01*
X138691666Y-110720714D01*
X138882142Y-110720714D01*
X138977380Y-110768333D01*
X139453571Y-111292142D02*
X139501190Y-111339761D01*
X139453571Y-111387380D01*
X139405952Y-111339761D01*
X139453571Y-111292142D01*
X139453571Y-111387380D01*
X139453571Y-111006428D02*
X139405952Y-110435000D01*
X139453571Y-110387380D01*
X139501190Y-110435000D01*
X139453571Y-111006428D01*
X139453571Y-110387380D01*
X131715476Y-113037380D02*
X131715476Y-112037380D01*
X131715476Y-112513571D02*
X132286904Y-112513571D01*
X132286904Y-113037380D02*
X132286904Y-112037380D01*
X132763095Y-113037380D02*
X132763095Y-112370714D01*
X132763095Y-112037380D02*
X132715476Y-112085000D01*
X132763095Y-112132619D01*
X132810714Y-112085000D01*
X132763095Y-112037380D01*
X132763095Y-112132619D01*
X133667857Y-112370714D02*
X133667857Y-113180238D01*
X133620238Y-113275476D01*
X133572619Y-113323095D01*
X133477380Y-113370714D01*
X133334523Y-113370714D01*
X133239285Y-113323095D01*
X133667857Y-112989761D02*
X133572619Y-113037380D01*
X133382142Y-113037380D01*
X133286904Y-112989761D01*
X133239285Y-112942142D01*
X133191666Y-112846904D01*
X133191666Y-112561190D01*
X133239285Y-112465952D01*
X133286904Y-112418333D01*
X133382142Y-112370714D01*
X133572619Y-112370714D01*
X133667857Y-112418333D01*
X134144047Y-113037380D02*
X134144047Y-112037380D01*
X134572619Y-113037380D02*
X134572619Y-112513571D01*
X134525000Y-112418333D01*
X134429761Y-112370714D01*
X134286904Y-112370714D01*
X134191666Y-112418333D01*
X134144047Y-112465952D01*
X135667857Y-112037380D02*
X136001190Y-113037380D01*
X136334523Y-112037380D01*
X136810714Y-113037380D02*
X136715476Y-112989761D01*
X136667857Y-112942142D01*
X136620238Y-112846904D01*
X136620238Y-112561190D01*
X136667857Y-112465952D01*
X136715476Y-112418333D01*
X136810714Y-112370714D01*
X136953571Y-112370714D01*
X137048809Y-112418333D01*
X137096428Y-112465952D01*
X137144047Y-112561190D01*
X137144047Y-112846904D01*
X137096428Y-112942142D01*
X137048809Y-112989761D01*
X136953571Y-113037380D01*
X136810714Y-113037380D01*
X137715476Y-113037380D02*
X137620238Y-112989761D01*
X137572619Y-112894523D01*
X137572619Y-112037380D01*
X137953571Y-112370714D02*
X138334523Y-112370714D01*
X138096428Y-112037380D02*
X138096428Y-112894523D01*
X138144047Y-112989761D01*
X138239285Y-113037380D01*
X138334523Y-113037380D01*
X139096428Y-113037380D02*
X139096428Y-112513571D01*
X139048809Y-112418333D01*
X138953571Y-112370714D01*
X138763095Y-112370714D01*
X138667857Y-112418333D01*
X139096428Y-112989761D02*
X139001190Y-113037380D01*
X138763095Y-113037380D01*
X138667857Y-112989761D01*
X138620238Y-112894523D01*
X138620238Y-112799285D01*
X138667857Y-112704047D01*
X138763095Y-112656428D01*
X139001190Y-112656428D01*
X139096428Y-112608809D01*
X140001190Y-112370714D02*
X140001190Y-113180238D01*
X139953571Y-113275476D01*
X139905952Y-113323095D01*
X139810714Y-113370714D01*
X139667857Y-113370714D01*
X139572619Y-113323095D01*
X140001190Y-112989761D02*
X139905952Y-113037380D01*
X139715476Y-113037380D01*
X139620238Y-112989761D01*
X139572619Y-112942142D01*
X139525000Y-112846904D01*
X139525000Y-112561190D01*
X139572619Y-112465952D01*
X139620238Y-112418333D01*
X139715476Y-112370714D01*
X139905952Y-112370714D01*
X140001190Y-112418333D01*
X140858333Y-112989761D02*
X140763095Y-113037380D01*
X140572619Y-113037380D01*
X140477380Y-112989761D01*
X140429761Y-112894523D01*
X140429761Y-112513571D01*
X140477380Y-112418333D01*
X140572619Y-112370714D01*
X140763095Y-112370714D01*
X140858333Y-112418333D01*
X140905952Y-112513571D01*
X140905952Y-112608809D01*
X140429761Y-112704047D01*
X141334523Y-112942142D02*
X141382142Y-112989761D01*
X141334523Y-113037380D01*
X141286904Y-112989761D01*
X141334523Y-112942142D01*
X141334523Y-113037380D01*
X141334523Y-112656428D02*
X141286904Y-112085000D01*
X141334523Y-112037380D01*
X141382142Y-112085000D01*
X141334523Y-112656428D01*
X141334523Y-112037380D01*
D11*
X159385000Y-107315000D02*
X159385000Y-134620000D01*
X87630000Y-107315000D02*
X159385000Y-107315000D01*
X158750000Y-107950000D02*
X158750000Y-134620000D01*
X87630000Y-107950000D02*
X158750000Y-107950000D01*
X100563800Y-118082000D02*
G75*
G03*
X100563800Y-118082000I-4120000J0D01*
G01*
X192441849Y-81217334D02*
G75*
G02*
X190741300Y-81218000I-850549J699334D01*
G01*
X192441849Y-79818666D02*
G75*
G03*
X190741300Y-79818000I-850549J-699334D01*
G01*
X138049000Y-93154000D02*
X141909000Y-93154000D01*
X141909000Y-93154000D02*
X141909000Y-92864000D01*
X138049000Y-93154000D02*
X134189000Y-93154000D01*
X134189000Y-93154000D02*
X134189000Y-92864000D01*
X138049000Y-77534000D02*
X141909000Y-77534000D01*
X141909000Y-77534000D02*
X141909000Y-77824000D01*
X138049000Y-77534000D02*
X134189000Y-77534000D01*
X134189000Y-77534000D02*
X134189000Y-77824000D01*
X134189000Y-77824000D02*
X132399000Y-77824000D01*
X187749500Y-86410800D02*
X187749500Y-88360800D01*
X187749500Y-86410800D02*
X187749500Y-84460800D01*
X192869500Y-86410800D02*
X192869500Y-88360800D01*
X192869500Y-86410800D02*
X192869500Y-82960800D01*
X168346500Y-103559000D02*
X168646500Y-103559000D01*
X168646500Y-103559000D02*
X168646500Y-103259000D01*
X161726500Y-103559000D02*
X161426500Y-103559000D01*
X161426500Y-103559000D02*
X161426500Y-103259000D01*
X168346500Y-96339000D02*
X168646500Y-96339000D01*
X168646500Y-96339000D02*
X168646500Y-96639000D01*
X161726500Y-96339000D02*
X161426500Y-96339000D01*
X161426500Y-96339000D02*
X161426500Y-96639000D01*
X161426500Y-96639000D02*
X160111500Y-96639000D01*
X109982000Y-120797000D02*
X111932000Y-120797000D01*
X109982000Y-120797000D02*
X108032000Y-120797000D01*
X109982000Y-115677000D02*
X111932000Y-115677000D01*
X109982000Y-115677000D02*
X106532000Y-115677000D01*
X116921200Y-81794400D02*
X116921200Y-80534400D01*
X116921200Y-74974400D02*
X116921200Y-76234400D01*
X113161200Y-81794400D02*
X116921200Y-81794400D01*
X110911200Y-74974400D02*
X116921200Y-74974400D01*
X101214000Y-74949000D02*
X101214000Y-76209000D01*
X101214000Y-81769000D02*
X101214000Y-80509000D01*
X104974000Y-74949000D02*
X101214000Y-74949000D01*
X107224000Y-81769000D02*
X101214000Y-81769000D01*
X185455600Y-85623400D02*
G75*
G03*
X185455600Y-85623400I-950000J0D01*
G01*
X128458000Y-100520500D02*
G75*
G03*
X128458000Y-100520500I-950000J0D01*
G01*
X123759000Y-71310500D02*
G75*
G03*
X123759000Y-71310500I-950000J0D01*
G01*
X123759000Y-74866500D02*
G75*
G03*
X123759000Y-74866500I-950000J0D01*
G01*
X128204000Y-71437500D02*
G75*
G03*
X128204000Y-71437500I-950000J0D01*
G01*
X146407400Y-103061800D02*
X146857400Y-103511800D01*
X149807400Y-103061800D02*
X149357400Y-103511800D01*
X149807400Y-98461800D02*
X149357400Y-98011800D01*
X146407400Y-98461800D02*
X146857400Y-98011800D01*
X150857400Y-99761800D02*
X150857400Y-101761800D01*
X146857400Y-103511800D02*
X149357400Y-103511800D01*
X145357400Y-99761800D02*
X145357400Y-101761800D01*
X146857400Y-98011800D02*
X149357400Y-98011800D01*
X189023500Y-122467000D02*
X193523500Y-122467000D01*
X187773500Y-118467000D02*
X187773500Y-119967000D01*
X193523500Y-115967000D02*
X189023500Y-115967000D01*
X194773500Y-119967000D02*
X194773500Y-118467000D01*
X189023500Y-112878500D02*
X193523500Y-112878500D01*
X187773500Y-108878500D02*
X187773500Y-110378500D01*
X193523500Y-106378500D02*
X189023500Y-106378500D01*
X194773500Y-110378500D02*
X194773500Y-108878500D01*
X188960000Y-103290000D02*
X193460000Y-103290000D01*
X187710000Y-99290000D02*
X187710000Y-100790000D01*
X193460000Y-96790000D02*
X188960000Y-96790000D01*
X194710000Y-100790000D02*
X194710000Y-99290000D01*
X92243000Y-90964000D02*
X91443000Y-90964000D01*
X87843000Y-90964000D02*
X88643000Y-90964000D01*
X92243000Y-82264000D02*
X91443000Y-82264000D01*
X87843000Y-82264000D02*
X88643000Y-82264000D01*
X83843000Y-88614000D02*
X87843000Y-88614000D01*
X83843000Y-84614000D02*
X83843000Y-88614000D01*
X87843000Y-84614000D02*
X83843000Y-84614000D01*
X87843000Y-90964000D02*
X87843000Y-82264000D01*
X92243000Y-82264000D02*
X92243000Y-90964000D01*
X125613000Y-133282000D02*
X125613000Y-123512000D01*
X130683000Y-133282000D02*
X130683000Y-123512000D01*
X125613000Y-133282000D02*
X130683000Y-133282000D01*
X125613000Y-123512000D02*
X130683000Y-123512000D01*
X166074736Y-92054000D02*
X167528864Y-92054000D01*
X166074736Y-93874000D02*
X167528864Y-93874000D01*
X176247436Y-97261000D02*
X177701564Y-97261000D01*
X176247436Y-99081000D02*
X177701564Y-99081000D01*
X141266500Y-101869864D02*
X141266500Y-100415736D01*
X143086500Y-101869864D02*
X143086500Y-100415736D01*
X174604000Y-103724064D02*
X174604000Y-102269936D01*
X176424000Y-103724064D02*
X176424000Y-102269936D01*
X171987800Y-103724064D02*
X171987800Y-102269936D01*
X173807800Y-103724064D02*
X173807800Y-102269936D01*
X184319500Y-117821064D02*
X184319500Y-116366936D01*
X186139500Y-117821064D02*
X186139500Y-116366936D01*
X193132064Y-92540500D02*
X191677936Y-92540500D01*
X193132064Y-90720500D02*
X191677936Y-90720500D01*
X184319500Y-108232564D02*
X184319500Y-106778436D01*
X186139500Y-108232564D02*
X186139500Y-106778436D01*
X184256000Y-98580564D02*
X184256000Y-97126436D01*
X186076000Y-98580564D02*
X186076000Y-97126436D01*
X124925500Y-126590436D02*
X124925500Y-128044564D01*
X123105500Y-126590436D02*
X123105500Y-128044564D01*
X134585064Y-131847000D02*
X133130936Y-131847000D01*
X134585064Y-130027000D02*
X133130936Y-130027000D01*
X121827936Y-130217500D02*
X123282064Y-130217500D01*
X121827936Y-132037500D02*
X123282064Y-132037500D01*
X113884064Y-96096500D02*
X112429936Y-96096500D01*
X113884064Y-94276500D02*
X112429936Y-94276500D01*
X100104564Y-72220500D02*
X98650436Y-72220500D01*
X100104564Y-70400500D02*
X98650436Y-70400500D01*
X108183000Y-95786564D02*
X108183000Y-94332436D01*
X110003000Y-95786564D02*
X110003000Y-94332436D01*
X100563000Y-90262064D02*
X100563000Y-88807936D01*
X102383000Y-90262064D02*
X102383000Y-88807936D01*
X93133500Y-88801564D02*
X93133500Y-87347436D01*
X94953500Y-88801564D02*
X94953500Y-87347436D01*
X114547000Y-133707500D02*
X114547000Y-123467500D01*
X98657000Y-133707500D02*
X98657000Y-123467500D01*
X98657000Y-133707500D02*
X114547000Y-133707500D01*
X98657000Y-123467500D02*
X114547000Y-123467500D01*
X114547000Y-131127500D02*
X117087000Y-131127500D01*
X114547000Y-128587500D02*
X117087000Y-128587500D01*
X114547000Y-126047500D02*
X117087000Y-126047500D01*
X104338000Y-98296000D02*
X105268000Y-98296000D01*
X107498000Y-98296000D02*
X106568000Y-98296000D01*
X107498000Y-98296000D02*
X107498000Y-96136000D01*
X104338000Y-98296000D02*
X104338000Y-96836000D01*
X98865000Y-86464500D02*
X98865000Y-87374500D01*
X98865000Y-88774500D02*
X98865000Y-89684500D01*
X96290000Y-86464500D02*
X98865000Y-86464500D01*
X96715000Y-89684500D02*
X98865000Y-89684500D01*
X154598300Y-98863578D02*
X154598300Y-99662822D01*
X153478300Y-98863578D02*
X153478300Y-99662822D01*
X126394500Y-118432000D02*
X126394500Y-121632000D01*
X126394500Y-121632000D02*
X115794500Y-121632000D01*
X115794500Y-121632000D02*
X115794500Y-118432000D01*
X115794500Y-114232000D02*
X115794500Y-111032000D01*
X115794500Y-111032000D02*
X126394500Y-111032000D01*
X126394500Y-111032000D02*
X126394500Y-114232000D01*
X128203500Y-82596000D02*
X128203500Y-81996000D01*
X130303500Y-83296000D02*
X128903500Y-83296000D01*
X131003500Y-81996000D02*
X131003500Y-82596000D01*
X128903500Y-81296000D02*
X130303500Y-81296000D01*
X128203500Y-81996000D02*
G75*
G02*
X128903500Y-81296000I700000J0D01*
G01*
X128903500Y-83296000D02*
G75*
G02*
X128203500Y-82596000I0J700000D01*
G01*
X131003500Y-82596000D02*
G75*
G02*
X130303500Y-83296000I-700000J0D01*
G01*
X130303500Y-81296000D02*
G75*
G02*
X131003500Y-81996000I0J-700000D01*
G01*
X128203500Y-79929000D02*
X128203500Y-79329000D01*
X130303500Y-80629000D02*
X128903500Y-80629000D01*
X131003500Y-79329000D02*
X131003500Y-79929000D01*
X128903500Y-78629000D02*
X130303500Y-78629000D01*
X128203500Y-79329000D02*
G75*
G02*
X128903500Y-78629000I700000J0D01*
G01*
X128903500Y-80629000D02*
G75*
G02*
X128203500Y-79929000I0J700000D01*
G01*
X131003500Y-79929000D02*
G75*
G02*
X130303500Y-80629000I-700000J0D01*
G01*
X130303500Y-78629000D02*
G75*
G02*
X131003500Y-79329000I0J-700000D01*
G01*
X163342600Y-93856000D02*
X162742600Y-93856000D01*
X164042600Y-91756000D02*
X164042600Y-93156000D01*
X162742600Y-91056000D02*
X163342600Y-91056000D01*
X162042600Y-93156000D02*
X162042600Y-91756000D01*
X162742600Y-93856000D02*
G75*
G02*
X162042600Y-93156000I0J700000D01*
G01*
X164042600Y-93156000D02*
G75*
G02*
X163342600Y-93856000I-700000J0D01*
G01*
X163342600Y-91056000D02*
G75*
G02*
X164042600Y-91756000I0J-700000D01*
G01*
X162042600Y-91756000D02*
G75*
G02*
X162742600Y-91056000I700000J0D01*
G01*
X168659500Y-127003500D02*
X168659500Y-132203500D01*
X178879500Y-127003500D02*
X168659500Y-127003500D01*
X181479500Y-132203500D02*
X168659500Y-132203500D01*
X178879500Y-127003500D02*
X178879500Y-129603500D01*
X178879500Y-129603500D02*
X181479500Y-129603500D01*
X181479500Y-129603500D02*
X181479500Y-132203500D01*
X180149500Y-127003500D02*
X181479500Y-127003500D01*
X181479500Y-127003500D02*
X181479500Y-128333500D01*
X102700000Y-93532000D02*
X102700000Y-92482000D01*
X101650000Y-92482000D02*
X102700000Y-92482000D01*
X96600000Y-101882000D02*
X87800000Y-101882000D01*
X87800000Y-101882000D02*
X87800000Y-92682000D01*
X102500000Y-99182000D02*
X102500000Y-101882000D01*
X102500000Y-101882000D02*
X100600000Y-101882000D01*
X87800000Y-92682000D02*
X102500000Y-92682000D01*
X102500000Y-92682000D02*
X102500000Y-95282000D01*
X107195252Y-101230500D02*
X106672748Y-101230500D01*
X107195252Y-99810500D02*
X106672748Y-99810500D01*
X172047000Y-98906000D02*
X174332000Y-98906000D01*
X174332000Y-98906000D02*
X174332000Y-97436000D01*
X174332000Y-97436000D02*
X172047000Y-97436000D01*
X141405000Y-121657000D02*
X141405000Y-116087000D01*
X141405000Y-116087000D02*
X131645000Y-116087000D01*
X131645000Y-116087000D02*
X131645000Y-121657000D01*
X131645000Y-121657000D02*
X141405000Y-121657000D01*
X142705000Y-118872000D02*
X141405000Y-118872000D01*
X130345000Y-118872000D02*
X131645000Y-118872000D01*
X139857000Y-121657000D02*
X139857000Y-116087000D01*
X139737000Y-121657000D02*
X139737000Y-116087000D01*
X139977000Y-121657000D02*
X139977000Y-116087000D01*
X113617500Y-101119500D02*
X115617500Y-101119500D01*
X115617500Y-101119500D02*
X115617500Y-97219500D01*
X113617500Y-101119500D02*
X113617500Y-97219500D01*
X104368500Y-70575500D02*
X102083500Y-70575500D01*
X102083500Y-70575500D02*
X102083500Y-72045500D01*
X102083500Y-72045500D02*
X104368500Y-72045500D01*
X103260000Y-94609000D02*
X107560000Y-94609000D01*
X107560000Y-94609000D02*
X107560000Y-88909000D01*
X103260000Y-94609000D02*
X103260000Y-88909000D01*
X184494500Y-121546252D02*
X184494500Y-121023748D01*
X185964500Y-121546252D02*
X185964500Y-121023748D01*
X157367300Y-99651452D02*
X157367300Y-99128948D01*
X158837300Y-99651452D02*
X158837300Y-99128948D01*
X155271800Y-99651452D02*
X155271800Y-99128948D01*
X156741800Y-99651452D02*
X156741800Y-99128948D01*
X184494500Y-111957752D02*
X184494500Y-111435248D01*
X185964500Y-111957752D02*
X185964500Y-111435248D01*
X187669500Y-78620252D02*
X187669500Y-78097748D01*
X189139500Y-78620252D02*
X189139500Y-78097748D01*
X194683748Y-88165000D02*
X195206252Y-88165000D01*
X194683748Y-89635000D02*
X195206252Y-89635000D01*
X184431000Y-102305752D02*
X184431000Y-101783248D01*
X185901000Y-102305752D02*
X185901000Y-101783248D01*
X159158000Y-94939752D02*
X159158000Y-94417248D01*
X160628000Y-94939752D02*
X160628000Y-94417248D01*
X170851500Y-105148748D02*
X170851500Y-105671252D01*
X169381500Y-105148748D02*
X169381500Y-105671252D01*
X154742000Y-120622000D02*
G75*
G03*
X154742000Y-120622000I-4120000J0D01*
G01*
X154702000Y-120622000D02*
X146542000Y-120622000D01*
X154702000Y-120662000D02*
X146542000Y-120662000D01*
X154702000Y-120702000D02*
X146542000Y-120702000D01*
X154701000Y-120742000D02*
X146543000Y-120742000D01*
X154699000Y-120782000D02*
X146545000Y-120782000D01*
X154698000Y-120822000D02*
X146546000Y-120822000D01*
X154696000Y-120862000D02*
X146548000Y-120862000D01*
X154693000Y-120902000D02*
X146551000Y-120902000D01*
X154690000Y-120942000D02*
X146554000Y-120942000D01*
X154687000Y-120982000D02*
X146557000Y-120982000D01*
X154683000Y-121022000D02*
X146561000Y-121022000D01*
X154679000Y-121062000D02*
X146565000Y-121062000D01*
X154674000Y-121102000D02*
X146570000Y-121102000D01*
X154670000Y-121142000D02*
X146574000Y-121142000D01*
X154664000Y-121182000D02*
X146580000Y-121182000D01*
X154659000Y-121222000D02*
X146585000Y-121222000D01*
X154652000Y-121262000D02*
X146592000Y-121262000D01*
X154646000Y-121302000D02*
X146598000Y-121302000D01*
X154639000Y-121343000D02*
X151662000Y-121343000D01*
X149582000Y-121343000D02*
X146605000Y-121343000D01*
X154632000Y-121383000D02*
X151662000Y-121383000D01*
X149582000Y-121383000D02*
X146612000Y-121383000D01*
X154624000Y-121423000D02*
X151662000Y-121423000D01*
X149582000Y-121423000D02*
X146620000Y-121423000D01*
X154616000Y-121463000D02*
X151662000Y-121463000D01*
X149582000Y-121463000D02*
X146628000Y-121463000D01*
X154607000Y-121503000D02*
X151662000Y-121503000D01*
X149582000Y-121503000D02*
X146637000Y-121503000D01*
X154598000Y-121543000D02*
X151662000Y-121543000D01*
X149582000Y-121543000D02*
X146646000Y-121543000D01*
X154589000Y-121583000D02*
X151662000Y-121583000D01*
X149582000Y-121583000D02*
X146655000Y-121583000D01*
X154579000Y-121623000D02*
X151662000Y-121623000D01*
X149582000Y-121623000D02*
X146665000Y-121623000D01*
X154569000Y-121663000D02*
X151662000Y-121663000D01*
X149582000Y-121663000D02*
X146675000Y-121663000D01*
X154558000Y-121703000D02*
X151662000Y-121703000D01*
X149582000Y-121703000D02*
X146686000Y-121703000D01*
X154547000Y-121743000D02*
X151662000Y-121743000D01*
X149582000Y-121743000D02*
X146697000Y-121743000D01*
X154536000Y-121783000D02*
X151662000Y-121783000D01*
X149582000Y-121783000D02*
X146708000Y-121783000D01*
X154524000Y-121823000D02*
X151662000Y-121823000D01*
X149582000Y-121823000D02*
X146720000Y-121823000D01*
X154511000Y-121863000D02*
X151662000Y-121863000D01*
X149582000Y-121863000D02*
X146733000Y-121863000D01*
X154499000Y-121903000D02*
X151662000Y-121903000D01*
X149582000Y-121903000D02*
X146745000Y-121903000D01*
X154485000Y-121943000D02*
X151662000Y-121943000D01*
X149582000Y-121943000D02*
X146759000Y-121943000D01*
X154472000Y-121983000D02*
X151662000Y-121983000D01*
X149582000Y-121983000D02*
X146772000Y-121983000D01*
X154457000Y-122023000D02*
X151662000Y-122023000D01*
X149582000Y-122023000D02*
X146787000Y-122023000D01*
X154443000Y-122063000D02*
X151662000Y-122063000D01*
X149582000Y-122063000D02*
X146801000Y-122063000D01*
X154427000Y-122103000D02*
X151662000Y-122103000D01*
X149582000Y-122103000D02*
X146817000Y-122103000D01*
X154412000Y-122143000D02*
X151662000Y-122143000D01*
X149582000Y-122143000D02*
X146832000Y-122143000D01*
X154396000Y-122183000D02*
X151662000Y-122183000D01*
X149582000Y-122183000D02*
X146848000Y-122183000D01*
X154379000Y-122223000D02*
X151662000Y-122223000D01*
X149582000Y-122223000D02*
X146865000Y-122223000D01*
X154362000Y-122263000D02*
X151662000Y-122263000D01*
X149582000Y-122263000D02*
X146882000Y-122263000D01*
X154344000Y-122303000D02*
X151662000Y-122303000D01*
X149582000Y-122303000D02*
X146900000Y-122303000D01*
X154326000Y-122343000D02*
X151662000Y-122343000D01*
X149582000Y-122343000D02*
X146918000Y-122343000D01*
X154308000Y-122383000D02*
X151662000Y-122383000D01*
X149582000Y-122383000D02*
X146936000Y-122383000D01*
X154288000Y-122423000D02*
X151662000Y-122423000D01*
X149582000Y-122423000D02*
X146956000Y-122423000D01*
X154269000Y-122463000D02*
X151662000Y-122463000D01*
X149582000Y-122463000D02*
X146975000Y-122463000D01*
X154249000Y-122503000D02*
X151662000Y-122503000D01*
X149582000Y-122503000D02*
X146995000Y-122503000D01*
X154228000Y-122543000D02*
X151662000Y-122543000D01*
X149582000Y-122543000D02*
X147016000Y-122543000D01*
X154206000Y-122583000D02*
X151662000Y-122583000D01*
X149582000Y-122583000D02*
X147038000Y-122583000D01*
X154184000Y-122623000D02*
X151662000Y-122623000D01*
X149582000Y-122623000D02*
X147060000Y-122623000D01*
X154162000Y-122663000D02*
X151662000Y-122663000D01*
X149582000Y-122663000D02*
X147082000Y-122663000D01*
X154139000Y-122703000D02*
X151662000Y-122703000D01*
X149582000Y-122703000D02*
X147105000Y-122703000D01*
X154115000Y-122743000D02*
X151662000Y-122743000D01*
X149582000Y-122743000D02*
X147129000Y-122743000D01*
X154091000Y-122783000D02*
X151662000Y-122783000D01*
X149582000Y-122783000D02*
X147153000Y-122783000D01*
X154066000Y-122823000D02*
X151662000Y-122823000D01*
X149582000Y-122823000D02*
X147178000Y-122823000D01*
X154040000Y-122863000D02*
X151662000Y-122863000D01*
X149582000Y-122863000D02*
X147204000Y-122863000D01*
X154014000Y-122903000D02*
X151662000Y-122903000D01*
X149582000Y-122903000D02*
X147230000Y-122903000D01*
X153987000Y-122943000D02*
X151662000Y-122943000D01*
X149582000Y-122943000D02*
X147257000Y-122943000D01*
X153960000Y-122983000D02*
X151662000Y-122983000D01*
X149582000Y-122983000D02*
X147284000Y-122983000D01*
X153931000Y-123023000D02*
X151662000Y-123023000D01*
X149582000Y-123023000D02*
X147313000Y-123023000D01*
X153902000Y-123063000D02*
X151662000Y-123063000D01*
X149582000Y-123063000D02*
X147342000Y-123063000D01*
X153872000Y-123103000D02*
X151662000Y-123103000D01*
X149582000Y-123103000D02*
X147372000Y-123103000D01*
X153842000Y-123143000D02*
X151662000Y-123143000D01*
X149582000Y-123143000D02*
X147402000Y-123143000D01*
X153811000Y-123183000D02*
X151662000Y-123183000D01*
X149582000Y-123183000D02*
X147433000Y-123183000D01*
X153778000Y-123223000D02*
X151662000Y-123223000D01*
X149582000Y-123223000D02*
X147466000Y-123223000D01*
X153746000Y-123263000D02*
X151662000Y-123263000D01*
X149582000Y-123263000D02*
X147498000Y-123263000D01*
X153712000Y-123303000D02*
X151662000Y-123303000D01*
X149582000Y-123303000D02*
X147532000Y-123303000D01*
X153677000Y-123343000D02*
X151662000Y-123343000D01*
X149582000Y-123343000D02*
X147567000Y-123343000D01*
X153641000Y-123383000D02*
X151662000Y-123383000D01*
X149582000Y-123383000D02*
X147603000Y-123383000D01*
X153605000Y-123423000D02*
X147639000Y-123423000D01*
X153567000Y-123463000D02*
X147677000Y-123463000D01*
X153529000Y-123503000D02*
X147715000Y-123503000D01*
X153489000Y-123543000D02*
X147755000Y-123543000D01*
X153448000Y-123583000D02*
X147796000Y-123583000D01*
X153406000Y-123623000D02*
X147838000Y-123623000D01*
X153363000Y-123663000D02*
X147881000Y-123663000D01*
X153319000Y-123703000D02*
X147925000Y-123703000D01*
X153273000Y-123743000D02*
X147971000Y-123743000D01*
X153226000Y-123783000D02*
X148018000Y-123783000D01*
X153178000Y-123823000D02*
X148066000Y-123823000D01*
X153127000Y-123863000D02*
X148117000Y-123863000D01*
X153076000Y-123903000D02*
X148168000Y-123903000D01*
X153022000Y-123943000D02*
X148222000Y-123943000D01*
X152967000Y-123983000D02*
X148277000Y-123983000D01*
X152909000Y-124023000D02*
X148335000Y-124023000D01*
X152850000Y-124063000D02*
X148394000Y-124063000D01*
X152788000Y-124103000D02*
X148456000Y-124103000D01*
X152724000Y-124143000D02*
X148520000Y-124143000D01*
X152656000Y-124183000D02*
X148588000Y-124183000D01*
X152586000Y-124223000D02*
X148658000Y-124223000D01*
X152512000Y-124263000D02*
X148732000Y-124263000D01*
X152435000Y-124303000D02*
X148809000Y-124303000D01*
X152353000Y-124343000D02*
X148891000Y-124343000D01*
X152267000Y-124383000D02*
X148977000Y-124383000D01*
X152174000Y-124423000D02*
X149070000Y-124423000D01*
X152075000Y-124463000D02*
X149169000Y-124463000D01*
X151968000Y-124503000D02*
X149276000Y-124503000D01*
X151851000Y-124543000D02*
X149393000Y-124543000D01*
X151720000Y-124583000D02*
X149524000Y-124583000D01*
X151570000Y-124623000D02*
X149674000Y-124623000D01*
X151390000Y-124663000D02*
X149854000Y-124663000D01*
X151155000Y-124703000D02*
X150089000Y-124703000D01*
X152937000Y-116212302D02*
X152937000Y-117012302D01*
X153337000Y-116612302D02*
X152537000Y-116612302D01*
X111767252Y-122845500D02*
X111244748Y-122845500D01*
X111767252Y-121375500D02*
X111244748Y-121375500D01*
X105764000Y-119563248D02*
X105764000Y-120085752D01*
X104294000Y-119563248D02*
X104294000Y-120085752D01*
X103605000Y-117023248D02*
X103605000Y-117545752D01*
X102135000Y-117023248D02*
X102135000Y-117545752D01*
X111533000Y-99829252D02*
X111533000Y-99306748D01*
X113003000Y-99829252D02*
X113003000Y-99306748D01*
X109374000Y-99829252D02*
X109374000Y-99306748D01*
X110844000Y-99829252D02*
X110844000Y-99306748D01*
X125087500Y-98770500D02*
G75*
G03*
X125087500Y-98770500I-4120000J0D01*
G01*
X106990248Y-70575500D02*
X107512752Y-70575500D01*
X106990248Y-72045500D02*
X107512752Y-72045500D01*
X123518600Y-79088348D02*
X123518600Y-79610852D01*
X122048600Y-79088348D02*
X122048600Y-79610852D01*
X106990248Y-72734500D02*
X107512752Y-72734500D01*
X106990248Y-74204500D02*
X107512752Y-74204500D01*
X121385000Y-79073148D02*
X121385000Y-79595652D01*
X119915000Y-79073148D02*
X119915000Y-79595652D01*
X111132252Y-83983500D02*
X110609748Y-83983500D01*
X111132252Y-82513500D02*
X110609748Y-82513500D01*
X106990248Y-82513500D02*
X107512752Y-82513500D01*
X106990248Y-83983500D02*
X107512752Y-83983500D01*
X111132252Y-86142500D02*
X110609748Y-86142500D01*
X111132252Y-84672500D02*
X110609748Y-84672500D01*
X106990248Y-84685200D02*
X107512752Y-84685200D01*
X106990248Y-86155200D02*
X107512752Y-86155200D01*
X156501500Y-81597500D02*
X156501500Y-82311500D01*
X154559000Y-81597500D02*
X156501500Y-81597500D01*
X154559000Y-77025500D02*
X154559000Y-81597500D01*
X156501500Y-77025500D02*
X154559000Y-77025500D01*
X156501500Y-76311500D02*
X156501500Y-77025500D01*
X185001500Y-81597500D02*
X185001500Y-82311500D01*
X186944000Y-81597500D02*
X185001500Y-81597500D01*
X186944000Y-77025500D02*
X186944000Y-81597500D01*
X185001500Y-77025500D02*
X186944000Y-77025500D01*
X185001500Y-76311500D02*
X185001500Y-77025500D01*
X164719000Y-87310500D02*
X159751500Y-87311500D01*
X181737000Y-71310500D02*
X176769500Y-71311500D01*
X164719000Y-71310500D02*
X159751500Y-71311500D01*
X180751500Y-79311500D02*
G75*
G03*
X180751500Y-79311500I-10000000J0D01*
G01*
X181751500Y-87311500D02*
X176784000Y-87312500D01*
X185001500Y-82311500D02*
X181751500Y-82311500D01*
X185001500Y-76311500D02*
X181751500Y-76311500D01*
X181751500Y-76311500D02*
X181751500Y-71311500D01*
X181751500Y-82311500D02*
X181751500Y-87311500D01*
X159751500Y-82311500D02*
X159751500Y-87311500D01*
X156501500Y-76311500D02*
X159751500Y-76311500D01*
X159751500Y-76311500D02*
X159751500Y-71311500D01*
X156501500Y-82311500D02*
X159751500Y-82311500D01*
D10*
X95750142Y-113387142D02*
X95702523Y-113434761D01*
X95559666Y-113482380D01*
X95464428Y-113482380D01*
X95321571Y-113434761D01*
X95226333Y-113339523D01*
X95178714Y-113244285D01*
X95131095Y-113053809D01*
X95131095Y-112910952D01*
X95178714Y-112720476D01*
X95226333Y-112625238D01*
X95321571Y-112530000D01*
X95464428Y-112482380D01*
X95559666Y-112482380D01*
X95702523Y-112530000D01*
X95750142Y-112577619D01*
X96702523Y-113482380D02*
X96131095Y-113482380D01*
X96416809Y-113482380D02*
X96416809Y-112482380D01*
X96321571Y-112625238D01*
X96226333Y-112720476D01*
X96131095Y-112768095D01*
X97083476Y-112577619D02*
X97131095Y-112530000D01*
X97226333Y-112482380D01*
X97464428Y-112482380D01*
X97559666Y-112530000D01*
X97607285Y-112577619D01*
X97654904Y-112672857D01*
X97654904Y-112768095D01*
X97607285Y-112910952D01*
X97035857Y-113482380D01*
X97654904Y-113482380D01*
X191115109Y-78208190D02*
X191115109Y-78684380D01*
X190781776Y-77684380D02*
X191115109Y-78208190D01*
X191448442Y-77684380D01*
X192305585Y-78684380D02*
X191734157Y-78684380D01*
X192019871Y-78684380D02*
X192019871Y-77684380D01*
X191924633Y-77827238D01*
X191829395Y-77922476D01*
X191734157Y-77970095D01*
X137287095Y-76146380D02*
X137287095Y-76955904D01*
X137334714Y-77051142D01*
X137382333Y-77098761D01*
X137477571Y-77146380D01*
X137668047Y-77146380D01*
X137763285Y-77098761D01*
X137810904Y-77051142D01*
X137858523Y-76955904D01*
X137858523Y-76146380D01*
X138763285Y-76146380D02*
X138572809Y-76146380D01*
X138477571Y-76194000D01*
X138429952Y-76241619D01*
X138334714Y-76384476D01*
X138287095Y-76574952D01*
X138287095Y-76955904D01*
X138334714Y-77051142D01*
X138382333Y-77098761D01*
X138477571Y-77146380D01*
X138668047Y-77146380D01*
X138763285Y-77098761D01*
X138810904Y-77051142D01*
X138858523Y-76955904D01*
X138858523Y-76717809D01*
X138810904Y-76622571D01*
X138763285Y-76574952D01*
X138668047Y-76527333D01*
X138477571Y-76527333D01*
X138382333Y-76574952D01*
X138334714Y-76622571D01*
X138287095Y-76717809D01*
X193254380Y-84454904D02*
X194063904Y-84454904D01*
X194159142Y-84407285D01*
X194206761Y-84359666D01*
X194254380Y-84264428D01*
X194254380Y-84073952D01*
X194206761Y-83978714D01*
X194159142Y-83931095D01*
X194063904Y-83883476D01*
X193254380Y-83883476D01*
X193254380Y-82931095D02*
X193254380Y-83407285D01*
X193730571Y-83454904D01*
X193682952Y-83407285D01*
X193635333Y-83312047D01*
X193635333Y-83073952D01*
X193682952Y-82978714D01*
X193730571Y-82931095D01*
X193825809Y-82883476D01*
X194063904Y-82883476D01*
X194159142Y-82931095D01*
X194206761Y-82978714D01*
X194254380Y-83073952D01*
X194254380Y-83312047D01*
X194206761Y-83407285D01*
X194159142Y-83454904D01*
X164274595Y-105624380D02*
X164274595Y-106433904D01*
X164322214Y-106529142D01*
X164369833Y-106576761D01*
X164465071Y-106624380D01*
X164655547Y-106624380D01*
X164750785Y-106576761D01*
X164798404Y-106529142D01*
X164846023Y-106433904D01*
X164846023Y-105624380D01*
X165750785Y-105957714D02*
X165750785Y-106624380D01*
X165512690Y-105576761D02*
X165274595Y-106291047D01*
X165893642Y-106291047D01*
X109220095Y-114289380D02*
X109220095Y-115098904D01*
X109267714Y-115194142D01*
X109315333Y-115241761D01*
X109410571Y-115289380D01*
X109601047Y-115289380D01*
X109696285Y-115241761D01*
X109743904Y-115194142D01*
X109791523Y-115098904D01*
X109791523Y-114289380D01*
X110172476Y-114289380D02*
X110791523Y-114289380D01*
X110458190Y-114670333D01*
X110601047Y-114670333D01*
X110696285Y-114717952D01*
X110743904Y-114765571D01*
X110791523Y-114860809D01*
X110791523Y-115098904D01*
X110743904Y-115194142D01*
X110696285Y-115241761D01*
X110601047Y-115289380D01*
X110315333Y-115289380D01*
X110220095Y-115241761D01*
X110172476Y-115194142D01*
X114249295Y-73336780D02*
X114249295Y-74146304D01*
X114296914Y-74241542D01*
X114344533Y-74289161D01*
X114439771Y-74336780D01*
X114630247Y-74336780D01*
X114725485Y-74289161D01*
X114773104Y-74241542D01*
X114820723Y-74146304D01*
X114820723Y-73336780D01*
X115249295Y-73432019D02*
X115296914Y-73384400D01*
X115392152Y-73336780D01*
X115630247Y-73336780D01*
X115725485Y-73384400D01*
X115773104Y-73432019D01*
X115820723Y-73527257D01*
X115820723Y-73622495D01*
X115773104Y-73765352D01*
X115201676Y-74336780D01*
X115820723Y-74336780D01*
X97369380Y-79120904D02*
X98178904Y-79120904D01*
X98274142Y-79073285D01*
X98321761Y-79025666D01*
X98369380Y-78930428D01*
X98369380Y-78739952D01*
X98321761Y-78644714D01*
X98274142Y-78597095D01*
X98178904Y-78549476D01*
X97369380Y-78549476D01*
X98369380Y-77549476D02*
X98369380Y-78120904D01*
X98369380Y-77835190D02*
X97369380Y-77835190D01*
X97512238Y-77930428D01*
X97607476Y-78025666D01*
X97655095Y-78120904D01*
X131865761Y-126563380D02*
X131532428Y-126087190D01*
X131294333Y-126563380D02*
X131294333Y-125563380D01*
X131675285Y-125563380D01*
X131770523Y-125611000D01*
X131818142Y-125658619D01*
X131865761Y-125753857D01*
X131865761Y-125896714D01*
X131818142Y-125991952D01*
X131770523Y-126039571D01*
X131675285Y-126087190D01*
X131294333Y-126087190D01*
X132151476Y-125563380D02*
X132484809Y-126563380D01*
X132818142Y-125563380D01*
X133675285Y-126563380D02*
X133103857Y-126563380D01*
X133389571Y-126563380D02*
X133389571Y-125563380D01*
X133294333Y-125706238D01*
X133199095Y-125801476D01*
X133103857Y-125849095D01*
X166158942Y-91596380D02*
X165825609Y-91120190D01*
X165587514Y-91596380D02*
X165587514Y-90596380D01*
X165968466Y-90596380D01*
X166063704Y-90644000D01*
X166111323Y-90691619D01*
X166158942Y-90786857D01*
X166158942Y-90929714D01*
X166111323Y-91024952D01*
X166063704Y-91072571D01*
X165968466Y-91120190D01*
X165587514Y-91120190D01*
X167111323Y-91596380D02*
X166539895Y-91596380D01*
X166825609Y-91596380D02*
X166825609Y-90596380D01*
X166730371Y-90739238D01*
X166635133Y-90834476D01*
X166539895Y-90882095D01*
X167444657Y-90596380D02*
X168111323Y-90596380D01*
X167682752Y-91596380D01*
X176331642Y-96803380D02*
X175998309Y-96327190D01*
X175760214Y-96803380D02*
X175760214Y-95803380D01*
X176141166Y-95803380D01*
X176236404Y-95851000D01*
X176284023Y-95898619D01*
X176331642Y-95993857D01*
X176331642Y-96136714D01*
X176284023Y-96231952D01*
X176236404Y-96279571D01*
X176141166Y-96327190D01*
X175760214Y-96327190D01*
X177284023Y-96803380D02*
X176712595Y-96803380D01*
X176998309Y-96803380D02*
X176998309Y-95803380D01*
X176903071Y-95946238D01*
X176807833Y-96041476D01*
X176712595Y-96089095D01*
X178141166Y-95803380D02*
X177950690Y-95803380D01*
X177855452Y-95851000D01*
X177807833Y-95898619D01*
X177712595Y-96041476D01*
X177664976Y-96231952D01*
X177664976Y-96612904D01*
X177712595Y-96708142D01*
X177760214Y-96755761D01*
X177855452Y-96803380D01*
X178045928Y-96803380D01*
X178141166Y-96755761D01*
X178188785Y-96708142D01*
X178236404Y-96612904D01*
X178236404Y-96374809D01*
X178188785Y-96279571D01*
X178141166Y-96231952D01*
X178045928Y-96184333D01*
X177855452Y-96184333D01*
X177760214Y-96231952D01*
X177712595Y-96279571D01*
X177664976Y-96374809D01*
X140808880Y-101785657D02*
X140332690Y-102118990D01*
X140808880Y-102357085D02*
X139808880Y-102357085D01*
X139808880Y-101976133D01*
X139856500Y-101880895D01*
X139904119Y-101833276D01*
X139999357Y-101785657D01*
X140142214Y-101785657D01*
X140237452Y-101833276D01*
X140285071Y-101880895D01*
X140332690Y-101976133D01*
X140332690Y-102357085D01*
X140808880Y-100833276D02*
X140808880Y-101404704D01*
X140808880Y-101118990D02*
X139808880Y-101118990D01*
X139951738Y-101214228D01*
X140046976Y-101309466D01*
X140094595Y-101404704D01*
X139808880Y-99928514D02*
X139808880Y-100404704D01*
X140285071Y-100452323D01*
X140237452Y-100404704D01*
X140189833Y-100309466D01*
X140189833Y-100071371D01*
X140237452Y-99976133D01*
X140285071Y-99928514D01*
X140380309Y-99880895D01*
X140618404Y-99880895D01*
X140713642Y-99928514D01*
X140761261Y-99976133D01*
X140808880Y-100071371D01*
X140808880Y-100309466D01*
X140761261Y-100404704D01*
X140713642Y-100452323D01*
X175966380Y-107576857D02*
X175490190Y-107910190D01*
X175966380Y-108148285D02*
X174966380Y-108148285D01*
X174966380Y-107767333D01*
X175014000Y-107672095D01*
X175061619Y-107624476D01*
X175156857Y-107576857D01*
X175299714Y-107576857D01*
X175394952Y-107624476D01*
X175442571Y-107672095D01*
X175490190Y-107767333D01*
X175490190Y-108148285D01*
X175966380Y-106624476D02*
X175966380Y-107195904D01*
X175966380Y-106910190D02*
X174966380Y-106910190D01*
X175109238Y-107005428D01*
X175204476Y-107100666D01*
X175252095Y-107195904D01*
X175299714Y-105767333D02*
X175966380Y-105767333D01*
X174918761Y-106005428D02*
X175633047Y-106243523D01*
X175633047Y-105624476D01*
X173299380Y-107576857D02*
X172823190Y-107910190D01*
X173299380Y-108148285D02*
X172299380Y-108148285D01*
X172299380Y-107767333D01*
X172347000Y-107672095D01*
X172394619Y-107624476D01*
X172489857Y-107576857D01*
X172632714Y-107576857D01*
X172727952Y-107624476D01*
X172775571Y-107672095D01*
X172823190Y-107767333D01*
X172823190Y-108148285D01*
X173299380Y-106624476D02*
X173299380Y-107195904D01*
X173299380Y-106910190D02*
X172299380Y-106910190D01*
X172442238Y-107005428D01*
X172537476Y-107100666D01*
X172585095Y-107195904D01*
X172299380Y-106291142D02*
X172299380Y-105672095D01*
X172680333Y-106005428D01*
X172680333Y-105862571D01*
X172727952Y-105767333D01*
X172775571Y-105719714D01*
X172870809Y-105672095D01*
X173108904Y-105672095D01*
X173204142Y-105719714D01*
X173251761Y-105767333D01*
X173299380Y-105862571D01*
X173299380Y-106148285D01*
X173251761Y-106243523D01*
X173204142Y-106291142D01*
X183861880Y-117736857D02*
X183385690Y-118070190D01*
X183861880Y-118308285D02*
X182861880Y-118308285D01*
X182861880Y-117927333D01*
X182909500Y-117832095D01*
X182957119Y-117784476D01*
X183052357Y-117736857D01*
X183195214Y-117736857D01*
X183290452Y-117784476D01*
X183338071Y-117832095D01*
X183385690Y-117927333D01*
X183385690Y-118308285D01*
X183861880Y-116784476D02*
X183861880Y-117355904D01*
X183861880Y-117070190D02*
X182861880Y-117070190D01*
X183004738Y-117165428D01*
X183099976Y-117260666D01*
X183147595Y-117355904D01*
X182957119Y-116403523D02*
X182909500Y-116355904D01*
X182861880Y-116260666D01*
X182861880Y-116022571D01*
X182909500Y-115927333D01*
X182957119Y-115879714D01*
X183052357Y-115832095D01*
X183147595Y-115832095D01*
X183290452Y-115879714D01*
X183861880Y-116451142D01*
X183861880Y-115832095D01*
X191762142Y-93902880D02*
X191428809Y-93426690D01*
X191190714Y-93902880D02*
X191190714Y-92902880D01*
X191571666Y-92902880D01*
X191666904Y-92950500D01*
X191714523Y-92998119D01*
X191762142Y-93093357D01*
X191762142Y-93236214D01*
X191714523Y-93331452D01*
X191666904Y-93379071D01*
X191571666Y-93426690D01*
X191190714Y-93426690D01*
X192714523Y-93902880D02*
X192143095Y-93902880D01*
X192428809Y-93902880D02*
X192428809Y-92902880D01*
X192333571Y-93045738D01*
X192238333Y-93140976D01*
X192143095Y-93188595D01*
X193666904Y-93902880D02*
X193095476Y-93902880D01*
X193381190Y-93902880D02*
X193381190Y-92902880D01*
X193285952Y-93045738D01*
X193190714Y-93140976D01*
X193095476Y-93188595D01*
X183861880Y-108148357D02*
X183385690Y-108481690D01*
X183861880Y-108719785D02*
X182861880Y-108719785D01*
X182861880Y-108338833D01*
X182909500Y-108243595D01*
X182957119Y-108195976D01*
X183052357Y-108148357D01*
X183195214Y-108148357D01*
X183290452Y-108195976D01*
X183338071Y-108243595D01*
X183385690Y-108338833D01*
X183385690Y-108719785D01*
X183861880Y-107195976D02*
X183861880Y-107767404D01*
X183861880Y-107481690D02*
X182861880Y-107481690D01*
X183004738Y-107576928D01*
X183099976Y-107672166D01*
X183147595Y-107767404D01*
X182861880Y-106576928D02*
X182861880Y-106481690D01*
X182909500Y-106386452D01*
X182957119Y-106338833D01*
X183052357Y-106291214D01*
X183242833Y-106243595D01*
X183480928Y-106243595D01*
X183671404Y-106291214D01*
X183766642Y-106338833D01*
X183814261Y-106386452D01*
X183861880Y-106481690D01*
X183861880Y-106576928D01*
X183814261Y-106672166D01*
X183766642Y-106719785D01*
X183671404Y-106767404D01*
X183480928Y-106815023D01*
X183242833Y-106815023D01*
X183052357Y-106767404D01*
X182957119Y-106719785D01*
X182909500Y-106672166D01*
X182861880Y-106576928D01*
X183798380Y-98020166D02*
X183322190Y-98353500D01*
X183798380Y-98591595D02*
X182798380Y-98591595D01*
X182798380Y-98210642D01*
X182846000Y-98115404D01*
X182893619Y-98067785D01*
X182988857Y-98020166D01*
X183131714Y-98020166D01*
X183226952Y-98067785D01*
X183274571Y-98115404D01*
X183322190Y-98210642D01*
X183322190Y-98591595D01*
X183798380Y-97543976D02*
X183798380Y-97353500D01*
X183750761Y-97258261D01*
X183703142Y-97210642D01*
X183560285Y-97115404D01*
X183369809Y-97067785D01*
X182988857Y-97067785D01*
X182893619Y-97115404D01*
X182846000Y-97163023D01*
X182798380Y-97258261D01*
X182798380Y-97448738D01*
X182846000Y-97543976D01*
X182893619Y-97591595D01*
X182988857Y-97639214D01*
X183226952Y-97639214D01*
X183322190Y-97591595D01*
X183369809Y-97543976D01*
X183417428Y-97448738D01*
X183417428Y-97258261D01*
X183369809Y-97163023D01*
X183322190Y-97115404D01*
X183226952Y-97067785D01*
X123785333Y-124785380D02*
X123452000Y-124309190D01*
X123213904Y-124785380D02*
X123213904Y-123785380D01*
X123594857Y-123785380D01*
X123690095Y-123833000D01*
X123737714Y-123880619D01*
X123785333Y-123975857D01*
X123785333Y-124118714D01*
X123737714Y-124213952D01*
X123690095Y-124261571D01*
X123594857Y-124309190D01*
X123213904Y-124309190D01*
X124356761Y-124213952D02*
X124261523Y-124166333D01*
X124213904Y-124118714D01*
X124166285Y-124023476D01*
X124166285Y-123975857D01*
X124213904Y-123880619D01*
X124261523Y-123833000D01*
X124356761Y-123785380D01*
X124547238Y-123785380D01*
X124642476Y-123833000D01*
X124690095Y-123880619D01*
X124737714Y-123975857D01*
X124737714Y-124023476D01*
X124690095Y-124118714D01*
X124642476Y-124166333D01*
X124547238Y-124213952D01*
X124356761Y-124213952D01*
X124261523Y-124261571D01*
X124213904Y-124309190D01*
X124166285Y-124404428D01*
X124166285Y-124594904D01*
X124213904Y-124690142D01*
X124261523Y-124737761D01*
X124356761Y-124785380D01*
X124547238Y-124785380D01*
X124642476Y-124737761D01*
X124690095Y-124690142D01*
X124737714Y-124594904D01*
X124737714Y-124404428D01*
X124690095Y-124309190D01*
X124642476Y-124261571D01*
X124547238Y-124213952D01*
X133691333Y-133421380D02*
X133358000Y-132945190D01*
X133119904Y-133421380D02*
X133119904Y-132421380D01*
X133500857Y-132421380D01*
X133596095Y-132469000D01*
X133643714Y-132516619D01*
X133691333Y-132611857D01*
X133691333Y-132754714D01*
X133643714Y-132849952D01*
X133596095Y-132897571D01*
X133500857Y-132945190D01*
X133119904Y-132945190D01*
X134024666Y-132421380D02*
X134691333Y-132421380D01*
X134262761Y-133421380D01*
X120991333Y-129738380D02*
X120658000Y-129262190D01*
X120419904Y-129738380D02*
X120419904Y-128738380D01*
X120800857Y-128738380D01*
X120896095Y-128786000D01*
X120943714Y-128833619D01*
X120991333Y-128928857D01*
X120991333Y-129071714D01*
X120943714Y-129166952D01*
X120896095Y-129214571D01*
X120800857Y-129262190D01*
X120419904Y-129262190D01*
X121848476Y-128738380D02*
X121658000Y-128738380D01*
X121562761Y-128786000D01*
X121515142Y-128833619D01*
X121419904Y-128976476D01*
X121372285Y-129166952D01*
X121372285Y-129547904D01*
X121419904Y-129643142D01*
X121467523Y-129690761D01*
X121562761Y-129738380D01*
X121753238Y-129738380D01*
X121848476Y-129690761D01*
X121896095Y-129643142D01*
X121943714Y-129547904D01*
X121943714Y-129309809D01*
X121896095Y-129214571D01*
X121848476Y-129166952D01*
X121753238Y-129119333D01*
X121562761Y-129119333D01*
X121467523Y-129166952D01*
X121419904Y-129214571D01*
X121372285Y-129309809D01*
X112990333Y-93797380D02*
X112657000Y-93321190D01*
X112418904Y-93797380D02*
X112418904Y-92797380D01*
X112799857Y-92797380D01*
X112895095Y-92845000D01*
X112942714Y-92892619D01*
X112990333Y-92987857D01*
X112990333Y-93130714D01*
X112942714Y-93225952D01*
X112895095Y-93273571D01*
X112799857Y-93321190D01*
X112418904Y-93321190D01*
X113895095Y-92797380D02*
X113418904Y-92797380D01*
X113371285Y-93273571D01*
X113418904Y-93225952D01*
X113514142Y-93178333D01*
X113752238Y-93178333D01*
X113847476Y-93225952D01*
X113895095Y-93273571D01*
X113942714Y-93368809D01*
X113942714Y-93606904D01*
X113895095Y-93702142D01*
X113847476Y-93749761D01*
X113752238Y-93797380D01*
X113514142Y-93797380D01*
X113418904Y-93749761D01*
X113371285Y-93702142D01*
X99210833Y-73582880D02*
X98877500Y-73106690D01*
X98639404Y-73582880D02*
X98639404Y-72582880D01*
X99020357Y-72582880D01*
X99115595Y-72630500D01*
X99163214Y-72678119D01*
X99210833Y-72773357D01*
X99210833Y-72916214D01*
X99163214Y-73011452D01*
X99115595Y-73059071D01*
X99020357Y-73106690D01*
X98639404Y-73106690D01*
X100067976Y-72916214D02*
X100067976Y-73582880D01*
X99829880Y-72535261D02*
X99591785Y-73249547D01*
X100210833Y-73249547D01*
X109545380Y-91860666D02*
X109069190Y-92194000D01*
X109545380Y-92432095D02*
X108545380Y-92432095D01*
X108545380Y-92051142D01*
X108593000Y-91955904D01*
X108640619Y-91908285D01*
X108735857Y-91860666D01*
X108878714Y-91860666D01*
X108973952Y-91908285D01*
X109021571Y-91955904D01*
X109069190Y-92051142D01*
X109069190Y-92432095D01*
X108545380Y-91527333D02*
X108545380Y-90908285D01*
X108926333Y-91241619D01*
X108926333Y-91098761D01*
X108973952Y-91003523D01*
X109021571Y-90955904D01*
X109116809Y-90908285D01*
X109354904Y-90908285D01*
X109450142Y-90955904D01*
X109497761Y-91003523D01*
X109545380Y-91098761D01*
X109545380Y-91384476D01*
X109497761Y-91479714D01*
X109450142Y-91527333D01*
X101925380Y-86399666D02*
X101449190Y-86733000D01*
X101925380Y-86971095D02*
X100925380Y-86971095D01*
X100925380Y-86590142D01*
X100973000Y-86494904D01*
X101020619Y-86447285D01*
X101115857Y-86399666D01*
X101258714Y-86399666D01*
X101353952Y-86447285D01*
X101401571Y-86494904D01*
X101449190Y-86590142D01*
X101449190Y-86971095D01*
X101020619Y-86018714D02*
X100973000Y-85971095D01*
X100925380Y-85875857D01*
X100925380Y-85637761D01*
X100973000Y-85542523D01*
X101020619Y-85494904D01*
X101115857Y-85447285D01*
X101211095Y-85447285D01*
X101353952Y-85494904D01*
X101925380Y-86066333D01*
X101925380Y-85447285D01*
X92675880Y-88241166D02*
X92199690Y-88574500D01*
X92675880Y-88812595D02*
X91675880Y-88812595D01*
X91675880Y-88431642D01*
X91723500Y-88336404D01*
X91771119Y-88288785D01*
X91866357Y-88241166D01*
X92009214Y-88241166D01*
X92104452Y-88288785D01*
X92152071Y-88336404D01*
X92199690Y-88431642D01*
X92199690Y-88812595D01*
X92675880Y-87288785D02*
X92675880Y-87860214D01*
X92675880Y-87574500D02*
X91675880Y-87574500D01*
X91818738Y-87669738D01*
X91913976Y-87764976D01*
X91961595Y-87860214D01*
X98204619Y-128682738D02*
X98157000Y-128777976D01*
X98061761Y-128873214D01*
X97918904Y-129016071D01*
X97871285Y-129111309D01*
X97871285Y-129206547D01*
X98109380Y-129158928D02*
X98061761Y-129254166D01*
X97966523Y-129349404D01*
X97776047Y-129397023D01*
X97442714Y-129397023D01*
X97252238Y-129349404D01*
X97157000Y-129254166D01*
X97109380Y-129158928D01*
X97109380Y-128968452D01*
X97157000Y-128873214D01*
X97252238Y-128777976D01*
X97442714Y-128730357D01*
X97776047Y-128730357D01*
X97966523Y-128777976D01*
X98061761Y-128873214D01*
X98109380Y-128968452D01*
X98109380Y-129158928D01*
X97109380Y-128397023D02*
X97109380Y-127777976D01*
X97490333Y-128111309D01*
X97490333Y-127968452D01*
X97537952Y-127873214D01*
X97585571Y-127825595D01*
X97680809Y-127777976D01*
X97918904Y-127777976D01*
X98014142Y-127825595D01*
X98061761Y-127873214D01*
X98109380Y-127968452D01*
X98109380Y-128254166D01*
X98061761Y-128349404D01*
X98014142Y-128397023D01*
X103790761Y-100750619D02*
X103695523Y-100703000D01*
X103600285Y-100607761D01*
X103457428Y-100464904D01*
X103362190Y-100417285D01*
X103266952Y-100417285D01*
X103314571Y-100655380D02*
X103219333Y-100607761D01*
X103124095Y-100512523D01*
X103076476Y-100322047D01*
X103076476Y-99988714D01*
X103124095Y-99798238D01*
X103219333Y-99703000D01*
X103314571Y-99655380D01*
X103505047Y-99655380D01*
X103600285Y-99703000D01*
X103695523Y-99798238D01*
X103743142Y-99988714D01*
X103743142Y-100322047D01*
X103695523Y-100512523D01*
X103600285Y-100607761D01*
X103505047Y-100655380D01*
X103314571Y-100655380D01*
X104124095Y-99750619D02*
X104171714Y-99703000D01*
X104266952Y-99655380D01*
X104505047Y-99655380D01*
X104600285Y-99703000D01*
X104647904Y-99750619D01*
X104695523Y-99845857D01*
X104695523Y-99941095D01*
X104647904Y-100083952D01*
X104076476Y-100655380D01*
X104695523Y-100655380D01*
X97694761Y-86122119D02*
X97599523Y-86074500D01*
X97504285Y-85979261D01*
X97361428Y-85836404D01*
X97266190Y-85788785D01*
X97170952Y-85788785D01*
X97218571Y-86026880D02*
X97123333Y-85979261D01*
X97028095Y-85884023D01*
X96980476Y-85693547D01*
X96980476Y-85360214D01*
X97028095Y-85169738D01*
X97123333Y-85074500D01*
X97218571Y-85026880D01*
X97409047Y-85026880D01*
X97504285Y-85074500D01*
X97599523Y-85169738D01*
X97647142Y-85360214D01*
X97647142Y-85693547D01*
X97599523Y-85884023D01*
X97504285Y-85979261D01*
X97409047Y-86026880D01*
X97218571Y-86026880D01*
X98599523Y-86026880D02*
X98028095Y-86026880D01*
X98313809Y-86026880D02*
X98313809Y-85026880D01*
X98218571Y-85169738D01*
X98123333Y-85264976D01*
X98028095Y-85312595D01*
X154503380Y-102909666D02*
X154503380Y-103385857D01*
X153503380Y-103385857D01*
X153598619Y-102623952D02*
X153551000Y-102576333D01*
X153503380Y-102481095D01*
X153503380Y-102243000D01*
X153551000Y-102147761D01*
X153598619Y-102100142D01*
X153693857Y-102052523D01*
X153789095Y-102052523D01*
X153931952Y-102100142D01*
X154503380Y-102671571D01*
X154503380Y-102052523D01*
X120927833Y-110434380D02*
X120451642Y-110434380D01*
X120451642Y-109434380D01*
X121784976Y-110434380D02*
X121213547Y-110434380D01*
X121499261Y-110434380D02*
X121499261Y-109434380D01*
X121404023Y-109577238D01*
X121308785Y-109672476D01*
X121213547Y-109720095D01*
X92816666Y-102484380D02*
X92816666Y-103198666D01*
X92769047Y-103341523D01*
X92673809Y-103436761D01*
X92530952Y-103484380D01*
X92435714Y-103484380D01*
X93197619Y-102484380D02*
X93816666Y-102484380D01*
X93483333Y-102865333D01*
X93626190Y-102865333D01*
X93721428Y-102912952D01*
X93769047Y-102960571D01*
X93816666Y-103055809D01*
X93816666Y-103293904D01*
X93769047Y-103389142D01*
X93721428Y-103436761D01*
X93626190Y-103484380D01*
X93340476Y-103484380D01*
X93245238Y-103436761D01*
X93197619Y-103389142D01*
X106100666Y-102099071D02*
X105767333Y-102099071D01*
X105767333Y-102622880D02*
X105767333Y-101622880D01*
X106243523Y-101622880D01*
X106957809Y-102099071D02*
X107100666Y-102146690D01*
X107148285Y-102194309D01*
X107195904Y-102289547D01*
X107195904Y-102432404D01*
X107148285Y-102527642D01*
X107100666Y-102575261D01*
X107005428Y-102622880D01*
X106624476Y-102622880D01*
X106624476Y-101622880D01*
X106957809Y-101622880D01*
X107053047Y-101670500D01*
X107100666Y-101718119D01*
X107148285Y-101813357D01*
X107148285Y-101908595D01*
X107100666Y-102003833D01*
X107053047Y-102051452D01*
X106957809Y-102099071D01*
X106624476Y-102099071D01*
X108148285Y-102622880D02*
X107576857Y-102622880D01*
X107862571Y-102622880D02*
X107862571Y-101622880D01*
X107767333Y-101765738D01*
X107672095Y-101860976D01*
X107576857Y-101908595D01*
X172108904Y-97099380D02*
X172108904Y-96099380D01*
X172347000Y-96099380D01*
X172489857Y-96147000D01*
X172585095Y-96242238D01*
X172632714Y-96337476D01*
X172680333Y-96527952D01*
X172680333Y-96670809D01*
X172632714Y-96861285D01*
X172585095Y-96956523D01*
X172489857Y-97051761D01*
X172347000Y-97099380D01*
X172108904Y-97099380D01*
X173585095Y-96099380D02*
X173108904Y-96099380D01*
X173061285Y-96575571D01*
X173108904Y-96527952D01*
X173204142Y-96480333D01*
X173442238Y-96480333D01*
X173537476Y-96527952D01*
X173585095Y-96575571D01*
X173632714Y-96670809D01*
X173632714Y-96908904D01*
X173585095Y-97004142D01*
X173537476Y-97051761D01*
X173442238Y-97099380D01*
X173204142Y-97099380D01*
X173108904Y-97051761D01*
X173061285Y-97004142D01*
X135786904Y-123109380D02*
X135786904Y-122109380D01*
X136025000Y-122109380D01*
X136167857Y-122157000D01*
X136263095Y-122252238D01*
X136310714Y-122347476D01*
X136358333Y-122537952D01*
X136358333Y-122680809D01*
X136310714Y-122871285D01*
X136263095Y-122966523D01*
X136167857Y-123061761D01*
X136025000Y-123109380D01*
X135786904Y-123109380D01*
X137215476Y-122442714D02*
X137215476Y-123109380D01*
X136977380Y-122061761D02*
X136739285Y-122776047D01*
X137358333Y-122776047D01*
X143883095Y-121524380D02*
X143883095Y-120524380D01*
X144454523Y-121524380D02*
X144025952Y-120952952D01*
X144454523Y-120524380D02*
X143883095Y-121095809D01*
X115006380Y-103862095D02*
X114006380Y-103862095D01*
X114006380Y-103624000D01*
X114054000Y-103481142D01*
X114149238Y-103385904D01*
X114244476Y-103338285D01*
X114434952Y-103290666D01*
X114577809Y-103290666D01*
X114768285Y-103338285D01*
X114863523Y-103385904D01*
X114958761Y-103481142D01*
X115006380Y-103624000D01*
X115006380Y-103862095D01*
X114006380Y-102957333D02*
X114006380Y-102338285D01*
X114387333Y-102671619D01*
X114387333Y-102528761D01*
X114434952Y-102433523D01*
X114482571Y-102385904D01*
X114577809Y-102338285D01*
X114815904Y-102338285D01*
X114911142Y-102385904D01*
X114958761Y-102433523D01*
X115006380Y-102528761D01*
X115006380Y-102814476D01*
X114958761Y-102909714D01*
X114911142Y-102957333D01*
X102830404Y-70332880D02*
X102830404Y-69332880D01*
X103068500Y-69332880D01*
X103211357Y-69380500D01*
X103306595Y-69475738D01*
X103354214Y-69570976D01*
X103401833Y-69761452D01*
X103401833Y-69904309D01*
X103354214Y-70094785D01*
X103306595Y-70190023D01*
X103211357Y-70285261D01*
X103068500Y-70332880D01*
X102830404Y-70332880D01*
X103782785Y-69428119D02*
X103830404Y-69380500D01*
X103925642Y-69332880D01*
X104163738Y-69332880D01*
X104258976Y-69380500D01*
X104306595Y-69428119D01*
X104354214Y-69523357D01*
X104354214Y-69618595D01*
X104306595Y-69761452D01*
X103735166Y-70332880D01*
X104354214Y-70332880D01*
X109037380Y-89257095D02*
X108037380Y-89257095D01*
X108037380Y-89019000D01*
X108085000Y-88876142D01*
X108180238Y-88780904D01*
X108275476Y-88733285D01*
X108465952Y-88685666D01*
X108608809Y-88685666D01*
X108799285Y-88733285D01*
X108894523Y-88780904D01*
X108989761Y-88876142D01*
X109037380Y-89019000D01*
X109037380Y-89257095D01*
X109037380Y-87733285D02*
X109037380Y-88304714D01*
X109037380Y-88019000D02*
X108037380Y-88019000D01*
X108180238Y-88114238D01*
X108275476Y-88209476D01*
X108323095Y-88304714D01*
X183906642Y-121927857D02*
X183954261Y-121975476D01*
X184001880Y-122118333D01*
X184001880Y-122213571D01*
X183954261Y-122356428D01*
X183859023Y-122451666D01*
X183763785Y-122499285D01*
X183573309Y-122546904D01*
X183430452Y-122546904D01*
X183239976Y-122499285D01*
X183144738Y-122451666D01*
X183049500Y-122356428D01*
X183001880Y-122213571D01*
X183001880Y-122118333D01*
X183049500Y-121975476D01*
X183097119Y-121927857D01*
X183097119Y-121546904D02*
X183049500Y-121499285D01*
X183001880Y-121404047D01*
X183001880Y-121165952D01*
X183049500Y-121070714D01*
X183097119Y-121023095D01*
X183192357Y-120975476D01*
X183287595Y-120975476D01*
X183430452Y-121023095D01*
X184001880Y-121594523D01*
X184001880Y-120975476D01*
X183001880Y-120070714D02*
X183001880Y-120546904D01*
X183478071Y-120594523D01*
X183430452Y-120546904D01*
X183382833Y-120451666D01*
X183382833Y-120213571D01*
X183430452Y-120118333D01*
X183478071Y-120070714D01*
X183573309Y-120023095D01*
X183811404Y-120023095D01*
X183906642Y-120070714D01*
X183954261Y-120118333D01*
X184001880Y-120213571D01*
X184001880Y-120451666D01*
X183954261Y-120546904D01*
X183906642Y-120594523D01*
X158472142Y-103258857D02*
X158519761Y-103306476D01*
X158567380Y-103449333D01*
X158567380Y-103544571D01*
X158519761Y-103687428D01*
X158424523Y-103782666D01*
X158329285Y-103830285D01*
X158138809Y-103877904D01*
X157995952Y-103877904D01*
X157805476Y-103830285D01*
X157710238Y-103782666D01*
X157615000Y-103687428D01*
X157567380Y-103544571D01*
X157567380Y-103449333D01*
X157615000Y-103306476D01*
X157662619Y-103258857D01*
X157662619Y-102877904D02*
X157615000Y-102830285D01*
X157567380Y-102735047D01*
X157567380Y-102496952D01*
X157615000Y-102401714D01*
X157662619Y-102354095D01*
X157757857Y-102306476D01*
X157853095Y-102306476D01*
X157995952Y-102354095D01*
X158567380Y-102925523D01*
X158567380Y-102306476D01*
X157900714Y-101449333D02*
X158567380Y-101449333D01*
X157519761Y-101687428D02*
X158234047Y-101925523D01*
X158234047Y-101306476D01*
X156440142Y-103258857D02*
X156487761Y-103306476D01*
X156535380Y-103449333D01*
X156535380Y-103544571D01*
X156487761Y-103687428D01*
X156392523Y-103782666D01*
X156297285Y-103830285D01*
X156106809Y-103877904D01*
X155963952Y-103877904D01*
X155773476Y-103830285D01*
X155678238Y-103782666D01*
X155583000Y-103687428D01*
X155535380Y-103544571D01*
X155535380Y-103449333D01*
X155583000Y-103306476D01*
X155630619Y-103258857D01*
X155630619Y-102877904D02*
X155583000Y-102830285D01*
X155535380Y-102735047D01*
X155535380Y-102496952D01*
X155583000Y-102401714D01*
X155630619Y-102354095D01*
X155725857Y-102306476D01*
X155821095Y-102306476D01*
X155963952Y-102354095D01*
X156535380Y-102925523D01*
X156535380Y-102306476D01*
X155535380Y-101973142D02*
X155535380Y-101354095D01*
X155916333Y-101687428D01*
X155916333Y-101544571D01*
X155963952Y-101449333D01*
X156011571Y-101401714D01*
X156106809Y-101354095D01*
X156344904Y-101354095D01*
X156440142Y-101401714D01*
X156487761Y-101449333D01*
X156535380Y-101544571D01*
X156535380Y-101830285D01*
X156487761Y-101925523D01*
X156440142Y-101973142D01*
X183906642Y-112339357D02*
X183954261Y-112386976D01*
X184001880Y-112529833D01*
X184001880Y-112625071D01*
X183954261Y-112767928D01*
X183859023Y-112863166D01*
X183763785Y-112910785D01*
X183573309Y-112958404D01*
X183430452Y-112958404D01*
X183239976Y-112910785D01*
X183144738Y-112863166D01*
X183049500Y-112767928D01*
X183001880Y-112625071D01*
X183001880Y-112529833D01*
X183049500Y-112386976D01*
X183097119Y-112339357D01*
X183097119Y-111958404D02*
X183049500Y-111910785D01*
X183001880Y-111815547D01*
X183001880Y-111577452D01*
X183049500Y-111482214D01*
X183097119Y-111434595D01*
X183192357Y-111386976D01*
X183287595Y-111386976D01*
X183430452Y-111434595D01*
X184001880Y-112006023D01*
X184001880Y-111386976D01*
X183097119Y-111006023D02*
X183049500Y-110958404D01*
X183001880Y-110863166D01*
X183001880Y-110625071D01*
X183049500Y-110529833D01*
X183097119Y-110482214D01*
X183192357Y-110434595D01*
X183287595Y-110434595D01*
X183430452Y-110482214D01*
X184001880Y-111053642D01*
X184001880Y-110434595D01*
X187825142Y-75795142D02*
X187777523Y-75842761D01*
X187634666Y-75890380D01*
X187539428Y-75890380D01*
X187396571Y-75842761D01*
X187301333Y-75747523D01*
X187253714Y-75652285D01*
X187206095Y-75461809D01*
X187206095Y-75318952D01*
X187253714Y-75128476D01*
X187301333Y-75033238D01*
X187396571Y-74938000D01*
X187539428Y-74890380D01*
X187634666Y-74890380D01*
X187777523Y-74938000D01*
X187825142Y-74985619D01*
X188206095Y-74985619D02*
X188253714Y-74938000D01*
X188348952Y-74890380D01*
X188587047Y-74890380D01*
X188682285Y-74938000D01*
X188729904Y-74985619D01*
X188777523Y-75080857D01*
X188777523Y-75176095D01*
X188729904Y-75318952D01*
X188158476Y-75890380D01*
X188777523Y-75890380D01*
X189729904Y-75890380D02*
X189158476Y-75890380D01*
X189444190Y-75890380D02*
X189444190Y-74890380D01*
X189348952Y-75033238D01*
X189253714Y-75128476D01*
X189158476Y-75176095D01*
X194302142Y-87577142D02*
X194254523Y-87624761D01*
X194111666Y-87672380D01*
X194016428Y-87672380D01*
X193873571Y-87624761D01*
X193778333Y-87529523D01*
X193730714Y-87434285D01*
X193683095Y-87243809D01*
X193683095Y-87100952D01*
X193730714Y-86910476D01*
X193778333Y-86815238D01*
X193873571Y-86720000D01*
X194016428Y-86672380D01*
X194111666Y-86672380D01*
X194254523Y-86720000D01*
X194302142Y-86767619D01*
X194683095Y-86767619D02*
X194730714Y-86720000D01*
X194825952Y-86672380D01*
X195064047Y-86672380D01*
X195159285Y-86720000D01*
X195206904Y-86767619D01*
X195254523Y-86862857D01*
X195254523Y-86958095D01*
X195206904Y-87100952D01*
X194635476Y-87672380D01*
X195254523Y-87672380D01*
X195873571Y-86672380D02*
X195968809Y-86672380D01*
X196064047Y-86720000D01*
X196111666Y-86767619D01*
X196159285Y-86862857D01*
X196206904Y-87053333D01*
X196206904Y-87291428D01*
X196159285Y-87481904D01*
X196111666Y-87577142D01*
X196064047Y-87624761D01*
X195968809Y-87672380D01*
X195873571Y-87672380D01*
X195778333Y-87624761D01*
X195730714Y-87577142D01*
X195683095Y-87481904D01*
X195635476Y-87291428D01*
X195635476Y-87053333D01*
X195683095Y-86862857D01*
X195730714Y-86767619D01*
X195778333Y-86720000D01*
X195873571Y-86672380D01*
X183843142Y-102687357D02*
X183890761Y-102734976D01*
X183938380Y-102877833D01*
X183938380Y-102973071D01*
X183890761Y-103115928D01*
X183795523Y-103211166D01*
X183700285Y-103258785D01*
X183509809Y-103306404D01*
X183366952Y-103306404D01*
X183176476Y-103258785D01*
X183081238Y-103211166D01*
X182986000Y-103115928D01*
X182938380Y-102973071D01*
X182938380Y-102877833D01*
X182986000Y-102734976D01*
X183033619Y-102687357D01*
X183938380Y-101734976D02*
X183938380Y-102306404D01*
X183938380Y-102020690D02*
X182938380Y-102020690D01*
X183081238Y-102115928D01*
X183176476Y-102211166D01*
X183224095Y-102306404D01*
X183938380Y-101258785D02*
X183938380Y-101068309D01*
X183890761Y-100973071D01*
X183843142Y-100925452D01*
X183700285Y-100830214D01*
X183509809Y-100782595D01*
X183128857Y-100782595D01*
X183033619Y-100830214D01*
X182986000Y-100877833D01*
X182938380Y-100973071D01*
X182938380Y-101163547D01*
X182986000Y-101258785D01*
X183033619Y-101306404D01*
X183128857Y-101354023D01*
X183366952Y-101354023D01*
X183462190Y-101306404D01*
X183509809Y-101258785D01*
X183557428Y-101163547D01*
X183557428Y-100973071D01*
X183509809Y-100877833D01*
X183462190Y-100830214D01*
X183366952Y-100782595D01*
X158570142Y-95321357D02*
X158617761Y-95368976D01*
X158665380Y-95511833D01*
X158665380Y-95607071D01*
X158617761Y-95749928D01*
X158522523Y-95845166D01*
X158427285Y-95892785D01*
X158236809Y-95940404D01*
X158093952Y-95940404D01*
X157903476Y-95892785D01*
X157808238Y-95845166D01*
X157713000Y-95749928D01*
X157665380Y-95607071D01*
X157665380Y-95511833D01*
X157713000Y-95368976D01*
X157760619Y-95321357D01*
X158665380Y-94368976D02*
X158665380Y-94940404D01*
X158665380Y-94654690D02*
X157665380Y-94654690D01*
X157808238Y-94749928D01*
X157903476Y-94845166D01*
X157951095Y-94940404D01*
X158093952Y-93797547D02*
X158046333Y-93892785D01*
X157998714Y-93940404D01*
X157903476Y-93988023D01*
X157855857Y-93988023D01*
X157760619Y-93940404D01*
X157713000Y-93892785D01*
X157665380Y-93797547D01*
X157665380Y-93607071D01*
X157713000Y-93511833D01*
X157760619Y-93464214D01*
X157855857Y-93416595D01*
X157903476Y-93416595D01*
X157998714Y-93464214D01*
X158046333Y-93511833D01*
X158093952Y-93607071D01*
X158093952Y-93797547D01*
X158141571Y-93892785D01*
X158189190Y-93940404D01*
X158284428Y-93988023D01*
X158474904Y-93988023D01*
X158570142Y-93940404D01*
X158617761Y-93892785D01*
X158665380Y-93797547D01*
X158665380Y-93607071D01*
X158617761Y-93511833D01*
X158570142Y-93464214D01*
X158474904Y-93416595D01*
X158284428Y-93416595D01*
X158189190Y-93464214D01*
X158141571Y-93511833D01*
X158093952Y-93607071D01*
X170410142Y-109608857D02*
X170457761Y-109656476D01*
X170505380Y-109799333D01*
X170505380Y-109894571D01*
X170457761Y-110037428D01*
X170362523Y-110132666D01*
X170267285Y-110180285D01*
X170076809Y-110227904D01*
X169933952Y-110227904D01*
X169743476Y-110180285D01*
X169648238Y-110132666D01*
X169553000Y-110037428D01*
X169505380Y-109894571D01*
X169505380Y-109799333D01*
X169553000Y-109656476D01*
X169600619Y-109608857D01*
X170505380Y-108656476D02*
X170505380Y-109227904D01*
X170505380Y-108942190D02*
X169505380Y-108942190D01*
X169648238Y-109037428D01*
X169743476Y-109132666D01*
X169791095Y-109227904D01*
X169505380Y-108323142D02*
X169505380Y-107656476D01*
X170505380Y-108085047D01*
X149979142Y-126341142D02*
X149931523Y-126388761D01*
X149788666Y-126436380D01*
X149693428Y-126436380D01*
X149550571Y-126388761D01*
X149455333Y-126293523D01*
X149407714Y-126198285D01*
X149360095Y-126007809D01*
X149360095Y-125864952D01*
X149407714Y-125674476D01*
X149455333Y-125579238D01*
X149550571Y-125484000D01*
X149693428Y-125436380D01*
X149788666Y-125436380D01*
X149931523Y-125484000D01*
X149979142Y-125531619D01*
X150931523Y-126436380D02*
X150360095Y-126436380D01*
X150645809Y-126436380D02*
X150645809Y-125436380D01*
X150550571Y-125579238D01*
X150455333Y-125674476D01*
X150360095Y-125722095D01*
X151788666Y-125436380D02*
X151598190Y-125436380D01*
X151502952Y-125484000D01*
X151455333Y-125531619D01*
X151360095Y-125674476D01*
X151312476Y-125864952D01*
X151312476Y-126245904D01*
X151360095Y-126341142D01*
X151407714Y-126388761D01*
X151502952Y-126436380D01*
X151693428Y-126436380D01*
X151788666Y-126388761D01*
X151836285Y-126341142D01*
X151883904Y-126245904D01*
X151883904Y-126007809D01*
X151836285Y-125912571D01*
X151788666Y-125864952D01*
X151693428Y-125817333D01*
X151502952Y-125817333D01*
X151407714Y-125864952D01*
X151360095Y-125912571D01*
X151312476Y-126007809D01*
X107688142Y-122531142D02*
X107640523Y-122578761D01*
X107497666Y-122626380D01*
X107402428Y-122626380D01*
X107259571Y-122578761D01*
X107164333Y-122483523D01*
X107116714Y-122388285D01*
X107069095Y-122197809D01*
X107069095Y-122054952D01*
X107116714Y-121864476D01*
X107164333Y-121769238D01*
X107259571Y-121674000D01*
X107402428Y-121626380D01*
X107497666Y-121626380D01*
X107640523Y-121674000D01*
X107688142Y-121721619D01*
X108640523Y-122626380D02*
X108069095Y-122626380D01*
X108354809Y-122626380D02*
X108354809Y-121626380D01*
X108259571Y-121769238D01*
X108164333Y-121864476D01*
X108069095Y-121912095D01*
X109545285Y-121626380D02*
X109069095Y-121626380D01*
X109021476Y-122102571D01*
X109069095Y-122054952D01*
X109164333Y-122007333D01*
X109402428Y-122007333D01*
X109497666Y-122054952D01*
X109545285Y-122102571D01*
X109592904Y-122197809D01*
X109592904Y-122435904D01*
X109545285Y-122531142D01*
X109497666Y-122578761D01*
X109402428Y-122626380D01*
X109164333Y-122626380D01*
X109069095Y-122578761D01*
X109021476Y-122531142D01*
X103878142Y-122658142D02*
X103830523Y-122705761D01*
X103687666Y-122753380D01*
X103592428Y-122753380D01*
X103449571Y-122705761D01*
X103354333Y-122610523D01*
X103306714Y-122515285D01*
X103259095Y-122324809D01*
X103259095Y-122181952D01*
X103306714Y-121991476D01*
X103354333Y-121896238D01*
X103449571Y-121801000D01*
X103592428Y-121753380D01*
X103687666Y-121753380D01*
X103830523Y-121801000D01*
X103878142Y-121848619D01*
X104830523Y-122753380D02*
X104259095Y-122753380D01*
X104544809Y-122753380D02*
X104544809Y-121753380D01*
X104449571Y-121896238D01*
X104354333Y-121991476D01*
X104259095Y-122039095D01*
X105687666Y-122086714D02*
X105687666Y-122753380D01*
X105449571Y-121705761D02*
X105211476Y-122420047D01*
X105830523Y-122420047D01*
X102227142Y-115165142D02*
X102179523Y-115212761D01*
X102036666Y-115260380D01*
X101941428Y-115260380D01*
X101798571Y-115212761D01*
X101703333Y-115117523D01*
X101655714Y-115022285D01*
X101608095Y-114831809D01*
X101608095Y-114688952D01*
X101655714Y-114498476D01*
X101703333Y-114403238D01*
X101798571Y-114308000D01*
X101941428Y-114260380D01*
X102036666Y-114260380D01*
X102179523Y-114308000D01*
X102227142Y-114355619D01*
X103179523Y-115260380D02*
X102608095Y-115260380D01*
X102893809Y-115260380D02*
X102893809Y-114260380D01*
X102798571Y-114403238D01*
X102703333Y-114498476D01*
X102608095Y-114546095D01*
X103512857Y-114260380D02*
X104131904Y-114260380D01*
X103798571Y-114641333D01*
X103941428Y-114641333D01*
X104036666Y-114688952D01*
X104084285Y-114736571D01*
X104131904Y-114831809D01*
X104131904Y-115069904D01*
X104084285Y-115165142D01*
X104036666Y-115212761D01*
X103941428Y-115260380D01*
X103655714Y-115260380D01*
X103560476Y-115212761D01*
X103512857Y-115165142D01*
X112625142Y-103385857D02*
X112672761Y-103433476D01*
X112720380Y-103576333D01*
X112720380Y-103671571D01*
X112672761Y-103814428D01*
X112577523Y-103909666D01*
X112482285Y-103957285D01*
X112291809Y-104004904D01*
X112148952Y-104004904D01*
X111958476Y-103957285D01*
X111863238Y-103909666D01*
X111768000Y-103814428D01*
X111720380Y-103671571D01*
X111720380Y-103576333D01*
X111768000Y-103433476D01*
X111815619Y-103385857D01*
X112720380Y-102433476D02*
X112720380Y-103004904D01*
X112720380Y-102719190D02*
X111720380Y-102719190D01*
X111863238Y-102814428D01*
X111958476Y-102909666D01*
X112006095Y-103004904D01*
X112720380Y-101481095D02*
X112720380Y-102052523D01*
X112720380Y-101766809D02*
X111720380Y-101766809D01*
X111863238Y-101862047D01*
X111958476Y-101957285D01*
X112006095Y-102052523D01*
X110466142Y-103385857D02*
X110513761Y-103433476D01*
X110561380Y-103576333D01*
X110561380Y-103671571D01*
X110513761Y-103814428D01*
X110418523Y-103909666D01*
X110323285Y-103957285D01*
X110132809Y-104004904D01*
X109989952Y-104004904D01*
X109799476Y-103957285D01*
X109704238Y-103909666D01*
X109609000Y-103814428D01*
X109561380Y-103671571D01*
X109561380Y-103576333D01*
X109609000Y-103433476D01*
X109656619Y-103385857D01*
X110561380Y-102433476D02*
X110561380Y-103004904D01*
X110561380Y-102719190D02*
X109561380Y-102719190D01*
X109704238Y-102814428D01*
X109799476Y-102909666D01*
X109847095Y-103004904D01*
X109561380Y-101814428D02*
X109561380Y-101719190D01*
X109609000Y-101623952D01*
X109656619Y-101576333D01*
X109751857Y-101528714D01*
X109942333Y-101481095D01*
X110180428Y-101481095D01*
X110370904Y-101528714D01*
X110466142Y-101576333D01*
X110513761Y-101623952D01*
X110561380Y-101719190D01*
X110561380Y-101814428D01*
X110513761Y-101909666D01*
X110466142Y-101957285D01*
X110370904Y-102004904D01*
X110180428Y-102052523D01*
X109942333Y-102052523D01*
X109751857Y-102004904D01*
X109656619Y-101957285D01*
X109609000Y-101909666D01*
X109561380Y-101814428D01*
X120737333Y-104497142D02*
X120689714Y-104544761D01*
X120546857Y-104592380D01*
X120451619Y-104592380D01*
X120308761Y-104544761D01*
X120213523Y-104449523D01*
X120165904Y-104354285D01*
X120118285Y-104163809D01*
X120118285Y-104020952D01*
X120165904Y-103830476D01*
X120213523Y-103735238D01*
X120308761Y-103640000D01*
X120451619Y-103592380D01*
X120546857Y-103592380D01*
X120689714Y-103640000D01*
X120737333Y-103687619D01*
X121213523Y-104592380D02*
X121404000Y-104592380D01*
X121499238Y-104544761D01*
X121546857Y-104497142D01*
X121642095Y-104354285D01*
X121689714Y-104163809D01*
X121689714Y-103782857D01*
X121642095Y-103687619D01*
X121594476Y-103640000D01*
X121499238Y-103592380D01*
X121308761Y-103592380D01*
X121213523Y-103640000D01*
X121165904Y-103687619D01*
X121118285Y-103782857D01*
X121118285Y-104020952D01*
X121165904Y-104116190D01*
X121213523Y-104163809D01*
X121308761Y-104211428D01*
X121499238Y-104211428D01*
X121594476Y-104163809D01*
X121642095Y-104116190D01*
X121689714Y-104020952D01*
X107084833Y-69987642D02*
X107037214Y-70035261D01*
X106894357Y-70082880D01*
X106799119Y-70082880D01*
X106656261Y-70035261D01*
X106561023Y-69940023D01*
X106513404Y-69844785D01*
X106465785Y-69654309D01*
X106465785Y-69511452D01*
X106513404Y-69320976D01*
X106561023Y-69225738D01*
X106656261Y-69130500D01*
X106799119Y-69082880D01*
X106894357Y-69082880D01*
X107037214Y-69130500D01*
X107084833Y-69178119D01*
X107656261Y-69511452D02*
X107561023Y-69463833D01*
X107513404Y-69416214D01*
X107465785Y-69320976D01*
X107465785Y-69273357D01*
X107513404Y-69178119D01*
X107561023Y-69130500D01*
X107656261Y-69082880D01*
X107846738Y-69082880D01*
X107941976Y-69130500D01*
X107989595Y-69178119D01*
X108037214Y-69273357D01*
X108037214Y-69320976D01*
X107989595Y-69416214D01*
X107941976Y-69463833D01*
X107846738Y-69511452D01*
X107656261Y-69511452D01*
X107561023Y-69559071D01*
X107513404Y-69606690D01*
X107465785Y-69701928D01*
X107465785Y-69892404D01*
X107513404Y-69987642D01*
X107561023Y-70035261D01*
X107656261Y-70082880D01*
X107846738Y-70082880D01*
X107941976Y-70035261D01*
X107989595Y-69987642D01*
X108037214Y-69892404D01*
X108037214Y-69701928D01*
X107989595Y-69606690D01*
X107941976Y-69559071D01*
X107846738Y-69511452D01*
X123166142Y-82716666D02*
X123213761Y-82764285D01*
X123261380Y-82907142D01*
X123261380Y-83002380D01*
X123213761Y-83145238D01*
X123118523Y-83240476D01*
X123023285Y-83288095D01*
X122832809Y-83335714D01*
X122689952Y-83335714D01*
X122499476Y-83288095D01*
X122404238Y-83240476D01*
X122309000Y-83145238D01*
X122261380Y-83002380D01*
X122261380Y-82907142D01*
X122309000Y-82764285D01*
X122356619Y-82716666D01*
X122261380Y-82383333D02*
X122261380Y-81716666D01*
X123261380Y-82145238D01*
X104354333Y-73763142D02*
X104306714Y-73810761D01*
X104163857Y-73858380D01*
X104068619Y-73858380D01*
X103925761Y-73810761D01*
X103830523Y-73715523D01*
X103782904Y-73620285D01*
X103735285Y-73429809D01*
X103735285Y-73286952D01*
X103782904Y-73096476D01*
X103830523Y-73001238D01*
X103925761Y-72906000D01*
X104068619Y-72858380D01*
X104163857Y-72858380D01*
X104306714Y-72906000D01*
X104354333Y-72953619D01*
X105211476Y-72858380D02*
X105021000Y-72858380D01*
X104925761Y-72906000D01*
X104878142Y-72953619D01*
X104782904Y-73096476D01*
X104735285Y-73286952D01*
X104735285Y-73667904D01*
X104782904Y-73763142D01*
X104830523Y-73810761D01*
X104925761Y-73858380D01*
X105116238Y-73858380D01*
X105211476Y-73810761D01*
X105259095Y-73763142D01*
X105306714Y-73667904D01*
X105306714Y-73429809D01*
X105259095Y-73334571D01*
X105211476Y-73286952D01*
X105116238Y-73239333D01*
X104925761Y-73239333D01*
X104830523Y-73286952D01*
X104782904Y-73334571D01*
X104735285Y-73429809D01*
X121007142Y-82716666D02*
X121054761Y-82764285D01*
X121102380Y-82907142D01*
X121102380Y-83002380D01*
X121054761Y-83145238D01*
X120959523Y-83240476D01*
X120864285Y-83288095D01*
X120673809Y-83335714D01*
X120530952Y-83335714D01*
X120340476Y-83288095D01*
X120245238Y-83240476D01*
X120150000Y-83145238D01*
X120102380Y-83002380D01*
X120102380Y-82907142D01*
X120150000Y-82764285D01*
X120197619Y-82716666D01*
X120102380Y-81811904D02*
X120102380Y-82288095D01*
X120578571Y-82335714D01*
X120530952Y-82288095D01*
X120483333Y-82192857D01*
X120483333Y-81954761D01*
X120530952Y-81859523D01*
X120578571Y-81811904D01*
X120673809Y-81764285D01*
X120911904Y-81764285D01*
X121007142Y-81811904D01*
X121054761Y-81859523D01*
X121102380Y-81954761D01*
X121102380Y-82192857D01*
X121054761Y-82288095D01*
X121007142Y-82335714D01*
X113371333Y-83669142D02*
X113323714Y-83716761D01*
X113180857Y-83764380D01*
X113085619Y-83764380D01*
X112942761Y-83716761D01*
X112847523Y-83621523D01*
X112799904Y-83526285D01*
X112752285Y-83335809D01*
X112752285Y-83192952D01*
X112799904Y-83002476D01*
X112847523Y-82907238D01*
X112942761Y-82812000D01*
X113085619Y-82764380D01*
X113180857Y-82764380D01*
X113323714Y-82812000D01*
X113371333Y-82859619D01*
X114228476Y-83097714D02*
X114228476Y-83764380D01*
X113990380Y-82716761D02*
X113752285Y-83431047D01*
X114371333Y-83431047D01*
X104354333Y-83669142D02*
X104306714Y-83716761D01*
X104163857Y-83764380D01*
X104068619Y-83764380D01*
X103925761Y-83716761D01*
X103830523Y-83621523D01*
X103782904Y-83526285D01*
X103735285Y-83335809D01*
X103735285Y-83192952D01*
X103782904Y-83002476D01*
X103830523Y-82907238D01*
X103925761Y-82812000D01*
X104068619Y-82764380D01*
X104163857Y-82764380D01*
X104306714Y-82812000D01*
X104354333Y-82859619D01*
X104687666Y-82764380D02*
X105306714Y-82764380D01*
X104973380Y-83145333D01*
X105116238Y-83145333D01*
X105211476Y-83192952D01*
X105259095Y-83240571D01*
X105306714Y-83335809D01*
X105306714Y-83573904D01*
X105259095Y-83669142D01*
X105211476Y-83716761D01*
X105116238Y-83764380D01*
X104830523Y-83764380D01*
X104735285Y-83716761D01*
X104687666Y-83669142D01*
X113371333Y-85701142D02*
X113323714Y-85748761D01*
X113180857Y-85796380D01*
X113085619Y-85796380D01*
X112942761Y-85748761D01*
X112847523Y-85653523D01*
X112799904Y-85558285D01*
X112752285Y-85367809D01*
X112752285Y-85224952D01*
X112799904Y-85034476D01*
X112847523Y-84939238D01*
X112942761Y-84844000D01*
X113085619Y-84796380D01*
X113180857Y-84796380D01*
X113323714Y-84844000D01*
X113371333Y-84891619D01*
X113752285Y-84891619D02*
X113799904Y-84844000D01*
X113895142Y-84796380D01*
X114133238Y-84796380D01*
X114228476Y-84844000D01*
X114276095Y-84891619D01*
X114323714Y-84986857D01*
X114323714Y-85082095D01*
X114276095Y-85224952D01*
X113704666Y-85796380D01*
X114323714Y-85796380D01*
X104354333Y-85828142D02*
X104306714Y-85875761D01*
X104163857Y-85923380D01*
X104068619Y-85923380D01*
X103925761Y-85875761D01*
X103830523Y-85780523D01*
X103782904Y-85685285D01*
X103735285Y-85494809D01*
X103735285Y-85351952D01*
X103782904Y-85161476D01*
X103830523Y-85066238D01*
X103925761Y-84971000D01*
X104068619Y-84923380D01*
X104163857Y-84923380D01*
X104306714Y-84971000D01*
X104354333Y-85018619D01*
X105306714Y-85923380D02*
X104735285Y-85923380D01*
X105021000Y-85923380D02*
X105021000Y-84923380D01*
X104925761Y-85066238D01*
X104830523Y-85161476D01*
X104735285Y-85209095D01*
X169902285Y-79176571D02*
X170045142Y-79224190D01*
X170092761Y-79271809D01*
X170140380Y-79367047D01*
X170140380Y-79509904D01*
X170092761Y-79605142D01*
X170045142Y-79652761D01*
X169949904Y-79700380D01*
X169568952Y-79700380D01*
X169568952Y-78700380D01*
X169902285Y-78700380D01*
X169997523Y-78748000D01*
X170045142Y-78795619D01*
X170092761Y-78890857D01*
X170092761Y-78986095D01*
X170045142Y-79081333D01*
X169997523Y-79128952D01*
X169902285Y-79176571D01*
X169568952Y-79176571D01*
X170426095Y-78700380D02*
X170997523Y-78700380D01*
X170711809Y-79700380D02*
X170711809Y-78700380D01*
X171854666Y-79700380D02*
X171283238Y-79700380D01*
X171568952Y-79700380D02*
X171568952Y-78700380D01*
X171473714Y-78843238D01*
X171378476Y-78938476D01*
X171283238Y-78986095D01*
%LPC*%
D12*
X96443800Y-119832000D03*
X96443800Y-116332000D03*
D13*
X192441300Y-80518000D03*
X190741300Y-80518000D03*
G36*
G01*
X141699000Y-78496500D02*
X141699000Y-78221500D01*
G75*
G02*
X141836500Y-78084000I137500J0D01*
G01*
X143561500Y-78084000D01*
G75*
G02*
X143699000Y-78221500I0J-137500D01*
G01*
X143699000Y-78496500D01*
G75*
G02*
X143561500Y-78634000I-137500J0D01*
G01*
X141836500Y-78634000D01*
G75*
G02*
X141699000Y-78496500I0J137500D01*
G01*
G37*
G36*
G01*
X141699000Y-79766500D02*
X141699000Y-79491500D01*
G75*
G02*
X141836500Y-79354000I137500J0D01*
G01*
X143561500Y-79354000D01*
G75*
G02*
X143699000Y-79491500I0J-137500D01*
G01*
X143699000Y-79766500D01*
G75*
G02*
X143561500Y-79904000I-137500J0D01*
G01*
X141836500Y-79904000D01*
G75*
G02*
X141699000Y-79766500I0J137500D01*
G01*
G37*
G36*
G01*
X141699000Y-81036500D02*
X141699000Y-80761500D01*
G75*
G02*
X141836500Y-80624000I137500J0D01*
G01*
X143561500Y-80624000D01*
G75*
G02*
X143699000Y-80761500I0J-137500D01*
G01*
X143699000Y-81036500D01*
G75*
G02*
X143561500Y-81174000I-137500J0D01*
G01*
X141836500Y-81174000D01*
G75*
G02*
X141699000Y-81036500I0J137500D01*
G01*
G37*
G36*
G01*
X141699000Y-82306500D02*
X141699000Y-82031500D01*
G75*
G02*
X141836500Y-81894000I137500J0D01*
G01*
X143561500Y-81894000D01*
G75*
G02*
X143699000Y-82031500I0J-137500D01*
G01*
X143699000Y-82306500D01*
G75*
G02*
X143561500Y-82444000I-137500J0D01*
G01*
X141836500Y-82444000D01*
G75*
G02*
X141699000Y-82306500I0J137500D01*
G01*
G37*
G36*
G01*
X141699000Y-83576500D02*
X141699000Y-83301500D01*
G75*
G02*
X141836500Y-83164000I137500J0D01*
G01*
X143561500Y-83164000D01*
G75*
G02*
X143699000Y-83301500I0J-137500D01*
G01*
X143699000Y-83576500D01*
G75*
G02*
X143561500Y-83714000I-137500J0D01*
G01*
X141836500Y-83714000D01*
G75*
G02*
X141699000Y-83576500I0J137500D01*
G01*
G37*
G36*
G01*
X141699000Y-84846500D02*
X141699000Y-84571500D01*
G75*
G02*
X141836500Y-84434000I137500J0D01*
G01*
X143561500Y-84434000D01*
G75*
G02*
X143699000Y-84571500I0J-137500D01*
G01*
X143699000Y-84846500D01*
G75*
G02*
X143561500Y-84984000I-137500J0D01*
G01*
X141836500Y-84984000D01*
G75*
G02*
X141699000Y-84846500I0J137500D01*
G01*
G37*
G36*
G01*
X141699000Y-86116500D02*
X141699000Y-85841500D01*
G75*
G02*
X141836500Y-85704000I137500J0D01*
G01*
X143561500Y-85704000D01*
G75*
G02*
X143699000Y-85841500I0J-137500D01*
G01*
X143699000Y-86116500D01*
G75*
G02*
X143561500Y-86254000I-137500J0D01*
G01*
X141836500Y-86254000D01*
G75*
G02*
X141699000Y-86116500I0J137500D01*
G01*
G37*
G36*
G01*
X141699000Y-87386500D02*
X141699000Y-87111500D01*
G75*
G02*
X141836500Y-86974000I137500J0D01*
G01*
X143561500Y-86974000D01*
G75*
G02*
X143699000Y-87111500I0J-137500D01*
G01*
X143699000Y-87386500D01*
G75*
G02*
X143561500Y-87524000I-137500J0D01*
G01*
X141836500Y-87524000D01*
G75*
G02*
X141699000Y-87386500I0J137500D01*
G01*
G37*
G36*
G01*
X141699000Y-88656500D02*
X141699000Y-88381500D01*
G75*
G02*
X141836500Y-88244000I137500J0D01*
G01*
X143561500Y-88244000D01*
G75*
G02*
X143699000Y-88381500I0J-137500D01*
G01*
X143699000Y-88656500D01*
G75*
G02*
X143561500Y-88794000I-137500J0D01*
G01*
X141836500Y-88794000D01*
G75*
G02*
X141699000Y-88656500I0J137500D01*
G01*
G37*
G36*
G01*
X141699000Y-89926500D02*
X141699000Y-89651500D01*
G75*
G02*
X141836500Y-89514000I137500J0D01*
G01*
X143561500Y-89514000D01*
G75*
G02*
X143699000Y-89651500I0J-137500D01*
G01*
X143699000Y-89926500D01*
G75*
G02*
X143561500Y-90064000I-137500J0D01*
G01*
X141836500Y-90064000D01*
G75*
G02*
X141699000Y-89926500I0J137500D01*
G01*
G37*
G36*
G01*
X141699000Y-91196500D02*
X141699000Y-90921500D01*
G75*
G02*
X141836500Y-90784000I137500J0D01*
G01*
X143561500Y-90784000D01*
G75*
G02*
X143699000Y-90921500I0J-137500D01*
G01*
X143699000Y-91196500D01*
G75*
G02*
X143561500Y-91334000I-137500J0D01*
G01*
X141836500Y-91334000D01*
G75*
G02*
X141699000Y-91196500I0J137500D01*
G01*
G37*
G36*
G01*
X141699000Y-92466500D02*
X141699000Y-92191500D01*
G75*
G02*
X141836500Y-92054000I137500J0D01*
G01*
X143561500Y-92054000D01*
G75*
G02*
X143699000Y-92191500I0J-137500D01*
G01*
X143699000Y-92466500D01*
G75*
G02*
X143561500Y-92604000I-137500J0D01*
G01*
X141836500Y-92604000D01*
G75*
G02*
X141699000Y-92466500I0J137500D01*
G01*
G37*
G36*
G01*
X132399000Y-92466500D02*
X132399000Y-92191500D01*
G75*
G02*
X132536500Y-92054000I137500J0D01*
G01*
X134261500Y-92054000D01*
G75*
G02*
X134399000Y-92191500I0J-137500D01*
G01*
X134399000Y-92466500D01*
G75*
G02*
X134261500Y-92604000I-137500J0D01*
G01*
X132536500Y-92604000D01*
G75*
G02*
X132399000Y-92466500I0J137500D01*
G01*
G37*
G36*
G01*
X132399000Y-91196500D02*
X132399000Y-90921500D01*
G75*
G02*
X132536500Y-90784000I137500J0D01*
G01*
X134261500Y-90784000D01*
G75*
G02*
X134399000Y-90921500I0J-137500D01*
G01*
X134399000Y-91196500D01*
G75*
G02*
X134261500Y-91334000I-137500J0D01*
G01*
X132536500Y-91334000D01*
G75*
G02*
X132399000Y-91196500I0J137500D01*
G01*
G37*
G36*
G01*
X132399000Y-89926500D02*
X132399000Y-89651500D01*
G75*
G02*
X132536500Y-89514000I137500J0D01*
G01*
X134261500Y-89514000D01*
G75*
G02*
X134399000Y-89651500I0J-137500D01*
G01*
X134399000Y-89926500D01*
G75*
G02*
X134261500Y-90064000I-137500J0D01*
G01*
X132536500Y-90064000D01*
G75*
G02*
X132399000Y-89926500I0J137500D01*
G01*
G37*
G36*
G01*
X132399000Y-88656500D02*
X132399000Y-88381500D01*
G75*
G02*
X132536500Y-88244000I137500J0D01*
G01*
X134261500Y-88244000D01*
G75*
G02*
X134399000Y-88381500I0J-137500D01*
G01*
X134399000Y-88656500D01*
G75*
G02*
X134261500Y-88794000I-137500J0D01*
G01*
X132536500Y-88794000D01*
G75*
G02*
X132399000Y-88656500I0J137500D01*
G01*
G37*
G36*
G01*
X132399000Y-87386500D02*
X132399000Y-87111500D01*
G75*
G02*
X132536500Y-86974000I137500J0D01*
G01*
X134261500Y-86974000D01*
G75*
G02*
X134399000Y-87111500I0J-137500D01*
G01*
X134399000Y-87386500D01*
G75*
G02*
X134261500Y-87524000I-137500J0D01*
G01*
X132536500Y-87524000D01*
G75*
G02*
X132399000Y-87386500I0J137500D01*
G01*
G37*
G36*
G01*
X132399000Y-86116500D02*
X132399000Y-85841500D01*
G75*
G02*
X132536500Y-85704000I137500J0D01*
G01*
X134261500Y-85704000D01*
G75*
G02*
X134399000Y-85841500I0J-137500D01*
G01*
X134399000Y-86116500D01*
G75*
G02*
X134261500Y-86254000I-137500J0D01*
G01*
X132536500Y-86254000D01*
G75*
G02*
X132399000Y-86116500I0J137500D01*
G01*
G37*
G36*
G01*
X132399000Y-84846500D02*
X132399000Y-84571500D01*
G75*
G02*
X132536500Y-84434000I137500J0D01*
G01*
X134261500Y-84434000D01*
G75*
G02*
X134399000Y-84571500I0J-137500D01*
G01*
X134399000Y-84846500D01*
G75*
G02*
X134261500Y-84984000I-137500J0D01*
G01*
X132536500Y-84984000D01*
G75*
G02*
X132399000Y-84846500I0J137500D01*
G01*
G37*
G36*
G01*
X132399000Y-83576500D02*
X132399000Y-83301500D01*
G75*
G02*
X132536500Y-83164000I137500J0D01*
G01*
X134261500Y-83164000D01*
G75*
G02*
X134399000Y-83301500I0J-137500D01*
G01*
X134399000Y-83576500D01*
G75*
G02*
X134261500Y-83714000I-137500J0D01*
G01*
X132536500Y-83714000D01*
G75*
G02*
X132399000Y-83576500I0J137500D01*
G01*
G37*
G36*
G01*
X132399000Y-82306500D02*
X132399000Y-82031500D01*
G75*
G02*
X132536500Y-81894000I137500J0D01*
G01*
X134261500Y-81894000D01*
G75*
G02*
X134399000Y-82031500I0J-137500D01*
G01*
X134399000Y-82306500D01*
G75*
G02*
X134261500Y-82444000I-137500J0D01*
G01*
X132536500Y-82444000D01*
G75*
G02*
X132399000Y-82306500I0J137500D01*
G01*
G37*
G36*
G01*
X132399000Y-81036500D02*
X132399000Y-80761500D01*
G75*
G02*
X132536500Y-80624000I137500J0D01*
G01*
X134261500Y-80624000D01*
G75*
G02*
X134399000Y-80761500I0J-137500D01*
G01*
X134399000Y-81036500D01*
G75*
G02*
X134261500Y-81174000I-137500J0D01*
G01*
X132536500Y-81174000D01*
G75*
G02*
X132399000Y-81036500I0J137500D01*
G01*
G37*
G36*
G01*
X132399000Y-79766500D02*
X132399000Y-79491500D01*
G75*
G02*
X132536500Y-79354000I137500J0D01*
G01*
X134261500Y-79354000D01*
G75*
G02*
X134399000Y-79491500I0J-137500D01*
G01*
X134399000Y-79766500D01*
G75*
G02*
X134261500Y-79904000I-137500J0D01*
G01*
X132536500Y-79904000D01*
G75*
G02*
X132399000Y-79766500I0J137500D01*
G01*
G37*
G36*
G01*
X132399000Y-78496500D02*
X132399000Y-78221500D01*
G75*
G02*
X132536500Y-78084000I137500J0D01*
G01*
X134261500Y-78084000D01*
G75*
G02*
X134399000Y-78221500I0J-137500D01*
G01*
X134399000Y-78496500D01*
G75*
G02*
X134261500Y-78634000I-137500J0D01*
G01*
X132536500Y-78634000D01*
G75*
G02*
X132399000Y-78496500I0J137500D01*
G01*
G37*
G36*
G01*
X192064500Y-87910800D02*
X192364500Y-87910800D01*
G75*
G02*
X192514500Y-88060800I0J-150000D01*
G01*
X192514500Y-89710800D01*
G75*
G02*
X192364500Y-89860800I-150000J0D01*
G01*
X192064500Y-89860800D01*
G75*
G02*
X191914500Y-89710800I0J150000D01*
G01*
X191914500Y-88060800D01*
G75*
G02*
X192064500Y-87910800I150000J0D01*
G01*
G37*
G36*
G01*
X190794500Y-87910800D02*
X191094500Y-87910800D01*
G75*
G02*
X191244500Y-88060800I0J-150000D01*
G01*
X191244500Y-89710800D01*
G75*
G02*
X191094500Y-89860800I-150000J0D01*
G01*
X190794500Y-89860800D01*
G75*
G02*
X190644500Y-89710800I0J150000D01*
G01*
X190644500Y-88060800D01*
G75*
G02*
X190794500Y-87910800I150000J0D01*
G01*
G37*
G36*
G01*
X189524500Y-87910800D02*
X189824500Y-87910800D01*
G75*
G02*
X189974500Y-88060800I0J-150000D01*
G01*
X189974500Y-89710800D01*
G75*
G02*
X189824500Y-89860800I-150000J0D01*
G01*
X189524500Y-89860800D01*
G75*
G02*
X189374500Y-89710800I0J150000D01*
G01*
X189374500Y-88060800D01*
G75*
G02*
X189524500Y-87910800I150000J0D01*
G01*
G37*
G36*
G01*
X188254500Y-87910800D02*
X188554500Y-87910800D01*
G75*
G02*
X188704500Y-88060800I0J-150000D01*
G01*
X188704500Y-89710800D01*
G75*
G02*
X188554500Y-89860800I-150000J0D01*
G01*
X188254500Y-89860800D01*
G75*
G02*
X188104500Y-89710800I0J150000D01*
G01*
X188104500Y-88060800D01*
G75*
G02*
X188254500Y-87910800I150000J0D01*
G01*
G37*
G36*
G01*
X188254500Y-82960800D02*
X188554500Y-82960800D01*
G75*
G02*
X188704500Y-83110800I0J-150000D01*
G01*
X188704500Y-84760800D01*
G75*
G02*
X188554500Y-84910800I-150000J0D01*
G01*
X188254500Y-84910800D01*
G75*
G02*
X188104500Y-84760800I0J150000D01*
G01*
X188104500Y-83110800D01*
G75*
G02*
X188254500Y-82960800I150000J0D01*
G01*
G37*
G36*
G01*
X189524500Y-82960800D02*
X189824500Y-82960800D01*
G75*
G02*
X189974500Y-83110800I0J-150000D01*
G01*
X189974500Y-84760800D01*
G75*
G02*
X189824500Y-84910800I-150000J0D01*
G01*
X189524500Y-84910800D01*
G75*
G02*
X189374500Y-84760800I0J150000D01*
G01*
X189374500Y-83110800D01*
G75*
G02*
X189524500Y-82960800I150000J0D01*
G01*
G37*
G36*
G01*
X190794500Y-82960800D02*
X191094500Y-82960800D01*
G75*
G02*
X191244500Y-83110800I0J-150000D01*
G01*
X191244500Y-84760800D01*
G75*
G02*
X191094500Y-84910800I-150000J0D01*
G01*
X190794500Y-84910800D01*
G75*
G02*
X190644500Y-84760800I0J150000D01*
G01*
X190644500Y-83110800D01*
G75*
G02*
X190794500Y-82960800I150000J0D01*
G01*
G37*
G36*
G01*
X192064500Y-82960800D02*
X192364500Y-82960800D01*
G75*
G02*
X192514500Y-83110800I0J-150000D01*
G01*
X192514500Y-84760800D01*
G75*
G02*
X192364500Y-84910800I-150000J0D01*
G01*
X192064500Y-84910800D01*
G75*
G02*
X191914500Y-84760800I0J150000D01*
G01*
X191914500Y-83110800D01*
G75*
G02*
X192064500Y-82960800I150000J0D01*
G01*
G37*
G36*
G01*
X161986500Y-96399000D02*
X161986500Y-95149000D01*
G75*
G02*
X162111500Y-95024000I125000J0D01*
G01*
X162361500Y-95024000D01*
G75*
G02*
X162486500Y-95149000I0J-125000D01*
G01*
X162486500Y-96399000D01*
G75*
G02*
X162361500Y-96524000I-125000J0D01*
G01*
X162111500Y-96524000D01*
G75*
G02*
X161986500Y-96399000I0J125000D01*
G01*
G37*
G36*
G01*
X162786500Y-96399000D02*
X162786500Y-95149000D01*
G75*
G02*
X162911500Y-95024000I125000J0D01*
G01*
X163161500Y-95024000D01*
G75*
G02*
X163286500Y-95149000I0J-125000D01*
G01*
X163286500Y-96399000D01*
G75*
G02*
X163161500Y-96524000I-125000J0D01*
G01*
X162911500Y-96524000D01*
G75*
G02*
X162786500Y-96399000I0J125000D01*
G01*
G37*
G36*
G01*
X163586500Y-96399000D02*
X163586500Y-95149000D01*
G75*
G02*
X163711500Y-95024000I125000J0D01*
G01*
X163961500Y-95024000D01*
G75*
G02*
X164086500Y-95149000I0J-125000D01*
G01*
X164086500Y-96399000D01*
G75*
G02*
X163961500Y-96524000I-125000J0D01*
G01*
X163711500Y-96524000D01*
G75*
G02*
X163586500Y-96399000I0J125000D01*
G01*
G37*
G36*
G01*
X164386500Y-96399000D02*
X164386500Y-95149000D01*
G75*
G02*
X164511500Y-95024000I125000J0D01*
G01*
X164761500Y-95024000D01*
G75*
G02*
X164886500Y-95149000I0J-125000D01*
G01*
X164886500Y-96399000D01*
G75*
G02*
X164761500Y-96524000I-125000J0D01*
G01*
X164511500Y-96524000D01*
G75*
G02*
X164386500Y-96399000I0J125000D01*
G01*
G37*
G36*
G01*
X165186500Y-96399000D02*
X165186500Y-95149000D01*
G75*
G02*
X165311500Y-95024000I125000J0D01*
G01*
X165561500Y-95024000D01*
G75*
G02*
X165686500Y-95149000I0J-125000D01*
G01*
X165686500Y-96399000D01*
G75*
G02*
X165561500Y-96524000I-125000J0D01*
G01*
X165311500Y-96524000D01*
G75*
G02*
X165186500Y-96399000I0J125000D01*
G01*
G37*
G36*
G01*
X165986500Y-96399000D02*
X165986500Y-95149000D01*
G75*
G02*
X166111500Y-95024000I125000J0D01*
G01*
X166361500Y-95024000D01*
G75*
G02*
X166486500Y-95149000I0J-125000D01*
G01*
X166486500Y-96399000D01*
G75*
G02*
X166361500Y-96524000I-125000J0D01*
G01*
X166111500Y-96524000D01*
G75*
G02*
X165986500Y-96399000I0J125000D01*
G01*
G37*
G36*
G01*
X166786500Y-96399000D02*
X166786500Y-95149000D01*
G75*
G02*
X166911500Y-95024000I125000J0D01*
G01*
X167161500Y-95024000D01*
G75*
G02*
X167286500Y-95149000I0J-125000D01*
G01*
X167286500Y-96399000D01*
G75*
G02*
X167161500Y-96524000I-125000J0D01*
G01*
X166911500Y-96524000D01*
G75*
G02*
X166786500Y-96399000I0J125000D01*
G01*
G37*
G36*
G01*
X167586500Y-96399000D02*
X167586500Y-95149000D01*
G75*
G02*
X167711500Y-95024000I125000J0D01*
G01*
X167961500Y-95024000D01*
G75*
G02*
X168086500Y-95149000I0J-125000D01*
G01*
X168086500Y-96399000D01*
G75*
G02*
X167961500Y-96524000I-125000J0D01*
G01*
X167711500Y-96524000D01*
G75*
G02*
X167586500Y-96399000I0J125000D01*
G01*
G37*
G36*
G01*
X168461500Y-97274000D02*
X168461500Y-97024000D01*
G75*
G02*
X168586500Y-96899000I125000J0D01*
G01*
X169836500Y-96899000D01*
G75*
G02*
X169961500Y-97024000I0J-125000D01*
G01*
X169961500Y-97274000D01*
G75*
G02*
X169836500Y-97399000I-125000J0D01*
G01*
X168586500Y-97399000D01*
G75*
G02*
X168461500Y-97274000I0J125000D01*
G01*
G37*
G36*
G01*
X168461500Y-98074000D02*
X168461500Y-97824000D01*
G75*
G02*
X168586500Y-97699000I125000J0D01*
G01*
X169836500Y-97699000D01*
G75*
G02*
X169961500Y-97824000I0J-125000D01*
G01*
X169961500Y-98074000D01*
G75*
G02*
X169836500Y-98199000I-125000J0D01*
G01*
X168586500Y-98199000D01*
G75*
G02*
X168461500Y-98074000I0J125000D01*
G01*
G37*
G36*
G01*
X168461500Y-98874000D02*
X168461500Y-98624000D01*
G75*
G02*
X168586500Y-98499000I125000J0D01*
G01*
X169836500Y-98499000D01*
G75*
G02*
X169961500Y-98624000I0J-125000D01*
G01*
X169961500Y-98874000D01*
G75*
G02*
X169836500Y-98999000I-125000J0D01*
G01*
X168586500Y-98999000D01*
G75*
G02*
X168461500Y-98874000I0J125000D01*
G01*
G37*
G36*
G01*
X168461500Y-99674000D02*
X168461500Y-99424000D01*
G75*
G02*
X168586500Y-99299000I125000J0D01*
G01*
X169836500Y-99299000D01*
G75*
G02*
X169961500Y-99424000I0J-125000D01*
G01*
X169961500Y-99674000D01*
G75*
G02*
X169836500Y-99799000I-125000J0D01*
G01*
X168586500Y-99799000D01*
G75*
G02*
X168461500Y-99674000I0J125000D01*
G01*
G37*
G36*
G01*
X168461500Y-100474000D02*
X168461500Y-100224000D01*
G75*
G02*
X168586500Y-100099000I125000J0D01*
G01*
X169836500Y-100099000D01*
G75*
G02*
X169961500Y-100224000I0J-125000D01*
G01*
X169961500Y-100474000D01*
G75*
G02*
X169836500Y-100599000I-125000J0D01*
G01*
X168586500Y-100599000D01*
G75*
G02*
X168461500Y-100474000I0J125000D01*
G01*
G37*
G36*
G01*
X168461500Y-101274000D02*
X168461500Y-101024000D01*
G75*
G02*
X168586500Y-100899000I125000J0D01*
G01*
X169836500Y-100899000D01*
G75*
G02*
X169961500Y-101024000I0J-125000D01*
G01*
X169961500Y-101274000D01*
G75*
G02*
X169836500Y-101399000I-125000J0D01*
G01*
X168586500Y-101399000D01*
G75*
G02*
X168461500Y-101274000I0J125000D01*
G01*
G37*
G36*
G01*
X168461500Y-102074000D02*
X168461500Y-101824000D01*
G75*
G02*
X168586500Y-101699000I125000J0D01*
G01*
X169836500Y-101699000D01*
G75*
G02*
X169961500Y-101824000I0J-125000D01*
G01*
X169961500Y-102074000D01*
G75*
G02*
X169836500Y-102199000I-125000J0D01*
G01*
X168586500Y-102199000D01*
G75*
G02*
X168461500Y-102074000I0J125000D01*
G01*
G37*
G36*
G01*
X168461500Y-102874000D02*
X168461500Y-102624000D01*
G75*
G02*
X168586500Y-102499000I125000J0D01*
G01*
X169836500Y-102499000D01*
G75*
G02*
X169961500Y-102624000I0J-125000D01*
G01*
X169961500Y-102874000D01*
G75*
G02*
X169836500Y-102999000I-125000J0D01*
G01*
X168586500Y-102999000D01*
G75*
G02*
X168461500Y-102874000I0J125000D01*
G01*
G37*
G36*
G01*
X167586500Y-104749000D02*
X167586500Y-103499000D01*
G75*
G02*
X167711500Y-103374000I125000J0D01*
G01*
X167961500Y-103374000D01*
G75*
G02*
X168086500Y-103499000I0J-125000D01*
G01*
X168086500Y-104749000D01*
G75*
G02*
X167961500Y-104874000I-125000J0D01*
G01*
X167711500Y-104874000D01*
G75*
G02*
X167586500Y-104749000I0J125000D01*
G01*
G37*
G36*
G01*
X166786500Y-104749000D02*
X166786500Y-103499000D01*
G75*
G02*
X166911500Y-103374000I125000J0D01*
G01*
X167161500Y-103374000D01*
G75*
G02*
X167286500Y-103499000I0J-125000D01*
G01*
X167286500Y-104749000D01*
G75*
G02*
X167161500Y-104874000I-125000J0D01*
G01*
X166911500Y-104874000D01*
G75*
G02*
X166786500Y-104749000I0J125000D01*
G01*
G37*
G36*
G01*
X165986500Y-104749000D02*
X165986500Y-103499000D01*
G75*
G02*
X166111500Y-103374000I125000J0D01*
G01*
X166361500Y-103374000D01*
G75*
G02*
X166486500Y-103499000I0J-125000D01*
G01*
X166486500Y-104749000D01*
G75*
G02*
X166361500Y-104874000I-125000J0D01*
G01*
X166111500Y-104874000D01*
G75*
G02*
X165986500Y-104749000I0J125000D01*
G01*
G37*
G36*
G01*
X165186500Y-104749000D02*
X165186500Y-103499000D01*
G75*
G02*
X165311500Y-103374000I125000J0D01*
G01*
X165561500Y-103374000D01*
G75*
G02*
X165686500Y-103499000I0J-125000D01*
G01*
X165686500Y-104749000D01*
G75*
G02*
X165561500Y-104874000I-125000J0D01*
G01*
X165311500Y-104874000D01*
G75*
G02*
X165186500Y-104749000I0J125000D01*
G01*
G37*
G36*
G01*
X164386500Y-104749000D02*
X164386500Y-103499000D01*
G75*
G02*
X164511500Y-103374000I125000J0D01*
G01*
X164761500Y-103374000D01*
G75*
G02*
X164886500Y-103499000I0J-125000D01*
G01*
X164886500Y-104749000D01*
G75*
G02*
X164761500Y-104874000I-125000J0D01*
G01*
X164511500Y-104874000D01*
G75*
G02*
X164386500Y-104749000I0J125000D01*
G01*
G37*
G36*
G01*
X163586500Y-104749000D02*
X163586500Y-103499000D01*
G75*
G02*
X163711500Y-103374000I125000J0D01*
G01*
X163961500Y-103374000D01*
G75*
G02*
X164086500Y-103499000I0J-125000D01*
G01*
X164086500Y-104749000D01*
G75*
G02*
X163961500Y-104874000I-125000J0D01*
G01*
X163711500Y-104874000D01*
G75*
G02*
X163586500Y-104749000I0J125000D01*
G01*
G37*
G36*
G01*
X162786500Y-104749000D02*
X162786500Y-103499000D01*
G75*
G02*
X162911500Y-103374000I125000J0D01*
G01*
X163161500Y-103374000D01*
G75*
G02*
X163286500Y-103499000I0J-125000D01*
G01*
X163286500Y-104749000D01*
G75*
G02*
X163161500Y-104874000I-125000J0D01*
G01*
X162911500Y-104874000D01*
G75*
G02*
X162786500Y-104749000I0J125000D01*
G01*
G37*
G36*
G01*
X161986500Y-104749000D02*
X161986500Y-103499000D01*
G75*
G02*
X162111500Y-103374000I125000J0D01*
G01*
X162361500Y-103374000D01*
G75*
G02*
X162486500Y-103499000I0J-125000D01*
G01*
X162486500Y-104749000D01*
G75*
G02*
X162361500Y-104874000I-125000J0D01*
G01*
X162111500Y-104874000D01*
G75*
G02*
X161986500Y-104749000I0J125000D01*
G01*
G37*
G36*
G01*
X160111500Y-102874000D02*
X160111500Y-102624000D01*
G75*
G02*
X160236500Y-102499000I125000J0D01*
G01*
X161486500Y-102499000D01*
G75*
G02*
X161611500Y-102624000I0J-125000D01*
G01*
X161611500Y-102874000D01*
G75*
G02*
X161486500Y-102999000I-125000J0D01*
G01*
X160236500Y-102999000D01*
G75*
G02*
X160111500Y-102874000I0J125000D01*
G01*
G37*
G36*
G01*
X160111500Y-102074000D02*
X160111500Y-101824000D01*
G75*
G02*
X160236500Y-101699000I125000J0D01*
G01*
X161486500Y-101699000D01*
G75*
G02*
X161611500Y-101824000I0J-125000D01*
G01*
X161611500Y-102074000D01*
G75*
G02*
X161486500Y-102199000I-125000J0D01*
G01*
X160236500Y-102199000D01*
G75*
G02*
X160111500Y-102074000I0J125000D01*
G01*
G37*
G36*
G01*
X160111500Y-101274000D02*
X160111500Y-101024000D01*
G75*
G02*
X160236500Y-100899000I125000J0D01*
G01*
X161486500Y-100899000D01*
G75*
G02*
X161611500Y-101024000I0J-125000D01*
G01*
X161611500Y-101274000D01*
G75*
G02*
X161486500Y-101399000I-125000J0D01*
G01*
X160236500Y-101399000D01*
G75*
G02*
X160111500Y-101274000I0J125000D01*
G01*
G37*
G36*
G01*
X160111500Y-100474000D02*
X160111500Y-100224000D01*
G75*
G02*
X160236500Y-100099000I125000J0D01*
G01*
X161486500Y-100099000D01*
G75*
G02*
X161611500Y-100224000I0J-125000D01*
G01*
X161611500Y-100474000D01*
G75*
G02*
X161486500Y-100599000I-125000J0D01*
G01*
X160236500Y-100599000D01*
G75*
G02*
X160111500Y-100474000I0J125000D01*
G01*
G37*
G36*
G01*
X160111500Y-99674000D02*
X160111500Y-99424000D01*
G75*
G02*
X160236500Y-99299000I125000J0D01*
G01*
X161486500Y-99299000D01*
G75*
G02*
X161611500Y-99424000I0J-125000D01*
G01*
X161611500Y-99674000D01*
G75*
G02*
X161486500Y-99799000I-125000J0D01*
G01*
X160236500Y-99799000D01*
G75*
G02*
X160111500Y-99674000I0J125000D01*
G01*
G37*
G36*
G01*
X160111500Y-98874000D02*
X160111500Y-98624000D01*
G75*
G02*
X160236500Y-98499000I125000J0D01*
G01*
X161486500Y-98499000D01*
G75*
G02*
X161611500Y-98624000I0J-125000D01*
G01*
X161611500Y-98874000D01*
G75*
G02*
X161486500Y-98999000I-125000J0D01*
G01*
X160236500Y-98999000D01*
G75*
G02*
X160111500Y-98874000I0J125000D01*
G01*
G37*
G36*
G01*
X160111500Y-98074000D02*
X160111500Y-97824000D01*
G75*
G02*
X160236500Y-97699000I125000J0D01*
G01*
X161486500Y-97699000D01*
G75*
G02*
X161611500Y-97824000I0J-125000D01*
G01*
X161611500Y-98074000D01*
G75*
G02*
X161486500Y-98199000I-125000J0D01*
G01*
X160236500Y-98199000D01*
G75*
G02*
X160111500Y-98074000I0J125000D01*
G01*
G37*
G36*
G01*
X160111500Y-97274000D02*
X160111500Y-97024000D01*
G75*
G02*
X160236500Y-96899000I125000J0D01*
G01*
X161486500Y-96899000D01*
G75*
G02*
X161611500Y-97024000I0J-125000D01*
G01*
X161611500Y-97274000D01*
G75*
G02*
X161486500Y-97399000I-125000J0D01*
G01*
X160236500Y-97399000D01*
G75*
G02*
X160111500Y-97274000I0J125000D01*
G01*
G37*
G36*
G01*
X111482000Y-116482000D02*
X111482000Y-116182000D01*
G75*
G02*
X111632000Y-116032000I150000J0D01*
G01*
X113282000Y-116032000D01*
G75*
G02*
X113432000Y-116182000I0J-150000D01*
G01*
X113432000Y-116482000D01*
G75*
G02*
X113282000Y-116632000I-150000J0D01*
G01*
X111632000Y-116632000D01*
G75*
G02*
X111482000Y-116482000I0J150000D01*
G01*
G37*
G36*
G01*
X111482000Y-117752000D02*
X111482000Y-117452000D01*
G75*
G02*
X111632000Y-117302000I150000J0D01*
G01*
X113282000Y-117302000D01*
G75*
G02*
X113432000Y-117452000I0J-150000D01*
G01*
X113432000Y-117752000D01*
G75*
G02*
X113282000Y-117902000I-150000J0D01*
G01*
X111632000Y-117902000D01*
G75*
G02*
X111482000Y-117752000I0J150000D01*
G01*
G37*
G36*
G01*
X111482000Y-119022000D02*
X111482000Y-118722000D01*
G75*
G02*
X111632000Y-118572000I150000J0D01*
G01*
X113282000Y-118572000D01*
G75*
G02*
X113432000Y-118722000I0J-150000D01*
G01*
X113432000Y-119022000D01*
G75*
G02*
X113282000Y-119172000I-150000J0D01*
G01*
X111632000Y-119172000D01*
G75*
G02*
X111482000Y-119022000I0J150000D01*
G01*
G37*
G36*
G01*
X111482000Y-120292000D02*
X111482000Y-119992000D01*
G75*
G02*
X111632000Y-119842000I150000J0D01*
G01*
X113282000Y-119842000D01*
G75*
G02*
X113432000Y-119992000I0J-150000D01*
G01*
X113432000Y-120292000D01*
G75*
G02*
X113282000Y-120442000I-150000J0D01*
G01*
X111632000Y-120442000D01*
G75*
G02*
X111482000Y-120292000I0J150000D01*
G01*
G37*
G36*
G01*
X106532000Y-120292000D02*
X106532000Y-119992000D01*
G75*
G02*
X106682000Y-119842000I150000J0D01*
G01*
X108332000Y-119842000D01*
G75*
G02*
X108482000Y-119992000I0J-150000D01*
G01*
X108482000Y-120292000D01*
G75*
G02*
X108332000Y-120442000I-150000J0D01*
G01*
X106682000Y-120442000D01*
G75*
G02*
X106532000Y-120292000I0J150000D01*
G01*
G37*
G36*
G01*
X106532000Y-119022000D02*
X106532000Y-118722000D01*
G75*
G02*
X106682000Y-118572000I150000J0D01*
G01*
X108332000Y-118572000D01*
G75*
G02*
X108482000Y-118722000I0J-150000D01*
G01*
X108482000Y-119022000D01*
G75*
G02*
X108332000Y-119172000I-150000J0D01*
G01*
X106682000Y-119172000D01*
G75*
G02*
X106532000Y-119022000I0J150000D01*
G01*
G37*
G36*
G01*
X106532000Y-117752000D02*
X106532000Y-117452000D01*
G75*
G02*
X106682000Y-117302000I150000J0D01*
G01*
X108332000Y-117302000D01*
G75*
G02*
X108482000Y-117452000I0J-150000D01*
G01*
X108482000Y-117752000D01*
G75*
G02*
X108332000Y-117902000I-150000J0D01*
G01*
X106682000Y-117902000D01*
G75*
G02*
X106532000Y-117752000I0J150000D01*
G01*
G37*
G36*
G01*
X106532000Y-116482000D02*
X106532000Y-116182000D01*
G75*
G02*
X106682000Y-116032000I150000J0D01*
G01*
X108332000Y-116032000D01*
G75*
G02*
X108482000Y-116182000I0J-150000D01*
G01*
X108482000Y-116482000D01*
G75*
G02*
X108332000Y-116632000I-150000J0D01*
G01*
X106682000Y-116632000D01*
G75*
G02*
X106532000Y-116482000I0J150000D01*
G01*
G37*
D14*
X111861200Y-76084400D03*
X111861200Y-80684400D03*
X111861200Y-78384400D03*
D15*
X118161200Y-78384400D03*
D14*
X106274000Y-80659000D03*
X106274000Y-76059000D03*
X106274000Y-78359000D03*
D15*
X99974000Y-78359000D03*
D16*
X184505600Y-85623400D03*
X127508000Y-100520500D03*
X122809000Y-71310500D03*
X122809000Y-74866500D03*
X127254000Y-71437500D03*
D17*
X151257400Y-102661800D03*
X144957400Y-102661800D03*
X151257400Y-98861800D03*
X144957400Y-98861800D03*
D18*
X194523500Y-116967000D03*
X194523500Y-121467000D03*
X188023500Y-116967000D03*
X188023500Y-121467000D03*
X194523500Y-107378500D03*
X194523500Y-111878500D03*
X188023500Y-107378500D03*
X188023500Y-111878500D03*
X194460000Y-97790000D03*
X194460000Y-102290000D03*
X187960000Y-97790000D03*
X187960000Y-102290000D03*
D12*
X90043000Y-84614000D03*
X90043000Y-86614000D03*
X90043000Y-88614000D03*
G36*
G01*
X89243000Y-81664000D02*
X90843000Y-81664000D01*
G75*
G02*
X91243000Y-82064000I0J-400000D01*
G01*
X91243000Y-82864000D01*
G75*
G02*
X90843000Y-83264000I-400000J0D01*
G01*
X89243000Y-83264000D01*
G75*
G02*
X88843000Y-82864000I0J400000D01*
G01*
X88843000Y-82064000D01*
G75*
G02*
X89243000Y-81664000I400000J0D01*
G01*
G37*
G36*
G01*
X89243000Y-89964000D02*
X90843000Y-89964000D01*
G75*
G02*
X91243000Y-90364000I0J-400000D01*
G01*
X91243000Y-91164000D01*
G75*
G02*
X90843000Y-91564000I-400000J0D01*
G01*
X89243000Y-91564000D01*
G75*
G02*
X88843000Y-91164000I0J400000D01*
G01*
X88843000Y-90364000D01*
G75*
G02*
X89243000Y-89964000I400000J0D01*
G01*
G37*
D19*
X128143000Y-130937000D03*
X128143000Y-128397000D03*
X128143000Y-125857000D03*
G36*
G01*
X167701800Y-93589003D02*
X167701800Y-92338997D01*
G75*
G02*
X167951797Y-92089000I249997J0D01*
G01*
X168576803Y-92089000D01*
G75*
G02*
X168826800Y-92338997I0J-249997D01*
G01*
X168826800Y-93589003D01*
G75*
G02*
X168576803Y-93839000I-249997J0D01*
G01*
X167951797Y-93839000D01*
G75*
G02*
X167701800Y-93589003I0J249997D01*
G01*
G37*
G36*
G01*
X164776800Y-93589003D02*
X164776800Y-92338997D01*
G75*
G02*
X165026797Y-92089000I249997J0D01*
G01*
X165651803Y-92089000D01*
G75*
G02*
X165901800Y-92338997I0J-249997D01*
G01*
X165901800Y-93589003D01*
G75*
G02*
X165651803Y-93839000I-249997J0D01*
G01*
X165026797Y-93839000D01*
G75*
G02*
X164776800Y-93589003I0J249997D01*
G01*
G37*
G36*
G01*
X177874500Y-98796003D02*
X177874500Y-97545997D01*
G75*
G02*
X178124497Y-97296000I249997J0D01*
G01*
X178749503Y-97296000D01*
G75*
G02*
X178999500Y-97545997I0J-249997D01*
G01*
X178999500Y-98796003D01*
G75*
G02*
X178749503Y-99046000I-249997J0D01*
G01*
X178124497Y-99046000D01*
G75*
G02*
X177874500Y-98796003I0J249997D01*
G01*
G37*
G36*
G01*
X174949500Y-98796003D02*
X174949500Y-97545997D01*
G75*
G02*
X175199497Y-97296000I249997J0D01*
G01*
X175824503Y-97296000D01*
G75*
G02*
X176074500Y-97545997I0J-249997D01*
G01*
X176074500Y-98796003D01*
G75*
G02*
X175824503Y-99046000I-249997J0D01*
G01*
X175199497Y-99046000D01*
G75*
G02*
X174949500Y-98796003I0J249997D01*
G01*
G37*
G36*
G01*
X142801503Y-100242800D02*
X141551497Y-100242800D01*
G75*
G02*
X141301500Y-99992803I0J249997D01*
G01*
X141301500Y-99367797D01*
G75*
G02*
X141551497Y-99117800I249997J0D01*
G01*
X142801503Y-99117800D01*
G75*
G02*
X143051500Y-99367797I0J-249997D01*
G01*
X143051500Y-99992803D01*
G75*
G02*
X142801503Y-100242800I-249997J0D01*
G01*
G37*
G36*
G01*
X142801503Y-103167800D02*
X141551497Y-103167800D01*
G75*
G02*
X141301500Y-102917803I0J249997D01*
G01*
X141301500Y-102292797D01*
G75*
G02*
X141551497Y-102042800I249997J0D01*
G01*
X142801503Y-102042800D01*
G75*
G02*
X143051500Y-102292797I0J-249997D01*
G01*
X143051500Y-102917803D01*
G75*
G02*
X142801503Y-103167800I-249997J0D01*
G01*
G37*
G36*
G01*
X176139003Y-102097000D02*
X174888997Y-102097000D01*
G75*
G02*
X174639000Y-101847003I0J249997D01*
G01*
X174639000Y-101221997D01*
G75*
G02*
X174888997Y-100972000I249997J0D01*
G01*
X176139003Y-100972000D01*
G75*
G02*
X176389000Y-101221997I0J-249997D01*
G01*
X176389000Y-101847003D01*
G75*
G02*
X176139003Y-102097000I-249997J0D01*
G01*
G37*
G36*
G01*
X176139003Y-105022000D02*
X174888997Y-105022000D01*
G75*
G02*
X174639000Y-104772003I0J249997D01*
G01*
X174639000Y-104146997D01*
G75*
G02*
X174888997Y-103897000I249997J0D01*
G01*
X176139003Y-103897000D01*
G75*
G02*
X176389000Y-104146997I0J-249997D01*
G01*
X176389000Y-104772003D01*
G75*
G02*
X176139003Y-105022000I-249997J0D01*
G01*
G37*
G36*
G01*
X173522803Y-102097000D02*
X172272797Y-102097000D01*
G75*
G02*
X172022800Y-101847003I0J249997D01*
G01*
X172022800Y-101221997D01*
G75*
G02*
X172272797Y-100972000I249997J0D01*
G01*
X173522803Y-100972000D01*
G75*
G02*
X173772800Y-101221997I0J-249997D01*
G01*
X173772800Y-101847003D01*
G75*
G02*
X173522803Y-102097000I-249997J0D01*
G01*
G37*
G36*
G01*
X173522803Y-105022000D02*
X172272797Y-105022000D01*
G75*
G02*
X172022800Y-104772003I0J249997D01*
G01*
X172022800Y-104146997D01*
G75*
G02*
X172272797Y-103897000I249997J0D01*
G01*
X173522803Y-103897000D01*
G75*
G02*
X173772800Y-104146997I0J-249997D01*
G01*
X173772800Y-104772003D01*
G75*
G02*
X173522803Y-105022000I-249997J0D01*
G01*
G37*
G36*
G01*
X185854503Y-116194000D02*
X184604497Y-116194000D01*
G75*
G02*
X184354500Y-115944003I0J249997D01*
G01*
X184354500Y-115318997D01*
G75*
G02*
X184604497Y-115069000I249997J0D01*
G01*
X185854503Y-115069000D01*
G75*
G02*
X186104500Y-115318997I0J-249997D01*
G01*
X186104500Y-115944003D01*
G75*
G02*
X185854503Y-116194000I-249997J0D01*
G01*
G37*
G36*
G01*
X185854503Y-119119000D02*
X184604497Y-119119000D01*
G75*
G02*
X184354500Y-118869003I0J249997D01*
G01*
X184354500Y-118243997D01*
G75*
G02*
X184604497Y-117994000I249997J0D01*
G01*
X185854503Y-117994000D01*
G75*
G02*
X186104500Y-118243997I0J-249997D01*
G01*
X186104500Y-118869003D01*
G75*
G02*
X185854503Y-119119000I-249997J0D01*
G01*
G37*
G36*
G01*
X191505000Y-91005497D02*
X191505000Y-92255503D01*
G75*
G02*
X191255003Y-92505500I-249997J0D01*
G01*
X190629997Y-92505500D01*
G75*
G02*
X190380000Y-92255503I0J249997D01*
G01*
X190380000Y-91005497D01*
G75*
G02*
X190629997Y-90755500I249997J0D01*
G01*
X191255003Y-90755500D01*
G75*
G02*
X191505000Y-91005497I0J-249997D01*
G01*
G37*
G36*
G01*
X194430000Y-91005497D02*
X194430000Y-92255503D01*
G75*
G02*
X194180003Y-92505500I-249997J0D01*
G01*
X193554997Y-92505500D01*
G75*
G02*
X193305000Y-92255503I0J249997D01*
G01*
X193305000Y-91005497D01*
G75*
G02*
X193554997Y-90755500I249997J0D01*
G01*
X194180003Y-90755500D01*
G75*
G02*
X194430000Y-91005497I0J-249997D01*
G01*
G37*
G36*
G01*
X185854503Y-106605500D02*
X184604497Y-106605500D01*
G75*
G02*
X184354500Y-106355503I0J249997D01*
G01*
X184354500Y-105730497D01*
G75*
G02*
X184604497Y-105480500I249997J0D01*
G01*
X185854503Y-105480500D01*
G75*
G02*
X186104500Y-105730497I0J-249997D01*
G01*
X186104500Y-106355503D01*
G75*
G02*
X185854503Y-106605500I-249997J0D01*
G01*
G37*
G36*
G01*
X185854503Y-109530500D02*
X184604497Y-109530500D01*
G75*
G02*
X184354500Y-109280503I0J249997D01*
G01*
X184354500Y-108655497D01*
G75*
G02*
X184604497Y-108405500I249997J0D01*
G01*
X185854503Y-108405500D01*
G75*
G02*
X186104500Y-108655497I0J-249997D01*
G01*
X186104500Y-109280503D01*
G75*
G02*
X185854503Y-109530500I-249997J0D01*
G01*
G37*
G36*
G01*
X185791003Y-96953500D02*
X184540997Y-96953500D01*
G75*
G02*
X184291000Y-96703503I0J249997D01*
G01*
X184291000Y-96078497D01*
G75*
G02*
X184540997Y-95828500I249997J0D01*
G01*
X185791003Y-95828500D01*
G75*
G02*
X186041000Y-96078497I0J-249997D01*
G01*
X186041000Y-96703503D01*
G75*
G02*
X185791003Y-96953500I-249997J0D01*
G01*
G37*
G36*
G01*
X185791003Y-99878500D02*
X184540997Y-99878500D01*
G75*
G02*
X184291000Y-99628503I0J249997D01*
G01*
X184291000Y-99003497D01*
G75*
G02*
X184540997Y-98753500I249997J0D01*
G01*
X185791003Y-98753500D01*
G75*
G02*
X186041000Y-99003497I0J-249997D01*
G01*
X186041000Y-99628503D01*
G75*
G02*
X185791003Y-99878500I-249997J0D01*
G01*
G37*
G36*
G01*
X123390497Y-128217500D02*
X124640503Y-128217500D01*
G75*
G02*
X124890500Y-128467497I0J-249997D01*
G01*
X124890500Y-129092503D01*
G75*
G02*
X124640503Y-129342500I-249997J0D01*
G01*
X123390497Y-129342500D01*
G75*
G02*
X123140500Y-129092503I0J249997D01*
G01*
X123140500Y-128467497D01*
G75*
G02*
X123390497Y-128217500I249997J0D01*
G01*
G37*
G36*
G01*
X123390497Y-125292500D02*
X124640503Y-125292500D01*
G75*
G02*
X124890500Y-125542497I0J-249997D01*
G01*
X124890500Y-126167503D01*
G75*
G02*
X124640503Y-126417500I-249997J0D01*
G01*
X123390497Y-126417500D01*
G75*
G02*
X123140500Y-126167503I0J249997D01*
G01*
X123140500Y-125542497D01*
G75*
G02*
X123390497Y-125292500I249997J0D01*
G01*
G37*
G36*
G01*
X132958000Y-130311997D02*
X132958000Y-131562003D01*
G75*
G02*
X132708003Y-131812000I-249997J0D01*
G01*
X132082997Y-131812000D01*
G75*
G02*
X131833000Y-131562003I0J249997D01*
G01*
X131833000Y-130311997D01*
G75*
G02*
X132082997Y-130062000I249997J0D01*
G01*
X132708003Y-130062000D01*
G75*
G02*
X132958000Y-130311997I0J-249997D01*
G01*
G37*
G36*
G01*
X135883000Y-130311997D02*
X135883000Y-131562003D01*
G75*
G02*
X135633003Y-131812000I-249997J0D01*
G01*
X135007997Y-131812000D01*
G75*
G02*
X134758000Y-131562003I0J249997D01*
G01*
X134758000Y-130311997D01*
G75*
G02*
X135007997Y-130062000I249997J0D01*
G01*
X135633003Y-130062000D01*
G75*
G02*
X135883000Y-130311997I0J-249997D01*
G01*
G37*
G36*
G01*
X123455000Y-131752503D02*
X123455000Y-130502497D01*
G75*
G02*
X123704997Y-130252500I249997J0D01*
G01*
X124330003Y-130252500D01*
G75*
G02*
X124580000Y-130502497I0J-249997D01*
G01*
X124580000Y-131752503D01*
G75*
G02*
X124330003Y-132002500I-249997J0D01*
G01*
X123704997Y-132002500D01*
G75*
G02*
X123455000Y-131752503I0J249997D01*
G01*
G37*
G36*
G01*
X120530000Y-131752503D02*
X120530000Y-130502497D01*
G75*
G02*
X120779997Y-130252500I249997J0D01*
G01*
X121405003Y-130252500D01*
G75*
G02*
X121655000Y-130502497I0J-249997D01*
G01*
X121655000Y-131752503D01*
G75*
G02*
X121405003Y-132002500I-249997J0D01*
G01*
X120779997Y-132002500D01*
G75*
G02*
X120530000Y-131752503I0J249997D01*
G01*
G37*
G36*
G01*
X112257000Y-94561497D02*
X112257000Y-95811503D01*
G75*
G02*
X112007003Y-96061500I-249997J0D01*
G01*
X111381997Y-96061500D01*
G75*
G02*
X111132000Y-95811503I0J249997D01*
G01*
X111132000Y-94561497D01*
G75*
G02*
X111381997Y-94311500I249997J0D01*
G01*
X112007003Y-94311500D01*
G75*
G02*
X112257000Y-94561497I0J-249997D01*
G01*
G37*
G36*
G01*
X115182000Y-94561497D02*
X115182000Y-95811503D01*
G75*
G02*
X114932003Y-96061500I-249997J0D01*
G01*
X114306997Y-96061500D01*
G75*
G02*
X114057000Y-95811503I0J249997D01*
G01*
X114057000Y-94561497D01*
G75*
G02*
X114306997Y-94311500I249997J0D01*
G01*
X114932003Y-94311500D01*
G75*
G02*
X115182000Y-94561497I0J-249997D01*
G01*
G37*
G36*
G01*
X98477500Y-70685497D02*
X98477500Y-71935503D01*
G75*
G02*
X98227503Y-72185500I-249997J0D01*
G01*
X97602497Y-72185500D01*
G75*
G02*
X97352500Y-71935503I0J249997D01*
G01*
X97352500Y-70685497D01*
G75*
G02*
X97602497Y-70435500I249997J0D01*
G01*
X98227503Y-70435500D01*
G75*
G02*
X98477500Y-70685497I0J-249997D01*
G01*
G37*
G36*
G01*
X101402500Y-70685497D02*
X101402500Y-71935503D01*
G75*
G02*
X101152503Y-72185500I-249997J0D01*
G01*
X100527497Y-72185500D01*
G75*
G02*
X100277500Y-71935503I0J249997D01*
G01*
X100277500Y-70685497D01*
G75*
G02*
X100527497Y-70435500I249997J0D01*
G01*
X101152503Y-70435500D01*
G75*
G02*
X101402500Y-70685497I0J-249997D01*
G01*
G37*
G36*
G01*
X109718003Y-94159500D02*
X108467997Y-94159500D01*
G75*
G02*
X108218000Y-93909503I0J249997D01*
G01*
X108218000Y-93284497D01*
G75*
G02*
X108467997Y-93034500I249997J0D01*
G01*
X109718003Y-93034500D01*
G75*
G02*
X109968000Y-93284497I0J-249997D01*
G01*
X109968000Y-93909503D01*
G75*
G02*
X109718003Y-94159500I-249997J0D01*
G01*
G37*
G36*
G01*
X109718003Y-97084500D02*
X108467997Y-97084500D01*
G75*
G02*
X108218000Y-96834503I0J249997D01*
G01*
X108218000Y-96209497D01*
G75*
G02*
X108467997Y-95959500I249997J0D01*
G01*
X109718003Y-95959500D01*
G75*
G02*
X109968000Y-96209497I0J-249997D01*
G01*
X109968000Y-96834503D01*
G75*
G02*
X109718003Y-97084500I-249997J0D01*
G01*
G37*
G36*
G01*
X102098003Y-88635000D02*
X100847997Y-88635000D01*
G75*
G02*
X100598000Y-88385003I0J249997D01*
G01*
X100598000Y-87759997D01*
G75*
G02*
X100847997Y-87510000I249997J0D01*
G01*
X102098003Y-87510000D01*
G75*
G02*
X102348000Y-87759997I0J-249997D01*
G01*
X102348000Y-88385003D01*
G75*
G02*
X102098003Y-88635000I-249997J0D01*
G01*
G37*
G36*
G01*
X102098003Y-91560000D02*
X100847997Y-91560000D01*
G75*
G02*
X100598000Y-91310003I0J249997D01*
G01*
X100598000Y-90684997D01*
G75*
G02*
X100847997Y-90435000I249997J0D01*
G01*
X102098003Y-90435000D01*
G75*
G02*
X102348000Y-90684997I0J-249997D01*
G01*
X102348000Y-91310003D01*
G75*
G02*
X102098003Y-91560000I-249997J0D01*
G01*
G37*
G36*
G01*
X94668503Y-87174500D02*
X93418497Y-87174500D01*
G75*
G02*
X93168500Y-86924503I0J249997D01*
G01*
X93168500Y-86299497D01*
G75*
G02*
X93418497Y-86049500I249997J0D01*
G01*
X94668503Y-86049500D01*
G75*
G02*
X94918500Y-86299497I0J-249997D01*
G01*
X94918500Y-86924503D01*
G75*
G02*
X94668503Y-87174500I-249997J0D01*
G01*
G37*
G36*
G01*
X94668503Y-90099500D02*
X93418497Y-90099500D01*
G75*
G02*
X93168500Y-89849503I0J249997D01*
G01*
X93168500Y-89224497D01*
G75*
G02*
X93418497Y-88974500I249997J0D01*
G01*
X94668503Y-88974500D01*
G75*
G02*
X94918500Y-89224497I0J-249997D01*
G01*
X94918500Y-89849503D01*
G75*
G02*
X94668503Y-90099500I-249997J0D01*
G01*
G37*
D20*
X118237000Y-126047500D03*
X118237000Y-128587500D03*
X118237000Y-131127500D03*
D21*
X101577000Y-128587500D03*
D22*
X105918000Y-98536000D03*
X104968000Y-96536000D03*
X106868000Y-96536000D03*
D23*
X98990000Y-88074500D03*
X96590000Y-89024500D03*
X96590000Y-87124500D03*
G36*
G01*
X153657050Y-99888200D02*
X154419550Y-99888200D01*
G75*
G02*
X154638300Y-100106950I0J-218750D01*
G01*
X154638300Y-100544450D01*
G75*
G02*
X154419550Y-100763200I-218750J0D01*
G01*
X153657050Y-100763200D01*
G75*
G02*
X153438300Y-100544450I0J218750D01*
G01*
X153438300Y-100106950D01*
G75*
G02*
X153657050Y-99888200I218750J0D01*
G01*
G37*
G36*
G01*
X153657050Y-97763200D02*
X154419550Y-97763200D01*
G75*
G02*
X154638300Y-97981950I0J-218750D01*
G01*
X154638300Y-98419450D01*
G75*
G02*
X154419550Y-98638200I-218750J0D01*
G01*
X153657050Y-98638200D01*
G75*
G02*
X153438300Y-98419450I0J218750D01*
G01*
X153438300Y-97981950D01*
G75*
G02*
X153657050Y-97763200I218750J0D01*
G01*
G37*
D24*
X125244500Y-116332000D03*
X116944500Y-116332000D03*
D25*
G36*
X129453500Y-83046000D02*
G01*
X128953500Y-83046000D01*
X128953500Y-83045398D01*
X128928966Y-83045398D01*
X128880135Y-83040588D01*
X128832010Y-83031016D01*
X128785055Y-83016772D01*
X128739722Y-82997995D01*
X128696449Y-82974864D01*
X128655650Y-82947604D01*
X128617721Y-82916476D01*
X128583024Y-82881779D01*
X128551896Y-82843850D01*
X128524636Y-82803051D01*
X128501505Y-82759778D01*
X128482728Y-82714445D01*
X128468484Y-82667490D01*
X128458912Y-82619365D01*
X128454102Y-82570534D01*
X128454102Y-82546000D01*
X128453500Y-82546000D01*
X128453500Y-82046000D01*
X128454102Y-82046000D01*
X128454102Y-82021466D01*
X128458912Y-81972635D01*
X128468484Y-81924510D01*
X128482728Y-81877555D01*
X128501505Y-81832222D01*
X128524636Y-81788949D01*
X128551896Y-81748150D01*
X128583024Y-81710221D01*
X128617721Y-81675524D01*
X128655650Y-81644396D01*
X128696449Y-81617136D01*
X128739722Y-81594005D01*
X128785055Y-81575228D01*
X128832010Y-81560984D01*
X128880135Y-81551412D01*
X128928966Y-81546602D01*
X128953500Y-81546602D01*
X128953500Y-81546000D01*
X129453500Y-81546000D01*
X129453500Y-83046000D01*
G37*
G36*
X130253500Y-81546602D02*
G01*
X130278034Y-81546602D01*
X130326865Y-81551412D01*
X130374990Y-81560984D01*
X130421945Y-81575228D01*
X130467278Y-81594005D01*
X130510551Y-81617136D01*
X130551350Y-81644396D01*
X130589279Y-81675524D01*
X130623976Y-81710221D01*
X130655104Y-81748150D01*
X130682364Y-81788949D01*
X130705495Y-81832222D01*
X130724272Y-81877555D01*
X130738516Y-81924510D01*
X130748088Y-81972635D01*
X130752898Y-82021466D01*
X130752898Y-82046000D01*
X130753500Y-82046000D01*
X130753500Y-82546000D01*
X130752898Y-82546000D01*
X130752898Y-82570534D01*
X130748088Y-82619365D01*
X130738516Y-82667490D01*
X130724272Y-82714445D01*
X130705495Y-82759778D01*
X130682364Y-82803051D01*
X130655104Y-82843850D01*
X130623976Y-82881779D01*
X130589279Y-82916476D01*
X130551350Y-82947604D01*
X130510551Y-82974864D01*
X130467278Y-82997995D01*
X130421945Y-83016772D01*
X130374990Y-83031016D01*
X130326865Y-83040588D01*
X130278034Y-83045398D01*
X130253500Y-83045398D01*
X130253500Y-83046000D01*
X129753500Y-83046000D01*
X129753500Y-81546000D01*
X130253500Y-81546000D01*
X130253500Y-81546602D01*
G37*
G36*
X130253500Y-78879602D02*
G01*
X130278034Y-78879602D01*
X130326865Y-78884412D01*
X130374990Y-78893984D01*
X130421945Y-78908228D01*
X130467278Y-78927005D01*
X130510551Y-78950136D01*
X130551350Y-78977396D01*
X130589279Y-79008524D01*
X130623976Y-79043221D01*
X130655104Y-79081150D01*
X130682364Y-79121949D01*
X130705495Y-79165222D01*
X130724272Y-79210555D01*
X130738516Y-79257510D01*
X130748088Y-79305635D01*
X130752898Y-79354466D01*
X130752898Y-79379000D01*
X130753500Y-79379000D01*
X130753500Y-79879000D01*
X130752898Y-79879000D01*
X130752898Y-79903534D01*
X130748088Y-79952365D01*
X130738516Y-80000490D01*
X130724272Y-80047445D01*
X130705495Y-80092778D01*
X130682364Y-80136051D01*
X130655104Y-80176850D01*
X130623976Y-80214779D01*
X130589279Y-80249476D01*
X130551350Y-80280604D01*
X130510551Y-80307864D01*
X130467278Y-80330995D01*
X130421945Y-80349772D01*
X130374990Y-80364016D01*
X130326865Y-80373588D01*
X130278034Y-80378398D01*
X130253500Y-80378398D01*
X130253500Y-80379000D01*
X129753500Y-80379000D01*
X129753500Y-78879000D01*
X130253500Y-78879000D01*
X130253500Y-78879602D01*
G37*
G36*
X129453500Y-80379000D02*
G01*
X128953500Y-80379000D01*
X128953500Y-80378398D01*
X128928966Y-80378398D01*
X128880135Y-80373588D01*
X128832010Y-80364016D01*
X128785055Y-80349772D01*
X128739722Y-80330995D01*
X128696449Y-80307864D01*
X128655650Y-80280604D01*
X128617721Y-80249476D01*
X128583024Y-80214779D01*
X128551896Y-80176850D01*
X128524636Y-80136051D01*
X128501505Y-80092778D01*
X128482728Y-80047445D01*
X128468484Y-80000490D01*
X128458912Y-79952365D01*
X128454102Y-79903534D01*
X128454102Y-79879000D01*
X128453500Y-79879000D01*
X128453500Y-79379000D01*
X128454102Y-79379000D01*
X128454102Y-79354466D01*
X128458912Y-79305635D01*
X128468484Y-79257510D01*
X128482728Y-79210555D01*
X128501505Y-79165222D01*
X128524636Y-79121949D01*
X128551896Y-79081150D01*
X128583024Y-79043221D01*
X128617721Y-79008524D01*
X128655650Y-78977396D01*
X128696449Y-78950136D01*
X128739722Y-78927005D01*
X128785055Y-78908228D01*
X128832010Y-78893984D01*
X128880135Y-78884412D01*
X128928966Y-78879602D01*
X128953500Y-78879602D01*
X128953500Y-78879000D01*
X129453500Y-78879000D01*
X129453500Y-80379000D01*
G37*
G36*
X162293202Y-91806000D02*
G01*
X162293202Y-91781466D01*
X162298012Y-91732635D01*
X162307584Y-91684510D01*
X162321828Y-91637555D01*
X162340605Y-91592222D01*
X162363736Y-91548949D01*
X162390996Y-91508150D01*
X162422124Y-91470221D01*
X162456821Y-91435524D01*
X162494750Y-91404396D01*
X162535549Y-91377136D01*
X162578822Y-91354005D01*
X162624155Y-91335228D01*
X162671110Y-91320984D01*
X162719235Y-91311412D01*
X162768066Y-91306602D01*
X162792600Y-91306602D01*
X162792600Y-91306000D01*
X163292600Y-91306000D01*
X163292600Y-91306602D01*
X163317134Y-91306602D01*
X163365965Y-91311412D01*
X163414090Y-91320984D01*
X163461045Y-91335228D01*
X163506378Y-91354005D01*
X163549651Y-91377136D01*
X163590450Y-91404396D01*
X163628379Y-91435524D01*
X163663076Y-91470221D01*
X163694204Y-91508150D01*
X163721464Y-91548949D01*
X163744595Y-91592222D01*
X163763372Y-91637555D01*
X163777616Y-91684510D01*
X163787188Y-91732635D01*
X163791998Y-91781466D01*
X163791998Y-91806000D01*
X163792600Y-91806000D01*
X163792600Y-92306000D01*
X162292600Y-92306000D01*
X162292600Y-91806000D01*
X162293202Y-91806000D01*
G37*
G36*
X163792600Y-92606000D02*
G01*
X163792600Y-93106000D01*
X163791998Y-93106000D01*
X163791998Y-93130534D01*
X163787188Y-93179365D01*
X163777616Y-93227490D01*
X163763372Y-93274445D01*
X163744595Y-93319778D01*
X163721464Y-93363051D01*
X163694204Y-93403850D01*
X163663076Y-93441779D01*
X163628379Y-93476476D01*
X163590450Y-93507604D01*
X163549651Y-93534864D01*
X163506378Y-93557995D01*
X163461045Y-93576772D01*
X163414090Y-93591016D01*
X163365965Y-93600588D01*
X163317134Y-93605398D01*
X163292600Y-93605398D01*
X163292600Y-93606000D01*
X162792600Y-93606000D01*
X162792600Y-93605398D01*
X162768066Y-93605398D01*
X162719235Y-93600588D01*
X162671110Y-93591016D01*
X162624155Y-93576772D01*
X162578822Y-93557995D01*
X162535549Y-93534864D01*
X162494750Y-93507604D01*
X162456821Y-93476476D01*
X162422124Y-93441779D01*
X162390996Y-93403850D01*
X162363736Y-93363051D01*
X162340605Y-93319778D01*
X162321828Y-93274445D01*
X162307584Y-93227490D01*
X162298012Y-93179365D01*
X162293202Y-93130534D01*
X162293202Y-93106000D01*
X162292600Y-93106000D01*
X162292600Y-92606000D01*
X163792600Y-92606000D01*
G37*
D26*
X169989500Y-130873500D03*
X169989500Y-128333500D03*
X172529500Y-130873500D03*
X172529500Y-128333500D03*
X175069500Y-130873500D03*
X175069500Y-128333500D03*
X177609500Y-130873500D03*
X177609500Y-128333500D03*
X180149500Y-130873500D03*
D27*
X180149500Y-128333500D03*
G36*
G01*
X96850000Y-102857000D02*
X96850000Y-101107000D01*
G75*
G02*
X97725000Y-100232000I875000J0D01*
G01*
X99475000Y-100232000D01*
G75*
G02*
X100350000Y-101107000I0J-875000D01*
G01*
X100350000Y-102857000D01*
G75*
G02*
X99475000Y-103732000I-875000J0D01*
G01*
X97725000Y-103732000D01*
G75*
G02*
X96850000Y-102857000I0J875000D01*
G01*
G37*
G36*
G01*
X94100000Y-98282000D02*
X94100000Y-96282000D01*
G75*
G02*
X94850000Y-95532000I750000J0D01*
G01*
X96350000Y-95532000D01*
G75*
G02*
X97100000Y-96282000I0J-750000D01*
G01*
X97100000Y-98282000D01*
G75*
G02*
X96350000Y-99032000I-750000J0D01*
G01*
X94850000Y-99032000D01*
G75*
G02*
X94100000Y-98282000I0J750000D01*
G01*
G37*
D28*
X101600000Y-97282000D03*
D29*
X144145000Y-132080000D03*
D30*
X144145000Y-129540000D03*
D29*
X141605000Y-132080000D03*
D30*
X141605000Y-129540000D03*
D31*
X146685000Y-73660000D03*
X146685000Y-71120000D03*
X144145000Y-73660000D03*
X144145000Y-71120000D03*
X141605000Y-73660000D03*
X141605000Y-71120000D03*
X139065000Y-73660000D03*
X139065000Y-71120000D03*
D32*
X195372056Y-128477944D03*
X193675000Y-127775000D03*
X191977944Y-128477944D03*
X191275000Y-130175000D03*
X191977944Y-131872056D03*
X193675000Y-132575000D03*
X195372056Y-131872056D03*
X196075000Y-130175000D03*
D33*
X193675000Y-130175000D03*
D32*
X93772056Y-128477944D03*
X92075000Y-127775000D03*
X90377944Y-128477944D03*
X89675000Y-130175000D03*
X90377944Y-131872056D03*
X92075000Y-132575000D03*
X93772056Y-131872056D03*
X94475000Y-130175000D03*
D33*
X92075000Y-130175000D03*
D32*
X195372056Y-71327944D03*
X193675000Y-70625000D03*
X191977944Y-71327944D03*
X191275000Y-73025000D03*
X191977944Y-74722056D03*
X193675000Y-75425000D03*
X195372056Y-74722056D03*
X196075000Y-73025000D03*
D33*
X193675000Y-73025000D03*
D32*
X93772056Y-71327944D03*
X92075000Y-70625000D03*
X90377944Y-71327944D03*
X89675000Y-73025000D03*
X90377944Y-74722056D03*
X92075000Y-75425000D03*
X93772056Y-74722056D03*
X94475000Y-73025000D03*
D33*
X92075000Y-73025000D03*
G36*
G01*
X106484000Y-100070499D02*
X106484000Y-100970501D01*
G75*
G02*
X106234001Y-101220500I-249999J0D01*
G01*
X105583999Y-101220500D01*
G75*
G02*
X105334000Y-100970501I0J249999D01*
G01*
X105334000Y-100070499D01*
G75*
G02*
X105583999Y-99820500I249999J0D01*
G01*
X106234001Y-99820500D01*
G75*
G02*
X106484000Y-100070499I0J-249999D01*
G01*
G37*
G36*
G01*
X108534000Y-100070499D02*
X108534000Y-100970501D01*
G75*
G02*
X108284001Y-101220500I-249999J0D01*
G01*
X107633999Y-101220500D01*
G75*
G02*
X107384000Y-100970501I0J249999D01*
G01*
X107384000Y-100070499D01*
G75*
G02*
X107633999Y-99820500I249999J0D01*
G01*
X108284001Y-99820500D01*
G75*
G02*
X108534000Y-100070499I0J-249999D01*
G01*
G37*
G36*
G01*
X172497000Y-97914750D02*
X172497000Y-98427250D01*
G75*
G02*
X172278250Y-98646000I-218750J0D01*
G01*
X171840750Y-98646000D01*
G75*
G02*
X171622000Y-98427250I0J218750D01*
G01*
X171622000Y-97914750D01*
G75*
G02*
X171840750Y-97696000I218750J0D01*
G01*
X172278250Y-97696000D01*
G75*
G02*
X172497000Y-97914750I0J-218750D01*
G01*
G37*
G36*
G01*
X174072000Y-97914750D02*
X174072000Y-98427250D01*
G75*
G02*
X173853250Y-98646000I-218750J0D01*
G01*
X173415750Y-98646000D01*
G75*
G02*
X173197000Y-98427250I0J218750D01*
G01*
X173197000Y-97914750D01*
G75*
G02*
X173415750Y-97696000I218750J0D01*
G01*
X173853250Y-97696000D01*
G75*
G02*
X174072000Y-97914750I0J-218750D01*
G01*
G37*
D34*
X128905000Y-118872000D03*
D35*
X144145000Y-118872000D03*
D36*
X114617500Y-97219500D03*
X114617500Y-100519500D03*
G36*
G01*
X103918500Y-71566750D02*
X103918500Y-71054250D01*
G75*
G02*
X104137250Y-70835500I218750J0D01*
G01*
X104574750Y-70835500D01*
G75*
G02*
X104793500Y-71054250I0J-218750D01*
G01*
X104793500Y-71566750D01*
G75*
G02*
X104574750Y-71785500I-218750J0D01*
G01*
X104137250Y-71785500D01*
G75*
G02*
X103918500Y-71566750I0J218750D01*
G01*
G37*
G36*
G01*
X102343500Y-71566750D02*
X102343500Y-71054250D01*
G75*
G02*
X102562250Y-70835500I218750J0D01*
G01*
X102999750Y-70835500D01*
G75*
G02*
X103218500Y-71054250I0J-218750D01*
G01*
X103218500Y-71566750D01*
G75*
G02*
X102999750Y-71785500I-218750J0D01*
G01*
X102562250Y-71785500D01*
G75*
G02*
X102343500Y-71566750I0J218750D01*
G01*
G37*
D37*
X105410000Y-88909000D03*
X105410000Y-93209000D03*
G36*
G01*
X185704500Y-120835000D02*
X184754500Y-120835000D01*
G75*
G02*
X184504500Y-120585000I0J250000D01*
G01*
X184504500Y-120085000D01*
G75*
G02*
X184754500Y-119835000I250000J0D01*
G01*
X185704500Y-119835000D01*
G75*
G02*
X185954500Y-120085000I0J-250000D01*
G01*
X185954500Y-120585000D01*
G75*
G02*
X185704500Y-120835000I-250000J0D01*
G01*
G37*
G36*
G01*
X185704500Y-122735000D02*
X184754500Y-122735000D01*
G75*
G02*
X184504500Y-122485000I0J250000D01*
G01*
X184504500Y-121985000D01*
G75*
G02*
X184754500Y-121735000I250000J0D01*
G01*
X185704500Y-121735000D01*
G75*
G02*
X185954500Y-121985000I0J-250000D01*
G01*
X185954500Y-122485000D01*
G75*
G02*
X185704500Y-122735000I-250000J0D01*
G01*
G37*
G36*
G01*
X158577300Y-98940200D02*
X157627300Y-98940200D01*
G75*
G02*
X157377300Y-98690200I0J250000D01*
G01*
X157377300Y-98190200D01*
G75*
G02*
X157627300Y-97940200I250000J0D01*
G01*
X158577300Y-97940200D01*
G75*
G02*
X158827300Y-98190200I0J-250000D01*
G01*
X158827300Y-98690200D01*
G75*
G02*
X158577300Y-98940200I-250000J0D01*
G01*
G37*
G36*
G01*
X158577300Y-100840200D02*
X157627300Y-100840200D01*
G75*
G02*
X157377300Y-100590200I0J250000D01*
G01*
X157377300Y-100090200D01*
G75*
G02*
X157627300Y-99840200I250000J0D01*
G01*
X158577300Y-99840200D01*
G75*
G02*
X158827300Y-100090200I0J-250000D01*
G01*
X158827300Y-100590200D01*
G75*
G02*
X158577300Y-100840200I-250000J0D01*
G01*
G37*
G36*
G01*
X156481800Y-98940200D02*
X155531800Y-98940200D01*
G75*
G02*
X155281800Y-98690200I0J250000D01*
G01*
X155281800Y-98190200D01*
G75*
G02*
X155531800Y-97940200I250000J0D01*
G01*
X156481800Y-97940200D01*
G75*
G02*
X156731800Y-98190200I0J-250000D01*
G01*
X156731800Y-98690200D01*
G75*
G02*
X156481800Y-98940200I-250000J0D01*
G01*
G37*
G36*
G01*
X156481800Y-100840200D02*
X155531800Y-100840200D01*
G75*
G02*
X155281800Y-100590200I0J250000D01*
G01*
X155281800Y-100090200D01*
G75*
G02*
X155531800Y-99840200I250000J0D01*
G01*
X156481800Y-99840200D01*
G75*
G02*
X156731800Y-100090200I0J-250000D01*
G01*
X156731800Y-100590200D01*
G75*
G02*
X156481800Y-100840200I-250000J0D01*
G01*
G37*
G36*
G01*
X185704500Y-111246500D02*
X184754500Y-111246500D01*
G75*
G02*
X184504500Y-110996500I0J250000D01*
G01*
X184504500Y-110496500D01*
G75*
G02*
X184754500Y-110246500I250000J0D01*
G01*
X185704500Y-110246500D01*
G75*
G02*
X185954500Y-110496500I0J-250000D01*
G01*
X185954500Y-110996500D01*
G75*
G02*
X185704500Y-111246500I-250000J0D01*
G01*
G37*
G36*
G01*
X185704500Y-113146500D02*
X184754500Y-113146500D01*
G75*
G02*
X184504500Y-112896500I0J250000D01*
G01*
X184504500Y-112396500D01*
G75*
G02*
X184754500Y-112146500I250000J0D01*
G01*
X185704500Y-112146500D01*
G75*
G02*
X185954500Y-112396500I0J-250000D01*
G01*
X185954500Y-112896500D01*
G75*
G02*
X185704500Y-113146500I-250000J0D01*
G01*
G37*
G36*
G01*
X188879500Y-77909000D02*
X187929500Y-77909000D01*
G75*
G02*
X187679500Y-77659000I0J250000D01*
G01*
X187679500Y-77159000D01*
G75*
G02*
X187929500Y-76909000I250000J0D01*
G01*
X188879500Y-76909000D01*
G75*
G02*
X189129500Y-77159000I0J-250000D01*
G01*
X189129500Y-77659000D01*
G75*
G02*
X188879500Y-77909000I-250000J0D01*
G01*
G37*
G36*
G01*
X188879500Y-79809000D02*
X187929500Y-79809000D01*
G75*
G02*
X187679500Y-79559000I0J250000D01*
G01*
X187679500Y-79059000D01*
G75*
G02*
X187929500Y-78809000I250000J0D01*
G01*
X188879500Y-78809000D01*
G75*
G02*
X189129500Y-79059000I0J-250000D01*
G01*
X189129500Y-79559000D01*
G75*
G02*
X188879500Y-79809000I-250000J0D01*
G01*
G37*
G36*
G01*
X195395000Y-89375000D02*
X195395000Y-88425000D01*
G75*
G02*
X195645000Y-88175000I250000J0D01*
G01*
X196145000Y-88175000D01*
G75*
G02*
X196395000Y-88425000I0J-250000D01*
G01*
X196395000Y-89375000D01*
G75*
G02*
X196145000Y-89625000I-250000J0D01*
G01*
X195645000Y-89625000D01*
G75*
G02*
X195395000Y-89375000I0J250000D01*
G01*
G37*
G36*
G01*
X193495000Y-89375000D02*
X193495000Y-88425000D01*
G75*
G02*
X193745000Y-88175000I250000J0D01*
G01*
X194245000Y-88175000D01*
G75*
G02*
X194495000Y-88425000I0J-250000D01*
G01*
X194495000Y-89375000D01*
G75*
G02*
X194245000Y-89625000I-250000J0D01*
G01*
X193745000Y-89625000D01*
G75*
G02*
X193495000Y-89375000I0J250000D01*
G01*
G37*
G36*
G01*
X185641000Y-101594500D02*
X184691000Y-101594500D01*
G75*
G02*
X184441000Y-101344500I0J250000D01*
G01*
X184441000Y-100844500D01*
G75*
G02*
X184691000Y-100594500I250000J0D01*
G01*
X185641000Y-100594500D01*
G75*
G02*
X185891000Y-100844500I0J-250000D01*
G01*
X185891000Y-101344500D01*
G75*
G02*
X185641000Y-101594500I-250000J0D01*
G01*
G37*
G36*
G01*
X185641000Y-103494500D02*
X184691000Y-103494500D01*
G75*
G02*
X184441000Y-103244500I0J250000D01*
G01*
X184441000Y-102744500D01*
G75*
G02*
X184691000Y-102494500I250000J0D01*
G01*
X185641000Y-102494500D01*
G75*
G02*
X185891000Y-102744500I0J-250000D01*
G01*
X185891000Y-103244500D01*
G75*
G02*
X185641000Y-103494500I-250000J0D01*
G01*
G37*
G36*
G01*
X160368000Y-94228500D02*
X159418000Y-94228500D01*
G75*
G02*
X159168000Y-93978500I0J250000D01*
G01*
X159168000Y-93478500D01*
G75*
G02*
X159418000Y-93228500I250000J0D01*
G01*
X160368000Y-93228500D01*
G75*
G02*
X160618000Y-93478500I0J-250000D01*
G01*
X160618000Y-93978500D01*
G75*
G02*
X160368000Y-94228500I-250000J0D01*
G01*
G37*
G36*
G01*
X160368000Y-96128500D02*
X159418000Y-96128500D01*
G75*
G02*
X159168000Y-95878500I0J250000D01*
G01*
X159168000Y-95378500D01*
G75*
G02*
X159418000Y-95128500I250000J0D01*
G01*
X160368000Y-95128500D01*
G75*
G02*
X160618000Y-95378500I0J-250000D01*
G01*
X160618000Y-95878500D01*
G75*
G02*
X160368000Y-96128500I-250000J0D01*
G01*
G37*
G36*
G01*
X169641500Y-105860000D02*
X170591500Y-105860000D01*
G75*
G02*
X170841500Y-106110000I0J-250000D01*
G01*
X170841500Y-106610000D01*
G75*
G02*
X170591500Y-106860000I-250000J0D01*
G01*
X169641500Y-106860000D01*
G75*
G02*
X169391500Y-106610000I0J250000D01*
G01*
X169391500Y-106110000D01*
G75*
G02*
X169641500Y-105860000I250000J0D01*
G01*
G37*
G36*
G01*
X169641500Y-103960000D02*
X170591500Y-103960000D01*
G75*
G02*
X170841500Y-104210000I0J-250000D01*
G01*
X170841500Y-104710000D01*
G75*
G02*
X170591500Y-104960000I-250000J0D01*
G01*
X169641500Y-104960000D01*
G75*
G02*
X169391500Y-104710000I0J250000D01*
G01*
X169391500Y-104210000D01*
G75*
G02*
X169641500Y-103960000I250000J0D01*
G01*
G37*
D12*
X150622000Y-122372000D03*
D38*
X150622000Y-118872000D03*
G36*
G01*
X111056000Y-121635500D02*
X111056000Y-122585500D01*
G75*
G02*
X110806000Y-122835500I-250000J0D01*
G01*
X110306000Y-122835500D01*
G75*
G02*
X110056000Y-122585500I0J250000D01*
G01*
X110056000Y-121635500D01*
G75*
G02*
X110306000Y-121385500I250000J0D01*
G01*
X110806000Y-121385500D01*
G75*
G02*
X111056000Y-121635500I0J-250000D01*
G01*
G37*
G36*
G01*
X112956000Y-121635500D02*
X112956000Y-122585500D01*
G75*
G02*
X112706000Y-122835500I-250000J0D01*
G01*
X112206000Y-122835500D01*
G75*
G02*
X111956000Y-122585500I0J250000D01*
G01*
X111956000Y-121635500D01*
G75*
G02*
X112206000Y-121385500I250000J0D01*
G01*
X112706000Y-121385500D01*
G75*
G02*
X112956000Y-121635500I0J-250000D01*
G01*
G37*
G36*
G01*
X104554000Y-120274500D02*
X105504000Y-120274500D01*
G75*
G02*
X105754000Y-120524500I0J-250000D01*
G01*
X105754000Y-121024500D01*
G75*
G02*
X105504000Y-121274500I-250000J0D01*
G01*
X104554000Y-121274500D01*
G75*
G02*
X104304000Y-121024500I0J250000D01*
G01*
X104304000Y-120524500D01*
G75*
G02*
X104554000Y-120274500I250000J0D01*
G01*
G37*
G36*
G01*
X104554000Y-118374500D02*
X105504000Y-118374500D01*
G75*
G02*
X105754000Y-118624500I0J-250000D01*
G01*
X105754000Y-119124500D01*
G75*
G02*
X105504000Y-119374500I-250000J0D01*
G01*
X104554000Y-119374500D01*
G75*
G02*
X104304000Y-119124500I0J250000D01*
G01*
X104304000Y-118624500D01*
G75*
G02*
X104554000Y-118374500I250000J0D01*
G01*
G37*
G36*
G01*
X102395000Y-117734500D02*
X103345000Y-117734500D01*
G75*
G02*
X103595000Y-117984500I0J-250000D01*
G01*
X103595000Y-118484500D01*
G75*
G02*
X103345000Y-118734500I-250000J0D01*
G01*
X102395000Y-118734500D01*
G75*
G02*
X102145000Y-118484500I0J250000D01*
G01*
X102145000Y-117984500D01*
G75*
G02*
X102395000Y-117734500I250000J0D01*
G01*
G37*
G36*
G01*
X102395000Y-115834500D02*
X103345000Y-115834500D01*
G75*
G02*
X103595000Y-116084500I0J-250000D01*
G01*
X103595000Y-116584500D01*
G75*
G02*
X103345000Y-116834500I-250000J0D01*
G01*
X102395000Y-116834500D01*
G75*
G02*
X102145000Y-116584500I0J250000D01*
G01*
X102145000Y-116084500D01*
G75*
G02*
X102395000Y-115834500I250000J0D01*
G01*
G37*
G36*
G01*
X112743000Y-99118000D02*
X111793000Y-99118000D01*
G75*
G02*
X111543000Y-98868000I0J250000D01*
G01*
X111543000Y-98368000D01*
G75*
G02*
X111793000Y-98118000I250000J0D01*
G01*
X112743000Y-98118000D01*
G75*
G02*
X112993000Y-98368000I0J-250000D01*
G01*
X112993000Y-98868000D01*
G75*
G02*
X112743000Y-99118000I-250000J0D01*
G01*
G37*
G36*
G01*
X112743000Y-101018000D02*
X111793000Y-101018000D01*
G75*
G02*
X111543000Y-100768000I0J250000D01*
G01*
X111543000Y-100268000D01*
G75*
G02*
X111793000Y-100018000I250000J0D01*
G01*
X112743000Y-100018000D01*
G75*
G02*
X112993000Y-100268000I0J-250000D01*
G01*
X112993000Y-100768000D01*
G75*
G02*
X112743000Y-101018000I-250000J0D01*
G01*
G37*
G36*
G01*
X110584000Y-99118000D02*
X109634000Y-99118000D01*
G75*
G02*
X109384000Y-98868000I0J250000D01*
G01*
X109384000Y-98368000D01*
G75*
G02*
X109634000Y-98118000I250000J0D01*
G01*
X110584000Y-98118000D01*
G75*
G02*
X110834000Y-98368000I0J-250000D01*
G01*
X110834000Y-98868000D01*
G75*
G02*
X110584000Y-99118000I-250000J0D01*
G01*
G37*
G36*
G01*
X110584000Y-101018000D02*
X109634000Y-101018000D01*
G75*
G02*
X109384000Y-100768000I0J250000D01*
G01*
X109384000Y-100268000D01*
G75*
G02*
X109634000Y-100018000I250000J0D01*
G01*
X110584000Y-100018000D01*
G75*
G02*
X110834000Y-100268000I0J-250000D01*
G01*
X110834000Y-100768000D01*
G75*
G02*
X110584000Y-101018000I-250000J0D01*
G01*
G37*
D12*
X120967500Y-97020500D03*
X120967500Y-100520500D03*
G36*
G01*
X107701500Y-71785500D02*
X107701500Y-70835500D01*
G75*
G02*
X107951500Y-70585500I250000J0D01*
G01*
X108451500Y-70585500D01*
G75*
G02*
X108701500Y-70835500I0J-250000D01*
G01*
X108701500Y-71785500D01*
G75*
G02*
X108451500Y-72035500I-250000J0D01*
G01*
X107951500Y-72035500D01*
G75*
G02*
X107701500Y-71785500I0J250000D01*
G01*
G37*
G36*
G01*
X105801500Y-71785500D02*
X105801500Y-70835500D01*
G75*
G02*
X106051500Y-70585500I250000J0D01*
G01*
X106551500Y-70585500D01*
G75*
G02*
X106801500Y-70835500I0J-250000D01*
G01*
X106801500Y-71785500D01*
G75*
G02*
X106551500Y-72035500I-250000J0D01*
G01*
X106051500Y-72035500D01*
G75*
G02*
X105801500Y-71785500I0J250000D01*
G01*
G37*
G36*
G01*
X122308600Y-79799600D02*
X123258600Y-79799600D01*
G75*
G02*
X123508600Y-80049600I0J-250000D01*
G01*
X123508600Y-80549600D01*
G75*
G02*
X123258600Y-80799600I-250000J0D01*
G01*
X122308600Y-80799600D01*
G75*
G02*
X122058600Y-80549600I0J250000D01*
G01*
X122058600Y-80049600D01*
G75*
G02*
X122308600Y-79799600I250000J0D01*
G01*
G37*
G36*
G01*
X122308600Y-77899600D02*
X123258600Y-77899600D01*
G75*
G02*
X123508600Y-78149600I0J-250000D01*
G01*
X123508600Y-78649600D01*
G75*
G02*
X123258600Y-78899600I-250000J0D01*
G01*
X122308600Y-78899600D01*
G75*
G02*
X122058600Y-78649600I0J250000D01*
G01*
X122058600Y-78149600D01*
G75*
G02*
X122308600Y-77899600I250000J0D01*
G01*
G37*
G36*
G01*
X107701500Y-73944500D02*
X107701500Y-72994500D01*
G75*
G02*
X107951500Y-72744500I250000J0D01*
G01*
X108451500Y-72744500D01*
G75*
G02*
X108701500Y-72994500I0J-250000D01*
G01*
X108701500Y-73944500D01*
G75*
G02*
X108451500Y-74194500I-250000J0D01*
G01*
X107951500Y-74194500D01*
G75*
G02*
X107701500Y-73944500I0J250000D01*
G01*
G37*
G36*
G01*
X105801500Y-73944500D02*
X105801500Y-72994500D01*
G75*
G02*
X106051500Y-72744500I250000J0D01*
G01*
X106551500Y-72744500D01*
G75*
G02*
X106801500Y-72994500I0J-250000D01*
G01*
X106801500Y-73944500D01*
G75*
G02*
X106551500Y-74194500I-250000J0D01*
G01*
X106051500Y-74194500D01*
G75*
G02*
X105801500Y-73944500I0J250000D01*
G01*
G37*
G36*
G01*
X120175000Y-79784400D02*
X121125000Y-79784400D01*
G75*
G02*
X121375000Y-80034400I0J-250000D01*
G01*
X121375000Y-80534400D01*
G75*
G02*
X121125000Y-80784400I-250000J0D01*
G01*
X120175000Y-80784400D01*
G75*
G02*
X119925000Y-80534400I0J250000D01*
G01*
X119925000Y-80034400D01*
G75*
G02*
X120175000Y-79784400I250000J0D01*
G01*
G37*
G36*
G01*
X120175000Y-77884400D02*
X121125000Y-77884400D01*
G75*
G02*
X121375000Y-78134400I0J-250000D01*
G01*
X121375000Y-78634400D01*
G75*
G02*
X121125000Y-78884400I-250000J0D01*
G01*
X120175000Y-78884400D01*
G75*
G02*
X119925000Y-78634400I0J250000D01*
G01*
X119925000Y-78134400D01*
G75*
G02*
X120175000Y-77884400I250000J0D01*
G01*
G37*
G36*
G01*
X110421000Y-82773500D02*
X110421000Y-83723500D01*
G75*
G02*
X110171000Y-83973500I-250000J0D01*
G01*
X109671000Y-83973500D01*
G75*
G02*
X109421000Y-83723500I0J250000D01*
G01*
X109421000Y-82773500D01*
G75*
G02*
X109671000Y-82523500I250000J0D01*
G01*
X110171000Y-82523500D01*
G75*
G02*
X110421000Y-82773500I0J-250000D01*
G01*
G37*
G36*
G01*
X112321000Y-82773500D02*
X112321000Y-83723500D01*
G75*
G02*
X112071000Y-83973500I-250000J0D01*
G01*
X111571000Y-83973500D01*
G75*
G02*
X111321000Y-83723500I0J250000D01*
G01*
X111321000Y-82773500D01*
G75*
G02*
X111571000Y-82523500I250000J0D01*
G01*
X112071000Y-82523500D01*
G75*
G02*
X112321000Y-82773500I0J-250000D01*
G01*
G37*
G36*
G01*
X107701500Y-83723500D02*
X107701500Y-82773500D01*
G75*
G02*
X107951500Y-82523500I250000J0D01*
G01*
X108451500Y-82523500D01*
G75*
G02*
X108701500Y-82773500I0J-250000D01*
G01*
X108701500Y-83723500D01*
G75*
G02*
X108451500Y-83973500I-250000J0D01*
G01*
X107951500Y-83973500D01*
G75*
G02*
X107701500Y-83723500I0J250000D01*
G01*
G37*
G36*
G01*
X105801500Y-83723500D02*
X105801500Y-82773500D01*
G75*
G02*
X106051500Y-82523500I250000J0D01*
G01*
X106551500Y-82523500D01*
G75*
G02*
X106801500Y-82773500I0J-250000D01*
G01*
X106801500Y-83723500D01*
G75*
G02*
X106551500Y-83973500I-250000J0D01*
G01*
X106051500Y-83973500D01*
G75*
G02*
X105801500Y-83723500I0J250000D01*
G01*
G37*
G36*
G01*
X110421000Y-84932500D02*
X110421000Y-85882500D01*
G75*
G02*
X110171000Y-86132500I-250000J0D01*
G01*
X109671000Y-86132500D01*
G75*
G02*
X109421000Y-85882500I0J250000D01*
G01*
X109421000Y-84932500D01*
G75*
G02*
X109671000Y-84682500I250000J0D01*
G01*
X110171000Y-84682500D01*
G75*
G02*
X110421000Y-84932500I0J-250000D01*
G01*
G37*
G36*
G01*
X112321000Y-84932500D02*
X112321000Y-85882500D01*
G75*
G02*
X112071000Y-86132500I-250000J0D01*
G01*
X111571000Y-86132500D01*
G75*
G02*
X111321000Y-85882500I0J250000D01*
G01*
X111321000Y-84932500D01*
G75*
G02*
X111571000Y-84682500I250000J0D01*
G01*
X112071000Y-84682500D01*
G75*
G02*
X112321000Y-84932500I0J-250000D01*
G01*
G37*
G36*
G01*
X107701500Y-85895200D02*
X107701500Y-84945200D01*
G75*
G02*
X107951500Y-84695200I250000J0D01*
G01*
X108451500Y-84695200D01*
G75*
G02*
X108701500Y-84945200I0J-250000D01*
G01*
X108701500Y-85895200D01*
G75*
G02*
X108451500Y-86145200I-250000J0D01*
G01*
X107951500Y-86145200D01*
G75*
G02*
X107701500Y-85895200I0J250000D01*
G01*
G37*
G36*
G01*
X105801500Y-85895200D02*
X105801500Y-84945200D01*
G75*
G02*
X106051500Y-84695200I250000J0D01*
G01*
X106551500Y-84695200D01*
G75*
G02*
X106801500Y-84945200I0J-250000D01*
G01*
X106801500Y-85895200D01*
G75*
G02*
X106551500Y-86145200I-250000J0D01*
G01*
X106051500Y-86145200D01*
G75*
G02*
X105801500Y-85895200I0J250000D01*
G01*
G37*
D39*
X185251500Y-79311500D03*
X156251500Y-79311500D03*
M02*
