%FSLAX45Y45*%
G04 Gerber Fmt 4.5, Leading zero omitted, Abs format (unit mm)*
G04 Created by KiCad (PCBNEW (5.1.12-1-10_14)) date 2022-01-30 16:39:32*
%MOMM*%
%LPD*%
G01*
G04 APERTURE LIST*
%TA.AperFunction,Profile*%
%ADD10C,0.050000*%
%TD*%
%ADD11C,0.200000*%
%ADD12C,0.300000*%
G04 APERTURE END LIST*
D10*
X8763000Y-7239000D02*
G75*
G02*
X9144000Y-6858000I381000J0D01*
G01*
X19431000Y-6858000D02*
G75*
G02*
X19812000Y-7239000I0J-381000D01*
G01*
X19812000Y-13081000D02*
G75*
G02*
X19431000Y-13462000I-381000J0D01*
G01*
X9144000Y-13462000D02*
G75*
G02*
X8763000Y-13081000I0J381000D01*
G01*
X9144000Y-13462000D02*
X19431000Y-13462000D01*
X19812000Y-7239000D02*
X19812000Y-13081000D01*
X9144000Y-6858000D02*
X19431000Y-6858000D01*
X8763000Y-13081000D02*
X8763000Y-7239000D01*
D11*
X9982700Y-12683750D02*
X10332700Y-13033750D01*
X10332700Y-12683750D02*
X9982700Y-13033750D01*
D12*
X9046928Y-13930214D02*
X9046928Y-13630214D01*
X9118357Y-13630214D01*
X9161214Y-13644500D01*
X9189786Y-13673071D01*
X9204071Y-13701643D01*
X9218357Y-13758786D01*
X9218357Y-13801643D01*
X9204071Y-13858786D01*
X9189786Y-13887357D01*
X9161214Y-13915929D01*
X9118357Y-13930214D01*
X9046928Y-13930214D01*
X9346928Y-13930214D02*
X9346928Y-13730214D01*
X9346928Y-13787357D02*
X9361214Y-13758786D01*
X9375500Y-13744500D01*
X9404071Y-13730214D01*
X9432643Y-13730214D01*
X9532643Y-13930214D02*
X9532643Y-13730214D01*
X9532643Y-13630214D02*
X9518357Y-13644500D01*
X9532643Y-13658786D01*
X9546928Y-13644500D01*
X9532643Y-13630214D01*
X9532643Y-13658786D01*
X9718357Y-13930214D02*
X9689786Y-13915929D01*
X9675500Y-13887357D01*
X9675500Y-13630214D01*
X9875500Y-13930214D02*
X9846928Y-13915929D01*
X9832643Y-13887357D01*
X9832643Y-13630214D01*
X10218357Y-13930214D02*
X10218357Y-13630214D01*
X10318357Y-13844500D01*
X10418357Y-13630214D01*
X10418357Y-13930214D01*
X10689786Y-13930214D02*
X10689786Y-13773071D01*
X10675500Y-13744500D01*
X10646928Y-13730214D01*
X10589786Y-13730214D01*
X10561214Y-13744500D01*
X10689786Y-13915929D02*
X10661214Y-13930214D01*
X10589786Y-13930214D01*
X10561214Y-13915929D01*
X10546928Y-13887357D01*
X10546928Y-13858786D01*
X10561214Y-13830214D01*
X10589786Y-13815929D01*
X10661214Y-13815929D01*
X10689786Y-13801643D01*
X10832643Y-13730214D02*
X10832643Y-14030214D01*
X10832643Y-13744500D02*
X10861214Y-13730214D01*
X10918357Y-13730214D01*
X10946928Y-13744500D01*
X10961214Y-13758786D01*
X10975500Y-13787357D01*
X10975500Y-13873071D01*
X10961214Y-13901643D01*
X10946928Y-13915929D01*
X10918357Y-13930214D01*
X10861214Y-13930214D01*
X10832643Y-13915929D01*
X11104071Y-13901643D02*
X11118357Y-13915929D01*
X11104071Y-13930214D01*
X11089786Y-13915929D01*
X11104071Y-13901643D01*
X11104071Y-13930214D01*
X11104071Y-13744500D02*
X11118357Y-13758786D01*
X11104071Y-13773071D01*
X11089786Y-13758786D01*
X11104071Y-13744500D01*
X11104071Y-13773071D01*
X8410500Y-14249500D02*
X8760500Y-14599500D01*
X8760500Y-14249500D02*
X8410500Y-14599500D01*
X9018357Y-14260214D02*
X9204071Y-14260214D01*
X9104071Y-14374500D01*
X9146928Y-14374500D01*
X9175500Y-14388786D01*
X9189786Y-14403071D01*
X9204071Y-14431643D01*
X9204071Y-14503071D01*
X9189786Y-14531643D01*
X9175500Y-14545929D01*
X9146928Y-14560214D01*
X9061214Y-14560214D01*
X9032643Y-14545929D01*
X9018357Y-14531643D01*
X9332643Y-14531643D02*
X9346928Y-14545929D01*
X9332643Y-14560214D01*
X9318357Y-14545929D01*
X9332643Y-14531643D01*
X9332643Y-14560214D01*
X9618357Y-14260214D02*
X9475500Y-14260214D01*
X9461214Y-14403071D01*
X9475500Y-14388786D01*
X9504071Y-14374500D01*
X9575500Y-14374500D01*
X9604071Y-14388786D01*
X9618357Y-14403071D01*
X9632643Y-14431643D01*
X9632643Y-14503071D01*
X9618357Y-14531643D01*
X9604071Y-14545929D01*
X9575500Y-14560214D01*
X9504071Y-14560214D01*
X9475500Y-14545929D01*
X9461214Y-14531643D01*
X9818357Y-14260214D02*
X9846928Y-14260214D01*
X9875500Y-14274500D01*
X9889786Y-14288786D01*
X9904071Y-14317357D01*
X9918357Y-14374500D01*
X9918357Y-14445929D01*
X9904071Y-14503071D01*
X9889786Y-14531643D01*
X9875500Y-14545929D01*
X9846928Y-14560214D01*
X9818357Y-14560214D01*
X9789786Y-14545929D01*
X9775500Y-14531643D01*
X9761214Y-14503071D01*
X9746928Y-14445929D01*
X9746928Y-14374500D01*
X9761214Y-14317357D01*
X9775500Y-14288786D01*
X9789786Y-14274500D01*
X9818357Y-14260214D01*
X10104071Y-14260214D02*
X10132643Y-14260214D01*
X10161214Y-14274500D01*
X10175500Y-14288786D01*
X10189786Y-14317357D01*
X10204071Y-14374500D01*
X10204071Y-14445929D01*
X10189786Y-14503071D01*
X10175500Y-14531643D01*
X10161214Y-14545929D01*
X10132643Y-14560214D01*
X10104071Y-14560214D01*
X10075500Y-14545929D01*
X10061214Y-14531643D01*
X10046928Y-14503071D01*
X10032643Y-14445929D01*
X10032643Y-14374500D01*
X10046928Y-14317357D01*
X10061214Y-14288786D01*
X10075500Y-14274500D01*
X10104071Y-14260214D01*
X10332643Y-14560214D02*
X10332643Y-14360214D01*
X10332643Y-14388786D02*
X10346928Y-14374500D01*
X10375500Y-14360214D01*
X10418357Y-14360214D01*
X10446928Y-14374500D01*
X10461214Y-14403071D01*
X10461214Y-14560214D01*
X10461214Y-14403071D02*
X10475500Y-14374500D01*
X10504071Y-14360214D01*
X10546928Y-14360214D01*
X10575500Y-14374500D01*
X10589786Y-14403071D01*
X10589786Y-14560214D01*
X10732643Y-14560214D02*
X10732643Y-14360214D01*
X10732643Y-14388786D02*
X10746928Y-14374500D01*
X10775500Y-14360214D01*
X10818357Y-14360214D01*
X10846928Y-14374500D01*
X10861214Y-14403071D01*
X10861214Y-14560214D01*
X10861214Y-14403071D02*
X10875500Y-14374500D01*
X10904071Y-14360214D01*
X10946928Y-14360214D01*
X10975500Y-14374500D01*
X10989786Y-14403071D01*
X10989786Y-14560214D01*
X11575500Y-14245929D02*
X11318357Y-14631643D01*
X11961214Y-14260214D02*
X11989786Y-14260214D01*
X12018357Y-14274500D01*
X12032643Y-14288786D01*
X12046928Y-14317357D01*
X12061214Y-14374500D01*
X12061214Y-14445929D01*
X12046928Y-14503071D01*
X12032643Y-14531643D01*
X12018357Y-14545929D01*
X11989786Y-14560214D01*
X11961214Y-14560214D01*
X11932643Y-14545929D01*
X11918357Y-14531643D01*
X11904071Y-14503071D01*
X11889786Y-14445929D01*
X11889786Y-14374500D01*
X11904071Y-14317357D01*
X11918357Y-14288786D01*
X11932643Y-14274500D01*
X11961214Y-14260214D01*
X12189786Y-14531643D02*
X12204071Y-14545929D01*
X12189786Y-14560214D01*
X12175500Y-14545929D01*
X12189786Y-14531643D01*
X12189786Y-14560214D01*
X12489786Y-14560214D02*
X12318357Y-14560214D01*
X12404071Y-14560214D02*
X12404071Y-14260214D01*
X12375500Y-14303071D01*
X12346928Y-14331643D01*
X12318357Y-14345929D01*
X12589786Y-14260214D02*
X12775500Y-14260214D01*
X12675500Y-14374500D01*
X12718357Y-14374500D01*
X12746928Y-14388786D01*
X12761214Y-14403071D01*
X12775500Y-14431643D01*
X12775500Y-14503071D01*
X12761214Y-14531643D01*
X12746928Y-14545929D01*
X12718357Y-14560214D01*
X12632643Y-14560214D01*
X12604071Y-14545929D01*
X12589786Y-14531643D01*
X12875500Y-14260214D02*
X13075500Y-14260214D01*
X12946928Y-14560214D01*
X13232643Y-14388786D02*
X13204071Y-14374500D01*
X13189786Y-14360214D01*
X13175500Y-14331643D01*
X13175500Y-14317357D01*
X13189786Y-14288786D01*
X13204071Y-14274500D01*
X13232643Y-14260214D01*
X13289786Y-14260214D01*
X13318357Y-14274500D01*
X13332643Y-14288786D01*
X13346928Y-14317357D01*
X13346928Y-14331643D01*
X13332643Y-14360214D01*
X13318357Y-14374500D01*
X13289786Y-14388786D01*
X13232643Y-14388786D01*
X13204071Y-14403071D01*
X13189786Y-14417357D01*
X13175500Y-14445929D01*
X13175500Y-14503071D01*
X13189786Y-14531643D01*
X13204071Y-14545929D01*
X13232643Y-14560214D01*
X13289786Y-14560214D01*
X13318357Y-14545929D01*
X13332643Y-14531643D01*
X13346928Y-14503071D01*
X13346928Y-14445929D01*
X13332643Y-14417357D01*
X13318357Y-14403071D01*
X13289786Y-14388786D01*
X13461214Y-14260214D02*
X13461214Y-14317357D01*
X13575500Y-14260214D02*
X13575500Y-14317357D01*
X14018357Y-14674500D02*
X14004071Y-14660214D01*
X13975500Y-14617357D01*
X13961214Y-14588786D01*
X13946928Y-14545929D01*
X13932643Y-14474500D01*
X13932643Y-14417357D01*
X13946928Y-14345929D01*
X13961214Y-14303071D01*
X13975500Y-14274500D01*
X14004071Y-14231643D01*
X14018357Y-14217357D01*
X14289786Y-14560214D02*
X14118357Y-14560214D01*
X14204071Y-14560214D02*
X14204071Y-14260214D01*
X14175500Y-14303071D01*
X14146928Y-14331643D01*
X14118357Y-14345929D01*
X14646928Y-14560214D02*
X14646928Y-14260214D01*
X14775500Y-14560214D02*
X14775500Y-14403071D01*
X14761214Y-14374500D01*
X14732643Y-14360214D01*
X14689786Y-14360214D01*
X14661214Y-14374500D01*
X14646928Y-14388786D01*
X14961214Y-14560214D02*
X14932643Y-14545929D01*
X14918357Y-14531643D01*
X14904071Y-14503071D01*
X14904071Y-14417357D01*
X14918357Y-14388786D01*
X14932643Y-14374500D01*
X14961214Y-14360214D01*
X15004071Y-14360214D01*
X15032643Y-14374500D01*
X15046928Y-14388786D01*
X15061214Y-14417357D01*
X15061214Y-14503071D01*
X15046928Y-14531643D01*
X15032643Y-14545929D01*
X15004071Y-14560214D01*
X14961214Y-14560214D01*
X15232643Y-14560214D02*
X15204071Y-14545929D01*
X15189786Y-14517357D01*
X15189786Y-14260214D01*
X15461214Y-14545929D02*
X15432643Y-14560214D01*
X15375500Y-14560214D01*
X15346928Y-14545929D01*
X15332643Y-14517357D01*
X15332643Y-14403071D01*
X15346928Y-14374500D01*
X15375500Y-14360214D01*
X15432643Y-14360214D01*
X15461214Y-14374500D01*
X15475500Y-14403071D01*
X15475500Y-14431643D01*
X15332643Y-14460214D01*
X15575500Y-14674500D02*
X15589786Y-14660214D01*
X15618357Y-14617357D01*
X15632643Y-14588786D01*
X15646928Y-14545929D01*
X15661214Y-14474500D01*
X15661214Y-14417357D01*
X15646928Y-14345929D01*
X15632643Y-14303071D01*
X15618357Y-14274500D01*
X15589786Y-14231643D01*
X15575500Y-14217357D01*
X16118357Y-14674500D02*
X16104071Y-14660214D01*
X16075500Y-14617357D01*
X16061214Y-14588786D01*
X16046928Y-14545929D01*
X16032643Y-14474500D01*
X16032643Y-14417357D01*
X16046928Y-14345929D01*
X16061214Y-14303071D01*
X16075500Y-14274500D01*
X16104071Y-14231643D01*
X16118357Y-14217357D01*
X16232643Y-14360214D02*
X16232643Y-14560214D01*
X16232643Y-14388786D02*
X16246928Y-14374500D01*
X16275500Y-14360214D01*
X16318357Y-14360214D01*
X16346928Y-14374500D01*
X16361214Y-14403071D01*
X16361214Y-14560214D01*
X16546928Y-14560214D02*
X16518357Y-14545929D01*
X16504071Y-14531643D01*
X16489786Y-14503071D01*
X16489786Y-14417357D01*
X16504071Y-14388786D01*
X16518357Y-14374500D01*
X16546928Y-14360214D01*
X16589786Y-14360214D01*
X16618357Y-14374500D01*
X16632643Y-14388786D01*
X16646928Y-14417357D01*
X16646928Y-14503071D01*
X16632643Y-14531643D01*
X16618357Y-14545929D01*
X16589786Y-14560214D01*
X16546928Y-14560214D01*
X16732643Y-14360214D02*
X16846928Y-14360214D01*
X16775500Y-14260214D02*
X16775500Y-14517357D01*
X16789786Y-14545929D01*
X16818357Y-14560214D01*
X16846928Y-14560214D01*
X17175500Y-14360214D02*
X17175500Y-14660214D01*
X17175500Y-14374500D02*
X17204071Y-14360214D01*
X17261214Y-14360214D01*
X17289786Y-14374500D01*
X17304071Y-14388786D01*
X17318357Y-14417357D01*
X17318357Y-14503071D01*
X17304071Y-14531643D01*
X17289786Y-14545929D01*
X17261214Y-14560214D01*
X17204071Y-14560214D01*
X17175500Y-14545929D01*
X17489786Y-14560214D02*
X17461214Y-14545929D01*
X17446928Y-14517357D01*
X17446928Y-14260214D01*
X17732643Y-14560214D02*
X17732643Y-14403071D01*
X17718357Y-14374500D01*
X17689786Y-14360214D01*
X17632643Y-14360214D01*
X17604071Y-14374500D01*
X17732643Y-14545929D02*
X17704071Y-14560214D01*
X17632643Y-14560214D01*
X17604071Y-14545929D01*
X17589786Y-14517357D01*
X17589786Y-14488786D01*
X17604071Y-14460214D01*
X17632643Y-14445929D01*
X17704071Y-14445929D01*
X17732643Y-14431643D01*
X17832643Y-14360214D02*
X17946928Y-14360214D01*
X17875500Y-14260214D02*
X17875500Y-14517357D01*
X17889786Y-14545929D01*
X17918357Y-14560214D01*
X17946928Y-14560214D01*
X18161214Y-14545929D02*
X18132643Y-14560214D01*
X18075500Y-14560214D01*
X18046928Y-14545929D01*
X18032643Y-14517357D01*
X18032643Y-14403071D01*
X18046928Y-14374500D01*
X18075500Y-14360214D01*
X18132643Y-14360214D01*
X18161214Y-14374500D01*
X18175500Y-14403071D01*
X18175500Y-14431643D01*
X18032643Y-14460214D01*
X18432643Y-14560214D02*
X18432643Y-14260214D01*
X18432643Y-14545929D02*
X18404071Y-14560214D01*
X18346928Y-14560214D01*
X18318357Y-14545929D01*
X18304071Y-14531643D01*
X18289786Y-14503071D01*
X18289786Y-14417357D01*
X18304071Y-14388786D01*
X18318357Y-14374500D01*
X18346928Y-14360214D01*
X18404071Y-14360214D01*
X18432643Y-14374500D01*
X18546928Y-14674500D02*
X18561214Y-14660214D01*
X18589786Y-14617357D01*
X18604071Y-14588786D01*
X18618357Y-14545929D01*
X18632643Y-14474500D01*
X18632643Y-14417357D01*
X18618357Y-14345929D01*
X18604071Y-14303071D01*
X18589786Y-14274500D01*
X18561214Y-14231643D01*
X18546928Y-14217357D01*
M02*
