G04 #@! TF.GenerationSoftware,KiCad,Pcbnew,(5.1.12-1-10_14)*
G04 #@! TF.CreationDate,2022-01-30T16:39:28+01:00*
G04 #@! TF.ProjectId,NixieDisplayMotherBoardV2,4e697869-6544-4697-9370-6c61794d6f74,rev?*
G04 #@! TF.SameCoordinates,Original*
G04 #@! TF.FileFunction,Legend,Bot*
G04 #@! TF.FilePolarity,Positive*
%FSLAX46Y46*%
G04 Gerber Fmt 4.6, Leading zero omitted, Abs format (unit mm)*
G04 Created by KiCad (PCBNEW (5.1.12-1-10_14)) date 2022-01-30 16:39:28*
%MOMM*%
%LPD*%
G01*
G04 APERTURE LIST*
%ADD10C,0.120000*%
%ADD11C,0.150000*%
%ADD12C,1.600000*%
%ADD13C,1.000000*%
%ADD14C,2.000000*%
%ADD15C,1.440000*%
%ADD16O,1.955800X1.270000*%
%ADD17O,3.500000X3.500000*%
%ADD18O,1.700000X1.700000*%
%ADD19R,1.700000X1.700000*%
%ADD20R,3.500000X3.500000*%
%ADD21O,1.676400X1.270000*%
%ADD22O,1.676400X1.676400*%
%ADD23O,1.524000X1.524000*%
%ADD24C,0.800000*%
%ADD25C,6.400000*%
%ADD26O,2.400000X2.400000*%
%ADD27R,2.400000X2.400000*%
%ADD28R,1.600000X1.600000*%
G04 APERTURE END LIST*
D10*
X140275000Y-128210000D02*
X140275000Y-129540000D01*
X141605000Y-128210000D02*
X140275000Y-128210000D01*
X140275000Y-130810000D02*
X140275000Y-133410000D01*
X142875000Y-130810000D02*
X140275000Y-130810000D01*
X142875000Y-128210000D02*
X142875000Y-130810000D01*
X140275000Y-133410000D02*
X145475000Y-133410000D01*
X142875000Y-128210000D02*
X145475000Y-128210000D01*
X145475000Y-128210000D02*
X145475000Y-133410000D01*
X137735000Y-69790000D02*
X137735000Y-71120000D01*
X139065000Y-69790000D02*
X137735000Y-69790000D01*
X137735000Y-72390000D02*
X137735000Y-74990000D01*
X140335000Y-72390000D02*
X137735000Y-72390000D01*
X140335000Y-69790000D02*
X140335000Y-72390000D01*
X137735000Y-74990000D02*
X148015000Y-74990000D01*
X140335000Y-69790000D02*
X148015000Y-69790000D01*
X148015000Y-69790000D02*
X148015000Y-74990000D01*
D11*
X138727380Y-130476666D02*
X139441666Y-130476666D01*
X139584523Y-130429047D01*
X139679761Y-130333809D01*
X139727380Y-130190952D01*
X139727380Y-130095714D01*
X138822619Y-130905238D02*
X138775000Y-130952857D01*
X138727380Y-131048095D01*
X138727380Y-131286190D01*
X138775000Y-131381428D01*
X138822619Y-131429047D01*
X138917857Y-131476666D01*
X139013095Y-131476666D01*
X139155952Y-131429047D01*
X139727380Y-130857619D01*
X139727380Y-131476666D01*
X136187380Y-72056666D02*
X136901666Y-72056666D01*
X137044523Y-72009047D01*
X137139761Y-71913809D01*
X137187380Y-71770952D01*
X137187380Y-71675714D01*
X137187380Y-73056666D02*
X137187380Y-72485238D01*
X137187380Y-72770952D02*
X136187380Y-72770952D01*
X136330238Y-72675714D01*
X136425476Y-72580476D01*
X136473095Y-72485238D01*
%LPC*%
D12*
X96443800Y-119832000D03*
X96443800Y-116332000D03*
D13*
X192441300Y-80518000D03*
X190741300Y-80518000D03*
D14*
X194523500Y-116967000D03*
X194523500Y-121467000D03*
X188023500Y-116967000D03*
X188023500Y-121467000D03*
X194523500Y-107378500D03*
X194523500Y-111878500D03*
X188023500Y-107378500D03*
X188023500Y-111878500D03*
X194460000Y-97790000D03*
X194460000Y-102290000D03*
X187960000Y-97790000D03*
X187960000Y-102290000D03*
D12*
X90043000Y-84614000D03*
X90043000Y-86614000D03*
X90043000Y-88614000D03*
G36*
G01*
X89243000Y-81664000D02*
X90843000Y-81664000D01*
G75*
G02*
X91243000Y-82064000I0J-400000D01*
G01*
X91243000Y-82864000D01*
G75*
G02*
X90843000Y-83264000I-400000J0D01*
G01*
X89243000Y-83264000D01*
G75*
G02*
X88843000Y-82864000I0J400000D01*
G01*
X88843000Y-82064000D01*
G75*
G02*
X89243000Y-81664000I400000J0D01*
G01*
G37*
G36*
G01*
X89243000Y-89964000D02*
X90843000Y-89964000D01*
G75*
G02*
X91243000Y-90364000I0J-400000D01*
G01*
X91243000Y-91164000D01*
G75*
G02*
X90843000Y-91564000I-400000J0D01*
G01*
X89243000Y-91564000D01*
G75*
G02*
X88843000Y-91164000I0J400000D01*
G01*
X88843000Y-90364000D01*
G75*
G02*
X89243000Y-89964000I400000J0D01*
G01*
G37*
D15*
X128143000Y-130937000D03*
X128143000Y-128397000D03*
X128143000Y-125857000D03*
D16*
X118237000Y-126047500D03*
X118237000Y-128587500D03*
X118237000Y-131127500D03*
D17*
X101577000Y-128587500D03*
D18*
X169989500Y-130873500D03*
X169989500Y-128333500D03*
X172529500Y-130873500D03*
X172529500Y-128333500D03*
X175069500Y-130873500D03*
X175069500Y-128333500D03*
X177609500Y-130873500D03*
X177609500Y-128333500D03*
X180149500Y-130873500D03*
D19*
X180149500Y-128333500D03*
G36*
G01*
X96850000Y-102857000D02*
X96850000Y-101107000D01*
G75*
G02*
X97725000Y-100232000I875000J0D01*
G01*
X99475000Y-100232000D01*
G75*
G02*
X100350000Y-101107000I0J-875000D01*
G01*
X100350000Y-102857000D01*
G75*
G02*
X99475000Y-103732000I-875000J0D01*
G01*
X97725000Y-103732000D01*
G75*
G02*
X96850000Y-102857000I0J875000D01*
G01*
G37*
G36*
G01*
X94100000Y-98282000D02*
X94100000Y-96282000D01*
G75*
G02*
X94850000Y-95532000I750000J0D01*
G01*
X96350000Y-95532000D01*
G75*
G02*
X97100000Y-96282000I0J-750000D01*
G01*
X97100000Y-98282000D01*
G75*
G02*
X96350000Y-99032000I-750000J0D01*
G01*
X94850000Y-99032000D01*
G75*
G02*
X94100000Y-98282000I0J750000D01*
G01*
G37*
D20*
X101600000Y-97282000D03*
D21*
X144145000Y-132080000D03*
D22*
X144145000Y-129540000D03*
D21*
X141605000Y-132080000D03*
D22*
X141605000Y-129540000D03*
D23*
X146685000Y-73660000D03*
X146685000Y-71120000D03*
X144145000Y-73660000D03*
X144145000Y-71120000D03*
X141605000Y-73660000D03*
X141605000Y-71120000D03*
X139065000Y-73660000D03*
X139065000Y-71120000D03*
D24*
X195372056Y-128477944D03*
X193675000Y-127775000D03*
X191977944Y-128477944D03*
X191275000Y-130175000D03*
X191977944Y-131872056D03*
X193675000Y-132575000D03*
X195372056Y-131872056D03*
X196075000Y-130175000D03*
D25*
X193675000Y-130175000D03*
D24*
X93772056Y-128477944D03*
X92075000Y-127775000D03*
X90377944Y-128477944D03*
X89675000Y-130175000D03*
X90377944Y-131872056D03*
X92075000Y-132575000D03*
X93772056Y-131872056D03*
X94475000Y-130175000D03*
D25*
X92075000Y-130175000D03*
D24*
X195372056Y-71327944D03*
X193675000Y-70625000D03*
X191977944Y-71327944D03*
X191275000Y-73025000D03*
X191977944Y-74722056D03*
X193675000Y-75425000D03*
X195372056Y-74722056D03*
X196075000Y-73025000D03*
D25*
X193675000Y-73025000D03*
D24*
X93772056Y-71327944D03*
X92075000Y-70625000D03*
X90377944Y-71327944D03*
X89675000Y-73025000D03*
X90377944Y-74722056D03*
X92075000Y-75425000D03*
X93772056Y-74722056D03*
X94475000Y-73025000D03*
D25*
X92075000Y-73025000D03*
D26*
X128905000Y-118872000D03*
D27*
X144145000Y-118872000D03*
D12*
X150622000Y-122372000D03*
D28*
X150622000Y-118872000D03*
D12*
X120967500Y-97020500D03*
X120967500Y-100520500D03*
M02*
