G04 #@! TF.GenerationSoftware,KiCad,Pcbnew,(5.1.12-1-10_14)*
G04 #@! TF.CreationDate,2022-01-30T19:40:42+01:00*
G04 #@! TF.ProjectId,NixieDisplayMotherBoardV2,4e697869-6544-4697-9370-6c61794d6f74,rev?*
G04 #@! TF.SameCoordinates,Original*
G04 #@! TF.FileFunction,Paste,Top*
G04 #@! TF.FilePolarity,Positive*
%FSLAX46Y46*%
G04 Gerber Fmt 4.6, Leading zero omitted, Abs format (unit mm)*
G04 Created by KiCad (PCBNEW (5.1.12-1-10_14)) date 2022-01-30 19:40:42*
%MOMM*%
%LPD*%
G01*
G04 APERTURE LIST*
%ADD10R,2.000000X1.500000*%
%ADD11R,2.000000X3.800000*%
%ADD12R,1.700000X1.000000*%
%ADD13R,0.800000X0.900000*%
%ADD14R,1.000000X0.700000*%
%ADD15R,2.700000X3.600000*%
%ADD16R,1.200000X0.900000*%
%ADD17R,2.300000X2.500000*%
%ADD18R,3.000000X4.200000*%
G04 APERTURE END LIST*
G36*
G01*
X141699000Y-78496500D02*
X141699000Y-78221500D01*
G75*
G02*
X141836500Y-78084000I137500J0D01*
G01*
X143561500Y-78084000D01*
G75*
G02*
X143699000Y-78221500I0J-137500D01*
G01*
X143699000Y-78496500D01*
G75*
G02*
X143561500Y-78634000I-137500J0D01*
G01*
X141836500Y-78634000D01*
G75*
G02*
X141699000Y-78496500I0J137500D01*
G01*
G37*
G36*
G01*
X141699000Y-79766500D02*
X141699000Y-79491500D01*
G75*
G02*
X141836500Y-79354000I137500J0D01*
G01*
X143561500Y-79354000D01*
G75*
G02*
X143699000Y-79491500I0J-137500D01*
G01*
X143699000Y-79766500D01*
G75*
G02*
X143561500Y-79904000I-137500J0D01*
G01*
X141836500Y-79904000D01*
G75*
G02*
X141699000Y-79766500I0J137500D01*
G01*
G37*
G36*
G01*
X141699000Y-81036500D02*
X141699000Y-80761500D01*
G75*
G02*
X141836500Y-80624000I137500J0D01*
G01*
X143561500Y-80624000D01*
G75*
G02*
X143699000Y-80761500I0J-137500D01*
G01*
X143699000Y-81036500D01*
G75*
G02*
X143561500Y-81174000I-137500J0D01*
G01*
X141836500Y-81174000D01*
G75*
G02*
X141699000Y-81036500I0J137500D01*
G01*
G37*
G36*
G01*
X141699000Y-82306500D02*
X141699000Y-82031500D01*
G75*
G02*
X141836500Y-81894000I137500J0D01*
G01*
X143561500Y-81894000D01*
G75*
G02*
X143699000Y-82031500I0J-137500D01*
G01*
X143699000Y-82306500D01*
G75*
G02*
X143561500Y-82444000I-137500J0D01*
G01*
X141836500Y-82444000D01*
G75*
G02*
X141699000Y-82306500I0J137500D01*
G01*
G37*
G36*
G01*
X141699000Y-83576500D02*
X141699000Y-83301500D01*
G75*
G02*
X141836500Y-83164000I137500J0D01*
G01*
X143561500Y-83164000D01*
G75*
G02*
X143699000Y-83301500I0J-137500D01*
G01*
X143699000Y-83576500D01*
G75*
G02*
X143561500Y-83714000I-137500J0D01*
G01*
X141836500Y-83714000D01*
G75*
G02*
X141699000Y-83576500I0J137500D01*
G01*
G37*
G36*
G01*
X141699000Y-84846500D02*
X141699000Y-84571500D01*
G75*
G02*
X141836500Y-84434000I137500J0D01*
G01*
X143561500Y-84434000D01*
G75*
G02*
X143699000Y-84571500I0J-137500D01*
G01*
X143699000Y-84846500D01*
G75*
G02*
X143561500Y-84984000I-137500J0D01*
G01*
X141836500Y-84984000D01*
G75*
G02*
X141699000Y-84846500I0J137500D01*
G01*
G37*
G36*
G01*
X141699000Y-86116500D02*
X141699000Y-85841500D01*
G75*
G02*
X141836500Y-85704000I137500J0D01*
G01*
X143561500Y-85704000D01*
G75*
G02*
X143699000Y-85841500I0J-137500D01*
G01*
X143699000Y-86116500D01*
G75*
G02*
X143561500Y-86254000I-137500J0D01*
G01*
X141836500Y-86254000D01*
G75*
G02*
X141699000Y-86116500I0J137500D01*
G01*
G37*
G36*
G01*
X141699000Y-87386500D02*
X141699000Y-87111500D01*
G75*
G02*
X141836500Y-86974000I137500J0D01*
G01*
X143561500Y-86974000D01*
G75*
G02*
X143699000Y-87111500I0J-137500D01*
G01*
X143699000Y-87386500D01*
G75*
G02*
X143561500Y-87524000I-137500J0D01*
G01*
X141836500Y-87524000D01*
G75*
G02*
X141699000Y-87386500I0J137500D01*
G01*
G37*
G36*
G01*
X141699000Y-88656500D02*
X141699000Y-88381500D01*
G75*
G02*
X141836500Y-88244000I137500J0D01*
G01*
X143561500Y-88244000D01*
G75*
G02*
X143699000Y-88381500I0J-137500D01*
G01*
X143699000Y-88656500D01*
G75*
G02*
X143561500Y-88794000I-137500J0D01*
G01*
X141836500Y-88794000D01*
G75*
G02*
X141699000Y-88656500I0J137500D01*
G01*
G37*
G36*
G01*
X141699000Y-89926500D02*
X141699000Y-89651500D01*
G75*
G02*
X141836500Y-89514000I137500J0D01*
G01*
X143561500Y-89514000D01*
G75*
G02*
X143699000Y-89651500I0J-137500D01*
G01*
X143699000Y-89926500D01*
G75*
G02*
X143561500Y-90064000I-137500J0D01*
G01*
X141836500Y-90064000D01*
G75*
G02*
X141699000Y-89926500I0J137500D01*
G01*
G37*
G36*
G01*
X141699000Y-91196500D02*
X141699000Y-90921500D01*
G75*
G02*
X141836500Y-90784000I137500J0D01*
G01*
X143561500Y-90784000D01*
G75*
G02*
X143699000Y-90921500I0J-137500D01*
G01*
X143699000Y-91196500D01*
G75*
G02*
X143561500Y-91334000I-137500J0D01*
G01*
X141836500Y-91334000D01*
G75*
G02*
X141699000Y-91196500I0J137500D01*
G01*
G37*
G36*
G01*
X141699000Y-92466500D02*
X141699000Y-92191500D01*
G75*
G02*
X141836500Y-92054000I137500J0D01*
G01*
X143561500Y-92054000D01*
G75*
G02*
X143699000Y-92191500I0J-137500D01*
G01*
X143699000Y-92466500D01*
G75*
G02*
X143561500Y-92604000I-137500J0D01*
G01*
X141836500Y-92604000D01*
G75*
G02*
X141699000Y-92466500I0J137500D01*
G01*
G37*
G36*
G01*
X132399000Y-92466500D02*
X132399000Y-92191500D01*
G75*
G02*
X132536500Y-92054000I137500J0D01*
G01*
X134261500Y-92054000D01*
G75*
G02*
X134399000Y-92191500I0J-137500D01*
G01*
X134399000Y-92466500D01*
G75*
G02*
X134261500Y-92604000I-137500J0D01*
G01*
X132536500Y-92604000D01*
G75*
G02*
X132399000Y-92466500I0J137500D01*
G01*
G37*
G36*
G01*
X132399000Y-91196500D02*
X132399000Y-90921500D01*
G75*
G02*
X132536500Y-90784000I137500J0D01*
G01*
X134261500Y-90784000D01*
G75*
G02*
X134399000Y-90921500I0J-137500D01*
G01*
X134399000Y-91196500D01*
G75*
G02*
X134261500Y-91334000I-137500J0D01*
G01*
X132536500Y-91334000D01*
G75*
G02*
X132399000Y-91196500I0J137500D01*
G01*
G37*
G36*
G01*
X132399000Y-89926500D02*
X132399000Y-89651500D01*
G75*
G02*
X132536500Y-89514000I137500J0D01*
G01*
X134261500Y-89514000D01*
G75*
G02*
X134399000Y-89651500I0J-137500D01*
G01*
X134399000Y-89926500D01*
G75*
G02*
X134261500Y-90064000I-137500J0D01*
G01*
X132536500Y-90064000D01*
G75*
G02*
X132399000Y-89926500I0J137500D01*
G01*
G37*
G36*
G01*
X132399000Y-88656500D02*
X132399000Y-88381500D01*
G75*
G02*
X132536500Y-88244000I137500J0D01*
G01*
X134261500Y-88244000D01*
G75*
G02*
X134399000Y-88381500I0J-137500D01*
G01*
X134399000Y-88656500D01*
G75*
G02*
X134261500Y-88794000I-137500J0D01*
G01*
X132536500Y-88794000D01*
G75*
G02*
X132399000Y-88656500I0J137500D01*
G01*
G37*
G36*
G01*
X132399000Y-87386500D02*
X132399000Y-87111500D01*
G75*
G02*
X132536500Y-86974000I137500J0D01*
G01*
X134261500Y-86974000D01*
G75*
G02*
X134399000Y-87111500I0J-137500D01*
G01*
X134399000Y-87386500D01*
G75*
G02*
X134261500Y-87524000I-137500J0D01*
G01*
X132536500Y-87524000D01*
G75*
G02*
X132399000Y-87386500I0J137500D01*
G01*
G37*
G36*
G01*
X132399000Y-86116500D02*
X132399000Y-85841500D01*
G75*
G02*
X132536500Y-85704000I137500J0D01*
G01*
X134261500Y-85704000D01*
G75*
G02*
X134399000Y-85841500I0J-137500D01*
G01*
X134399000Y-86116500D01*
G75*
G02*
X134261500Y-86254000I-137500J0D01*
G01*
X132536500Y-86254000D01*
G75*
G02*
X132399000Y-86116500I0J137500D01*
G01*
G37*
G36*
G01*
X132399000Y-84846500D02*
X132399000Y-84571500D01*
G75*
G02*
X132536500Y-84434000I137500J0D01*
G01*
X134261500Y-84434000D01*
G75*
G02*
X134399000Y-84571500I0J-137500D01*
G01*
X134399000Y-84846500D01*
G75*
G02*
X134261500Y-84984000I-137500J0D01*
G01*
X132536500Y-84984000D01*
G75*
G02*
X132399000Y-84846500I0J137500D01*
G01*
G37*
G36*
G01*
X132399000Y-83576500D02*
X132399000Y-83301500D01*
G75*
G02*
X132536500Y-83164000I137500J0D01*
G01*
X134261500Y-83164000D01*
G75*
G02*
X134399000Y-83301500I0J-137500D01*
G01*
X134399000Y-83576500D01*
G75*
G02*
X134261500Y-83714000I-137500J0D01*
G01*
X132536500Y-83714000D01*
G75*
G02*
X132399000Y-83576500I0J137500D01*
G01*
G37*
G36*
G01*
X132399000Y-82306500D02*
X132399000Y-82031500D01*
G75*
G02*
X132536500Y-81894000I137500J0D01*
G01*
X134261500Y-81894000D01*
G75*
G02*
X134399000Y-82031500I0J-137500D01*
G01*
X134399000Y-82306500D01*
G75*
G02*
X134261500Y-82444000I-137500J0D01*
G01*
X132536500Y-82444000D01*
G75*
G02*
X132399000Y-82306500I0J137500D01*
G01*
G37*
G36*
G01*
X132399000Y-81036500D02*
X132399000Y-80761500D01*
G75*
G02*
X132536500Y-80624000I137500J0D01*
G01*
X134261500Y-80624000D01*
G75*
G02*
X134399000Y-80761500I0J-137500D01*
G01*
X134399000Y-81036500D01*
G75*
G02*
X134261500Y-81174000I-137500J0D01*
G01*
X132536500Y-81174000D01*
G75*
G02*
X132399000Y-81036500I0J137500D01*
G01*
G37*
G36*
G01*
X132399000Y-79766500D02*
X132399000Y-79491500D01*
G75*
G02*
X132536500Y-79354000I137500J0D01*
G01*
X134261500Y-79354000D01*
G75*
G02*
X134399000Y-79491500I0J-137500D01*
G01*
X134399000Y-79766500D01*
G75*
G02*
X134261500Y-79904000I-137500J0D01*
G01*
X132536500Y-79904000D01*
G75*
G02*
X132399000Y-79766500I0J137500D01*
G01*
G37*
G36*
G01*
X132399000Y-78496500D02*
X132399000Y-78221500D01*
G75*
G02*
X132536500Y-78084000I137500J0D01*
G01*
X134261500Y-78084000D01*
G75*
G02*
X134399000Y-78221500I0J-137500D01*
G01*
X134399000Y-78496500D01*
G75*
G02*
X134261500Y-78634000I-137500J0D01*
G01*
X132536500Y-78634000D01*
G75*
G02*
X132399000Y-78496500I0J137500D01*
G01*
G37*
G36*
G01*
X192064500Y-87910800D02*
X192364500Y-87910800D01*
G75*
G02*
X192514500Y-88060800I0J-150000D01*
G01*
X192514500Y-89710800D01*
G75*
G02*
X192364500Y-89860800I-150000J0D01*
G01*
X192064500Y-89860800D01*
G75*
G02*
X191914500Y-89710800I0J150000D01*
G01*
X191914500Y-88060800D01*
G75*
G02*
X192064500Y-87910800I150000J0D01*
G01*
G37*
G36*
G01*
X190794500Y-87910800D02*
X191094500Y-87910800D01*
G75*
G02*
X191244500Y-88060800I0J-150000D01*
G01*
X191244500Y-89710800D01*
G75*
G02*
X191094500Y-89860800I-150000J0D01*
G01*
X190794500Y-89860800D01*
G75*
G02*
X190644500Y-89710800I0J150000D01*
G01*
X190644500Y-88060800D01*
G75*
G02*
X190794500Y-87910800I150000J0D01*
G01*
G37*
G36*
G01*
X189524500Y-87910800D02*
X189824500Y-87910800D01*
G75*
G02*
X189974500Y-88060800I0J-150000D01*
G01*
X189974500Y-89710800D01*
G75*
G02*
X189824500Y-89860800I-150000J0D01*
G01*
X189524500Y-89860800D01*
G75*
G02*
X189374500Y-89710800I0J150000D01*
G01*
X189374500Y-88060800D01*
G75*
G02*
X189524500Y-87910800I150000J0D01*
G01*
G37*
G36*
G01*
X188254500Y-87910800D02*
X188554500Y-87910800D01*
G75*
G02*
X188704500Y-88060800I0J-150000D01*
G01*
X188704500Y-89710800D01*
G75*
G02*
X188554500Y-89860800I-150000J0D01*
G01*
X188254500Y-89860800D01*
G75*
G02*
X188104500Y-89710800I0J150000D01*
G01*
X188104500Y-88060800D01*
G75*
G02*
X188254500Y-87910800I150000J0D01*
G01*
G37*
G36*
G01*
X188254500Y-82960800D02*
X188554500Y-82960800D01*
G75*
G02*
X188704500Y-83110800I0J-150000D01*
G01*
X188704500Y-84760800D01*
G75*
G02*
X188554500Y-84910800I-150000J0D01*
G01*
X188254500Y-84910800D01*
G75*
G02*
X188104500Y-84760800I0J150000D01*
G01*
X188104500Y-83110800D01*
G75*
G02*
X188254500Y-82960800I150000J0D01*
G01*
G37*
G36*
G01*
X189524500Y-82960800D02*
X189824500Y-82960800D01*
G75*
G02*
X189974500Y-83110800I0J-150000D01*
G01*
X189974500Y-84760800D01*
G75*
G02*
X189824500Y-84910800I-150000J0D01*
G01*
X189524500Y-84910800D01*
G75*
G02*
X189374500Y-84760800I0J150000D01*
G01*
X189374500Y-83110800D01*
G75*
G02*
X189524500Y-82960800I150000J0D01*
G01*
G37*
G36*
G01*
X190794500Y-82960800D02*
X191094500Y-82960800D01*
G75*
G02*
X191244500Y-83110800I0J-150000D01*
G01*
X191244500Y-84760800D01*
G75*
G02*
X191094500Y-84910800I-150000J0D01*
G01*
X190794500Y-84910800D01*
G75*
G02*
X190644500Y-84760800I0J150000D01*
G01*
X190644500Y-83110800D01*
G75*
G02*
X190794500Y-82960800I150000J0D01*
G01*
G37*
G36*
G01*
X192064500Y-82960800D02*
X192364500Y-82960800D01*
G75*
G02*
X192514500Y-83110800I0J-150000D01*
G01*
X192514500Y-84760800D01*
G75*
G02*
X192364500Y-84910800I-150000J0D01*
G01*
X192064500Y-84910800D01*
G75*
G02*
X191914500Y-84760800I0J150000D01*
G01*
X191914500Y-83110800D01*
G75*
G02*
X192064500Y-82960800I150000J0D01*
G01*
G37*
G36*
G01*
X161986500Y-96399000D02*
X161986500Y-95149000D01*
G75*
G02*
X162111500Y-95024000I125000J0D01*
G01*
X162361500Y-95024000D01*
G75*
G02*
X162486500Y-95149000I0J-125000D01*
G01*
X162486500Y-96399000D01*
G75*
G02*
X162361500Y-96524000I-125000J0D01*
G01*
X162111500Y-96524000D01*
G75*
G02*
X161986500Y-96399000I0J125000D01*
G01*
G37*
G36*
G01*
X162786500Y-96399000D02*
X162786500Y-95149000D01*
G75*
G02*
X162911500Y-95024000I125000J0D01*
G01*
X163161500Y-95024000D01*
G75*
G02*
X163286500Y-95149000I0J-125000D01*
G01*
X163286500Y-96399000D01*
G75*
G02*
X163161500Y-96524000I-125000J0D01*
G01*
X162911500Y-96524000D01*
G75*
G02*
X162786500Y-96399000I0J125000D01*
G01*
G37*
G36*
G01*
X163586500Y-96399000D02*
X163586500Y-95149000D01*
G75*
G02*
X163711500Y-95024000I125000J0D01*
G01*
X163961500Y-95024000D01*
G75*
G02*
X164086500Y-95149000I0J-125000D01*
G01*
X164086500Y-96399000D01*
G75*
G02*
X163961500Y-96524000I-125000J0D01*
G01*
X163711500Y-96524000D01*
G75*
G02*
X163586500Y-96399000I0J125000D01*
G01*
G37*
G36*
G01*
X164386500Y-96399000D02*
X164386500Y-95149000D01*
G75*
G02*
X164511500Y-95024000I125000J0D01*
G01*
X164761500Y-95024000D01*
G75*
G02*
X164886500Y-95149000I0J-125000D01*
G01*
X164886500Y-96399000D01*
G75*
G02*
X164761500Y-96524000I-125000J0D01*
G01*
X164511500Y-96524000D01*
G75*
G02*
X164386500Y-96399000I0J125000D01*
G01*
G37*
G36*
G01*
X165186500Y-96399000D02*
X165186500Y-95149000D01*
G75*
G02*
X165311500Y-95024000I125000J0D01*
G01*
X165561500Y-95024000D01*
G75*
G02*
X165686500Y-95149000I0J-125000D01*
G01*
X165686500Y-96399000D01*
G75*
G02*
X165561500Y-96524000I-125000J0D01*
G01*
X165311500Y-96524000D01*
G75*
G02*
X165186500Y-96399000I0J125000D01*
G01*
G37*
G36*
G01*
X165986500Y-96399000D02*
X165986500Y-95149000D01*
G75*
G02*
X166111500Y-95024000I125000J0D01*
G01*
X166361500Y-95024000D01*
G75*
G02*
X166486500Y-95149000I0J-125000D01*
G01*
X166486500Y-96399000D01*
G75*
G02*
X166361500Y-96524000I-125000J0D01*
G01*
X166111500Y-96524000D01*
G75*
G02*
X165986500Y-96399000I0J125000D01*
G01*
G37*
G36*
G01*
X166786500Y-96399000D02*
X166786500Y-95149000D01*
G75*
G02*
X166911500Y-95024000I125000J0D01*
G01*
X167161500Y-95024000D01*
G75*
G02*
X167286500Y-95149000I0J-125000D01*
G01*
X167286500Y-96399000D01*
G75*
G02*
X167161500Y-96524000I-125000J0D01*
G01*
X166911500Y-96524000D01*
G75*
G02*
X166786500Y-96399000I0J125000D01*
G01*
G37*
G36*
G01*
X167586500Y-96399000D02*
X167586500Y-95149000D01*
G75*
G02*
X167711500Y-95024000I125000J0D01*
G01*
X167961500Y-95024000D01*
G75*
G02*
X168086500Y-95149000I0J-125000D01*
G01*
X168086500Y-96399000D01*
G75*
G02*
X167961500Y-96524000I-125000J0D01*
G01*
X167711500Y-96524000D01*
G75*
G02*
X167586500Y-96399000I0J125000D01*
G01*
G37*
G36*
G01*
X168461500Y-97274000D02*
X168461500Y-97024000D01*
G75*
G02*
X168586500Y-96899000I125000J0D01*
G01*
X169836500Y-96899000D01*
G75*
G02*
X169961500Y-97024000I0J-125000D01*
G01*
X169961500Y-97274000D01*
G75*
G02*
X169836500Y-97399000I-125000J0D01*
G01*
X168586500Y-97399000D01*
G75*
G02*
X168461500Y-97274000I0J125000D01*
G01*
G37*
G36*
G01*
X168461500Y-98074000D02*
X168461500Y-97824000D01*
G75*
G02*
X168586500Y-97699000I125000J0D01*
G01*
X169836500Y-97699000D01*
G75*
G02*
X169961500Y-97824000I0J-125000D01*
G01*
X169961500Y-98074000D01*
G75*
G02*
X169836500Y-98199000I-125000J0D01*
G01*
X168586500Y-98199000D01*
G75*
G02*
X168461500Y-98074000I0J125000D01*
G01*
G37*
G36*
G01*
X168461500Y-98874000D02*
X168461500Y-98624000D01*
G75*
G02*
X168586500Y-98499000I125000J0D01*
G01*
X169836500Y-98499000D01*
G75*
G02*
X169961500Y-98624000I0J-125000D01*
G01*
X169961500Y-98874000D01*
G75*
G02*
X169836500Y-98999000I-125000J0D01*
G01*
X168586500Y-98999000D01*
G75*
G02*
X168461500Y-98874000I0J125000D01*
G01*
G37*
G36*
G01*
X168461500Y-99674000D02*
X168461500Y-99424000D01*
G75*
G02*
X168586500Y-99299000I125000J0D01*
G01*
X169836500Y-99299000D01*
G75*
G02*
X169961500Y-99424000I0J-125000D01*
G01*
X169961500Y-99674000D01*
G75*
G02*
X169836500Y-99799000I-125000J0D01*
G01*
X168586500Y-99799000D01*
G75*
G02*
X168461500Y-99674000I0J125000D01*
G01*
G37*
G36*
G01*
X168461500Y-100474000D02*
X168461500Y-100224000D01*
G75*
G02*
X168586500Y-100099000I125000J0D01*
G01*
X169836500Y-100099000D01*
G75*
G02*
X169961500Y-100224000I0J-125000D01*
G01*
X169961500Y-100474000D01*
G75*
G02*
X169836500Y-100599000I-125000J0D01*
G01*
X168586500Y-100599000D01*
G75*
G02*
X168461500Y-100474000I0J125000D01*
G01*
G37*
G36*
G01*
X168461500Y-101274000D02*
X168461500Y-101024000D01*
G75*
G02*
X168586500Y-100899000I125000J0D01*
G01*
X169836500Y-100899000D01*
G75*
G02*
X169961500Y-101024000I0J-125000D01*
G01*
X169961500Y-101274000D01*
G75*
G02*
X169836500Y-101399000I-125000J0D01*
G01*
X168586500Y-101399000D01*
G75*
G02*
X168461500Y-101274000I0J125000D01*
G01*
G37*
G36*
G01*
X168461500Y-102074000D02*
X168461500Y-101824000D01*
G75*
G02*
X168586500Y-101699000I125000J0D01*
G01*
X169836500Y-101699000D01*
G75*
G02*
X169961500Y-101824000I0J-125000D01*
G01*
X169961500Y-102074000D01*
G75*
G02*
X169836500Y-102199000I-125000J0D01*
G01*
X168586500Y-102199000D01*
G75*
G02*
X168461500Y-102074000I0J125000D01*
G01*
G37*
G36*
G01*
X168461500Y-102874000D02*
X168461500Y-102624000D01*
G75*
G02*
X168586500Y-102499000I125000J0D01*
G01*
X169836500Y-102499000D01*
G75*
G02*
X169961500Y-102624000I0J-125000D01*
G01*
X169961500Y-102874000D01*
G75*
G02*
X169836500Y-102999000I-125000J0D01*
G01*
X168586500Y-102999000D01*
G75*
G02*
X168461500Y-102874000I0J125000D01*
G01*
G37*
G36*
G01*
X167586500Y-104749000D02*
X167586500Y-103499000D01*
G75*
G02*
X167711500Y-103374000I125000J0D01*
G01*
X167961500Y-103374000D01*
G75*
G02*
X168086500Y-103499000I0J-125000D01*
G01*
X168086500Y-104749000D01*
G75*
G02*
X167961500Y-104874000I-125000J0D01*
G01*
X167711500Y-104874000D01*
G75*
G02*
X167586500Y-104749000I0J125000D01*
G01*
G37*
G36*
G01*
X166786500Y-104749000D02*
X166786500Y-103499000D01*
G75*
G02*
X166911500Y-103374000I125000J0D01*
G01*
X167161500Y-103374000D01*
G75*
G02*
X167286500Y-103499000I0J-125000D01*
G01*
X167286500Y-104749000D01*
G75*
G02*
X167161500Y-104874000I-125000J0D01*
G01*
X166911500Y-104874000D01*
G75*
G02*
X166786500Y-104749000I0J125000D01*
G01*
G37*
G36*
G01*
X165986500Y-104749000D02*
X165986500Y-103499000D01*
G75*
G02*
X166111500Y-103374000I125000J0D01*
G01*
X166361500Y-103374000D01*
G75*
G02*
X166486500Y-103499000I0J-125000D01*
G01*
X166486500Y-104749000D01*
G75*
G02*
X166361500Y-104874000I-125000J0D01*
G01*
X166111500Y-104874000D01*
G75*
G02*
X165986500Y-104749000I0J125000D01*
G01*
G37*
G36*
G01*
X165186500Y-104749000D02*
X165186500Y-103499000D01*
G75*
G02*
X165311500Y-103374000I125000J0D01*
G01*
X165561500Y-103374000D01*
G75*
G02*
X165686500Y-103499000I0J-125000D01*
G01*
X165686500Y-104749000D01*
G75*
G02*
X165561500Y-104874000I-125000J0D01*
G01*
X165311500Y-104874000D01*
G75*
G02*
X165186500Y-104749000I0J125000D01*
G01*
G37*
G36*
G01*
X164386500Y-104749000D02*
X164386500Y-103499000D01*
G75*
G02*
X164511500Y-103374000I125000J0D01*
G01*
X164761500Y-103374000D01*
G75*
G02*
X164886500Y-103499000I0J-125000D01*
G01*
X164886500Y-104749000D01*
G75*
G02*
X164761500Y-104874000I-125000J0D01*
G01*
X164511500Y-104874000D01*
G75*
G02*
X164386500Y-104749000I0J125000D01*
G01*
G37*
G36*
G01*
X163586500Y-104749000D02*
X163586500Y-103499000D01*
G75*
G02*
X163711500Y-103374000I125000J0D01*
G01*
X163961500Y-103374000D01*
G75*
G02*
X164086500Y-103499000I0J-125000D01*
G01*
X164086500Y-104749000D01*
G75*
G02*
X163961500Y-104874000I-125000J0D01*
G01*
X163711500Y-104874000D01*
G75*
G02*
X163586500Y-104749000I0J125000D01*
G01*
G37*
G36*
G01*
X162786500Y-104749000D02*
X162786500Y-103499000D01*
G75*
G02*
X162911500Y-103374000I125000J0D01*
G01*
X163161500Y-103374000D01*
G75*
G02*
X163286500Y-103499000I0J-125000D01*
G01*
X163286500Y-104749000D01*
G75*
G02*
X163161500Y-104874000I-125000J0D01*
G01*
X162911500Y-104874000D01*
G75*
G02*
X162786500Y-104749000I0J125000D01*
G01*
G37*
G36*
G01*
X161986500Y-104749000D02*
X161986500Y-103499000D01*
G75*
G02*
X162111500Y-103374000I125000J0D01*
G01*
X162361500Y-103374000D01*
G75*
G02*
X162486500Y-103499000I0J-125000D01*
G01*
X162486500Y-104749000D01*
G75*
G02*
X162361500Y-104874000I-125000J0D01*
G01*
X162111500Y-104874000D01*
G75*
G02*
X161986500Y-104749000I0J125000D01*
G01*
G37*
G36*
G01*
X160111500Y-102874000D02*
X160111500Y-102624000D01*
G75*
G02*
X160236500Y-102499000I125000J0D01*
G01*
X161486500Y-102499000D01*
G75*
G02*
X161611500Y-102624000I0J-125000D01*
G01*
X161611500Y-102874000D01*
G75*
G02*
X161486500Y-102999000I-125000J0D01*
G01*
X160236500Y-102999000D01*
G75*
G02*
X160111500Y-102874000I0J125000D01*
G01*
G37*
G36*
G01*
X160111500Y-102074000D02*
X160111500Y-101824000D01*
G75*
G02*
X160236500Y-101699000I125000J0D01*
G01*
X161486500Y-101699000D01*
G75*
G02*
X161611500Y-101824000I0J-125000D01*
G01*
X161611500Y-102074000D01*
G75*
G02*
X161486500Y-102199000I-125000J0D01*
G01*
X160236500Y-102199000D01*
G75*
G02*
X160111500Y-102074000I0J125000D01*
G01*
G37*
G36*
G01*
X160111500Y-101274000D02*
X160111500Y-101024000D01*
G75*
G02*
X160236500Y-100899000I125000J0D01*
G01*
X161486500Y-100899000D01*
G75*
G02*
X161611500Y-101024000I0J-125000D01*
G01*
X161611500Y-101274000D01*
G75*
G02*
X161486500Y-101399000I-125000J0D01*
G01*
X160236500Y-101399000D01*
G75*
G02*
X160111500Y-101274000I0J125000D01*
G01*
G37*
G36*
G01*
X160111500Y-100474000D02*
X160111500Y-100224000D01*
G75*
G02*
X160236500Y-100099000I125000J0D01*
G01*
X161486500Y-100099000D01*
G75*
G02*
X161611500Y-100224000I0J-125000D01*
G01*
X161611500Y-100474000D01*
G75*
G02*
X161486500Y-100599000I-125000J0D01*
G01*
X160236500Y-100599000D01*
G75*
G02*
X160111500Y-100474000I0J125000D01*
G01*
G37*
G36*
G01*
X160111500Y-99674000D02*
X160111500Y-99424000D01*
G75*
G02*
X160236500Y-99299000I125000J0D01*
G01*
X161486500Y-99299000D01*
G75*
G02*
X161611500Y-99424000I0J-125000D01*
G01*
X161611500Y-99674000D01*
G75*
G02*
X161486500Y-99799000I-125000J0D01*
G01*
X160236500Y-99799000D01*
G75*
G02*
X160111500Y-99674000I0J125000D01*
G01*
G37*
G36*
G01*
X160111500Y-98874000D02*
X160111500Y-98624000D01*
G75*
G02*
X160236500Y-98499000I125000J0D01*
G01*
X161486500Y-98499000D01*
G75*
G02*
X161611500Y-98624000I0J-125000D01*
G01*
X161611500Y-98874000D01*
G75*
G02*
X161486500Y-98999000I-125000J0D01*
G01*
X160236500Y-98999000D01*
G75*
G02*
X160111500Y-98874000I0J125000D01*
G01*
G37*
G36*
G01*
X160111500Y-98074000D02*
X160111500Y-97824000D01*
G75*
G02*
X160236500Y-97699000I125000J0D01*
G01*
X161486500Y-97699000D01*
G75*
G02*
X161611500Y-97824000I0J-125000D01*
G01*
X161611500Y-98074000D01*
G75*
G02*
X161486500Y-98199000I-125000J0D01*
G01*
X160236500Y-98199000D01*
G75*
G02*
X160111500Y-98074000I0J125000D01*
G01*
G37*
G36*
G01*
X160111500Y-97274000D02*
X160111500Y-97024000D01*
G75*
G02*
X160236500Y-96899000I125000J0D01*
G01*
X161486500Y-96899000D01*
G75*
G02*
X161611500Y-97024000I0J-125000D01*
G01*
X161611500Y-97274000D01*
G75*
G02*
X161486500Y-97399000I-125000J0D01*
G01*
X160236500Y-97399000D01*
G75*
G02*
X160111500Y-97274000I0J125000D01*
G01*
G37*
G36*
G01*
X111482000Y-116482000D02*
X111482000Y-116182000D01*
G75*
G02*
X111632000Y-116032000I150000J0D01*
G01*
X113282000Y-116032000D01*
G75*
G02*
X113432000Y-116182000I0J-150000D01*
G01*
X113432000Y-116482000D01*
G75*
G02*
X113282000Y-116632000I-150000J0D01*
G01*
X111632000Y-116632000D01*
G75*
G02*
X111482000Y-116482000I0J150000D01*
G01*
G37*
G36*
G01*
X111482000Y-117752000D02*
X111482000Y-117452000D01*
G75*
G02*
X111632000Y-117302000I150000J0D01*
G01*
X113282000Y-117302000D01*
G75*
G02*
X113432000Y-117452000I0J-150000D01*
G01*
X113432000Y-117752000D01*
G75*
G02*
X113282000Y-117902000I-150000J0D01*
G01*
X111632000Y-117902000D01*
G75*
G02*
X111482000Y-117752000I0J150000D01*
G01*
G37*
G36*
G01*
X111482000Y-119022000D02*
X111482000Y-118722000D01*
G75*
G02*
X111632000Y-118572000I150000J0D01*
G01*
X113282000Y-118572000D01*
G75*
G02*
X113432000Y-118722000I0J-150000D01*
G01*
X113432000Y-119022000D01*
G75*
G02*
X113282000Y-119172000I-150000J0D01*
G01*
X111632000Y-119172000D01*
G75*
G02*
X111482000Y-119022000I0J150000D01*
G01*
G37*
G36*
G01*
X111482000Y-120292000D02*
X111482000Y-119992000D01*
G75*
G02*
X111632000Y-119842000I150000J0D01*
G01*
X113282000Y-119842000D01*
G75*
G02*
X113432000Y-119992000I0J-150000D01*
G01*
X113432000Y-120292000D01*
G75*
G02*
X113282000Y-120442000I-150000J0D01*
G01*
X111632000Y-120442000D01*
G75*
G02*
X111482000Y-120292000I0J150000D01*
G01*
G37*
G36*
G01*
X106532000Y-120292000D02*
X106532000Y-119992000D01*
G75*
G02*
X106682000Y-119842000I150000J0D01*
G01*
X108332000Y-119842000D01*
G75*
G02*
X108482000Y-119992000I0J-150000D01*
G01*
X108482000Y-120292000D01*
G75*
G02*
X108332000Y-120442000I-150000J0D01*
G01*
X106682000Y-120442000D01*
G75*
G02*
X106532000Y-120292000I0J150000D01*
G01*
G37*
G36*
G01*
X106532000Y-119022000D02*
X106532000Y-118722000D01*
G75*
G02*
X106682000Y-118572000I150000J0D01*
G01*
X108332000Y-118572000D01*
G75*
G02*
X108482000Y-118722000I0J-150000D01*
G01*
X108482000Y-119022000D01*
G75*
G02*
X108332000Y-119172000I-150000J0D01*
G01*
X106682000Y-119172000D01*
G75*
G02*
X106532000Y-119022000I0J150000D01*
G01*
G37*
G36*
G01*
X106532000Y-117752000D02*
X106532000Y-117452000D01*
G75*
G02*
X106682000Y-117302000I150000J0D01*
G01*
X108332000Y-117302000D01*
G75*
G02*
X108482000Y-117452000I0J-150000D01*
G01*
X108482000Y-117752000D01*
G75*
G02*
X108332000Y-117902000I-150000J0D01*
G01*
X106682000Y-117902000D01*
G75*
G02*
X106532000Y-117752000I0J150000D01*
G01*
G37*
G36*
G01*
X106532000Y-116482000D02*
X106532000Y-116182000D01*
G75*
G02*
X106682000Y-116032000I150000J0D01*
G01*
X108332000Y-116032000D01*
G75*
G02*
X108482000Y-116182000I0J-150000D01*
G01*
X108482000Y-116482000D01*
G75*
G02*
X108332000Y-116632000I-150000J0D01*
G01*
X106682000Y-116632000D01*
G75*
G02*
X106532000Y-116482000I0J150000D01*
G01*
G37*
D10*
X111861200Y-76084400D03*
X111861200Y-80684400D03*
X111861200Y-78384400D03*
D11*
X118161200Y-78384400D03*
D10*
X106274000Y-80659000D03*
X106274000Y-76059000D03*
X106274000Y-78359000D03*
D11*
X99974000Y-78359000D03*
D12*
X151257400Y-102661800D03*
X144957400Y-102661800D03*
X151257400Y-98861800D03*
X144957400Y-98861800D03*
G36*
G01*
X167701800Y-93589003D02*
X167701800Y-92338997D01*
G75*
G02*
X167951797Y-92089000I249997J0D01*
G01*
X168576803Y-92089000D01*
G75*
G02*
X168826800Y-92338997I0J-249997D01*
G01*
X168826800Y-93589003D01*
G75*
G02*
X168576803Y-93839000I-249997J0D01*
G01*
X167951797Y-93839000D01*
G75*
G02*
X167701800Y-93589003I0J249997D01*
G01*
G37*
G36*
G01*
X164776800Y-93589003D02*
X164776800Y-92338997D01*
G75*
G02*
X165026797Y-92089000I249997J0D01*
G01*
X165651803Y-92089000D01*
G75*
G02*
X165901800Y-92338997I0J-249997D01*
G01*
X165901800Y-93589003D01*
G75*
G02*
X165651803Y-93839000I-249997J0D01*
G01*
X165026797Y-93839000D01*
G75*
G02*
X164776800Y-93589003I0J249997D01*
G01*
G37*
G36*
G01*
X177874500Y-98796003D02*
X177874500Y-97545997D01*
G75*
G02*
X178124497Y-97296000I249997J0D01*
G01*
X178749503Y-97296000D01*
G75*
G02*
X178999500Y-97545997I0J-249997D01*
G01*
X178999500Y-98796003D01*
G75*
G02*
X178749503Y-99046000I-249997J0D01*
G01*
X178124497Y-99046000D01*
G75*
G02*
X177874500Y-98796003I0J249997D01*
G01*
G37*
G36*
G01*
X174949500Y-98796003D02*
X174949500Y-97545997D01*
G75*
G02*
X175199497Y-97296000I249997J0D01*
G01*
X175824503Y-97296000D01*
G75*
G02*
X176074500Y-97545997I0J-249997D01*
G01*
X176074500Y-98796003D01*
G75*
G02*
X175824503Y-99046000I-249997J0D01*
G01*
X175199497Y-99046000D01*
G75*
G02*
X174949500Y-98796003I0J249997D01*
G01*
G37*
G36*
G01*
X142801503Y-100242800D02*
X141551497Y-100242800D01*
G75*
G02*
X141301500Y-99992803I0J249997D01*
G01*
X141301500Y-99367797D01*
G75*
G02*
X141551497Y-99117800I249997J0D01*
G01*
X142801503Y-99117800D01*
G75*
G02*
X143051500Y-99367797I0J-249997D01*
G01*
X143051500Y-99992803D01*
G75*
G02*
X142801503Y-100242800I-249997J0D01*
G01*
G37*
G36*
G01*
X142801503Y-103167800D02*
X141551497Y-103167800D01*
G75*
G02*
X141301500Y-102917803I0J249997D01*
G01*
X141301500Y-102292797D01*
G75*
G02*
X141551497Y-102042800I249997J0D01*
G01*
X142801503Y-102042800D01*
G75*
G02*
X143051500Y-102292797I0J-249997D01*
G01*
X143051500Y-102917803D01*
G75*
G02*
X142801503Y-103167800I-249997J0D01*
G01*
G37*
G36*
G01*
X176139003Y-102097000D02*
X174888997Y-102097000D01*
G75*
G02*
X174639000Y-101847003I0J249997D01*
G01*
X174639000Y-101221997D01*
G75*
G02*
X174888997Y-100972000I249997J0D01*
G01*
X176139003Y-100972000D01*
G75*
G02*
X176389000Y-101221997I0J-249997D01*
G01*
X176389000Y-101847003D01*
G75*
G02*
X176139003Y-102097000I-249997J0D01*
G01*
G37*
G36*
G01*
X176139003Y-105022000D02*
X174888997Y-105022000D01*
G75*
G02*
X174639000Y-104772003I0J249997D01*
G01*
X174639000Y-104146997D01*
G75*
G02*
X174888997Y-103897000I249997J0D01*
G01*
X176139003Y-103897000D01*
G75*
G02*
X176389000Y-104146997I0J-249997D01*
G01*
X176389000Y-104772003D01*
G75*
G02*
X176139003Y-105022000I-249997J0D01*
G01*
G37*
G36*
G01*
X173522803Y-102097000D02*
X172272797Y-102097000D01*
G75*
G02*
X172022800Y-101847003I0J249997D01*
G01*
X172022800Y-101221997D01*
G75*
G02*
X172272797Y-100972000I249997J0D01*
G01*
X173522803Y-100972000D01*
G75*
G02*
X173772800Y-101221997I0J-249997D01*
G01*
X173772800Y-101847003D01*
G75*
G02*
X173522803Y-102097000I-249997J0D01*
G01*
G37*
G36*
G01*
X173522803Y-105022000D02*
X172272797Y-105022000D01*
G75*
G02*
X172022800Y-104772003I0J249997D01*
G01*
X172022800Y-104146997D01*
G75*
G02*
X172272797Y-103897000I249997J0D01*
G01*
X173522803Y-103897000D01*
G75*
G02*
X173772800Y-104146997I0J-249997D01*
G01*
X173772800Y-104772003D01*
G75*
G02*
X173522803Y-105022000I-249997J0D01*
G01*
G37*
G36*
G01*
X185854503Y-116194000D02*
X184604497Y-116194000D01*
G75*
G02*
X184354500Y-115944003I0J249997D01*
G01*
X184354500Y-115318997D01*
G75*
G02*
X184604497Y-115069000I249997J0D01*
G01*
X185854503Y-115069000D01*
G75*
G02*
X186104500Y-115318997I0J-249997D01*
G01*
X186104500Y-115944003D01*
G75*
G02*
X185854503Y-116194000I-249997J0D01*
G01*
G37*
G36*
G01*
X185854503Y-119119000D02*
X184604497Y-119119000D01*
G75*
G02*
X184354500Y-118869003I0J249997D01*
G01*
X184354500Y-118243997D01*
G75*
G02*
X184604497Y-117994000I249997J0D01*
G01*
X185854503Y-117994000D01*
G75*
G02*
X186104500Y-118243997I0J-249997D01*
G01*
X186104500Y-118869003D01*
G75*
G02*
X185854503Y-119119000I-249997J0D01*
G01*
G37*
G36*
G01*
X191505000Y-91005497D02*
X191505000Y-92255503D01*
G75*
G02*
X191255003Y-92505500I-249997J0D01*
G01*
X190629997Y-92505500D01*
G75*
G02*
X190380000Y-92255503I0J249997D01*
G01*
X190380000Y-91005497D01*
G75*
G02*
X190629997Y-90755500I249997J0D01*
G01*
X191255003Y-90755500D01*
G75*
G02*
X191505000Y-91005497I0J-249997D01*
G01*
G37*
G36*
G01*
X194430000Y-91005497D02*
X194430000Y-92255503D01*
G75*
G02*
X194180003Y-92505500I-249997J0D01*
G01*
X193554997Y-92505500D01*
G75*
G02*
X193305000Y-92255503I0J249997D01*
G01*
X193305000Y-91005497D01*
G75*
G02*
X193554997Y-90755500I249997J0D01*
G01*
X194180003Y-90755500D01*
G75*
G02*
X194430000Y-91005497I0J-249997D01*
G01*
G37*
G36*
G01*
X185854503Y-106605500D02*
X184604497Y-106605500D01*
G75*
G02*
X184354500Y-106355503I0J249997D01*
G01*
X184354500Y-105730497D01*
G75*
G02*
X184604497Y-105480500I249997J0D01*
G01*
X185854503Y-105480500D01*
G75*
G02*
X186104500Y-105730497I0J-249997D01*
G01*
X186104500Y-106355503D01*
G75*
G02*
X185854503Y-106605500I-249997J0D01*
G01*
G37*
G36*
G01*
X185854503Y-109530500D02*
X184604497Y-109530500D01*
G75*
G02*
X184354500Y-109280503I0J249997D01*
G01*
X184354500Y-108655497D01*
G75*
G02*
X184604497Y-108405500I249997J0D01*
G01*
X185854503Y-108405500D01*
G75*
G02*
X186104500Y-108655497I0J-249997D01*
G01*
X186104500Y-109280503D01*
G75*
G02*
X185854503Y-109530500I-249997J0D01*
G01*
G37*
G36*
G01*
X185791003Y-96953500D02*
X184540997Y-96953500D01*
G75*
G02*
X184291000Y-96703503I0J249997D01*
G01*
X184291000Y-96078497D01*
G75*
G02*
X184540997Y-95828500I249997J0D01*
G01*
X185791003Y-95828500D01*
G75*
G02*
X186041000Y-96078497I0J-249997D01*
G01*
X186041000Y-96703503D01*
G75*
G02*
X185791003Y-96953500I-249997J0D01*
G01*
G37*
G36*
G01*
X185791003Y-99878500D02*
X184540997Y-99878500D01*
G75*
G02*
X184291000Y-99628503I0J249997D01*
G01*
X184291000Y-99003497D01*
G75*
G02*
X184540997Y-98753500I249997J0D01*
G01*
X185791003Y-98753500D01*
G75*
G02*
X186041000Y-99003497I0J-249997D01*
G01*
X186041000Y-99628503D01*
G75*
G02*
X185791003Y-99878500I-249997J0D01*
G01*
G37*
G36*
G01*
X123390497Y-128217500D02*
X124640503Y-128217500D01*
G75*
G02*
X124890500Y-128467497I0J-249997D01*
G01*
X124890500Y-129092503D01*
G75*
G02*
X124640503Y-129342500I-249997J0D01*
G01*
X123390497Y-129342500D01*
G75*
G02*
X123140500Y-129092503I0J249997D01*
G01*
X123140500Y-128467497D01*
G75*
G02*
X123390497Y-128217500I249997J0D01*
G01*
G37*
G36*
G01*
X123390497Y-125292500D02*
X124640503Y-125292500D01*
G75*
G02*
X124890500Y-125542497I0J-249997D01*
G01*
X124890500Y-126167503D01*
G75*
G02*
X124640503Y-126417500I-249997J0D01*
G01*
X123390497Y-126417500D01*
G75*
G02*
X123140500Y-126167503I0J249997D01*
G01*
X123140500Y-125542497D01*
G75*
G02*
X123390497Y-125292500I249997J0D01*
G01*
G37*
G36*
G01*
X132958000Y-130311997D02*
X132958000Y-131562003D01*
G75*
G02*
X132708003Y-131812000I-249997J0D01*
G01*
X132082997Y-131812000D01*
G75*
G02*
X131833000Y-131562003I0J249997D01*
G01*
X131833000Y-130311997D01*
G75*
G02*
X132082997Y-130062000I249997J0D01*
G01*
X132708003Y-130062000D01*
G75*
G02*
X132958000Y-130311997I0J-249997D01*
G01*
G37*
G36*
G01*
X135883000Y-130311997D02*
X135883000Y-131562003D01*
G75*
G02*
X135633003Y-131812000I-249997J0D01*
G01*
X135007997Y-131812000D01*
G75*
G02*
X134758000Y-131562003I0J249997D01*
G01*
X134758000Y-130311997D01*
G75*
G02*
X135007997Y-130062000I249997J0D01*
G01*
X135633003Y-130062000D01*
G75*
G02*
X135883000Y-130311997I0J-249997D01*
G01*
G37*
G36*
G01*
X123455000Y-131752503D02*
X123455000Y-130502497D01*
G75*
G02*
X123704997Y-130252500I249997J0D01*
G01*
X124330003Y-130252500D01*
G75*
G02*
X124580000Y-130502497I0J-249997D01*
G01*
X124580000Y-131752503D01*
G75*
G02*
X124330003Y-132002500I-249997J0D01*
G01*
X123704997Y-132002500D01*
G75*
G02*
X123455000Y-131752503I0J249997D01*
G01*
G37*
G36*
G01*
X120530000Y-131752503D02*
X120530000Y-130502497D01*
G75*
G02*
X120779997Y-130252500I249997J0D01*
G01*
X121405003Y-130252500D01*
G75*
G02*
X121655000Y-130502497I0J-249997D01*
G01*
X121655000Y-131752503D01*
G75*
G02*
X121405003Y-132002500I-249997J0D01*
G01*
X120779997Y-132002500D01*
G75*
G02*
X120530000Y-131752503I0J249997D01*
G01*
G37*
G36*
G01*
X112257000Y-94561497D02*
X112257000Y-95811503D01*
G75*
G02*
X112007003Y-96061500I-249997J0D01*
G01*
X111381997Y-96061500D01*
G75*
G02*
X111132000Y-95811503I0J249997D01*
G01*
X111132000Y-94561497D01*
G75*
G02*
X111381997Y-94311500I249997J0D01*
G01*
X112007003Y-94311500D01*
G75*
G02*
X112257000Y-94561497I0J-249997D01*
G01*
G37*
G36*
G01*
X115182000Y-94561497D02*
X115182000Y-95811503D01*
G75*
G02*
X114932003Y-96061500I-249997J0D01*
G01*
X114306997Y-96061500D01*
G75*
G02*
X114057000Y-95811503I0J249997D01*
G01*
X114057000Y-94561497D01*
G75*
G02*
X114306997Y-94311500I249997J0D01*
G01*
X114932003Y-94311500D01*
G75*
G02*
X115182000Y-94561497I0J-249997D01*
G01*
G37*
G36*
G01*
X98477500Y-70685497D02*
X98477500Y-71935503D01*
G75*
G02*
X98227503Y-72185500I-249997J0D01*
G01*
X97602497Y-72185500D01*
G75*
G02*
X97352500Y-71935503I0J249997D01*
G01*
X97352500Y-70685497D01*
G75*
G02*
X97602497Y-70435500I249997J0D01*
G01*
X98227503Y-70435500D01*
G75*
G02*
X98477500Y-70685497I0J-249997D01*
G01*
G37*
G36*
G01*
X101402500Y-70685497D02*
X101402500Y-71935503D01*
G75*
G02*
X101152503Y-72185500I-249997J0D01*
G01*
X100527497Y-72185500D01*
G75*
G02*
X100277500Y-71935503I0J249997D01*
G01*
X100277500Y-70685497D01*
G75*
G02*
X100527497Y-70435500I249997J0D01*
G01*
X101152503Y-70435500D01*
G75*
G02*
X101402500Y-70685497I0J-249997D01*
G01*
G37*
G36*
G01*
X109718003Y-94159500D02*
X108467997Y-94159500D01*
G75*
G02*
X108218000Y-93909503I0J249997D01*
G01*
X108218000Y-93284497D01*
G75*
G02*
X108467997Y-93034500I249997J0D01*
G01*
X109718003Y-93034500D01*
G75*
G02*
X109968000Y-93284497I0J-249997D01*
G01*
X109968000Y-93909503D01*
G75*
G02*
X109718003Y-94159500I-249997J0D01*
G01*
G37*
G36*
G01*
X109718003Y-97084500D02*
X108467997Y-97084500D01*
G75*
G02*
X108218000Y-96834503I0J249997D01*
G01*
X108218000Y-96209497D01*
G75*
G02*
X108467997Y-95959500I249997J0D01*
G01*
X109718003Y-95959500D01*
G75*
G02*
X109968000Y-96209497I0J-249997D01*
G01*
X109968000Y-96834503D01*
G75*
G02*
X109718003Y-97084500I-249997J0D01*
G01*
G37*
G36*
G01*
X102098003Y-88635000D02*
X100847997Y-88635000D01*
G75*
G02*
X100598000Y-88385003I0J249997D01*
G01*
X100598000Y-87759997D01*
G75*
G02*
X100847997Y-87510000I249997J0D01*
G01*
X102098003Y-87510000D01*
G75*
G02*
X102348000Y-87759997I0J-249997D01*
G01*
X102348000Y-88385003D01*
G75*
G02*
X102098003Y-88635000I-249997J0D01*
G01*
G37*
G36*
G01*
X102098003Y-91560000D02*
X100847997Y-91560000D01*
G75*
G02*
X100598000Y-91310003I0J249997D01*
G01*
X100598000Y-90684997D01*
G75*
G02*
X100847997Y-90435000I249997J0D01*
G01*
X102098003Y-90435000D01*
G75*
G02*
X102348000Y-90684997I0J-249997D01*
G01*
X102348000Y-91310003D01*
G75*
G02*
X102098003Y-91560000I-249997J0D01*
G01*
G37*
G36*
G01*
X94668503Y-87174500D02*
X93418497Y-87174500D01*
G75*
G02*
X93168500Y-86924503I0J249997D01*
G01*
X93168500Y-86299497D01*
G75*
G02*
X93418497Y-86049500I249997J0D01*
G01*
X94668503Y-86049500D01*
G75*
G02*
X94918500Y-86299497I0J-249997D01*
G01*
X94918500Y-86924503D01*
G75*
G02*
X94668503Y-87174500I-249997J0D01*
G01*
G37*
G36*
G01*
X94668503Y-90099500D02*
X93418497Y-90099500D01*
G75*
G02*
X93168500Y-89849503I0J249997D01*
G01*
X93168500Y-89224497D01*
G75*
G02*
X93418497Y-88974500I249997J0D01*
G01*
X94668503Y-88974500D01*
G75*
G02*
X94918500Y-89224497I0J-249997D01*
G01*
X94918500Y-89849503D01*
G75*
G02*
X94668503Y-90099500I-249997J0D01*
G01*
G37*
D13*
X105918000Y-98536000D03*
X104968000Y-96536000D03*
X106868000Y-96536000D03*
D14*
X98990000Y-88074500D03*
X96590000Y-89024500D03*
X96590000Y-87124500D03*
G36*
G01*
X153657050Y-99888200D02*
X154419550Y-99888200D01*
G75*
G02*
X154638300Y-100106950I0J-218750D01*
G01*
X154638300Y-100544450D01*
G75*
G02*
X154419550Y-100763200I-218750J0D01*
G01*
X153657050Y-100763200D01*
G75*
G02*
X153438300Y-100544450I0J218750D01*
G01*
X153438300Y-100106950D01*
G75*
G02*
X153657050Y-99888200I218750J0D01*
G01*
G37*
G36*
G01*
X153657050Y-97763200D02*
X154419550Y-97763200D01*
G75*
G02*
X154638300Y-97981950I0J-218750D01*
G01*
X154638300Y-98419450D01*
G75*
G02*
X154419550Y-98638200I-218750J0D01*
G01*
X153657050Y-98638200D01*
G75*
G02*
X153438300Y-98419450I0J218750D01*
G01*
X153438300Y-97981950D01*
G75*
G02*
X153657050Y-97763200I218750J0D01*
G01*
G37*
D15*
X125244500Y-116332000D03*
X116944500Y-116332000D03*
G36*
G01*
X106484000Y-100070499D02*
X106484000Y-100970501D01*
G75*
G02*
X106234001Y-101220500I-249999J0D01*
G01*
X105583999Y-101220500D01*
G75*
G02*
X105334000Y-100970501I0J249999D01*
G01*
X105334000Y-100070499D01*
G75*
G02*
X105583999Y-99820500I249999J0D01*
G01*
X106234001Y-99820500D01*
G75*
G02*
X106484000Y-100070499I0J-249999D01*
G01*
G37*
G36*
G01*
X108534000Y-100070499D02*
X108534000Y-100970501D01*
G75*
G02*
X108284001Y-101220500I-249999J0D01*
G01*
X107633999Y-101220500D01*
G75*
G02*
X107384000Y-100970501I0J249999D01*
G01*
X107384000Y-100070499D01*
G75*
G02*
X107633999Y-99820500I249999J0D01*
G01*
X108284001Y-99820500D01*
G75*
G02*
X108534000Y-100070499I0J-249999D01*
G01*
G37*
G36*
G01*
X172497000Y-97914750D02*
X172497000Y-98427250D01*
G75*
G02*
X172278250Y-98646000I-218750J0D01*
G01*
X171840750Y-98646000D01*
G75*
G02*
X171622000Y-98427250I0J218750D01*
G01*
X171622000Y-97914750D01*
G75*
G02*
X171840750Y-97696000I218750J0D01*
G01*
X172278250Y-97696000D01*
G75*
G02*
X172497000Y-97914750I0J-218750D01*
G01*
G37*
G36*
G01*
X174072000Y-97914750D02*
X174072000Y-98427250D01*
G75*
G02*
X173853250Y-98646000I-218750J0D01*
G01*
X173415750Y-98646000D01*
G75*
G02*
X173197000Y-98427250I0J218750D01*
G01*
X173197000Y-97914750D01*
G75*
G02*
X173415750Y-97696000I218750J0D01*
G01*
X173853250Y-97696000D01*
G75*
G02*
X174072000Y-97914750I0J-218750D01*
G01*
G37*
D16*
X114617500Y-97219500D03*
X114617500Y-100519500D03*
G36*
G01*
X103918500Y-71566750D02*
X103918500Y-71054250D01*
G75*
G02*
X104137250Y-70835500I218750J0D01*
G01*
X104574750Y-70835500D01*
G75*
G02*
X104793500Y-71054250I0J-218750D01*
G01*
X104793500Y-71566750D01*
G75*
G02*
X104574750Y-71785500I-218750J0D01*
G01*
X104137250Y-71785500D01*
G75*
G02*
X103918500Y-71566750I0J218750D01*
G01*
G37*
G36*
G01*
X102343500Y-71566750D02*
X102343500Y-71054250D01*
G75*
G02*
X102562250Y-70835500I218750J0D01*
G01*
X102999750Y-70835500D01*
G75*
G02*
X103218500Y-71054250I0J-218750D01*
G01*
X103218500Y-71566750D01*
G75*
G02*
X102999750Y-71785500I-218750J0D01*
G01*
X102562250Y-71785500D01*
G75*
G02*
X102343500Y-71566750I0J218750D01*
G01*
G37*
D17*
X105410000Y-88909000D03*
X105410000Y-93209000D03*
G36*
G01*
X185704500Y-120835000D02*
X184754500Y-120835000D01*
G75*
G02*
X184504500Y-120585000I0J250000D01*
G01*
X184504500Y-120085000D01*
G75*
G02*
X184754500Y-119835000I250000J0D01*
G01*
X185704500Y-119835000D01*
G75*
G02*
X185954500Y-120085000I0J-250000D01*
G01*
X185954500Y-120585000D01*
G75*
G02*
X185704500Y-120835000I-250000J0D01*
G01*
G37*
G36*
G01*
X185704500Y-122735000D02*
X184754500Y-122735000D01*
G75*
G02*
X184504500Y-122485000I0J250000D01*
G01*
X184504500Y-121985000D01*
G75*
G02*
X184754500Y-121735000I250000J0D01*
G01*
X185704500Y-121735000D01*
G75*
G02*
X185954500Y-121985000I0J-250000D01*
G01*
X185954500Y-122485000D01*
G75*
G02*
X185704500Y-122735000I-250000J0D01*
G01*
G37*
G36*
G01*
X158577300Y-98940200D02*
X157627300Y-98940200D01*
G75*
G02*
X157377300Y-98690200I0J250000D01*
G01*
X157377300Y-98190200D01*
G75*
G02*
X157627300Y-97940200I250000J0D01*
G01*
X158577300Y-97940200D01*
G75*
G02*
X158827300Y-98190200I0J-250000D01*
G01*
X158827300Y-98690200D01*
G75*
G02*
X158577300Y-98940200I-250000J0D01*
G01*
G37*
G36*
G01*
X158577300Y-100840200D02*
X157627300Y-100840200D01*
G75*
G02*
X157377300Y-100590200I0J250000D01*
G01*
X157377300Y-100090200D01*
G75*
G02*
X157627300Y-99840200I250000J0D01*
G01*
X158577300Y-99840200D01*
G75*
G02*
X158827300Y-100090200I0J-250000D01*
G01*
X158827300Y-100590200D01*
G75*
G02*
X158577300Y-100840200I-250000J0D01*
G01*
G37*
G36*
G01*
X156481800Y-98940200D02*
X155531800Y-98940200D01*
G75*
G02*
X155281800Y-98690200I0J250000D01*
G01*
X155281800Y-98190200D01*
G75*
G02*
X155531800Y-97940200I250000J0D01*
G01*
X156481800Y-97940200D01*
G75*
G02*
X156731800Y-98190200I0J-250000D01*
G01*
X156731800Y-98690200D01*
G75*
G02*
X156481800Y-98940200I-250000J0D01*
G01*
G37*
G36*
G01*
X156481800Y-100840200D02*
X155531800Y-100840200D01*
G75*
G02*
X155281800Y-100590200I0J250000D01*
G01*
X155281800Y-100090200D01*
G75*
G02*
X155531800Y-99840200I250000J0D01*
G01*
X156481800Y-99840200D01*
G75*
G02*
X156731800Y-100090200I0J-250000D01*
G01*
X156731800Y-100590200D01*
G75*
G02*
X156481800Y-100840200I-250000J0D01*
G01*
G37*
G36*
G01*
X185704500Y-111246500D02*
X184754500Y-111246500D01*
G75*
G02*
X184504500Y-110996500I0J250000D01*
G01*
X184504500Y-110496500D01*
G75*
G02*
X184754500Y-110246500I250000J0D01*
G01*
X185704500Y-110246500D01*
G75*
G02*
X185954500Y-110496500I0J-250000D01*
G01*
X185954500Y-110996500D01*
G75*
G02*
X185704500Y-111246500I-250000J0D01*
G01*
G37*
G36*
G01*
X185704500Y-113146500D02*
X184754500Y-113146500D01*
G75*
G02*
X184504500Y-112896500I0J250000D01*
G01*
X184504500Y-112396500D01*
G75*
G02*
X184754500Y-112146500I250000J0D01*
G01*
X185704500Y-112146500D01*
G75*
G02*
X185954500Y-112396500I0J-250000D01*
G01*
X185954500Y-112896500D01*
G75*
G02*
X185704500Y-113146500I-250000J0D01*
G01*
G37*
G36*
G01*
X188879500Y-77909000D02*
X187929500Y-77909000D01*
G75*
G02*
X187679500Y-77659000I0J250000D01*
G01*
X187679500Y-77159000D01*
G75*
G02*
X187929500Y-76909000I250000J0D01*
G01*
X188879500Y-76909000D01*
G75*
G02*
X189129500Y-77159000I0J-250000D01*
G01*
X189129500Y-77659000D01*
G75*
G02*
X188879500Y-77909000I-250000J0D01*
G01*
G37*
G36*
G01*
X188879500Y-79809000D02*
X187929500Y-79809000D01*
G75*
G02*
X187679500Y-79559000I0J250000D01*
G01*
X187679500Y-79059000D01*
G75*
G02*
X187929500Y-78809000I250000J0D01*
G01*
X188879500Y-78809000D01*
G75*
G02*
X189129500Y-79059000I0J-250000D01*
G01*
X189129500Y-79559000D01*
G75*
G02*
X188879500Y-79809000I-250000J0D01*
G01*
G37*
G36*
G01*
X195395000Y-89375000D02*
X195395000Y-88425000D01*
G75*
G02*
X195645000Y-88175000I250000J0D01*
G01*
X196145000Y-88175000D01*
G75*
G02*
X196395000Y-88425000I0J-250000D01*
G01*
X196395000Y-89375000D01*
G75*
G02*
X196145000Y-89625000I-250000J0D01*
G01*
X195645000Y-89625000D01*
G75*
G02*
X195395000Y-89375000I0J250000D01*
G01*
G37*
G36*
G01*
X193495000Y-89375000D02*
X193495000Y-88425000D01*
G75*
G02*
X193745000Y-88175000I250000J0D01*
G01*
X194245000Y-88175000D01*
G75*
G02*
X194495000Y-88425000I0J-250000D01*
G01*
X194495000Y-89375000D01*
G75*
G02*
X194245000Y-89625000I-250000J0D01*
G01*
X193745000Y-89625000D01*
G75*
G02*
X193495000Y-89375000I0J250000D01*
G01*
G37*
G36*
G01*
X185641000Y-101594500D02*
X184691000Y-101594500D01*
G75*
G02*
X184441000Y-101344500I0J250000D01*
G01*
X184441000Y-100844500D01*
G75*
G02*
X184691000Y-100594500I250000J0D01*
G01*
X185641000Y-100594500D01*
G75*
G02*
X185891000Y-100844500I0J-250000D01*
G01*
X185891000Y-101344500D01*
G75*
G02*
X185641000Y-101594500I-250000J0D01*
G01*
G37*
G36*
G01*
X185641000Y-103494500D02*
X184691000Y-103494500D01*
G75*
G02*
X184441000Y-103244500I0J250000D01*
G01*
X184441000Y-102744500D01*
G75*
G02*
X184691000Y-102494500I250000J0D01*
G01*
X185641000Y-102494500D01*
G75*
G02*
X185891000Y-102744500I0J-250000D01*
G01*
X185891000Y-103244500D01*
G75*
G02*
X185641000Y-103494500I-250000J0D01*
G01*
G37*
G36*
G01*
X160368000Y-94228500D02*
X159418000Y-94228500D01*
G75*
G02*
X159168000Y-93978500I0J250000D01*
G01*
X159168000Y-93478500D01*
G75*
G02*
X159418000Y-93228500I250000J0D01*
G01*
X160368000Y-93228500D01*
G75*
G02*
X160618000Y-93478500I0J-250000D01*
G01*
X160618000Y-93978500D01*
G75*
G02*
X160368000Y-94228500I-250000J0D01*
G01*
G37*
G36*
G01*
X160368000Y-96128500D02*
X159418000Y-96128500D01*
G75*
G02*
X159168000Y-95878500I0J250000D01*
G01*
X159168000Y-95378500D01*
G75*
G02*
X159418000Y-95128500I250000J0D01*
G01*
X160368000Y-95128500D01*
G75*
G02*
X160618000Y-95378500I0J-250000D01*
G01*
X160618000Y-95878500D01*
G75*
G02*
X160368000Y-96128500I-250000J0D01*
G01*
G37*
G36*
G01*
X169641500Y-105860000D02*
X170591500Y-105860000D01*
G75*
G02*
X170841500Y-106110000I0J-250000D01*
G01*
X170841500Y-106610000D01*
G75*
G02*
X170591500Y-106860000I-250000J0D01*
G01*
X169641500Y-106860000D01*
G75*
G02*
X169391500Y-106610000I0J250000D01*
G01*
X169391500Y-106110000D01*
G75*
G02*
X169641500Y-105860000I250000J0D01*
G01*
G37*
G36*
G01*
X169641500Y-103960000D02*
X170591500Y-103960000D01*
G75*
G02*
X170841500Y-104210000I0J-250000D01*
G01*
X170841500Y-104710000D01*
G75*
G02*
X170591500Y-104960000I-250000J0D01*
G01*
X169641500Y-104960000D01*
G75*
G02*
X169391500Y-104710000I0J250000D01*
G01*
X169391500Y-104210000D01*
G75*
G02*
X169641500Y-103960000I250000J0D01*
G01*
G37*
G36*
G01*
X111056000Y-121635500D02*
X111056000Y-122585500D01*
G75*
G02*
X110806000Y-122835500I-250000J0D01*
G01*
X110306000Y-122835500D01*
G75*
G02*
X110056000Y-122585500I0J250000D01*
G01*
X110056000Y-121635500D01*
G75*
G02*
X110306000Y-121385500I250000J0D01*
G01*
X110806000Y-121385500D01*
G75*
G02*
X111056000Y-121635500I0J-250000D01*
G01*
G37*
G36*
G01*
X112956000Y-121635500D02*
X112956000Y-122585500D01*
G75*
G02*
X112706000Y-122835500I-250000J0D01*
G01*
X112206000Y-122835500D01*
G75*
G02*
X111956000Y-122585500I0J250000D01*
G01*
X111956000Y-121635500D01*
G75*
G02*
X112206000Y-121385500I250000J0D01*
G01*
X112706000Y-121385500D01*
G75*
G02*
X112956000Y-121635500I0J-250000D01*
G01*
G37*
G36*
G01*
X104554000Y-120274500D02*
X105504000Y-120274500D01*
G75*
G02*
X105754000Y-120524500I0J-250000D01*
G01*
X105754000Y-121024500D01*
G75*
G02*
X105504000Y-121274500I-250000J0D01*
G01*
X104554000Y-121274500D01*
G75*
G02*
X104304000Y-121024500I0J250000D01*
G01*
X104304000Y-120524500D01*
G75*
G02*
X104554000Y-120274500I250000J0D01*
G01*
G37*
G36*
G01*
X104554000Y-118374500D02*
X105504000Y-118374500D01*
G75*
G02*
X105754000Y-118624500I0J-250000D01*
G01*
X105754000Y-119124500D01*
G75*
G02*
X105504000Y-119374500I-250000J0D01*
G01*
X104554000Y-119374500D01*
G75*
G02*
X104304000Y-119124500I0J250000D01*
G01*
X104304000Y-118624500D01*
G75*
G02*
X104554000Y-118374500I250000J0D01*
G01*
G37*
G36*
G01*
X102395000Y-117734500D02*
X103345000Y-117734500D01*
G75*
G02*
X103595000Y-117984500I0J-250000D01*
G01*
X103595000Y-118484500D01*
G75*
G02*
X103345000Y-118734500I-250000J0D01*
G01*
X102395000Y-118734500D01*
G75*
G02*
X102145000Y-118484500I0J250000D01*
G01*
X102145000Y-117984500D01*
G75*
G02*
X102395000Y-117734500I250000J0D01*
G01*
G37*
G36*
G01*
X102395000Y-115834500D02*
X103345000Y-115834500D01*
G75*
G02*
X103595000Y-116084500I0J-250000D01*
G01*
X103595000Y-116584500D01*
G75*
G02*
X103345000Y-116834500I-250000J0D01*
G01*
X102395000Y-116834500D01*
G75*
G02*
X102145000Y-116584500I0J250000D01*
G01*
X102145000Y-116084500D01*
G75*
G02*
X102395000Y-115834500I250000J0D01*
G01*
G37*
G36*
G01*
X112743000Y-99118000D02*
X111793000Y-99118000D01*
G75*
G02*
X111543000Y-98868000I0J250000D01*
G01*
X111543000Y-98368000D01*
G75*
G02*
X111793000Y-98118000I250000J0D01*
G01*
X112743000Y-98118000D01*
G75*
G02*
X112993000Y-98368000I0J-250000D01*
G01*
X112993000Y-98868000D01*
G75*
G02*
X112743000Y-99118000I-250000J0D01*
G01*
G37*
G36*
G01*
X112743000Y-101018000D02*
X111793000Y-101018000D01*
G75*
G02*
X111543000Y-100768000I0J250000D01*
G01*
X111543000Y-100268000D01*
G75*
G02*
X111793000Y-100018000I250000J0D01*
G01*
X112743000Y-100018000D01*
G75*
G02*
X112993000Y-100268000I0J-250000D01*
G01*
X112993000Y-100768000D01*
G75*
G02*
X112743000Y-101018000I-250000J0D01*
G01*
G37*
G36*
G01*
X110584000Y-99118000D02*
X109634000Y-99118000D01*
G75*
G02*
X109384000Y-98868000I0J250000D01*
G01*
X109384000Y-98368000D01*
G75*
G02*
X109634000Y-98118000I250000J0D01*
G01*
X110584000Y-98118000D01*
G75*
G02*
X110834000Y-98368000I0J-250000D01*
G01*
X110834000Y-98868000D01*
G75*
G02*
X110584000Y-99118000I-250000J0D01*
G01*
G37*
G36*
G01*
X110584000Y-101018000D02*
X109634000Y-101018000D01*
G75*
G02*
X109384000Y-100768000I0J250000D01*
G01*
X109384000Y-100268000D01*
G75*
G02*
X109634000Y-100018000I250000J0D01*
G01*
X110584000Y-100018000D01*
G75*
G02*
X110834000Y-100268000I0J-250000D01*
G01*
X110834000Y-100768000D01*
G75*
G02*
X110584000Y-101018000I-250000J0D01*
G01*
G37*
G36*
G01*
X107701500Y-71785500D02*
X107701500Y-70835500D01*
G75*
G02*
X107951500Y-70585500I250000J0D01*
G01*
X108451500Y-70585500D01*
G75*
G02*
X108701500Y-70835500I0J-250000D01*
G01*
X108701500Y-71785500D01*
G75*
G02*
X108451500Y-72035500I-250000J0D01*
G01*
X107951500Y-72035500D01*
G75*
G02*
X107701500Y-71785500I0J250000D01*
G01*
G37*
G36*
G01*
X105801500Y-71785500D02*
X105801500Y-70835500D01*
G75*
G02*
X106051500Y-70585500I250000J0D01*
G01*
X106551500Y-70585500D01*
G75*
G02*
X106801500Y-70835500I0J-250000D01*
G01*
X106801500Y-71785500D01*
G75*
G02*
X106551500Y-72035500I-250000J0D01*
G01*
X106051500Y-72035500D01*
G75*
G02*
X105801500Y-71785500I0J250000D01*
G01*
G37*
G36*
G01*
X122308600Y-79799600D02*
X123258600Y-79799600D01*
G75*
G02*
X123508600Y-80049600I0J-250000D01*
G01*
X123508600Y-80549600D01*
G75*
G02*
X123258600Y-80799600I-250000J0D01*
G01*
X122308600Y-80799600D01*
G75*
G02*
X122058600Y-80549600I0J250000D01*
G01*
X122058600Y-80049600D01*
G75*
G02*
X122308600Y-79799600I250000J0D01*
G01*
G37*
G36*
G01*
X122308600Y-77899600D02*
X123258600Y-77899600D01*
G75*
G02*
X123508600Y-78149600I0J-250000D01*
G01*
X123508600Y-78649600D01*
G75*
G02*
X123258600Y-78899600I-250000J0D01*
G01*
X122308600Y-78899600D01*
G75*
G02*
X122058600Y-78649600I0J250000D01*
G01*
X122058600Y-78149600D01*
G75*
G02*
X122308600Y-77899600I250000J0D01*
G01*
G37*
G36*
G01*
X107701500Y-73944500D02*
X107701500Y-72994500D01*
G75*
G02*
X107951500Y-72744500I250000J0D01*
G01*
X108451500Y-72744500D01*
G75*
G02*
X108701500Y-72994500I0J-250000D01*
G01*
X108701500Y-73944500D01*
G75*
G02*
X108451500Y-74194500I-250000J0D01*
G01*
X107951500Y-74194500D01*
G75*
G02*
X107701500Y-73944500I0J250000D01*
G01*
G37*
G36*
G01*
X105801500Y-73944500D02*
X105801500Y-72994500D01*
G75*
G02*
X106051500Y-72744500I250000J0D01*
G01*
X106551500Y-72744500D01*
G75*
G02*
X106801500Y-72994500I0J-250000D01*
G01*
X106801500Y-73944500D01*
G75*
G02*
X106551500Y-74194500I-250000J0D01*
G01*
X106051500Y-74194500D01*
G75*
G02*
X105801500Y-73944500I0J250000D01*
G01*
G37*
G36*
G01*
X120175000Y-79784400D02*
X121125000Y-79784400D01*
G75*
G02*
X121375000Y-80034400I0J-250000D01*
G01*
X121375000Y-80534400D01*
G75*
G02*
X121125000Y-80784400I-250000J0D01*
G01*
X120175000Y-80784400D01*
G75*
G02*
X119925000Y-80534400I0J250000D01*
G01*
X119925000Y-80034400D01*
G75*
G02*
X120175000Y-79784400I250000J0D01*
G01*
G37*
G36*
G01*
X120175000Y-77884400D02*
X121125000Y-77884400D01*
G75*
G02*
X121375000Y-78134400I0J-250000D01*
G01*
X121375000Y-78634400D01*
G75*
G02*
X121125000Y-78884400I-250000J0D01*
G01*
X120175000Y-78884400D01*
G75*
G02*
X119925000Y-78634400I0J250000D01*
G01*
X119925000Y-78134400D01*
G75*
G02*
X120175000Y-77884400I250000J0D01*
G01*
G37*
G36*
G01*
X110421000Y-82773500D02*
X110421000Y-83723500D01*
G75*
G02*
X110171000Y-83973500I-250000J0D01*
G01*
X109671000Y-83973500D01*
G75*
G02*
X109421000Y-83723500I0J250000D01*
G01*
X109421000Y-82773500D01*
G75*
G02*
X109671000Y-82523500I250000J0D01*
G01*
X110171000Y-82523500D01*
G75*
G02*
X110421000Y-82773500I0J-250000D01*
G01*
G37*
G36*
G01*
X112321000Y-82773500D02*
X112321000Y-83723500D01*
G75*
G02*
X112071000Y-83973500I-250000J0D01*
G01*
X111571000Y-83973500D01*
G75*
G02*
X111321000Y-83723500I0J250000D01*
G01*
X111321000Y-82773500D01*
G75*
G02*
X111571000Y-82523500I250000J0D01*
G01*
X112071000Y-82523500D01*
G75*
G02*
X112321000Y-82773500I0J-250000D01*
G01*
G37*
G36*
G01*
X107701500Y-83723500D02*
X107701500Y-82773500D01*
G75*
G02*
X107951500Y-82523500I250000J0D01*
G01*
X108451500Y-82523500D01*
G75*
G02*
X108701500Y-82773500I0J-250000D01*
G01*
X108701500Y-83723500D01*
G75*
G02*
X108451500Y-83973500I-250000J0D01*
G01*
X107951500Y-83973500D01*
G75*
G02*
X107701500Y-83723500I0J250000D01*
G01*
G37*
G36*
G01*
X105801500Y-83723500D02*
X105801500Y-82773500D01*
G75*
G02*
X106051500Y-82523500I250000J0D01*
G01*
X106551500Y-82523500D01*
G75*
G02*
X106801500Y-82773500I0J-250000D01*
G01*
X106801500Y-83723500D01*
G75*
G02*
X106551500Y-83973500I-250000J0D01*
G01*
X106051500Y-83973500D01*
G75*
G02*
X105801500Y-83723500I0J250000D01*
G01*
G37*
G36*
G01*
X110421000Y-84932500D02*
X110421000Y-85882500D01*
G75*
G02*
X110171000Y-86132500I-250000J0D01*
G01*
X109671000Y-86132500D01*
G75*
G02*
X109421000Y-85882500I0J250000D01*
G01*
X109421000Y-84932500D01*
G75*
G02*
X109671000Y-84682500I250000J0D01*
G01*
X110171000Y-84682500D01*
G75*
G02*
X110421000Y-84932500I0J-250000D01*
G01*
G37*
G36*
G01*
X112321000Y-84932500D02*
X112321000Y-85882500D01*
G75*
G02*
X112071000Y-86132500I-250000J0D01*
G01*
X111571000Y-86132500D01*
G75*
G02*
X111321000Y-85882500I0J250000D01*
G01*
X111321000Y-84932500D01*
G75*
G02*
X111571000Y-84682500I250000J0D01*
G01*
X112071000Y-84682500D01*
G75*
G02*
X112321000Y-84932500I0J-250000D01*
G01*
G37*
G36*
G01*
X107701500Y-85895200D02*
X107701500Y-84945200D01*
G75*
G02*
X107951500Y-84695200I250000J0D01*
G01*
X108451500Y-84695200D01*
G75*
G02*
X108701500Y-84945200I0J-250000D01*
G01*
X108701500Y-85895200D01*
G75*
G02*
X108451500Y-86145200I-250000J0D01*
G01*
X107951500Y-86145200D01*
G75*
G02*
X107701500Y-85895200I0J250000D01*
G01*
G37*
G36*
G01*
X105801500Y-85895200D02*
X105801500Y-84945200D01*
G75*
G02*
X106051500Y-84695200I250000J0D01*
G01*
X106551500Y-84695200D01*
G75*
G02*
X106801500Y-84945200I0J-250000D01*
G01*
X106801500Y-85895200D01*
G75*
G02*
X106551500Y-86145200I-250000J0D01*
G01*
X106051500Y-86145200D01*
G75*
G02*
X105801500Y-85895200I0J250000D01*
G01*
G37*
D18*
X185251500Y-79311500D03*
X156251500Y-79311500D03*
M02*
