M48
; DRILL file {KiCad (5.1.12-1-10_14)} date 2022 January 30, Sunday 16:39:31
; FORMAT={-:-/ absolute / metric / decimal}
; #@! TF.CreationDate,2022-01-30T16:39:31+01:00
; #@! TF.GenerationSoftware,Kicad,Pcbnew,(5.1.12-1-10_14)
; #@! TF.FileFunction,Plated,1,2,PTH
FMAT,2
METRIC
T1C0.305
T2C0.500
T3C0.800
T4C1.000
T5C1.100
T6C1.200
T7C3.200
%
G90
G05
T1
X88.9Y-109.22
X93.98Y-109.22
X96.596Y-89.916
X96.952Y-71.298
X99.06Y-109.22
X102.87Y-119.329
X104.14Y-109.22
X104.851Y-78.359
X105.029Y-121.869
X107.01Y-88.9
X107.518Y-120.98
X107.721Y-78.359
X109.093Y-83.236
X109.093Y-85.42
X109.22Y-109.22
X109.245Y-71.298
X109.245Y-73.457
X110.109Y-97.739
X110.541Y-123.444
X110.719Y-95.174
X111.836Y-74.828
X112.268Y-97.739
X113.386Y-76.073
X114.3Y-109.22
X118.364Y-122.11
X119.38Y-109.22
X120.65Y-81.28
X122.784Y-81.28
X123.507Y-122.11
X124.46Y-109.22
X125.12Y-131.115
X125.425Y-128.778
X127.66Y-82.296
X128.753Y-71.425
X129.54Y-109.22
X131.394Y-77.749
X131.851Y-91.059
X131.851Y-92.329
X133.401Y-75.743
X134.62Y-109.22
X136.296Y-82.626
X139.7Y-109.22
X139.852Y-82.626
X140.792Y-79.629
X142.164Y-98.501
X144.247Y-92.329
X144.297Y-80.899
X144.78Y-109.22
X144.958Y-97.968
X144.958Y-103.53
X149.86Y-109.22
X151.257Y-103.556
X152.679Y-98.857
X154.229Y-79.324
X154.94Y-109.22
X156.007Y-97.358
X157.48Y-111.76
X157.48Y-116.84
X157.48Y-121.92
X157.48Y-127.0
X157.48Y-132.08
X158.09Y-97.358
X159.41Y-99.39
X159.893Y-92.659
X162.23Y-94.463
X163.17Y-101.93
X163.17Y-109.601
X165.811Y-101.879
X165.837Y-110.388
X167.335Y-101.879
X167.335Y-111.354
X168.605Y-104.521
X169.418Y-92.964
X170.104Y-107.417
X177.495Y-100.051
X177.495Y-111.1
X179.045Y-88.748
X179.045Y-104.419
X180.111Y-98.171
X182.524Y-109.931
X183.642Y-101.092
X183.693Y-96.368
X183.769Y-106.045
X183.769Y-115.646
X187.452Y-83.947
X188.404Y-90.361
X188.404Y-93.091
X188.417Y-76.378
X195.859Y-90.195
T2
X89.675Y-73.025
X89.675Y-130.175
X90.378Y-71.328
X90.378Y-74.722
X90.378Y-128.478
X90.378Y-131.872
X92.075Y-70.625
X92.075Y-75.425
X92.075Y-127.775
X92.075Y-132.575
X93.772Y-71.328
X93.772Y-74.722
X93.772Y-128.478
X93.772Y-131.872
X94.475Y-73.025
X94.475Y-130.175
X190.741Y-80.518
X191.275Y-73.025
X191.275Y-130.175
X191.978Y-71.328
X191.978Y-74.722
X191.978Y-128.478
X191.978Y-131.872
X192.441Y-80.518
X193.675Y-70.625
X193.675Y-75.425
X193.675Y-127.775
X193.675Y-132.575
X195.372Y-71.328
X195.372Y-74.722
X195.372Y-128.478
X195.372Y-131.872
X196.075Y-73.025
X196.075Y-130.175
T3
X90.043Y-84.614
X90.043Y-86.614
X90.043Y-88.614
X96.444Y-116.332
X96.444Y-119.832
X120.968Y-97.02
X120.968Y-100.52
X128.143Y-125.857
X128.143Y-128.397
X128.143Y-130.937
X150.622Y-118.872
X150.622Y-122.372
T4
X139.065Y-71.12
X139.065Y-73.66
X141.605Y-71.12
X141.605Y-73.66
X141.605Y-129.54
X141.605Y-132.08
X144.145Y-71.12
X144.145Y-73.66
X144.145Y-129.54
X144.145Y-132.08
X146.685Y-71.12
X146.685Y-73.66
X169.989Y-128.333
X169.989Y-130.874
X172.529Y-128.333
X172.529Y-130.874
X175.07Y-128.333
X175.07Y-130.874
X177.609Y-128.333
X177.609Y-130.874
X180.149Y-128.333
X180.149Y-130.874
T5
X118.237Y-126.047
X118.237Y-128.588
X118.237Y-131.127
X187.96Y-97.79
X187.96Y-102.29
X188.023Y-107.378
X188.023Y-111.878
X188.023Y-116.967
X188.023Y-121.467
X194.46Y-97.79
X194.46Y-102.29
X194.523Y-107.378
X194.523Y-111.878
X194.523Y-116.967
X194.523Y-121.467
T6
X128.905Y-118.872
X144.145Y-118.872
T7
X92.075Y-73.025
X92.075Y-130.175
X193.675Y-73.025
X193.675Y-130.175
T3
X90.443Y-82.464G85X89.643Y-82.464
G05
X90.443Y-90.764G85X89.643Y-90.764
G05
T4
X95.6Y-96.282G85X95.6Y-98.282
G05
X97.6Y-101.982G85X99.6Y-101.982
G05
X101.6Y-96.282G85X101.6Y-98.282
G05
T0
M30
